<svg xmlns="http://www.w3.org/2000/svg" viewBox="0 0 1204.53 327.32"><defs><style>.cls-1{fill:#fff;}</style></defs><g id="Layer_2" data-name="Layer 2"><g id="Layer_1-2" data-name="Layer 1"><path class="cls-1" d="M257.08,300.08c-30.86,2.75-41.41-20.27-54.95-42.69-4.48-6.93-6.73-10.4-11.25-17.33q-52.09,5.58-104,12.4-6.78,27-13.33,54c-1.35,7.22-5.83,12.86-13.28,13.92Q37.59,323.66,15,327.12C7.52,328.27,1,324.27,0,317.88q31.4-137,69.36-272.34A18.42,18.42,0,0,1,85.16,32q27.77-3.46,55.58-6.63a18.44,18.44,0,0,1,18.54,9.47q56.55,99.36,109.15,200.86c4.31,9.12,9.61,15.79,14.42,17.76,4.13,1.7,7.47,5.39,7.82,9.85l1.39,17.36C292.21,295.51,267.77,299.13,257.08,300.08Zm-156-103.65q31.68-4,63.41-7.55-20.58-38.81-41.66-77.33Q111.69,153.93,101.08,196.43Z"/><path class="cls-1" d="M403.35,4.47c63.66-3.47,127,18.14,128.13,91,1.12,70.67-56.88,95.29-119.25,97.8q-23.37,1.09-46.72,2.49l4.84,81.93c.38,6.45-5.09,11.76-12.59,12.23q-21.36,1.36-42.69,2.92c-7.5.55-13.65-4-14.15-10.41L280.85,23.56c-.5-6.45,5.31-11.89,13.37-12.49Q348.75,7.12,403.35,4.47Zm51.13,93c-.92-25.69-24.41-40.78-48.63-39.82q-24.19,1.14-48.36,2.57,2.43,41.22,4.87,82.43,23.68-1.4,47.37-2.51C433.65,138.87,455.39,123,454.48,97.45Z"/><path class="cls-1" d="M669.05.64C732.79,1.33,794.57,27,791,99.81c-3.49,70.59-63,91.38-125.37,89.82q-23.39-.44-46.77-.57l-.51,82.08c0,6.47-5.85,11.4-13.36,11.38q-21.37,0-42.76.13c-7.51.06-13.35-4.84-13.43-11.3L545.62,11.7C545.55,5.24,551.69.18,559.77.12Q614.42-.27,669.05.64Zm45,96.12c.76-25.7-21.69-42.29-45.92-42.9q-24.21-.45-48.41-.59l-.51,82.57q23.7.15,47.41.58C690.52,136.73,713.25,122.28,714,96.76Z"/><path class="cls-1" d="M1005,123.67q-8.7,83.87-17.42,167.73c-.66,6.43-6.93,10.78-14.42,10q-15-1.5-29.94-2.88c-7.49-.69-11.29-3.53-16.06-8.94-3.38-3.89-5.07-5.84-8.47-9.72-18.2,9.81-36.93,15.86-57.5,14.48-55.59-3.74-79.82-51.23-77.73-102.29C786.38,120.55,850.51,85,915.85,91c28,2.57,54.18,9.5,80.76,19.33C1002.46,112.9,1005.57,118.23,1005,123.67Zm-74.89,22.4c-37.21-1.69-68.31,9.72-71,50.92-1.57,24.4,6.05,44.78,32.09,46.23,11.29.62,22.45-3.37,31.48-10.42Q926.42,189.43,930.11,146.07Z"/><path class="cls-1" d="M1174.62,270.23c6.4,1,10.51,5.14,11.49,10.33q2.37,15.21,4.68,30.44c-1,6.39-2.37,11.2-11.43,12.81-15.58,1.61-30.7,1.82-46.23-.38-27.71-3.94-57.58-13.77-72.58-39.28-13.88-23.62-12.73-54.08-9.46-80.3l5-42.48q-14.34-1.69-28.69-3.28c-7.77-.86-13.22-6.44-12.53-12.87q1.62-15.09,3.23-30.17c.68-6.43,7.27-10.73,15.15-9.86q14.54,1.61,29.07,3.32,9.54-33.95,19.24-67.84c2-6.27,7.54-10.62,15.57-9.62q17.28,2.18,34.56,4.44c8,1.07,13.51,6.84,12.64,13.25l-9.42,69q28.71,4,57.36,8.26c7.85,1.18,13.12,7,12.13,13.43l-4.65,30c-1,6.4-7.7,10.38-15.44,9.21q-28.27-4.23-56.6-8.14-3.54,25.88-7.07,51.75c-3.37,22,3.92,44.32,29.11,47.31C1157.71,270.49,1166.48,269,1174.62,270.23Z"/></g></g></svg>