<svg xmlns="http://www.w3.org/2000/svg" viewBox="0 0 338.35 338.35"><defs><style>.cls-1{fill:#feb61c;}.cls-2{fill:#f7b231;}.cls-3{fill:#00563f;}.cls-4{fill:#8c1436;}.cls-5{fill:#8d1436;}.cls-6{fill:#8d1536;}.cls-7{fill:#8e1536;}.cls-8{fill:#8e1636;}.cls-9{fill:#8e1635;}.cls-10{fill:#8e1735;}.cls-11{fill:#8d1935;}.cls-12{fill:#8f1735;}.cls-13{fill:#901935;}.cls-14{fill:#911a35;}.cls-15{fill:#8f1835;}.cls-16{fill:#901a35;}.cls-17{fill:#921c34;}.cls-18{fill:#931e34;}.cls-19{fill:#9c2b32;}.cls-20{fill:#931d34;}.cls-21{fill:#962233;}.cls-22{fill:#9a2733;}.cls-23{fill:#992733;}.cls-24{fill:#941f34;}.cls-25{fill:#992633;}.cls-26{fill:#9c2a32;}.cls-27{fill:#9a2833;}.cls-28{fill:#fdb51c;}.cls-29{fill:#fdb41c;}.cls-30{fill:#fcb31c;}.cls-31{fill:#fbb11d;}.cls-32{fill:#f8ad1d;}.cls-33{fill:#fbb21d;}.cls-34{fill:#f7b21d;}.cls-35{fill:#efac1e;}.cls-36{fill:#f8b21d;}.cls-37{fill:#f9b31d;}.cls-38{fill:#e9a81f;}.cls-39{fill:#fab41c;}.cls-40{fill:#f8ae1d;}.cls-41{fill:#fbb31c;}.cls-42{fill:#fcb41c;}.cls-43{fill:#f7ac1e;}.cls-44{fill:#f7ad1d;}.cls-45{fill:#8d1636;}.cls-46{fill:#8d1835;}.cls-47{fill:#8d1735;}.cls-48{fill:#8e1835;}.cls-49{fill:#8f1b35;}.cls-50{fill:#8e1935;}.cls-51{fill:#8f1c35;}.cls-52{fill:#8f1d35;}.cls-53{fill:#922933;}.cls-54{fill:#912334;}.cls-55{fill:#973432;}.cls-56{fill:#9b4030;}.cls-57{fill:#8c1536;}.cls-58{fill:#8c1636;}.cls-59{fill:#8c1736;}.cls-60{fill:#8c1835;}.cls-61{fill:#8c1935;}.cls-62{fill:#8c1a35;}.cls-63{fill:#8c1d35;}.cls-64{fill:#8a1f35;}.cls-65{fill:#8c1e35;}.cls-66{fill:#8c2035;}.cls-67{fill:#8b1c35;}.cls-68{fill:#8f2734;}.cls-69{fill:#8c2335;}.cls-70{fill:#8d2334;}.cls-71{fill:#8e2434;}.cls-72{fill:#901835;}.cls-73{fill:#921c35;}.cls-74{fill:#911b35;}.cls-75{fill:#9b2932;}.cls-76{fill:#921b35;}.cls-77{fill:#972333;}.cls-78{fill:#9f2f31;}.cls-79{fill:#a03031;}.cls-80{fill:#a23331;}.cls-81{fill:#b1492d;}.cls-82{fill:#a13131;}.cls-83{fill:#ac412f;}.cls-84{fill:#972234;}.cls-85{fill:#952134;}.cls-86{fill:#962134;}.cls-87{fill:#fbb41c;}.cls-88{fill:#fcb51c;}.cls-89{fill:#eca91f;}</style></defs><g id="Layer_2" data-name="Layer 2"><g id="Layer_1-2" data-name="Layer 1"><path class="cls-1" d="M321.8,56.87c.57-.13,1.14-.29,1.71-.41,1.15-.24,1.4,0,1.31,1.2-.18,2.16-1.57,3.54-3.2,4.7-2.27,1.6-5,2.25-7.49,3.34-1.22.53-2.47,1-3.68,1.54-.43.2-1.29.47-.34,1.19.24.18.07.5,0,.77a11,11,0,0,1-1.32,3.12,1.05,1.05,0,0,0,.06,1.44,167.59,167.59,0,0,1,22,45.41,170.09,170.09,0,0,1,6.35,30.06,166,166,0,0,1,1.07,26.18A169.13,169.13,0,0,1,190.16,337a162.49,162.49,0,0,1-27.36,1.17c-35.63-1.55-67.8-12.92-96.18-34.58a167.47,167.47,0,0,1-55.85-75A169.83,169.83,0,0,1,.13,162.9,167.73,167.73,0,0,1,26,79c1.08-1.73,2.2-3.43,3.35-5.12.37-.54.46-.86-.11-1.36a6.81,6.81,0,0,1-2.64-5.17,1.4,1.4,0,0,0-1-1.33,24.24,24.24,0,0,1-8.72-6.63,3.23,3.23,0,0,1-.38-.45c-.46-.72-1.09-1.47-.69-2.37s1.38-.51,2.11-.5c4.12,0,8,1.36,12,2.24,2.82.63,5.63,1.35,8.42,2.11a1.41,1.41,0,0,0,1.69-.55A168.6,168.6,0,0,1,119.19,7.55,169.2,169.2,0,0,1,259.41,26.1a169.06,169.06,0,0,1,33,27.25c2.15,2.29,4.19,4.67,6.23,7.06a1.58,1.58,0,0,0,1.83.57c4.72-1.12,9.48-2.08,14.26-2.92.35-.06.71-.06,1.06-.09s.65-.25.84.2c-.33.49-.87.49-1.36.58-5.61,1-11.13,2.4-16.73,3.41a2.09,2.09,0,0,0-1.76,1.2,5.77,5.77,0,0,1-3.41,3,39.36,39.36,0,0,1-10.56,2.76c-6.95,1-13.9,2-20.56,4.42-1.11.39-2.19.86-3.27,1.34a4.78,4.78,0,0,0-2.12,1.88c.56.28,1,0,1.41-.09,7.07-1.64,14.08-3.54,21.17-5.13a84.57,84.57,0,0,1,11.63-1.65,3.27,3.27,0,0,0,1.82-.41c1.56-1.3,3.45-1.09,5.26-1.23a4.39,4.39,0,0,0,2.35-.6,2.74,2.74,0,0,1,1.81-.36c2.74.12,5.26-.8,7.78-1.67.34-.12.7-.27.61-.73-.15-.78.38-.89.9-.87,3.48.13,6.26-1.85,9.28-3.08a4.45,4.45,0,0,0,1.65-1.31c1.11-1.31.93-2-.67-2.48A.23.23,0,0,1,321.8,56.87Z"/><path class="cls-2" d="M321.8,56.87l0,.25c-.06.37-.36.49-.65.58a19.51,19.51,0,0,1-4.08.73.5.5,0,0,1-.49-.25c-.22-.23-.52-.15-.79-.21C317.79,57.46,319.8,57.18,321.8,56.87Z"/><path class="cls-3" d="M335.05,169.27c-.59,42.81-14.84,80.37-43.8,112-23.76,26-53.07,42.57-87.48,50.08a158,158,0,0,1-40.22,3.52c-40.73-1.67-76.34-16.08-106.43-43.58C31.41,267.82,14.87,238.87,7.21,204.9a160.75,160.75,0,0,1-3.77-41.49A164.84,164.84,0,0,1,31.92,76a1.46,1.46,0,0,1,2-.71c2.42.77,4.92,1.32,7.38,2a13.54,13.54,0,0,1,6.62,4,23.68,23.68,0,0,0,17.35,8A1.64,1.64,0,0,1,67,90.49c2,4.5,5.27,7.22,10.21,7.81.64.08.73.34.64.92A4.12,4.12,0,0,0,79.13,103c.65.61.63,1,.12,1.69a109.06,109.06,0,0,0-15.89,32A110.73,110.73,0,0,0,145,277.21c59.59,13.34,119-24.08,132.13-83.83,7.53-34.17.08-65.33-21.3-93.1-.36-.47-.84-.78.07-1.29,10.47-5.78,20.8-11.8,31.43-17.27a70.85,70.85,0,0,1,15-5.65c.5-.12,1-.27,1.47-.43,1.88-.63,1.88-.63,3,1a164.43,164.43,0,0,1,25.56,62.8A167,167,0,0,1,335.05,169.27Z"/><path class="cls-4" d="M116.9,165.22a34.36,34.36,0,0,1,3.44,3.38A16.36,16.36,0,0,1,123.79,179c-.1,22.06-.18,44.12-.06,66.17a26.2,26.2,0,0,0,.34,4.93c.88,4.38,3.83,6.72,8,7.82a14.15,14.15,0,0,0,3.84.49c6,0,12.09.07,18.13,0s10.12,2.73,12.84,7.89a24.83,24.83,0,0,1,2.21,6.49c.24-1.4.35-2.63.67-3.8,1.5-5.66,5.52-8.62,10.93-10a17.26,17.26,0,0,1,4.42-.54c5.73,0,11.47.14,17.19,0,5.25-.15,9.37-3.2,10.58-8.1a12.44,12.44,0,0,0,.34-2.91c0-22.89.07-45.77-.07-68.65,0-5.11,2.12-8.86,5.7-12.09.44-.39.89-.76,1.41-1.19a1.84,1.84,0,0,0-1.27-.19c-8.55,0-17.11,0-25.67,0a1.26,1.26,0,0,1-1.5-1.12c-1.72-6-3.51-11.87-5.26-17.8a20,20,0,0,1-.59-2.52,2.29,2.29,0,0,1,1.11-2.62,2.86,2.86,0,0,1,3.31.15,3.84,3.84,0,0,1,.83.83,7.22,7.22,0,0,0,6.12,2.68c1.52,0,1.93-.56,1.72-2.09-.17-1.27.15-1.62,1.39-1.34a29.77,29.77,0,0,1,2.92.89,5.33,5.33,0,0,0,3.46,0,1.6,1.6,0,0,0,1.2-2.09,11.22,11.22,0,0,0-.33-1.13c-.26-.74,0-1,.77-1a13.36,13.36,0,0,0,3.63-.19,12.27,12.27,0,0,0,1.46-.44c2.42-1,2.84-2.36,1.41-4.57-.63-1-.47-1.33.66-1.36a24.07,24.07,0,0,1,3.06.1c1.86.18,3.28-.9,4.63-2,.61-.48.09-1.15-.08-1.74s-.91-1.23-.38-1.82,1.27,0,1.89.12a7.87,7.87,0,0,0,7.42-3.12,1.23,1.23,0,0,0-.12-1.42c-.52-.82-1-1.65-1.63-2.64,2.6.62,4.2-.62,5.5-2.38,1.05-1.42,2.06-2.87,3-4.38a19.56,19.56,0,0,1,7-7.19c1.77-1,3.5-2.11,5.18-3.26.88-.6,1.38-.45,2,.35a109.09,109.09,0,0,1,15.14,25.52,105.81,105.81,0,0,1,7.43,27.49,107.43,107.43,0,0,1,.36,24.64,105.36,105.36,0,0,1-17,48.18,106.58,106.58,0,0,1-38.06,35.23,102,102,0,0,1-36,12.1c-30.86,4.13-58.73-3.22-83.07-22.74-18.73-15-30.9-34.4-36.77-57.69a104.89,104.89,0,0,1-3.07-23.61A106.88,106.88,0,0,1,82.14,106.4a1.18,1.18,0,0,1,1.61-.54c3.83,1.3,7.85,1.83,11.77,2.77,2.13.51,4.28,1,6.42,1.4.75.15.83.4.54,1.1a4.66,4.66,0,0,0,3.13,6.4c1.27.38,2.58.6,3.89.89a15.39,15.39,0,0,0-.59,2,4.66,4.66,0,0,0,2.81,5.17,18.48,18.48,0,0,0,4.11,1.24c-.13.23-.24.43-.36.61-1.71,2.68-1.21,5.19,1.64,6.62a41.14,41.14,0,0,0,9.83,3.84,6,6,0,0,0,3.91-.33c.63-.3,1.14-.29,1.53.32a1.38,1.38,0,0,0,2.11.44,1.37,1.37,0,0,1,.9-.2c.53.08.79.29.57.85,0,.07,0,.15-.07.22-.38.85-.78,1.87,0,2.53a3.55,3.55,0,0,0,3.29.81,2.55,2.55,0,0,1,2,.19,6.31,6.31,0,0,0,4.49.13,20.18,20.18,0,0,0,5-2.24c2.26-1.25,3.89-.34,3.6,2.26a54,54,0,0,1-2.64,12.74,46.77,46.77,0,0,1-4.2,8.66,1.74,1.74,0,0,1-1.69.94c-9.38,0-18.76,0-28.14,0Z"/><path class="cls-3" d="M44.66,59.65C45.85,58.34,46.9,57.13,48,56c24-25.33,53-41.82,87.13-49.1a159,159,0,0,1,39.52-3.43Q232.64,5.69,277,43.2a161.74,161.74,0,0,1,17.29,17.14c.24.28.73.52.56.93s-.63.22-1,.28c-11.88,1.94-23.74,4-35.63,5.78-9.26,1.43-18.47,3.08-27.69,4.72-.7.13-1.4.2-2.1.28-.23,0-.58.11-.69,0-1.12-1.24-2.41-.4-3.6-.26a4.37,4.37,0,0,1-2.7-.44,107.46,107.46,0,0,0-39.33-12.38A109.89,109.89,0,0,0,118.1,71a2.84,2.84,0,0,1-2.12.32c-1.86-.44-3.76-.74-5.65-1.12-.69-.14-1.21,0-1.18.81,0,.64-.32.55-.74.5a11.24,11.24,0,0,1-2.82-.79c-6.21-2.36-12.74-3.26-19.26-4.19C82.53,66,78.75,65.24,74.91,65c-.61,0-1-.11-1,.73s-.68.65-1.15.53c-7.9-2.19-16.08-3.1-23.92-5.54C47.49,60.29,46.15,60,44.66,59.65Z"/><path class="cls-3" d="M127.88,252.21a7.19,7.19,0,0,1-1.33-4.15c-.37-16.44-.23-32.88-.11-49.33,0-6.91.13-13.81.07-20.72a18.57,18.57,0,0,0-3.12-9.88,1.56,1.56,0,0,1,1-.15c8.8,0,17.59,0,26.38,0a2.62,2.62,0,0,1,2,.68,1.46,1.46,0,0,0,2.19.19c.61-.49,1.05-.17,1.49.32,1.18,1.33,1.63,1.34,2.83.07.74-.78,1.5-1.19,2.58-.52a3.37,3.37,0,0,0,2.52.11,35.56,35.56,0,0,1,7.7-.85,3,3,0,0,1,1.86.58,1.53,1.53,0,0,0,1.95.14c1.12-.65,2.17-1.07,3.49-.3.64.38,1.56,0,2.3-.17a8.3,8.3,0,0,1,2.31-.24H213.6c0,.5-.31.73-.49,1a15.59,15.59,0,0,0-2.72,9q0,34.85,0,69.71a7.93,7.93,0,0,1-2.21,5.57l-39-58.65Z"/><path class="cls-4" d="M123.25,72.42a102.65,102.65,0,0,1,46-10.55A106.11,106.11,0,0,1,216.86,73c-2.15.44-4.06.77-6,1.22a26.52,26.52,0,0,0-10.74,4.85,14.13,14.13,0,0,0-5.35,10.33c-.32,4,0,7.93-.22,11.89a10.43,10.43,0,0,1-2.09,6.36,7.22,7.22,0,0,1-4.38,2.56c-2.7.49-4.92-1.23-5.52-4.21a45.2,45.2,0,0,1-.62-6.67,128.92,128.92,0,0,1,.16-13.76,1.61,1.61,0,0,1,.95-1.38c1.54-.85,3.07-1.72,4.7-2.64a1.87,1.87,0,0,0-1.33-.55A12.87,12.87,0,0,1,180,78.58a25.86,25.86,0,0,0-11.82-4.29,3.78,3.78,0,0,0-2.91.63,4,4,0,0,1-2.27.44,10.47,10.47,0,0,0-9.37,8.8c0,.23-.06.45-.11.8a7.87,7.87,0,0,1,2.69-1.09,6.62,6.62,0,0,1,6.42,5.49,12,12,0,0,1-1,7.34c-2,4.47-4.21,8.85-6.57,13.14a6.4,6.4,0,0,1-.88,1.25,2.92,2.92,0,0,1-4.7.09,11.51,11.51,0,0,1-2.88-6.45c-.69-4.55-.54-9.15-.71-13.73a25.71,25.71,0,0,0-2.09-9.7c-2.05-4.55-5.28-7.36-10.45-7.75-2.61-.2-5.19-.77-7.79-1.11A17.33,17.33,0,0,0,123.25,72.42Z"/><path class="cls-4" d="M113.55,80.14c3.43-.76,6.28,1.13,9.62,1.88l-1.69,1.54c.08.09.14.24.22.25a7.79,7.79,0,0,1,4.13,2.31,2.77,2.77,0,0,0,2.31.87,5.07,5.07,0,0,1,3.56,1.3,19.16,19.16,0,0,0,5.83,3c.67.2,1.58.53,1.87-.21s-.46-1.27-1.13-1.59c-1-.46-1.91-.91-2.88-1.31a4,4,0,0,1-2.47-2.8,5.09,5.09,0,0,0-3.29-3.7c-2.71-1.08-5.62-1.33-8.43-2-.56-.13-1.12-.32-1.68-.5-.25-.09-.62-.24-.48-.55.45-1-.32-1-.9-1.1a9.14,9.14,0,0,1-6.68-4.1c-.1-.17-.21-.34-.3-.51-.23-.45-.61-1-.28-1.42s1-.3,1.52-.2c3.8.75,7.51,1.88,11.27,2.79a17.94,17.94,0,0,0,4.08.41A17.52,17.52,0,0,1,141.41,81a8.91,8.91,0,0,1,2.08,5.51c.26,5.87.41,11.75.74,17.62a15.09,15.09,0,0,0,2.55,7.6,5.63,5.63,0,0,0,7.77,2.1l.83-.41c.28,1.11,0,2.21.34,3.25a6.21,6.21,0,0,0,1.27,2.6,2.06,2.06,0,0,0,1.2.7,1,1,0,0,0,1-.32c.28-.32,0-.61-.14-.85a12.43,12.43,0,0,1-1.6-3.77,12.1,12.1,0,0,1,1.07-8.1c1.57-3.24,3.11-6.49,4.66-9.74A19.15,19.15,0,0,0,164.67,92a5.8,5.8,0,0,0-1.88-5.1c-1-1-2-2-3.07-3.09-.21-.21-.54-.42-.35-.79s.53-.28.84-.26a7.25,7.25,0,0,1,4.41,1.71c.41.35.86.67,1.31,1a.77.77,0,0,0,1,.07c.37-.3.11-.66-.09-.93a6.28,6.28,0,0,0-4.8-2.81,26,26,0,0,0-6.38.83s-.11-.12-.1-.18c.44-2.57,4-5.47,6.53-5.34A1.48,1.48,0,0,0,163,77c1.43-.92,2.67-.39,3.9.46a19.39,19.39,0,0,0,2,1.25c1.1.57,2,1,2,2.63a1.79,1.79,0,0,0,2.72,1.44c1-.45,1.32-.09,1.72.69a14.08,14.08,0,0,1,1.29,4.85A42.3,42.3,0,0,1,177,93.5a4.08,4.08,0,0,1-1.28,3,3.55,3.55,0,0,0-1,4.25,30.14,30.14,0,0,1,1.75,8.47,7.36,7.36,0,0,0,1,3.22,3.2,3.2,0,0,0,4,1.72,4.75,4.75,0,0,1,2-.09c.68.12,1.18.55,1,1.32s-.76.95-1.46.64a2.6,2.6,0,0,0-3.12.56c.86.34,1.66.63,2.43,1,.34.15,1,0,.87.71s-.62.76-1.17.75c-.9,0-1.8-.09-2.7-.11a3,3,0,0,0-1.45.14,3,3,0,0,0,2,1.32c.29.09.67.08.68.5s-.29.59-.66.71a2.29,2.29,0,0,1-1.27.08,1.18,1.18,0,0,0-1.17.38c-.22.22-.46.5-.35.83s.48.35.8.37a7.06,7.06,0,0,0,4.86-1.38,4.23,4.23,0,0,1,1.44-1c.23,2.07-.94,3.61-3.14,4.16a15.46,15.46,0,0,0-4.14,1.25,3.45,3.45,0,0,0,4.75,1.25,5.81,5.81,0,0,0,.86-.61c.34-.25.65-.69,1.1-.27s.26.79,0,1.19a6.42,6.42,0,0,1-4.43,3.56,25.54,25.54,0,0,1-3.48.48,3.89,3.89,0,0,0-3.6,2.37c-.71,1.61-3.55,2.3-5,1.31a2,2,0,0,1-.6-2.69c.27-.52.57-1,.84-1.55s.22-1-.33-1.29-.89,0-1.15.53a9.61,9.61,0,0,0-.79,2.07c-.4,1.42-1,1.69-2.35,1.09a23.94,23.94,0,0,0-3.49-1.39,7.75,7.75,0,0,0-4.5,0c-.47.15-1.15.34-1.39-.11s.2-1,.56-1.34a3.26,3.26,0,0,1,2.51-1.08c.36,0,.84.16,1-.38s-.15-.8-.5-1.1a2.84,2.84,0,0,0-3.37-.44c-.52.26-1.06.49-1.6.74a3.57,3.57,0,0,1,3.25-3.73c.23,0,.47,0,.7,0,.48-.06,1.18.27,1.38-.3s-.22-1.09-.6-1.56a4.15,4.15,0,0,0-3.23-1.43,18.05,18.05,0,0,1-11.58-5.06c-.6-.56-1.05-1.15-.41-1.91s1.29-.45,2-.1c.35.17.73,1.08,1.17.26a1.19,1.19,0,0,0-.64-1.67,5.09,5.09,0,0,0-2.06-.41,4.57,4.57,0,0,1-3.38-1.91c-1.28-1.68-2.51-3.4-3.75-5.12-.17-.23-.52-.47-.27-.8s.63-.23,1,0c.51.29,1,.58,1.53.88a1.52,1.52,0,0,0,1.89,0,13.7,13.7,0,0,1-3.3-7.51c0-.33-.25-.76.15-1s.68.13.94.35a8.94,8.94,0,0,1,.68.8c.22.26.48.73.8.54a1,1,0,0,0,.46-1.22,3,3,0,0,0-.44-.82,47.91,47.91,0,0,0-3.33-4.56A8.34,8.34,0,0,0,130,89.57a5.84,5.84,0,0,1-3.55-1.89A1.81,1.81,0,0,0,124.8,87c-2.23.32-3.74-.72-4.93-2.48A9.78,9.78,0,0,0,113.55,80.14Z"/><path class="cls-4" d="M168.74,264a21.46,21.46,0,0,0-3.55-4.41,15.37,15.37,0,0,0-10.44-3.93c-6.43,0-12.87,0-19.3,0a12.47,12.47,0,0,1-4-.77c-.82-.27-.88-.58-.36-1.3q8.09-11.2,16.13-22.45l21.12-29.44c.8-1.11.8-1.12,1.57,0q17.37,26.16,34.78,52.31c.62.92.41,1.18-.57,1.38a11.43,11.43,0,0,1-2.1.22c-5.73,0-11.46-.11-17.18,0-5.48.14-10.39,1.87-14.24,6C169.92,262.34,169.38,263.15,168.74,264Z"/><path class="cls-4" d="M186.81,118.45c.56-1.07,1.06-2.18,1.69-3.2.52-.85.58-1.49-.37-2-.21-.11-.4-.25-.54-.34a1.05,1.05,0,0,1,1-.64c4.22-.82,6.62-4.32,7.2-8.17.63-4.18.66-8.43,1-12.64.14-1.87.26-3.75.42-5.62a6.07,6.07,0,0,1,2.87-4.5A39.64,39.64,0,0,1,215.78,75a63.85,63.85,0,0,0,9.48-2.18c.27-.09.63-.39.84,0a1.29,1.29,0,0,1,0,.91,2.07,2.07,0,0,1-.92,1.18c-2.22,1.49-4.49,2.88-7.48,2.93.91.86.47,1.12-.31,1.46-3.31,1.45-6.81,2.3-10.2,3.49A3.34,3.34,0,0,0,204.56,86a10.08,10.08,0,0,1,4.64-2.23c.38-.06.87-.29,1.06.13s-.43.53-.69.74c-1.43,1.22-2.92,2.38-4.34,3.61-1.16,1-1.25,1.52-.46,2.8.3.5,0,.74-.18,1-.87,1.26-1.7,2.55-2.65,3.74-.77,1-.23,1.13.59,1.23l.89.11c0,.14.07.25.05.27-1,.64-1.42,1.33-.64,2.5a1.55,1.55,0,0,1-.49,2,14.51,14.51,0,0,0-1.74,1.57c-.29.36-1.62.54-.49,1.42l-1.18,1.27c1,0,1.66-.69,2.74-.75-1.94,4-2.81,8.44-7.66,10.09-2.41.83-4.67,2.1-7,3.16Z"/><path class="cls-4" d="M117.14,90.77l.48.3c.71.47.52.73-.2.93a34.76,34.76,0,0,1-8,1.32c-.64,0-1.22,0-1,.92.17.71-.36.51-.72.53a16.71,16.71,0,0,1-7.28-1.57,25.14,25.14,0,0,0-8.68-1.78,133.64,133.64,0,0,1-24.44-3.63c-4-.92-8-2-11.87-3.2a12.85,12.85,0,0,1-4.85-2.54c-.64-.58-.47-.85.17-1.14a2.79,2.79,0,0,1,1.72-.25c7.64,1.47,15.38,2.3,23.07,3.43,4.56.68,9.14,1.2,13.72,1.74a8.52,8.52,0,0,0,4.07-.38c4-1.53,7.93-1,11.91-.26,1,.18,1.91.4,2.86.63a2,2,0,0,1,1.68,1.3c.12.42.43.52.8.56L122,89.1c.81.1,1.63.18,2.45.27s1.07.29.5,1.07a3.4,3.4,0,0,1-4.09,1.07,4.44,4.44,0,0,1-1.6-1C118.49,89.66,117.89,89.8,117.14,90.77Z"/><path class="cls-4" d="M31.57,64.39c-3,1.4-5.19.4-7.4-.88a34.22,34.22,0,0,1-6.71-4.93c-.44-.42-1.11-.85-.71-1.55s1.1-.48,1.72-.36c6.34,1.25,12.6,2.87,18.84,4.54a18.14,18.14,0,0,1,6.84,3.18c3.15,2.48,7,3.25,10.9,4q12.08,2.33,24.13,4.77A8.52,8.52,0,0,1,85.3,78a81.92,81.92,0,0,1-9.44-1c-4.6-.77-9-2.39-13.49-3.47-3.53-.84-7.19-1-10.74-1.82a55.49,55.49,0,0,1-9.87-3,8.07,8.07,0,0,0-3.27-.83c-.57,0-1.05-.12-.86-.87s-.31-.51-.64-.55c-1.66-.25-3.33-.51-5-.72C31.32,65.69,30.92,65.51,31.57,64.39Z"/><path class="cls-4" d="M316.61,58.18a21.61,21.61,0,0,0,5.22-1.06c.62,0,1.36-.29,1.74.34s0,1.37-.4,2a5.38,5.38,0,0,1-2.49,2.08c-2.09.91-4.19,1.78-6.29,2.65-1.13.47-2.32.19-3.5.19.69,1.24.67,1.18-.65,1.65a21.69,21.69,0,0,1-8.71,1.67c-.15,0-.38,0-.45,0-1.12,1.22-2.63.72-4,.94s-2.75,0-3.94,1.11c-.89.83-2.26.53-3.4.61-8,.55-15.66,2.87-23.41,4.72-3.29.78-6.58,1.6-10.16,2.48a4.52,4.52,0,0,1,2.47-2.83A53.87,53.87,0,0,1,270.47,71c5.07-1.13,10.24-1.75,15.36-2.6a29.47,29.47,0,0,0,8.55-2.79,3.75,3.75,0,0,0,2-2.16,2.2,2.2,0,0,1,1.89-1.53C304.43,60.79,310.46,59.21,316.61,58.18Z"/><path class="cls-4" d="M74.94,81l15.25,1.7c.82.1,1.64.17,2.45.27.26,0,.62-.1.68.28s-.29.44-.5.59a4.9,4.9,0,0,1-3.4.64c-4.12-.44-8.22-1-12.32-1.59q-7.77-1.12-15.49-2.5A145.82,145.82,0,0,1,32.26,72,12.42,12.42,0,0,1,28,68.52a13.61,13.61,0,0,1,7.45.2c3.62,1.13,7.13,2.58,10.82,3.48,7.7,1.88,15.48,3.41,23.26,4.89q6.33,1.22,12.68,2.26a31.11,31.11,0,0,0,3.75.14c.4,0,1-.16,1.08.4s-.41.85-1,1c-1.49.44-3,0-4.41-.16-1.81-.23-3.58-.95-5.44-.38A3.16,3.16,0,0,0,74.94,81Z"/><path class="cls-4" d="M285.29,80.29a4.08,4.08,0,0,1-2.38,2.52c-4.74,2-9.74,3.1-14.64,4.58a2.58,2.58,0,0,1-2.51-.65c-.72-.64-1.37-.71-1.91.24-.66,1.17-1.88,1-2.92,1.12-4.81.3-9.62.53-14.44.75a5.1,5.1,0,0,0-3.5,1.39,12.92,12.92,0,0,1-10.45,3.55,4.14,4.14,0,0,1-2.73-1.46,2.31,2.31,0,0,0-2.18-.9c-.18,0-.42,0-.49.22s.11.36.25.49.53.47.77.73.71.42.55.8a1.19,1.19,0,0,1-1,.56c-.89.11-1.79.17-2.69.23-1.4.1-2.81.18-4.22.25a3.23,3.23,0,0,1-.93-.09c-.51-.13-1.08-.39-1.13-.9s.63-.6,1-.75a11.14,11.14,0,0,1,5.52-.66c0-1-.86-1-1.45-1.25.25-.83.86-1,1.62-1,2.86-.13,5.72-.28,8.57-.42a53.54,53.54,0,0,0,12.57-2.15,29.11,29.11,0,0,1,9-1.18,21.82,21.82,0,0,0,4.42-.47,6.3,6.3,0,0,0,2.3-1.16,30.46,30.46,0,0,0-4.11.06c-1.05.09-2.11.1-3.17.14-.62,0-1.2-.21-1.25-.82s.68-.42,1-.48c3.69-.61,7.39-1.23,11.1-1.73,4.5-.6,9-1.12,13.51-1.6A15,15,0,0,1,285.29,80.29Z"/><path class="cls-4" d="M256.64,79.84c-1-.44-1-.71-.25-1.16A17.77,17.77,0,0,1,263,76.9c6.08-.82,12-2.29,18.05-3.43,5.68-1.09,11.38-2,17.08-3,2.16-.37,4.33-.66,6.49-1,.86-.15,1.72,0,2.57-.12,1.14-.08,1.13.47.82,1.28a3.63,3.63,0,0,1-1.45,1.95c-2.2,1.24-4.47,2.26-7.11,1.73-.64-.12-1.3-.28-1,.82.14.55-.3.69-.77.81a60.06,60.06,0,0,1-7.17,1.13c-4.33.63-8.67,1.18-13,1.76l-13.24,1.79-12.89,1.76c-.74.1-1.47.23-2.21.32a1.53,1.53,0,0,1-1.47-.78C250.68,81.22,253.53,80.55,256.64,79.84Z"/><path class="cls-4" d="M178.51,143a5.78,5.78,0,0,0-2.2,4.76c.28,3.68-.89,6.94-2.21,10.22-.87,2.18-1.71,4.37-2.57,6.55a4,4,0,0,1-1.3,1.88,6.66,6.66,0,0,1,.25-3.32,76.06,76.06,0,0,0,2.83-11.6,24.84,24.84,0,0,0,.36-4.21c0-.32.17-.85-.3-.87s-.62.41-.68.84c-.22,1.47-.49,2.93-.68,4.4-.27,2.13-.48,4.28-.73,6.41a5.89,5.89,0,0,1-1,2.37c-.11.19-.21.47-.51.38a.53.53,0,0,1-.34-.67c.27-1.63.13-3.29.27-4.93.46-5.31,1.59-10.51,2.55-15.73a9.94,9.94,0,0,1,1.53-3.91,3.22,3.22,0,0,1,4.59-1.17A11.69,11.69,0,0,1,184,142c.15.51.18,1.23-.38,1.47a1.32,1.32,0,0,1-1.52-.65c-.64-1-1.23-2-1.86-3-.38-.61-1-1.38-1.61-1.1s-.2,1.18,0,1.8a5.38,5.38,0,0,0,3.05,3.53,10,10,0,0,1,2.65,1.71,1.33,1.33,0,0,1,.35,1.79c-.37.52-1,.12-1.5-.12s-1.24-.66-1.88-1c-.37-.18-.74-.55-1.19-.26s-.29.79-.26,1.2a17.62,17.62,0,0,0,3.71,9.23c1.12,1.48,2.08,3.09,3.3,4.51a3.59,3.59,0,0,1,.61,1.88.78.78,0,0,1-.34.82c-.35.22-.6,0-.82-.25a11.59,11.59,0,0,1-2.19-3c-.71-1.31-1.37-2.63-2.87-3.28a2.56,2.56,0,0,1-1.11-1.34,18.11,18.11,0,0,1-1.59-11.65A1.87,1.87,0,0,0,178.51,143Z"/><path class="cls-4" d="M111.24,77.34c-4.18-2.19-8.4-3.69-13.38-3.18,1.15,1.38,2.49,1.44,3.71,1.73,1.86.44,3.74.78,5.61,1.19.59.13,1.47.2,1.4,1s-1,.67-1.64.7c-2.52.15-4.82-.87-7.22-1.38-2.7-.58-5.42-1.12-8.13-1.68a6.77,6.77,0,0,1-3.15-1.49A5.91,5.91,0,0,0,85,72.84a11.87,11.87,0,0,1-8.57-5c-.26-.36-.73-.79-.42-1.23s.86-.23,1.32-.15c3,.53,6,1.25,9.09,1.69a119.35,119.35,0,0,1,14.16,2.55c2.61.69,5.17,1.54,7.71,2.43A4.12,4.12,0,0,1,111.24,77.34Z"/><path class="cls-5" d="M160.82,144.75a27,27,0,0,1-.12,6.6,17.61,17.61,0,0,1-3.33,7.55,1.45,1.45,0,0,1-.81.65c-.6.14-.95-.05-.8-.72a2.14,2.14,0,0,1,.35-.73,32,32,0,0,0,3.36-8.73c.44-1.65-.53-2.8-2.27-2.92-.44,0-.46.19-.47.47,0,.62,0,1.25,0,1.88a1.79,1.79,0,0,1-.52,1.39c-.26.23-.6.48-1,.28s-.11-.56-.06-.86c.35-2.16.72-4.32,1-6.48a10.51,10.51,0,0,1,4.64-7.32,3.56,3.56,0,0,1,5.46,2.12c1,3,1.88,6.13,2.56,9.26a3.76,3.76,0,0,1-2.47,4.39c-.25.07-.52.26-.75,0s0-.51.15-.73c.48-.71,1-1.39,1.46-2.13.91-1.54.67-2.38-.91-3.22a2.65,2.65,0,0,1-1.2-1.38,5.58,5.58,0,0,0-2.23-2.81c-.3-.17-.69-.58-1-.12a.87.87,0,0,0,0,1.27,8.26,8.26,0,0,1,2,3c.28.62.86.75,1.4,1,.78.33,1.31.83.91,1.72s-1.1.82-1.89.54a3,3,0,0,1-1.67-1.56A7.16,7.16,0,0,0,160.82,144.75Z"/><path class="cls-4" d="M232.57,73.23a4.58,4.58,0,0,0,3.08-.36,6.61,6.61,0,0,1,3.63-.74,1.42,1.42,0,0,0,.8-.07c2.26-1.32,4.83-1.2,7.28-1.56,3.55-.53,7.1-1.09,10.66-1.59.74-.1,1.86-.44,2.15.28s-.62,1.35-1.26,1.81A10.94,10.94,0,0,1,254,72.79a169.56,169.56,0,0,0-17.28,3.67q-6.08,1.52-12.19,2.9c-.65.15-1.62.41-1.95-.15s.65-.93,1-1.39c.53-.63,1.13-1.19,1.69-1.79C227.38,73.81,230.19,73.67,232.57,73.23Z"/><path class="cls-4" d="M99.84,95.63a2,2,0,0,1-1.91.5c-5.59-1-11.26-1.3-16.9-1.89a17.79,17.79,0,0,0-3.42-.2,7.48,7.48,0,0,0,3.54,1.36A59.26,59.26,0,0,0,96,97.12c.55,0,1.47-.31,1.48.59s-.83,1.13-1.64,1.09c-2.19-.09-4.39-.12-6.57-.33a48.82,48.82,0,0,1-10.18-1.59A36.88,36.88,0,0,1,69,92c-.22-.16-.49-.27-.62-.67a17.21,17.21,0,0,1,6.23-.27c4.35.46,8.7.94,13,1.58,3.09.46,6.23.64,9.28,1.37A5.5,5.5,0,0,1,99.84,95.63Z"/><path class="cls-4" d="M255.86,74.78a12.23,12.23,0,0,1-8.61,5.34c-3.55.55-7.12.95-10.68,1.4a1.45,1.45,0,0,0-.89.25c-1.69,1.66-4,1.72-6.08,2.1-1.92.35-3.86.62-5.79.91-.59.09-1.24.16-1.4-.63s.32-1.06,1-1.19c.88-.18,1.78-.25,2.07-1.39.13-.48.67-.16,1-.13,2.42.22,4.83.38,7.25-.67l-1.33-.92A108.8,108.8,0,0,1,255.86,74.78Z"/><path class="cls-5" d="M217.61,116.67a11.72,11.72,0,0,1,3.72,1,15.51,15.51,0,0,0,4.39,1.18,4.69,4.69,0,0,1,3.64,2.29c.71,1.16.64,1.59-.49,2.29a7,7,0,0,1-5.94.88c-2.42-.73-4.86-1.4-7.3-2.08-1.07-.3-2.18-.09-3.27-.3a10.25,10.25,0,0,1-3.84-1.67c-.91-.62-.85-1.22.14-1.72a2.49,2.49,0,0,1,1.93,0c1.69.49,3.38.94,5.08,1.4.34.1.72.16,1-.17s.11-.73-.16-1.06-.91-.87-.57-1.39A1.69,1.69,0,0,1,217.61,116.67Z"/><path class="cls-4" d="M110.12,81.64a9,9,0,0,0,4.41,1.57,9,9,0,0,1,2.7.72,2.47,2.47,0,0,1,1.27,1.62c.23.79-.08,1.11-.88.92-8.59-2-17.19-4.07-25.77-6.17a11.82,11.82,0,0,1-5.44-2.9,2.38,2.38,0,0,1-.91-1.59c0-.26-.24-.55,0-.76s.53,0,.76.16a21.1,21.1,0,0,0,3.78,1.87,22.78,22.78,0,0,0,5.18.91,7.83,7.83,0,0,1,3.18,1.13A6.64,6.64,0,0,0,104,80.19a1,1,0,0,1,1.16.36c.7,1.06,1.54.86,2.46.37a5.87,5.87,0,0,1,4.41-.61Z"/><path class="cls-5" d="M99.07,104.34a4.65,4.65,0,0,1-4.85,1.89,31,31,0,0,0-4.31-.46,3.22,3.22,0,0,1-2.1-.63,5,5,0,0,0-3.52-1c-1,0-2,0-2.2-1.37-.1-.52-.68-.7-1.14-.94s-1.16-.6-1-1.28a1.36,1.36,0,0,1,1.4-.89c2.35,0,4.71,0,7.05.11,3.79.21,7.57.52,11.35.86a22.48,22.48,0,0,1,4.75.67c.7.21.6.43.17.82-1.19,1.08-2.63,1-4,.79a55.23,55.23,0,0,0-8.9-.42,5.54,5.54,0,0,1-2.51-.47,2.49,2.49,0,0,0-.89-.23.93.93,0,0,0-1,.52c-.14.49.4.59.74.68a29.2,29.2,0,0,0,7,.9A9.83,9.83,0,0,1,99.07,104.34Z"/><path class="cls-4" d="M44,60.58a9.18,9.18,0,0,1,2.61.72c6.57,2,13.33,3.31,20,4.71a40,40,0,0,1,7.54,2.13,3.74,3.74,0,0,1,2.12,2.08c.1.25.4.57.11.85s-.51,0-.77-.08c-3.58-1.1-7.19-2.09-10.86-2.84-4.17-.84-8.37-1.54-12.53-2.39a22,22,0,0,1-7.86-3.27,5.81,5.81,0,0,1-.9-.74c-.23-.24-.63-.49-.44-.87S43.69,60.67,44,60.58Z"/><path class="cls-5" d="M180.52,85.78c-.07-.63-.25-1.16-1.22-1.15.75,1.11.55,2.25.48,3.4a8.8,8.8,0,0,0,.8,4.34c.24.54.46,1.28-.1,1.58-.73.4-1.21-.23-1.53-.87a5.91,5.91,0,0,1-.6-1.88,8.92,8.92,0,0,0-1.16-3.79,2,2,0,0,1-.24-1.12,7.29,7.29,0,0,0-5.79-7.53A11.75,11.75,0,0,1,167,76.39c-.2-.16-.48-.35-.34-.67a.72.72,0,0,1,.75-.47,11.45,11.45,0,0,1,2.18.39c4.38,1.44,8.87,2.61,12.76,5.24a11.94,11.94,0,0,0,3.21,1c-2.46,2-4.69,2.45-6.29.39-.18-.23-.45-.41-.72-.22s-.13.55,0,.83c.48.9,1.65,1,2.13,2C180.83,85.2,181.06,85.57,180.52,85.78Z"/><path class="cls-5" d="M210.62,136.91a8.74,8.74,0,0,1-4.57-1.41c-1.29-.79-2.46-1.8-4.1-1.87-.63,0-1-.56-1.3-1.09a2.58,2.58,0,0,0-2.54-1.54c-.53,0-1.14-.16-1.28-.63s.37-.82.75-1.11a2.55,2.55,0,0,1,2.55-.35c.9.33,1.14-.07,1.05-.9,0-.31-.44-.74,0-.94s.82.23,1,.56a4.42,4.42,0,0,0,3.08,2l3,.47a6.55,6.55,0,0,1,4.34,2.56c.67.86,1.36,1.71,2.06,2.56.44.53.47.9-.33,1C213,136.46,211.62,136.72,210.62,136.91Z"/><path class="cls-5" d="M105.48,114.88a1.6,1.6,0,0,1,1.3-.35l4.35,0a5.74,5.74,0,0,0,.93-.08c.3-.07.71-.14.77-.46s-.36-.46-.62-.6a6.16,6.16,0,0,0-5.33-.27,5.22,5.22,0,0,1-2.27.5c-.41,0-.82-.08-1-.48s.26-.66.53-.91a6.14,6.14,0,0,1,4.26-1.41c4.08-.08,8.11.58,12.16.94.36,0,.81.16.86.5s-.39.69-.76.75c-1.56.25-3.08.82-4.73.46-.66-.14-1.87-.55-2,.44-.17,1.15,1.13.67,1.71.77a12.42,12.42,0,0,0,5.25-.23,3,3,0,0,1,2.38.22c.47.26.58.47.07.8a7.93,7.93,0,0,1-4.91,1.68c-1.76-.13-3.53.18-5.26.13-2.41-.08-4.65-1.27-7-1.7A.84.84,0,0,1,105.48,114.88Z"/><path class="cls-5" d="M223.59,88.88c-.33,0-.57,0-.8,0-.71,0-1.4-.26-1.46-1.07s.7-.86,1.24-1c6.74-1.36,13.47-2.73,20.22-4,2-.4,3.34.64,2.89,2.2-.35,1.24-1.51,1.58-2.59,1.7-5.17.61-10.34,1.14-15.52,1.7C226.21,88.55,224.86,88.73,223.59,88.88Z"/><path class="cls-5" d="M245.57,99.23a2.77,2.77,0,0,0-1.91-.51c-1.69-.16-3.42.45-5.09-.33-.36-.17-.73.16-1.06.38a3.09,3.09,0,0,1-1.62.78,2.88,2.88,0,0,1,1.26-2.92c.39-.31.92-.58,1.27.1.22.43.54.17.82.16,4.34-.17,8.69-.36,13-.51,1.63,0,2.22.45,2.19,1.73a2.09,2.09,0,0,1-2.45,2.16,9.06,9.06,0,0,0-3.47.47,45.59,45.59,0,0,1-9.56,1.74,3,3,0,0,1-1.94-.26c-.33-.19-.8-.32-.74-.81s.54-.39.85-.48a32.07,32.07,0,0,1,6.24-1A4.26,4.26,0,0,0,245.57,99.23Z"/><path class="cls-5" d="M115.38,105.34a7.55,7.55,0,0,1-4,.38,23,23,0,0,0-5.74,0,1,1,0,0,0-.88.5,15.39,15.39,0,0,0,3.71.71,31.26,31.26,0,0,0,7.61.21,4.13,4.13,0,0,1,2.27.83c.45.23.91.68,1.37-.08.29-.47.76-.22,1.15,0,.86.39,1.71.78,2.56,1.19.35.17.93.21.74.83a1,1,0,0,1-1.26.79,4.74,4.74,0,0,1-1.4-.57,3.76,3.76,0,0,0-3.21-.61,6.55,6.55,0,0,1-2.34,0c-3.66-.3-7.36-.14-11-.93-.42-.1-.83-.22-1.24-.36a2.1,2.1,0,0,1-1.65-2.26,2.15,2.15,0,0,1,1.81-2,27.72,27.72,0,0,1,7.1-.58C112.74,103.39,113.92,104.36,115.38,105.34Z"/><path class="cls-4" d="M294.39,62.28c.37,0,.71,0,.83.25s-.08.61-.31.8a5.76,5.76,0,0,1-1,.57c-3.79,1.94-8,2.45-12.06,3.24-6.48,1.25-12.91,2.67-19.27,4.41-.45.12-1.17.82-1.49,0s.24-1.34.92-1.71a19,19,0,0,1,4.83-1.35c9.06-2,18.12-4,27.19-6.06Z"/><path class="cls-4" d="M265.22,89.32a16.61,16.61,0,0,1,2.79.25c.72.05.62.41.35.86a4.75,4.75,0,0,1-6.29,1.48c-.32-.22-.65-.7-1.09-.2a.87.87,0,0,0,.1,1.27c.63.62.29.87-.35.93-1.68.14-3.35.3-5,.32a2.42,2.42,0,0,1-2.12-1.49,1.66,1.66,0,0,0-1.72-.91c-1.68,0-3.37-.07-5.05-.12a2.2,2.2,0,0,1-.58-.07c-.35-.11-.7-.3-.64-.72s.42-.38.74-.45a33.67,33.67,0,0,1,4.91-.34C255.81,89.77,260.39,89.59,265.22,89.32Z"/><path class="cls-5" d="M218.28,130.45a10.27,10.27,0,0,1-5.4-1.64,2.57,2.57,0,0,0-2.18-.46,5,5,0,0,1-2.88-.2c-.82-.28-.75-.59-.16-1.08a5,5,0,0,1,2.74-1.2A4.57,4.57,0,0,0,213,124.8a2.79,2.79,0,0,1,2.85-.53c1.66.57,3.3,1.19,5,1.78a2.22,2.22,0,0,1,1.51,1.91,1.58,1.58,0,0,1-1.31,2.09,5.78,5.78,0,0,1-.91.23C219.43,130.36,218.8,130.4,218.28,130.45Z"/><path class="cls-5" d="M115.6,101.57h-7.28a2.58,2.58,0,0,1-2-.84,6.38,6.38,0,0,0-4.25-2,5.2,5.2,0,0,1-2.56-1.09c-.78-.59-.73-.85.18-1.29a2.7,2.7,0,0,1,1.61-.14c4.7.53,9.39,1.08,14.1,1.58a3.22,3.22,0,0,1,2.69,3.58c-.08.38-.31.4-.59.4h-1.88Z"/><path class="cls-5" d="M227.6,108.12c1.86-.53,2.57-1.83,3.17-3.29.7-1.69,2.26-1.48,3.64-1.32,2,.22,3.94.59,5.9.95.63.12,1.35.24,1.6,1s-.21,1.36-.73,1.85a14.52,14.52,0,0,1-2.28,1.85,4,4,0,0,1-4.41.37,4.19,4.19,0,0,0-3.08-.28A4,4,0,0,1,227.6,108.12Z"/><path class="cls-5" d="M178.81,105.94c.52,1.33,1.06,2.64,1.55,4,.19.55.75,1.38.11,1.68-.83.4-1.15-.54-1.41-1.18a31.8,31.8,0,0,1-2.63-11.11,3.07,3.07,0,0,1,.79-2.26,1.58,1.58,0,0,1,3,.58,18.79,18.79,0,0,1,.53,5.23,10.48,10.48,0,0,0,3,7.53,4.43,4.43,0,0,1,1,1.55c.11.3.55.58.22.93s-.57-.05-.86-.12a4.46,4.46,0,0,1-3.39-3.08c-.49-1.31-1.15-2.55-1.73-3.83Z"/><path class="cls-5" d="M228.24,95.46a34.44,34.44,0,0,1,6,.46c1.08.17,1.19.43.61,1.37a5.44,5.44,0,0,1-4.13,2.59c-2.71.32-5.44.51-8.17.73-1.32.11-2.65.18-4,.25a1.72,1.72,0,0,1-1-.17c-.29-.16-.55-.33-.57-.69a.69.69,0,0,1,.52-.7c2-.55,3.88-1.67,6.11-.93a5.62,5.62,0,0,0,3.57-.2c.2-.06.53-.06.54-.35s-.31-.4-.55-.51a3.49,3.49,0,0,0-1.5-.21,5.08,5.08,0,0,1-1.17-.06c-.5-.11-1.13-.35-1.11-.87s.71-.43,1.15-.48A22.33,22.33,0,0,1,228.24,95.46Z"/><path class="cls-5" d="M230.54,117.09c-2.94-.74-6.18-.32-9.27-1.56-2.45-1-5.21-1.2-7.85-1.69-.79-.15-1.38-.35-1.29-1.29.07-.75.27-1.19,1.22-.82,2.8,1.08,5.86.92,8.71,1.69a27.13,27.13,0,0,0,8.59.89,20.67,20.67,0,0,0,4.49-.76c.43-.12.83-.35,1.13.16a1.08,1.08,0,0,1-.17,1.4,6.67,6.67,0,0,1-3.42,1.69A18.54,18.54,0,0,1,230.54,117.09Z"/><path class="cls-5" d="M125.15,127.26c.79,0,1.61-.13,1.74.49s-.47,1.15-1.18,1.39a43,43,0,0,1-4.17,1.18c-.37.09-.87.2-.84.67s.64.43.86.39c2.49-.44,5.1,0,7.51-.77,1.32-.39,2.53-1.18,4-1.35.37,0,.81-.11.95.22s-.35.53-.61.71a16.38,16.38,0,0,1-3.29,2,3.92,3.92,0,0,1-2.16.42,8,8,0,0,0-3.79.45c-2.07.61-3.9-.38-5.8-.87a3.42,3.42,0,0,1-2.17-1.47c-.35-.53-.29-.76.22-1.08a18.42,18.42,0,0,1,6.77-2.17C123.88,127.37,124.62,127.32,125.15,127.26Z"/><path class="cls-5" d="M162.65,165c.57.69,1.08,1.28,1.57,1.88a.68.68,0,0,1,0,1c-.26.31-.54.22-.84.11-1.95-.72-2-1.09-1.35-2.51a3.65,3.65,0,0,0,.26-1.13,1.43,1.43,0,0,1,2.06-1.34c.57.21,1.27.71,1.7.23s0-1.19-.21-1.78a8.71,8.71,0,0,0-1.73-2.9,4.08,4.08,0,0,1-1.22-2.33c-.29-1.57-.68-3.13-1-4.7a3.08,3.08,0,0,1,.06-1.85c.19-.47.47-1.07,1-1s.4.69.5,1.08c.36,1.4.66,2.81,1,4.22a12.19,12.19,0,0,0,2,4.46c1.5,2.14,1.81,4.7,2.27,7.18a.83.83,0,0,1-.32.95c-.45.21-.72-.15-1-.45a2,2,0,0,0-2.07-.74C164.47,165.51,163.68,164.65,162.65,165Z"/><path class="cls-5" d="M117.65,124.69a9.82,9.82,0,0,1-5.84-1.64c-1.65-1.1-1.54-2.37.23-3.25a11.86,11.86,0,0,1,7.45-.78c1.35.22,2.72.31,4.08.46.29,0,.68,0,.77.35s-.25.46-.45.64a5,5,0,0,1-4.41,1c-1.31-.22-2.62-.44-3.93-.63-.64-.08-1.55,0-1.59.62s.9.79,1.51.79a24.31,24.31,0,0,1,4.89.52,5.23,5.23,0,0,1,.57.12c.34.13.75.32.77.66s-.47.46-.78.57A8.47,8.47,0,0,1,117.65,124.69Z"/><path class="cls-5" d="M133.74,120.19a13.62,13.62,0,0,0,5.73-1.49c.38-.2.78-.37,1.18-.54a.76.76,0,0,1,1,.3c.26.39,0,.7-.19,1a3.71,3.71,0,0,1-.83.63,29.84,29.84,0,0,1-7.83,3.08,7.39,7.39,0,0,1-3.47-1.43c-.23-.34-.06-.62.08-.88a7.22,7.22,0,0,1,5.12-4.11c1.41-.27,2.84-.5,4.24-.84.56-.13,1-.15,1.1.45s-.26.87-.74,1c-1.6.5-3.21,1-4.82,1.44-.41.12-.82.26-1.23.4s-.72.25-.67.69.51.35.84.36A3.77,3.77,0,0,0,133.74,120.19Z"/><path class="cls-5" d="M134.18,103.55c-1-1-2.05-1.49-3.38-.54-.69.48-1.46.15-2.15-.14a6.65,6.65,0,0,0-3.08-.59,3.47,3.47,0,0,1-1.92-.44c-1.42-.76-2.82-1.55-4.2-2.35-.54-.31-1-.82-.71-1.44s.84-.45,1.43-.33a5.27,5.27,0,0,0,2.78-.13,5.14,5.14,0,0,1,6,2.33c.65,1.14,1.39,1.39,3.16,1.1S134.8,101.83,134.18,103.55Z"/><path class="cls-5" d="M137.24,113.65l-1.57-1.23A2.05,2.05,0,0,0,134,112c-2,.38-4.06.79-6.08,1.2a1.41,1.41,0,0,0-.41.25c.32.56.82.45,1.25.43,1.49-.06,3-.16,4.45-.24a5.35,5.35,0,0,1,1.06,0c.46.1,1,.33,1.09.78s-.6.47-.95.61a12.15,12.15,0,0,1-5.44,1.21,6,6,0,0,1-3.93-1.86.66.66,0,0,1-.12-1c1.14-1.88,4.43-4,7.06-3a2.94,2.94,0,0,0,2.58-.43c.8-.46,1.22-.2,1.5.59S136.77,112.39,137.24,113.65Z"/><path class="cls-5" d="M139.17,125.28c3.34-.68,6.62-1.84,10.1-1.38a41.9,41.9,0,0,1-8.64,3.27,5.69,5.69,0,0,1-3.25.08s-.08,0-.11,0c-.71-.3-1.7-.38-1.86-1.24s.71-1.14,1.25-1.57a18.76,18.76,0,0,1,5.63-3.09,3,3,0,0,1,1.15-.21,1.11,1.11,0,0,1,1,.65c.17.53-.46.5-.75.66-1.53.84-3.09,1.63-4.64,2.44Z"/><path class="cls-5" d="M213,107c1.61-1.37,3.53-1.25,5.31-1.59.65-.12,1.32-.18,2-.24s1-.41,1-.83-.65-.6-1.14-.56c-.71,0-1.41.14-2.11.16-.5,0-1-.16-1-.74s.57-.58,1-.63c2.58-.29,5.15-.47,7.65.49.53.21,1.22.26,1.19,1.07s-.58,1-1.16,1.14l-7.61,2.38A6.46,6.46,0,0,1,213,107Z"/><path class="cls-5" d="M231,113.1c-4.45.12-8.58-1.46-12.82-2.45-.52-.11-1.44-.08-1.33-.82.08-.52,1-.54,1.53-.51a50.43,50.43,0,0,1,11.79,1.54c1,.27,2,.44,3,.64.6.13,1.15.51,1.1,1s-.73.55-1.24.55C232.37,113.11,231.71,113.1,231,113.1Z"/><path class="cls-5" d="M199.54,139.27c-.09.32.38.76-.07.95s-.71-.24-1-.5a3.4,3.4,0,0,1-.67-.81c-.33-.72-1.68-1.15-.75-2.23,1.33-1.56,2.8-1.94,4.08-1s2.54,2.09,4.24,2.4a1.61,1.61,0,0,1,.84.61c.54.68,1.38,1.43.87,2.33s-1.46.35-2.24.24a9.44,9.44,0,0,0-1.05-.14,2.71,2.71,0,0,1-3-2.34c-.1-.51-.59-.93-1-.8C199.22,138.14,199.66,138.82,199.54,139.27Z"/><path class="cls-5" d="M215.52,101.8a5.55,5.55,0,0,1-2.19,2.45c-1.66,1.13-3.65,1.28-5.52,1.78-.19,0-.38.06-.57.11-.49.1-1.16.47-1.42.11s.23-1,.55-1.4a37.8,37.8,0,0,1,3.35-3.57,5.23,5.23,0,0,1,5.19-.87C215.44,100.56,215.66,101,215.52,101.8Z"/><path class="cls-5" d="M199.58,112.79a3.65,3.65,0,0,1,3.62-2,2.4,2.4,0,0,0,2.56-1.74,2.38,2.38,0,0,1,4-.81c.55.56,1.12,1.08,1.72,1.59.22.19.59.36.48.73a1,1,0,0,1-.88.66c-.88.13-1.77.28-2.65.47a9.64,9.64,0,0,0-2.13.61A10.38,10.38,0,0,1,199.58,112.79Z"/><path class="cls-5" d="M196.31,121.6a6.4,6.4,0,0,1,2.09.18c.2.07.49.15.63-.11s-.09-.39-.24-.48c-1.1-.67-1.77-2.17-3.44-1.78-.23,0-.53-.14-.76-.28s-.48-.33-.42-.65a.58.58,0,0,1,.74-.41,9.92,9.92,0,0,1,4,1.09,23.09,23.09,0,0,0,4.25,2.47,1.85,1.85,0,0,1,.91.71c.31.56.27,1.43-.47,1.33-2.17-.31-4.24.77-6.4.3a11.33,11.33,0,0,1-2.63-1c-.32-.16-.65-.39-.58-.79a.78.78,0,0,1,.88-.62C195.37,121.61,195.84,121.6,196.31,121.6Z"/><path class="cls-5" d="M128.71,108.2a12.66,12.66,0,0,1-8.85-3.75c-.39-.4-.89-.8-.55-1.41s1-.58,1.58-.46a3.07,3.07,0,0,1,1.78.83c1.54,1.75,3.63,2.21,5.8,2.41a11.76,11.76,0,0,1,2.76.49.89.89,0,0,1,.7.84c0,.48-.39.66-.78.75A8,8,0,0,1,128.71,108.2Z"/><path class="cls-5" d="M215.89,95.44c.75.08,1.51-.16,2.22.46s.45.89-.09,1.24a3.39,3.39,0,0,1-1,.41c-3.27.77-6.5,1.69-9.7,2.71a2.18,2.18,0,0,1-1.49,0,1.47,1.47,0,0,1-1-1.45c0-.57.74-.75,1.29-.78A12.31,12.31,0,0,0,212,96.3,6.64,6.64,0,0,1,215.89,95.44Z"/><path class="cls-5" d="M148.13,166.67c-.73.08-.69-.32-.65-.67a3,3,0,0,1,.77-1.43,40.44,40.44,0,0,0,6.19-11.12,3.74,3.74,0,0,1,2.59-2.36c.23-.07.54-.3.75-.05s0,.53-.09.78a43.64,43.64,0,0,1-2.87,5.24c-1.91,3-3.85,5.89-5.77,8.84C148.79,166.31,148.55,166.73,148.13,166.67Z"/><path class="cls-5" d="M196.39,143.52a3.31,3.31,0,0,1-2.49-.85c-1.14-1-2.21-2.1-3.33-3.13-.35-.33-.31-.56,0-.84.55-.44,1.06-.93,1.62-1.36a1.23,1.23,0,0,1,1.86.21c1.28,1.53,2.54,3.07,3.78,4.64.54.68.34,1.13-.54,1.28A7.15,7.15,0,0,1,196.39,143.52Z"/><path class="cls-5" d="M150,125.35a3.56,3.56,0,0,1-.42,4.37,6.63,6.63,0,0,1-5.24,2.23,2.39,2.39,0,0,1-2.15-1.22c-.43-.82.25-1.41.71-2a6,6,0,0,1,2.92-1.88c.33-.11.67-.11.84.2s-.22.43-.39.61-.37.29-.53.46c-.33.34-1.05.59-.68,1.16s1,.1,1.39-.07A5.61,5.61,0,0,0,150,125.35Z"/><path class="cls-6" d="M203.41,119.3a7,7,0,0,1-4.12-1.67c-.25-.18-.79-.27-.56-.74a1,1,0,0,1,1.15-.61,7.31,7.31,0,0,1,1.09.44,5.53,5.53,0,0,0,3.78.2c.28-.08.7-.15.61-.56s-.46-.2-.71-.21a9,9,0,0,1-2.42-.37c-.22-.07-.5-.1-.5-.41s.26-.35.46-.46a4.85,4.85,0,0,1,5.44.8,1,1,0,0,1,.12,1.55A5.26,5.26,0,0,1,203.41,119.3Z"/><path class="cls-6" d="M190.06,128.2a11.14,11.14,0,0,1-2.1-.3c-.44-.07-1-.36-1-.85s.52-.64,1-.73a11,11,0,0,1,2.17-.44c1,0,1.38-.34,1.21-1.32-.13-.7.09-.85.8-.63a23,23,0,0,1,4.25,1.95c.78.41.49.73-.09,1A15.45,15.45,0,0,1,190.06,128.2Z"/><path class="cls-5" d="M214.23,87a.84.84,0,0,1-1-.47c-.18-.46.14-.74.45-1,1.89-1.52,3.78-3,5.68-4.54a1.68,1.68,0,0,1,1.54-.36c.57.16.84.46.59,1.13C220.75,83.78,216.38,87,214.23,87Z"/><path class="cls-6" d="M157.31,162.22c.07-1.52.61-2.63,2.5-2.48a7.3,7.3,0,0,0,1.73-.2,2,2,0,0,1,2,.78,1.28,1.28,0,0,1,.13,1.44c-.24.45-.71.06-1.07.06a2.68,2.68,0,0,1-.9-.24,1.41,1.41,0,0,0-1.8.35c-.5.68-.18,1.33.28,1.92a1.81,1.81,0,0,1,.4,1.83c-.18.56-.32.69-.87.44A4.42,4.42,0,0,1,157.31,162.22Z"/><path class="cls-6" d="M242,95.23c-.63,0-1.25,0-1.88,0-.26,0-.6,0-.67-.32s.27-.44.51-.5a32.17,32.17,0,0,1,5.8-1.29c1.91-.13,3.83-.14,5.74-.17.56,0,1.36-.15,1.45.6s-.72,1.09-1.36,1.15c-1.36.13-2.73.08-4.09.21C245.63,95.08,243.79,95.12,242,95.23Z"/><path class="cls-6" d="M211.37,89.44c1.6,1.3,2.47-.19,3.68-.68a6.08,6.08,0,0,1,4.95.5c.81.39.76,1.43-.06,1.58-2.77.49-5.61,1.35-8.21-.6a2.5,2.5,0,0,1-.33-.32S211.39,89.77,211.37,89.44Z"/><path class="cls-5" d="M177.07,161c-.65,1.57-.12,3.23-.07,4.9,0,.41.07,1-.45,1.08s-.66-.32-.9-.64c-.88-1.22-1-1.25-1.72-.07-.35.53-.56.28-.78,0a1.49,1.49,0,0,1,.08-1.84c.53-.87,1.09-1.72,1.62-2.59a3.21,3.21,0,0,0,.45-1.55c0-.36-.2-.9.29-1s.85.28,1.15.66A2.19,2.19,0,0,1,177.07,161Z"/><path class="cls-6" d="M117.67,96.62c-2.31-.24-4.8-.21-7.11-1.2-.34-.15-.93-.22-.86-.65s.68-.47,1.08-.47c2.23,0,4.46,0,6.69,0a2.6,2.6,0,0,1,1.32.44c.48.28,1.21.45,1,1.24s-.88.67-1.48.65Z"/><path class="cls-6" d="M126.9,136.4a1.81,1.81,0,0,1-.5,0c-.46-.16-1.15-.11-1.24-.69s.54-.74.94-.91a42.4,42.4,0,0,1,5.32-1.38c.87-.24,1.76-.34,2.64-.56.36-.09.76-.23.95.12s-.26.51-.46.7a10,10,0,0,1-5.82,2.52C128.08,136.28,127.41,136.34,126.9,136.4Z"/><path class="cls-6" d="M206.31,95.47c-.67,0-1.32,0-1.47-.47s.38-1,.81-1.15a29.79,29.79,0,0,1,3.86-1.57,5.91,5.91,0,0,1,3.68.88c.74.37.05.72-.31.82-1.69.44-3.4.85-5.11,1.21A4.2,4.2,0,0,1,206.31,95.47Z"/><path class="cls-7" d="M190.74,164.43c0,.36-.17.51-.65.33a2.22,2.22,0,0,1-1.25-1.33c-.37-.94-.71-1.9-1.07-2.85a3.79,3.79,0,0,0-1.67-2.18c-.38-.21-.73-.5-.55-1s.3-.83.76-1,.8.22,1.07.53a3.57,3.57,0,0,1,.58.87,28.16,28.16,0,0,0,2.22,4.51A5.28,5.28,0,0,1,190.74,164.43Z"/><path class="cls-6" d="M131.72,96.46c-.1.61-.65,1.17-1.15,1.05-1.65-.4-3.43-.53-4.7-1.89-.39-.41-.77-.9-.44-1.46s1-.29,1.47-.11q2,.7,4,1.47C131.25,95.67,131.69,95.85,131.72,96.46Z"/><path class="cls-8" d="M154.82,160.8c-.18.7-.28,1.18-.42,1.65a2.41,2.41,0,0,0,.3,2.22,3.78,3.78,0,0,1,.42,1c.14.37.26.79-.11,1.08a1.07,1.07,0,0,1-1.31.11c-.64-.45-1.24-.95-1.87-1.41-.32-.24-.27-.49-.15-.82A7.65,7.65,0,0,1,154.82,160.8Z"/><path class="cls-6" d="M178.56,166.78c-.52-2,1-4.56,2.89-4.88a2.15,2.15,0,0,1,2,2.34c-.17.51-.65.88-1.09.62-1.66-1-2.42.08-3.2,1.24A7.89,7.89,0,0,1,178.56,166.78Z"/><path class="cls-9" d="M124.11,93.77c.88-2,2-2.56,4-2.06A18.25,18.25,0,0,1,132,93c2.35,1.19,2.46,3.45,1.74,5.44-.14.39-.34.56-.8.37s-.37-.4-.27-.73c.21-.63.39-1.26.6-1.9a1.78,1.78,0,0,0-1.07-2.39C129.53,92.51,126.86,92,124.11,93.77Z"/><path class="cls-6" d="M132.79,125.85a1,1,0,0,1,1.09.69.78.78,0,0,1-.51,1q-2.48.93-5,1.75c-.44.14-.67,0-.44-.56a4.43,4.43,0,0,1,2.18-2.05A10.21,10.21,0,0,1,132.79,125.85Z"/><path class="cls-6" d="M182.33,149.86c0-.91.26-1.11.91-.72l.59.38c2.25,1.53,2.35,2.4.55,4.48-.25.29-.57.61-.77.06C183.12,152.62,182.72,151.16,182.33,149.86Z"/><path class="cls-8" d="M142.75,141.6c-.55,0-1.14,0-1.27-.51s.45-.66.8-.87c1.22-.72,2.45-1.4,3.65-2.13.46-.28.95-.38,1.28,0s0,.86-.31,1.2A6.69,6.69,0,0,1,142.75,141.6Z"/><path class="cls-8" d="M177.33,154.27a5.62,5.62,0,0,1,1,2.3,3,3,0,0,0,2.08,2.33c.52.14,1,.48.95,1s-.65.69-1.18.76c-1.52.19-1.86,0-2-1.47a3.37,3.37,0,0,0-.73-1.8A2.69,2.69,0,0,1,177.33,154.27Z"/><path class="cls-6" d="M121.07,126.08c.63-1.79,1.19-3.52,3.27-4.1.83-.23,1.13.06.93.89C124.73,125.07,123.5,126,121.07,126.08Z"/><path class="cls-10" d="M208.86,124.39a3.42,3.42,0,0,1-3.08-1.48c-.19-.28-.42-.58-.22-1s.57-.35.91-.35c1,0,1.62.68,2.43,1a1.77,1.77,0,0,1,.5.29c.45.39,1.46.47,1.31,1.09S209.62,124.33,208.86,124.39Z"/><path class="cls-11" d="M248.1,85.53c-.3,0-.68.08-.83-.27s.28-.6.54-.75a12.79,12.79,0,0,1,4.1-1.23,1.09,1.09,0,0,1,1.24.86c.1.63-.6.48-.94.59A19.79,19.79,0,0,1,248.1,85.53Z"/><path class="cls-8" d="M212.07,85.62c.35.22.9.36.46,1.07a7.8,7.8,0,0,1-3.26,2.57c-.59.31-.86-.12-.76-.72C208.66,87.61,211.06,85.6,212.07,85.62Z"/><path class="cls-12" d="M170.81,138.73a7.74,7.74,0,0,1-.8,2.77c-.12.23-.24.57-.56.53s-.24-.42-.28-.66c-.11-.85-.17-1.71-.34-2.55s.25-1.18,1-1.26C170.84,137.46,170.89,138,170.81,138.73Z"/><path class="cls-9" d="M201.91,108.48c0-1.22.8-2.37,1.78-2.36.6,0,1.2.2,1.21,1,0,1.17-1,1.86-2.53,1.94C201.85,109.05,201.9,108.8,201.91,108.48Z"/><path class="cls-10" d="M129.13,85.11a5.21,5.21,0,0,1-3-1.27c-.3-.19-.56-.51-.26-.88a.72.72,0,0,1,1-.23c.84.49,1.7,1,2.55,1.45.27.15.65.33.56.67S129.38,85.08,129.13,85.11Z"/><path class="cls-10" d="M136.2,135.48a2.44,2.44,0,0,1-2.41,2.08c-.64-.15-.85-.57-.41-1.12a6.13,6.13,0,0,1,1.89-1.54C135.92,134.57,136.19,135,136.2,135.48Z"/><path class="cls-10" d="M167.87,157.28c-1.31-1.53-1.13-3.34.54-4.85C168.48,154.13,168.66,155.69,167.87,157.28Z"/><path class="cls-9" d="M155.81,133.32c.63.55,1.11,1,1.56,1.38s.66.69.28,1.21c-.23.33-.33.84-.89.76s-.73-.56-.89-1A4.23,4.23,0,0,1,155.81,133.32Z"/><path class="cls-12" d="M132.9,104.85c-.05.51-.39.75-.79.67a15.56,15.56,0,0,1-2.12-.61.51.51,0,0,1-.26-.85,1.31,1.31,0,0,1,1.5-.32C131.86,104,132.6,104.12,132.9,104.85Z"/><path class="cls-12" d="M211.65,116.48a3.89,3.89,0,0,0,1.93-.84c.4-.23.94-.35,1.2,0s-.2.68-.44,1C213.24,117.87,213,117.87,211.65,116.48Z"/><path class="cls-13" d="M138.34,141.8c-.6-.19-1.37-.23-1.39-1,0-.61.6-.8,1.12-.78.72,0,1.46.4,1.54,1S138.82,141.59,138.34,141.8Z"/><path class="cls-13" d="M206.12,126.32c-.1.12-.21.27-.34.41-.48.49-.86.06-1.22-.18s-1-.47-.95-1.17a.42.42,0,0,1,.16-.3c.5-.21.87.17,1.28.32A1.59,1.59,0,0,1,206.12,126.32Z"/><path class="cls-14" d="M99.48,106.29c.65,0,1.17.06,1.11.7s-.44,1.08-.94,1a1.2,1.2,0,0,1-1.12-1C98.49,106.22,99.12,106.31,99.48,106.29Z"/><path class="cls-15" d="M125.29,117.75c.71.37,1.16.58,1.59.83a.69.69,0,0,1,.35.89c-.15.36-.41.75-.8.76s-.56-.36-.66-.71C125.63,119,125.5,118.5,125.29,117.75Z"/><path class="cls-16" d="M157.12,167.11c0-.45.21-.82.63-.73.75.17,1,.82,1.05,1.51,0,.37-.18.65-.53.59A1.47,1.47,0,0,1,157.12,167.11Z"/><path class="cls-15" d="M127.17,121.69a2.32,2.32,0,0,1-.1,2.57c-.17.28-.43.5-.77.37s-.28-.53-.17-.8A8.6,8.6,0,0,1,127.17,121.69Z"/><path class="cls-13" d="M213.9,83.09a2.59,2.59,0,0,1-1,1.13.82.82,0,0,1-1.24-.17c-.3-.45.26-.64.55-.84A1.82,1.82,0,0,1,213.9,83.09Z"/><path class="cls-14" d="M203.57,104.88c-.23,0-.71,0-.54-.35.35-.61.69-1.32,1.47-1.53a.34.34,0,0,1,.46.35A2.22,2.22,0,0,1,203.57,104.88Z"/><path class="cls-17" d="M187.1,154.85c-.18.36-.27.9-.64.78a1.54,1.54,0,0,1-.92-1.37c0-.25.25-.68.59-.58C186.68,153.85,186.89,154.39,187.1,154.85Z"/><path class="cls-18" d="M185.63,166.63a1,1,0,0,1-1.12-1c0-.45.32-.51.63-.44a1.47,1.47,0,0,1,1.25,1C186.46,166.59,185.89,166.58,185.63,166.63Z"/><path class="cls-19" d="M180.52,85.78c.3-.26.15-.61.19-.92a13,13,0,0,1,.09,5h-.28Z"/><path class="cls-20" d="M192.7,119.35c.61,1.3.46,1.93-.39,2a1,1,0,0,1-.66-.14c-.19-.19,0-.43.16-.61C192.06,120.21,192.34,119.85,192.7,119.35Z"/><path class="cls-21" d="M179.77,166.44a3.09,3.09,0,0,1,1.74-.25c-.08.56-.15,1.21-.77,1.27S180,166.94,179.77,166.44Z"/><path class="cls-22" d="M128.07,123.79A3.54,3.54,0,0,1,129.5,125C128,125.34,127.93,125.31,128.07,123.79Z"/><path class="cls-23" d="M188.94,134.74a1.06,1.06,0,0,1-.78.71.46.46,0,0,1-.54-.48c.06-.35.21-.81.68-.8C188.6,134.18,188.79,134.49,188.94,134.74Z"/><path class="cls-24" d="M127,103.91a.62.62,0,0,1,.7.62c0,.3-.08.58-.44.56a.91.91,0,0,1-.81-.74C126.39,104,126.74,103.94,127,103.91Z"/><path class="cls-25" d="M175.56,167.34c0,.34-.23.58-.48.56-.47,0-.53-.49-.62-.83s.18-.6.43-.55S175.39,167,175.56,167.34Z"/><path class="cls-26" d="M117.48,105.3a2.48,2.48,0,0,1-1.23-.59C117.12,104,117.23,104,117.48,105.3Z"/><path class="cls-27" d="M122.22,112.3c.64-.8,1.11-.43,1.87,0A3.32,3.32,0,0,1,122.22,112.3Z"/><path class="cls-1" d="M293.31,142c0,.07,0,.26.07.45s0,.48-.24.57-.42-.15-.49-.37L290,134.09c-.07-.23-.14-.45.17-.58s.4.1.53.29c1.56,2.28,1.57,2.29,4.23,1.48,1.87-.57,3.73-1.19,5.61-1.74.7-.2,1-.46.7-1.23-1-2.86-1.85-5.73-2.74-8.62-.19-.62-.42-.8-1.08-.58-2.18.74-4.4,1.38-6.59,2.13-1.86.63-2.1,1.11-1.84,3.06,0,.28.27.67-.17.81s-.52-.38-.61-.65q-1.28-4-2.5-8c-.08-.26-.4-.6.06-.79s.51.22.67.47c1.14,1.93,1.39,2.08,3.58,1.41q7.8-2.4,15.56-4.92c2-.63,2.16-1,1.92-3.11,0-.3-.2-.68.22-.81s.44.35.52.59c.86,2.69,1.71,5.37,2.55,8.06.08.28.37.61-.06.81s-.5-.23-.63-.48c-1.05-1.9-1.43-2.1-3.46-1.51s-4.1,1.3-6.16,1.92c-.57.17-.74.4-.55,1q1.44,4.47,2.83,9c.17.54.42.61.95.43,2.08-.69,4.19-1.3,6.26-2,1.89-.64,2.13-1.07,1.94-3,0-.31-.34-.78.19-.89s.46.43.56.73c.84,2.61,1.67,5.21,2.49,7.83.08.28.43.71-.1.9s-.5-.38-.64-.64c-.88-1.66-1.38-1.94-3.22-1.37q-8,2.46-16,5C293.44,139.63,293.16,140.14,293.31,142Z"/><path class="cls-1" d="M32,182.17c3-3,5.89-6,8.75-8.92a3.16,3.16,0,0,0,.81-2.16c0-.25.07-.48.38-.48s.32.27.34.49c.16,1.6.3,3.2.48,4.8.06.57-.31.84-.64,1.17q-4.32,4.25-8.62,8.51a2.92,2.92,0,0,0-.63.69c-.43.86.09,1.59,1.08,1.49,2.18-.2,4.37-.4,6.54-.67,1.85-.23,2.14-.59,2.31-2.47,0-.35-.16-.94.4-.93s.39.59.42.95q.4,4,.75,8c0,.31.24.82-.19.92-.6.14-.46-.47-.56-.8-.5-1.65-.87-2-2.6-1.9-4,.3-8,.69-11.94,1.07-1.76.16-3.52.32-5.26.56s-2.15.69-2.3,2.51c0,.31.19.81-.39.8s-.31-.47-.34-.74c-.33-3.39-.67-6.78-.94-10.18a11,11,0,0,1,.55-4.87,5.37,5.37,0,0,1,4.72-3.71,5.23,5.23,0,0,1,5.46,2.66A30.45,30.45,0,0,1,32,182.17Z"/><path class="cls-1" d="M67.7,272.23l5.45-4.92c1.77-1.6,3.56-3.19,5.31-4.83,2-1.87,2.06-2.31,1-4.82-.07-.18-.21-.33,0-.51s.41-.11.59.08l5.06,5.58c.13.15.26.32.06.51a.39.39,0,0,1-.53,0,.28.28,0,0,0-.09-.07c-2.65-1.47-2.8-1.49-5.08.54-3.86,3.45-7.68,6.94-11.52,10.42a3.06,3.06,0,0,0-.24,3.58c.17.3.78.61.34,1s-.7-.3-1-.56c-1-1-1.89-2.1-2.87-3.12a1.52,1.52,0,0,1-.42-1.47q1.6-10.1,3.15-20.2a4.16,4.16,0,0,0,0-.5c-.55.12-.83.58-1.19.91q-3.72,3.33-7.42,6.71A16.11,16.11,0,0,0,56.85,262c-1.14,1.36-1.16,2-.25,3.49.15.26.67.53.26.88s-.66-.23-.88-.46c-1.55-1.67-3.07-3.36-4.58-5.06-.15-.16-.54-.3-.24-.65s.38-.11.61,0c2.56,1.41,2.86,1.39,5.09-.61,4.35-3.91,8.67-7.85,13-11.76.42-.37.83-1.18,1.35-.93.7.31.21,1.14.13,1.7C70.17,256.41,69,264.15,67.7,272.23Z"/><path class="cls-1" d="M272.18,253c3.25,2.53,6.46,5.1,9.75,7.57,2.06,1.55,2.51,1.48,4.62-.05.2-.15.36-.33.61-.14s.07.47-.08.67l-4.5,5.75c-.14.17-.28.42-.56.26s-.24-.31-.15-.58c.93-2.95.88-3.16-1.55-5.08-4.49-3.55-9-7.07-13.51-10.6l-.83-.66c-.2-.17-.55-.29-.44-.62s.49-.33.8-.33c2,0,3.92-.1,5.88-.13l17.42-.24.91,0c.1-.3-.12-.38-.26-.49q-5.18-4.06-10.37-8.13a12.92,12.92,0,0,0-1.46-1c-1.49-.86-2.19-.78-3.51.3-.23.18-.4.72-.83.37s0-.64.22-.87c1.39-1.81,2.79-3.59,4.21-5.38.16-.21.29-.65.71-.34s.08.48,0,.73c-1,2.29-.94,2.8,1.06,4.39,4.19,3.36,8.43,6.66,12.67,10a3,3,0,0,0,3.27-.29,5.9,5.9,0,0,0,.51-.49c.18-.17.35-.32.6-.11s.09.41,0,.59c-1.07,1.36-2.14,2.71-3.2,4.07-.39.51-.91.37-1.4.37l-19.54.27h-.9Z"/><path class="cls-1" d="M42.05,194.86c1,0,2.19-.57,2.84,0s.67,1.78,1,2.72q2.22,7.37,4.41,14.75c.09.31.52.77-.08,1s-.49-.38-.64-.65c-.93-1.74-1.29-2-3.18-1.41q-8,2.32-16,4.76c-1.94.59-2.17,1-2,3.1,0,.3.24.68-.21.79s-.44-.33-.52-.6c-1.68-5.59-3.33-11.18-5-16.77-.19-.62-.05-.81.53-1,1.12-.34,2.22-.76,3.34-1.12.26-.09.57-.39.8.06s.08.65-.3.86c-2.57,1.42-2.47,2.5-1.78,5.11.48,1.82,1.06,3.61,1.57,5.42.25.88.67,1.21,1.63.9,2.23-.72,4.49-1.37,6.76-2,.67-.19.86-.47.63-1.16-.53-1.6-1-3.23-1.49-4.82-.7-2.11-1.27-2.48-3.44-2.39-.36,0-.8.26-.94-.36s.42-.55.72-.64q3.15-1,6.3-1.89c.32-.09.74-.45,1,.18s-.25.58-.52.76c-2.09,1.35-2.26,1.77-1.59,4.16.45,1.59,1,3.15,1.39,4.74.17.64.42.69,1,.51q3.75-1.17,7.53-2.27c.93-.27,1.28-.75,1.05-1.73a43,43,0,0,0-1.93-6.15,6,6,0,0,0-4.66-3.71l-.81-.14c-.4-.08-.46-.41-.48-.72,0-.47.38-.31.6-.32C40.32,194.85,41.19,194.86,42.05,194.86Z"/><path class="cls-1" d="M252.14,267.69c.11.57.25,1.47.5,2.33.14.47.08.8-.32,1s-.52-.34-.66-.57c-.73-1.3-1.4-2.63-2.13-3.93a.89.89,0,0,1,.18-1.3c4.38-4,8.72-8,13.08-12,.22-.2.42-.72.84-.39s-.07.61-.25.85c-1.21,1.69-1.22,2.11.21,3.66q5.57,6.07,11.17,12.11c1.49,1.6,2,1.63,3.84.49.21-.13.4-.47.68-.15s-.07.55-.27.74c-4.32,4-8.65,8-12.95,12-.42.39-.65.41-1,0-.82-.9-1.7-1.74-2.54-2.63-.18-.19-.6-.35-.25-.74s.6-.25.92,0,.41.24.6.36a2.86,2.86,0,0,0,3.59-.14c2-1.52,3.75-3.34,5.62-5a.89.89,0,0,0,0-1.43c-1.73-1.88-3.47-3.74-5.18-5.64-.4-.44-.63-.23-.94.07-1.32,1.23-2.67,2.43-4,3.69-1.59,1.55-1.66,2.19-.66,4.13.16.31.61.61.13,1s-.68-.17-.89-.4q-2.28-2.39-4.48-4.83c-.2-.22-.68-.41-.34-.86s.68-.07,1,.12c2,1.21,2.61,1.17,4.37-.4,1.25-1.12,2.46-2.3,3.73-3.42.46-.41.6-.7.11-1.22-1.87-2-3.69-3.95-5.53-5.94a1.18,1.18,0,0,0-1.84-.16,31.56,31.56,0,0,0-5.27,5.19A5.39,5.39,0,0,0,252.14,267.69Z"/><path class="cls-1" d="M304.09,106.66c-.1,2.62-1.06,4.62-3.49,5.73a5.87,5.87,0,0,1-6.78-.94,15.52,15.52,0,0,1-4.05-6.12c-.29-.71-.55-1-1.34-.53-1.65.89-3.39,1.63-5.07,2.46-2,1-2.22,1.5-1.6,3.62.08.29.49.68,0,.9s-.52-.36-.64-.61c-1.25-2.54-2.46-5.08-3.67-7.63-.12-.26-.56-.6,0-.87s.48.26.64.47c1.17,1.51,1.69,1.72,3.4.91q7.67-3.58,15.26-7.31c1.68-.81,1.81-1.28,1.36-3.23-.06-.28-.29-.65.13-.81s.43.23.54.46c1.49,3.15,3,6.29,4.46,9.46A11.07,11.07,0,0,1,304.09,106.66Z"/><path class="cls-1" d="M296.37,223a13.92,13.92,0,0,1,1.78-6c.53-1,.28-1.3-.67-1.64-1.77-.62-3.49-1.4-5.24-2.07-1.95-.74-2.51-.51-3.57,1.26-.17.28-.17.94-.72.65s0-.69.09-1c1-2.55,2-5.09,3.07-7.63.12-.28.11-.81.6-.65s.17.62.12.92c-.3,1.7-.15,2.21,1.43,2.87q8,3.33,16.12,6.52c1.59.63,2.09.36,3.11-1.16.15-.23.2-.72.62-.54s.14.61,0,.91q-1.75,4.35-3.53,8.71a12.4,12.4,0,0,1-2.2,3.59c-2,2.26-4.45,3-7,2C297.65,228.62,296.35,226.64,296.37,223Z"/><path class="cls-1" d="M303.08,201.7a18,18,0,0,1,.89-5.2c.13-.48.11-.68-.44-.79-2.15-.42-4.28-1-6.43-1.32-1.77-.3-2.17,0-2.85,1.67-.15.36,0,1.19-.69,1s-.11-.82,0-1.23c.52-2.61,1.09-5.21,1.65-7.81.06-.31,0-.83.48-.76s.27.56.26.88c0,1.73.3,2.27,2,2.65q8.29,1.86,16.64,3.57c1.9.4,2.24.12,3.13-1.78.13-.28.17-.67.61-.49s.17.48.12.72c-.75,3.4-1.5,6.8-2.28,10.19a10.22,10.22,0,0,1-1.4,3.21,6.21,6.21,0,0,1-11.56-2.71C303.13,202.87,303.12,202.28,303.08,201.7Z"/><path class="cls-1" d="M99.24,277.36A9.11,9.11,0,0,1,97,282.92c-2.23,2.84-4.52,5.63-6.78,8.44-.27.34-.55.67-.81,1-1.16,1.58-1.13,2.13.14,3.6.2.23.73.41.33.84s-.62-.08-.85-.26q-3.27-2.61-6.49-5.26c-.23-.18-.78-.29-.49-.77s.6,0,.87.11c1.83,1,2.36,1,3.7-.65,2.64-3.22,5.23-6.47,7.83-9.71A9.86,9.86,0,0,0,95.81,278a4.77,4.77,0,0,0,.44-2.06c-.06-2.91-2-4.48-4.25-5.73a5,5,0,0,0-5.94.49,9.81,9.81,0,0,0-1.38,1.27c-2.75,3.18-5.4,6.43-7.91,9.79-1.29,1.72-1.19,2.32.15,4.07.18.22.57.41.19.76s-.56-.07-.77-.23L70.93,282c-.22-.18-.62-.32-.29-.73s.48,0,.71.06c2.14,1,2.73.92,4.26-.89,2.12-2.52,4.16-5.11,6.24-7.67a18.57,18.57,0,0,1,3-3.12,6.88,6.88,0,0,1,7.19-1.05,13,13,0,0,1,6,4.92A6.53,6.53,0,0,1,99.24,277.36Z"/><path class="cls-1" d="M23.58,152.93c1,0,2,0,2.94,0,.3,0,.76-.24.83.34s-.38.58-.75.69a17.35,17.35,0,0,0-2,.63,6.51,6.51,0,0,0-4,5,3.66,3.66,0,0,0,1.6,3.78,3.72,3.72,0,0,0,4.06-.55,15.49,15.49,0,0,0,2.47-2.83c1.13-1.51,2.19-3.06,3.46-4.46,2.31-2.55,5-3.26,7.68-2a7.24,7.24,0,0,1,3.88,7.32,14.63,14.63,0,0,1-1.47,4.8c-.36.77-.58,1.51.49,1.92a.49.49,0,0,1,.35.54c0,.41-.36.36-.62.38-2.15.13-4.3.26-6.46.37-.24,0-.59.15-.64-.28s.14-.56.5-.67a12.94,12.94,0,0,0,2.82-1.18,7,7,0,0,0,3.61-5,4.13,4.13,0,0,0-7-3.81,38.4,38.4,0,0,0-3.54,4.39c-.57.75-1.13,1.51-1.73,2.23-2.14,2.55-4.95,3.2-7.68,1.81a6.41,6.41,0,0,1-3.14-7.33,24.13,24.13,0,0,1,1.21-3.3c.29-.74.44-1.46-.45-1.92-.24-.12-.39-.3-.3-.56s.35-.28.59-.28h3.29Z"/><path class="cls-1" d="M250.74,283.85l-5,.37a21.47,21.47,0,0,1-3.76,0,5.94,5.94,0,0,1-5.24-3.94,6.37,6.37,0,0,1,1.17-6.61,8.92,8.92,0,0,1,4.29-3c.67-.23,1.34-.46,2-.66s1.27-.65.94-1.53a.53.53,0,0,1,.24-.69c.36-.27.5.06.67.23q2.26,2.31,4.52,4.63c.17.18.5.35.2.67s-.54.22-.84,0a11.44,11.44,0,0,0-3.76-1.62,6.63,6.63,0,0,0-5.47,1.12,4.11,4.11,0,0,0-1.71,4.32,4.32,4.32,0,0,0,3.81,3.19,39.15,39.15,0,0,0,5.52-.14c1.21-.08,2.43-.16,3.64-.14a5.72,5.72,0,0,1,5.64,4,6.07,6.07,0,0,1-1.78,6.62,11,11,0,0,1-4.39,2.16c-.9.28-1.76.6-1.46,1.85a.39.39,0,0,1-.24.47c-.23.11-.37,0-.5-.18l-4.5-5c-.16-.18-.31-.36-.06-.59a.52.52,0,0,1,.81,0,10.52,10.52,0,0,0,2.18,1.37,6.32,6.32,0,0,0,5.36.05,3.85,3.85,0,0,0,2.59-3.82,3.73,3.73,0,0,0-3.43-3C251.69,283.89,251.18,283.89,250.74,283.85Z"/><path class="cls-1" d="M169.4,307.51a16.38,16.38,0,0,1,1.42-7.2,6.91,6.91,0,0,1,6.15-4.4,6.54,6.54,0,0,1,6.43,3.73,17.69,17.69,0,0,1,.63,16.6c-2.35,5.14-8.57,5.61-11.95,1.07C170.31,315,169.41,311.64,169.4,307.51Z"/><path class="cls-1" d="M197.63,304.43c1.2.7,2.31,1.28,3.36,2,2.76,1.79,4,4.35,3.41,6.89s-3,4.56-6.22,4.94a8.38,8.38,0,0,1-3.15-.17,5.6,5.6,0,0,1-3.37-8.72,25,25,0,0,1,2.4-2.81c-.92-.58-1.83-1.11-2.7-1.7-2-1.34-3.13-3.15-2.82-5.57s1.94-3.85,4.11-4.72a8.19,8.19,0,0,1,3.92-.56,5,5,0,0,1,4.37,2.93,4.58,4.58,0,0,1-.79,5.06A29.49,29.49,0,0,1,197.63,304.43Z"/><path class="cls-1" d="M48.16,102.53c-1.67-2.88-3.23-5.64-4.88-8.35-.77-1.26-1.58-1.2-2.45,0-.21.28-.27,1-.76.69s0-.77.17-1.1c.87-1.79,1.79-3.57,2.7-5.34.11-.22.15-.6.55-.46s.24.41.17.68a5.33,5.33,0,0,0,.72,4c1.8,3.27,3.67,6.48,5.51,9.72a1.51,1.51,0,0,0,.68.62c2.06,1,4.11,2.11,6.2,3.1,1.77.84,2.32.65,3.43-1l.44-.69c.12-.18.27-.31.49-.21s.21.38.11.6-.25.49-.38.73c-1.31,2.59-2.61,5.18-3.94,7.75-.15.29-.14.93-.72.67s-.08-.62,0-.91c.78-2.26.64-2.73-1.47-3.85-1.8-1-3.63-1.86-5.45-2.78a1.63,1.63,0,0,0-1-.22c-4.12.57-8.26.94-12.35,1.72a4.24,4.24,0,0,0-2.75,1.41c-.18.23-.38.46-.68.24s0-.5.08-.71c1.28-2.56,2.58-5.11,3.88-7.65.13-.25.2-.72.62-.53s.1.53,0,.8c-.65,1.79-.26,2.42,1.61,2.23C41.81,103.38,44.91,102.94,48.16,102.53Z"/><path class="cls-1" d="M163.58,309.5a8.15,8.15,0,0,1-5.3,1.58c-3.4-.24-5.65-2.52-6-6.13a9.25,9.25,0,0,1,2.09-7,7.11,7.11,0,0,1,11.47.87,12.28,12.28,0,0,1,1.45,8.95A14.56,14.56,0,0,1,153,319.88c-.32,0-.8.21-.87-.31-.09-.67.56-.46.84-.51,5.3-.81,8.43-4.14,10.37-8.86C163.42,310.06,163.45,309.91,163.58,309.5Z"/><path class="cls-1" d="M34.52,116c-2.41,0-3.15.46-4.15,2.83-1.25,2.94-1.25,2.94,1.71,3.95l14.24,4.83c.4.14.82.25,1.23.38a1.91,1.91,0,0,0,2.58-1.17q.19-.44.42-.84c.11-.21.22-.43.53-.33s.22.42.14.66c-1,2.89-2,5.79-2.95,8.67-.09.27-.12.7-.6.52s-.19-.43-.15-.69c.38-2.51.25-2.82-2.11-3.64-5.48-1.91-11-3.74-16.45-5.64-.62-.21-.93-.16-1.11.51-.24.91-.56,1.79-.81,2.7a3.6,3.6,0,0,0,1.63,4.37l1.08.7c.27.17.21.38.11.61s-.24.34-.54.23c-1.61-.62-3.23-1.21-4.84-1.81-.48-.17-.38-.47-.25-.84q3-8.9,6.05-17.8c.19-.57.46-.73,1-.54,1.45.47,2.91.91,4.37,1.36.28.09.69.08.6.55s-.45.46-.82.44S34.83,116,34.52,116Z"/><path class="cls-1" d="M50.6,225.19c-5.4.67-10.54,1.28-15.66,2-1.91.26-2.28,1-1.71,2.83.09.28.33.61-.14.77s-.41-.27-.52-.48c-.94-1.77-1.86-3.54-2.78-5.31-.1-.21-.39-.47,0-.69s.43,0,.59.18c.95,1.23,2.29,1.23,3.64,1.09l21.16-2.26c.35,0,.81-.35,1.05.15s-.26.69-.48,1q-6.28,8-12.59,16c-.44.55-.84,1.13-1.26,1.7a3.13,3.13,0,0,0-.69,3.17c.1.23.11.48-.16.6s-.41-.08-.52-.3l-4-7.6c-.1-.21-.24-.41.07-.59s.4,0,.53.23l.24.41c1,1.47,1.69,1.58,2.83.18,2.75-3.37,5.43-6.8,8.14-10.2C49.06,227.14,49.73,226.28,50.6,225.19Z"/><path class="cls-1" d="M297,164.24c.05,1.61.27,3.2.48,4.8a5.62,5.62,0,0,0,3.35,4.63c.46.22.92.45,1.37.69a.58.58,0,0,1,.2.73c-.06.26-.31.19-.49.15l-5.28-1.16c-.53-.11-.51-.49-.53-.89q-.53-8.87-1.06-17.74c0-.26-.14-.59.25-.68s.41.26.5.52c.84,2.38.87,2.45,3.41,2.32,5.36-.28,10.73-.61,16.09-1,2.05-.13,2.41-.53,2.71-2.64,0-.26-.08-.6.34-.62s.36.32.37.58c.18,2.89.34,5.79.5,8.69,0,.28.17.72-.31.74s-.34-.36-.4-.63c-.55-2.29-1-2.57-3.33-2.42-5.36.35-10.73.63-16.09,1-2.1.14-2.13.21-2.08,2.32C297,163.85,297,164,297,164.24Z"/><path class="cls-1" d="M281.73,230.48c-.92.11-1.35.9-1.92,1.54-.2.22-.29.79-.76.46s0-.63.13-.91q2.2-3.88,4.43-7.75c.13-.23.16-.7.62-.5s.14.6,0,.87c-.84,2.28-.74,2.65,1.37,3.86q6.87,4,13.78,7.85c2.18,1.23,2.55,1.14,4.12-.79.18-.23.31-.66.7-.39s.06.56-.08.81q-2.27,4-4.54,8c-.11.19-.13.59-.56.41s-.19-.51-.09-.77c.89-2.39.76-2.79-1.44-4-4.55-2.61-9.12-5.19-13.67-7.79A5.83,5.83,0,0,0,281.73,230.48Z"/><path class="cls-1" d="M295.23,185.51c.22-3,.44-5.87.66-8.76,0-.28-.12-.72.35-.75s.34.42.37.7c.25,2.43.39,2.67,2.79,2.88,5.55.47,11.1.88,16.65,1.27,1.76.13,2.33-.37,2.71-2.07,0-.19.08-.38.14-.57s0-.61.45-.51.27.42.25.67c-.16,2.19-.34,4.38-.5,6.57-.07.9-.13,1.8-.19,2.7,0,.23-.05.5-.36.52s-.3-.28-.35-.51c-.55-2.94-.66-3-3.65-3.2-4.69-.33-9.38-.72-14.07-1.08-.51,0-1-.06-1.53-.07-2.18-.05-2.42.14-3,2.28-.08.3.07.86-.46.8S295.31,185.75,295.23,185.51Z"/><path class="cls-1" d="M315.42,140.87v-.71c0-.2,0-.4.27-.44s.4.15.44.41l1.68,9.25c0,.23.09.49-.22.58s-.39-.18-.46-.4-.1-.38-.16-.57c-.58-1.68-1.11-2.08-2.89-1.76q-8.32,1.46-16.63,3c-2.07.4-2.28.78-2.28,2.87,0,.33.3.92-.29,1s-.39-.57-.45-.92q-.81-4.16-1.56-8.31c-.06-.31-.3-.8.13-.94.61-.19.5.45.61.76.73,2,1.06,2.28,3.22,1.9q8.28-1.45,16.52-3C315.18,143.16,315.49,142.67,315.42,140.87Z"/><path class="cls-1" d="M48.75,254.73a4.5,4.5,0,0,0,.76,2.15c.13.22.37.47,0,.69s-.42-.06-.55-.25l-5.5-7.77c-.12-.18-.3-.39,0-.59s.42,0,.57.18.19.24.3.36c1.32,1.43,2,1.57,3.65.45,3.2-2.2,6.35-4.46,9.53-6.7,1.37-1,2.76-1.92,4.11-2.93,1.7-1.27,1.79-1.78.87-3.66-.15-.29-.69-.66-.19-1s.62.32.82.58q2.54,3.54,5,7.11c.16.24.67.51.2.86s-.54-.16-.74-.36c-1.77-1.75-2.09-1.81-4.09-.42q-6.63,4.67-13.25,9.37C49.53,253.34,48.78,253.89,48.75,254.73Z"/><path class="cls-1" d="M43.83,150.16c.1-1.81-.19-2.36-1.84-2.73q-8.48-1.91-17-3.65c-1.72-.36-2.24.09-2.94,1.91-.11.31,0,1-.62.76-.41-.14-.17-.63-.1-.94q.89-4.26,1.82-8.5c.07-.3,0-.83.52-.72s.21.52.2.8c-.07,2.31.16,2.7,2.34,3.18q8,1.78,16.08,3.44c2.17.45,2.49.19,3.29-1.78.13-.31.06-1,.63-.79s.18.67.11,1c-.56,2.64-1.12,5.28-1.71,7.92-.1.43.1,1.25-.59,1.16S44.09,150.43,43.83,150.16Z"/><path class="cls-1" d="M138.3,296.24c.26-.51.69-.49,1-.6,1.64-.5,3.3-1,4.95-1.46,1.27-.37,1.3-.36,1.07.9q-1.32,7.34-2.66,14.67c-.3,1.65-.6,3.31-.89,5s-.05,2.08,1.54,2.6l1.4.48c-.39.52-.76.25-1.06.2-2.66-.45-5.31-.94-8-1.43-.28-.05-.73,0-.67-.45s.45-.19.69-.19c2.56,0,2.72-.09,3.19-2.66.94-5.08,1.84-10.16,2.75-15.25.29-1.66-.09-2-1.79-1.91C139.39,296.13,138.92,296.43,138.3,296.24Z"/><path class="cls-1" d="M189.45,42.31c1.59.11,2.05-.17,2.55-1.93,1.37-4.79,2.69-9.58,4-14.37.19-.68.37-1.37.52-2.05.37-1.73.13-2.16-1.48-3-.3-.15-.94-.14-.68-.72s.63-.09.93,0q3.91,1.06,7.82,2.16c.32.09.93,0,.81.57s-.58.21-.89.18c-1.86-.14-2.39.16-2.93,1.95-.66,2.17-1.21,4.38-1.86,6.56-.17.55.06.69.49.81,3.06.83,6.12,1.66,9.17,2.53.48.14.64,0,.75-.41.64-2.38,1.34-4.75,1.91-7.15.32-1.37-.09-1.91-1.58-2.62-.31-.15-.91-.14-.69-.71s.63-.09.91,0c2.61.69,5.22,1.4,7.81,2.15.32.09.95,0,.86.56s-.63.26-1,.22c-1.61-.2-2.3.13-2.75,1.68q-2.38,8.36-4.65,16.75c-.44,1.63-.11,2.08,1.57,2.93.28.14.83.13.67.63s-.59.21-.9.12q-4-1.09-8-2.22c-.3-.09-.81,0-.65-.6s.52-.17.79-.15c2,.18,2.41,0,3-2,.69-2.25,1.27-4.53,1.93-6.78.16-.52.13-.75-.47-.91-3-.79-6-1.63-8.94-2.48-.67-.2-.89,0-1.05.66-.56,2.16-1.2,4.3-1.76,6.46-.52,2-.27,2.49,1.6,3.43.24.12.72.11.56.58s-.6.19-.89.11c-2.68-.72-5.37-1.45-8-2.22-.26-.07-.84,0-.69-.55s.58-.21.9-.24A2.16,2.16,0,0,1,189.45,42.31Z"/><path class="cls-1" d="M124.84,25.2c8.06.08,11.94,7.41,12,13.3.07,6.33-5.45,11.53-12,11.5s-12-6.07-12-13.27A11.68,11.68,0,0,1,124.84,25.2Z"/><path class="cls-1" d="M233.48,53c-1.25,1.52-2.44,2.93-3.58,4.37a.64.64,0,0,1-.91.17L212.54,50c-.22-.1-.6-.15-.48-.53s.51-.21.78-.16c2.27.46,2.56.35,3.53-1.76q3.42-7.41,6.79-14.86c.85-1.91.67-2.39-1-3.55-.24-.17-.8-.23-.46-.73s.56,0,.81.08l11.86,5.43c1.32.6,2.63,1.22,4,1.79.57.25.76.51.46,1.13-.51,1-.93,2.16-1.4,3.23-.12.26-.16.66-.63.51s-.45-.41-.39-.82c.37-2.7.12-3.24-2.31-4.48-1.81-.92-3.69-1.72-5.53-2.6-.75-.36-1.25-.23-1.6.55-1,2.25-2,4.49-3.09,6.73-.19.42-.22.67.29.89,1.77.76,3.49,1.61,5.26,2.34s2.29.5,3.49-.9c.18-.21.35-.42.52-.64s.43-.15.64,0,.22.37.11.6q-1.51,3.3-3,6.62c-.1.22-.19.43-.5.32s-.5-.24-.42-.59c0,0,0-.07,0-.11.55-2.34.6-3-2.58-4.42-1.32-.6-2.65-1.17-4-1.82-.57-.29-.81-.15-1,.4-1.09,2.43-2.19,4.85-3.32,7.27a1.21,1.21,0,0,0,.62,1.83,53.45,53.45,0,0,0,5.45,2.47A6.08,6.08,0,0,0,232,53C232.58,52.53,232.61,52.56,233.48,53Z"/><path class="cls-1" d="M155.22,18.17c.43-.13.54.22.62.65.22,1.24.47,2.47.71,3.7,0,.26.2.56-.24.62s-.67.16-.78-.27c-.81-3-3.06-2.92-5.45-2.54-1.66.27-3.32.55-5,.78-1,.13-1.23.63-1.07,1.55.4,2.31.77,4.64,1.12,7,.08.56.18.84.87.71,1.57-.32,3.17-.51,4.75-.8,2.16-.39,2.53-.81,2.83-3,0-.4-.13-1,.54-1s.41.57.46.91q.54,3.18,1,6.38c0,.31.33.71-.26.84s-.57-.28-.72-.58c-1.11-2.25-1.58-2.48-4-2.09-1.39.23-2.79.44-4.19.64-.58.08-.91.25-.78,1,.44,2.55.79,5.11,1.25,7.65.31,1.66.77,1.94,2.65,2,.35,0,.92-.22.91.39,0,.42-.54.36-.85.42-2.75.44-5.5.85-8.25,1.27-.29,0-.67.24-.75-.25s.31-.38.55-.47c2.2-.89,2.32-1.09,2-3.4-.81-5.27-1.6-10.54-2.47-15.8-.29-1.76-.43-2.94-3-2.76-.27,0-.71.15-.71-.35s.46-.34.72-.38q7.2-1.17,14.4-2.3Z"/><path class="cls-1" d="M189.67,22.45c-.06.78-.11,1.57-.2,2.34,0,.28.14.69-.34.74s-.56-.27-.63-.65c-.12-.62-.28-1.22-.43-1.83a2.91,2.91,0,0,0-2.23-2.18c-1.3-.34-2.77-.87-3.92-.45-1.41.51-.68,2.24-.81,3.4-.54,4.94-1,9.9-1.33,14.87-.18,2.37.05,2.58,2.28,3.2.29.08.84-.06.76.49s-.56.28-.85.26q-4.4-.37-8.78-.81c-.27,0-.74.12-.74-.35s.49-.37.81-.4c2.23-.16,2.55-.4,2.77-2.63.56-5.81,1.06-11.63,1.62-17.44.08-.86-.12-1.22-1-1.18s-2-.17-3.05-.1a3.46,3.46,0,0,0-3.24,2.45c-.13.33-.27.65-.38,1s-.12.72-.64.66-.4-.5-.36-.81c.15-1.56.36-3.11.5-4.67.06-.65.44-.62.9-.58l11.24,1c2.42.21,4.84.44,7.26.61.75.06,1.07.25.92,1.07a13.05,13.05,0,0,0-.12,2Z"/><path class="cls-1" d="M192.74,206c-3.77,0-7.54,0-11.3,0a3.39,3.39,0,0,1-3-1.48q-3.12-4.64-6.14-9.34a2.21,2.21,0,0,1,.11-2.83,3.4,3.4,0,0,0,.62-2.22c.07-1.48,0-3,1.58-3.92,0-1.73,1.47-2.29,2.49-3.23a1.75,1.75,0,0,0,.33-1.34c0-1.14,0-2.28.1-3.41a2,2,0,0,1,3.15-1.48c.41.27.37.66.35,1.05-.07,1.33-.19,2.66-.23,4,0,.47-.39,1.15.44,1.37s1.55.4,2.09-.27a36.86,36.86,0,0,1,3.58-4.21c.28-.27.12-.43-.05-.68a1.82,1.82,0,0,1,.68-2.85,5,5,0,0,1,1.54-.56,18,18,0,0,0,4.11-1.36c1.5-.71,2.86-.42,4.47.11,2.44.8,4.65,2.25,7.25,2.53,1,.1,1,.52.64,1.23a.81.81,0,0,1-.1.21c-1.8,2.15-1.76,4.61-1.48,7.22a32.45,32.45,0,0,1-.69,10.3,4.14,4.14,0,0,0,.77,3.62,7.94,7.94,0,0,1,1.49,6.66c-.17.83-.53,1-1.34,1-3.81,0-7.62,0-11.42,0Z"/><path class="cls-1" d="M145.49,204.44c-3.26,0-6.51,0-9.77,0-2.51,0-3.33-1.45-2.22-3.74a33.64,33.64,0,0,1,4.37-6,36.3,36.3,0,0,0,2.18-2.92,2.54,2.54,0,0,0-1-4c-.7-.42-1.49-.69-2.23-1.05a4.8,4.8,0,0,1-1.76-1.15c-.81-.95-.56-2.11.64-2.37,5-1.08,10-2.16,15.13-1.39a8.72,8.72,0,0,1,2.57.8c1.63.82,1.88,1.77.83,3.3-.41.61-.64,1.21-.16,1.84a1.63,1.63,0,0,0,1.91.48c.8-.22,1.15-.69.77-1.49a2.46,2.46,0,0,1,.1-2.34c.68-1.41-.18-3.43-1.79-4.43a7.22,7.22,0,0,0-3.58-1,26.64,26.64,0,0,1-4.46-.19c-.55-.12-1.18-.25-1.15-.94s.62-.94,1.25-1a29.48,29.48,0,0,0,4.72-.88,8.41,8.41,0,0,1,10.31,6.71,3.76,3.76,0,0,0,.68,2,1.35,1.35,0,0,1,0,1.66,1.89,1.89,0,0,0,.25,2.55,8.29,8.29,0,0,1,2.23,4.68,4,4,0,0,1-.84,3.18c-1.58,1.9-3.11,3.84-4.64,5.78a3.7,3.7,0,0,1-3,1.55C153.09,204.3,149.3,204.51,145.49,204.44Z"/><path class="cls-28" d="M172.57,117.28c.18-2.17,1.65-3.56,1.85-5.45.41,1.75,2.15,2.47,2.79,4,.13.31.39.69.12,1s-.57-.09-.82-.21A3,3,0,0,0,172.57,117.28Z"/><path class="cls-28" d="M168,117a8.33,8.33,0,0,1,1.39-2.55,3.94,3.94,0,0,0,.75-3c-.05-.27-.15-.56.2-.7a.72.72,0,0,1,.85.2,2.71,2.71,0,0,1,.78,1.91A4.77,4.77,0,0,1,168,117Z"/><path class="cls-29" d="M131.25,77.79a1.63,1.63,0,0,1,1.57-.11c1.16.64,2.31,1.31,3.45,2,.3.18.61.49.49.85s-.49.33-.81.38c-1.89.28-4.51-1.46-4.68-3.13Z"/><path class="cls-28" d="M168.1,111.56c.05,1.6-1.79,4.25-3.25,4.67-.25.07-.55.27-.76,0s0-.5.18-.73q1.28-2.16,2.58-4.31c.17-.28.29-.74.73-.61S168.05,111.17,168.1,111.56Z"/><path class="cls-30" d="M173.44,120.51c.27-.52-.14-1.51.56-1.7s1.06.7,1.38,1.32a2.4,2.4,0,0,0,.49.78c.43.36.57.69.23,1.18a1.05,1.05,0,0,1-1.34.39A2.09,2.09,0,0,1,173.44,120.51Z"/><path class="cls-30" d="M160.67,78.91a3.61,3.61,0,0,1,2.46-1.39c.79,0,1.21.79,1.52,1.48.12.27.2.64-.12.85a.55.55,0,0,1-.75-.11c-.7-1-1.63-.9-2.62-.59C161,79.2,160.86,79.2,160.67,78.91Z"/><path class="cls-30" d="M161.36,114.06c-.49.06-.59-.16-.36-.6a5.12,5.12,0,0,1,2-2.11.7.7,0,0,1,.77-.08c.32.22.25.56.19.86A2.91,2.91,0,0,1,161.36,114.06Z"/><path class="cls-31" d="M131.27,77.77a4,4,0,0,1-3.17-.14c-.61-.22-.58-.51-.19-.93a1.92,1.92,0,0,1,3,.37l.37.72Z"/><path class="cls-32" d="M159,112.61a4.52,4.52,0,0,1,.39-2.08.72.72,0,0,1,.87-.4c.44.16.13.51.07.79A2.05,2.05,0,0,1,159,112.61Z"/><path class="cls-33" d="M167.12,109.31c-1.11.23-1.12-.42-1.22-.94s.26-.48.59-.5a1.05,1.05,0,0,1,1.22,1C167.78,109.48,167.2,109.29,167.12,109.31Z"/><path class="cls-1" d="M159,223.22c-.7-.28-1.5.27-1.79-.57s.26-1.4.78-2a20.36,20.36,0,0,1,5.55-4.12,2.39,2.39,0,0,0,1.49-2.06,15.81,15.81,0,0,1,1.6-4.4,8.92,8.92,0,0,0,.65-1.88c.16-1.16.73-.82,1.24-.38,1.13.95,1.18,2.36,1.34,3.66a10.42,10.42,0,0,1-.45,5.33c.83-.25,1.55-.51,2.28-.68,2.65-.62,4.75.69,5.15,3.35a9.64,9.64,0,0,0,1.45,4.16,1.48,1.48,0,0,1-.39,2.26,3.31,3.31,0,0,0-.93,1.34c-.45.88-1,1.62-2.11,1.59-.18,0-.5.08-.53.19-.35,1.37-1.79,1.69-2.54,2.68-.9,1.21-2.11,1.16-3.05-.11a17.46,17.46,0,0,1-1.63-3.76c-.08-.21-.17-.42-.38-.93-.81,2.61-1.58,4.95-2.26,7.31a1.45,1.45,0,0,0,1,1.7c.64.31,1.31.54,2,.8a5.29,5.29,0,0,1,1.81,1.08c.49.46,1.1,1,.9,1.68s-1.06.45-1.64.53c-1.13.16-2.26.29-3.38.42-.51.06-1,.22-1,.78a1.12,1.12,0,0,0,.85,1.26c.94.25,1.91.42,2.87.59s1.17.58,1.63,1.41c.77,1.39-.32,1.63-.82,2.18a5.89,5.89,0,0,1-3.48,1.58,33.88,33.88,0,0,1-15.69-1c-.92-.27-2.06-.58-2.07-1.78s1.06-1.72,2-2a34.82,34.82,0,0,1,6-1c.66-.1,1.32-.19,2-.24,1-.08,1.25-.93,1.4-1.65s-.53-.41-.84-.39c-2.9.23-5.8.13-8.71.19a4.52,4.52,0,0,1-2.57-.68c-.57-.37-.62-.72-.18-1.23a6.77,6.77,0,0,1,3.51-2.42,22.83,22.83,0,0,0,6.84-3.05,2.2,2.2,0,0,1,2.72-.07c.54.41.63.11.8-.29a16.61,16.61,0,0,1,2.63-4.29c.15-.18.53-.39.23-.66s-.61,0-.8.25a8.74,8.74,0,0,1-4.25,2.61c-1.72.58-1.9.45-1.91-1.33a13.53,13.53,0,0,1,.13-2.46A5,5,0,0,1,159,223.22Z"/><path class="cls-1" d="M174.58,240.25c-.87-2,.78-2.51,2.22-3.36a7.56,7.56,0,0,1,6.19-.71c2.07.57,4.22.84,6.31,1.35,1.49.36,1.81,1,1.55,2.48,0,.3-.09.62-.16.92-.27,1.14-.09,1.93,1.26,2.24a3.26,3.26,0,0,1,2.11,1.59c.86,1.51.35,3-1.33,3.42a28.57,28.57,0,0,1-10.45,1c-2.41-.28-4.81-.59-7.22-.9A3.88,3.88,0,0,1,172.4,247a1.81,1.81,0,0,1,.34-2.76C174.17,243.31,174.44,242,174.58,240.25Z"/><path class="cls-1" d="M106.79,89l-.72-2c1.73,0,2.18.32,2.37,1.76.08.63.46.73,1,.79,1.87.21,3.73.45,5.6.65a4.86,4.86,0,0,1,1.54.34,3.88,3.88,0,0,1-2.74.86c-4.12-.09-8.2-.64-12.29-1-4.86-.48-9.72-1-14.58-1.55a111.57,111.57,0,0,1-13.12-2,6.07,6.07,0,0,1-.75-.31c1.54-.93,3.11-.51,4.52-.25a107,107,0,0,0,15.67,1.33c4,.16,7.95.78,11.9,1.29A3.84,3.84,0,0,0,106.79,89Z"/><path class="cls-34" d="M70.69,79.79a2.85,2.85,0,0,1,2.85.75C72.39,80.76,71.48,80.79,70.69,79.79Z"/><path class="cls-35" d="M67.15,78.86a1.12,1.12,0,0,1-.69.76c-.28.13-.42-.07-.47-.33a.63.63,0,0,1,.51-.78A.59.59,0,0,1,67.15,78.86Z"/><path class="cls-36" d="M273.61,77.31a3.77,3.77,0,0,1,5-1.06A7,7,0,0,1,273.61,77.31Z"/><path class="cls-37" d="M258,78.89c2-1,4.2-.88,6.31-1.25C262.4,79,260.22,79.08,258,78.89Z"/><path class="cls-38" d="M267.66,77.15l3.4-.68A2.6,2.6,0,0,1,267.66,77.15Z"/><path class="cls-30" d="M174.28,143a4.17,4.17,0,0,1,2-3.45c.25-.14.56-.35.86,0a.76.76,0,0,1,.12.77,6.34,6.34,0,0,1-1.94,3.29c-.24.23-.52.63-.88.46S174.35,143.35,174.28,143Z"/><path class="cls-39" d="M95.07,72.82a1.83,1.83,0,0,1,1.63,1.07c.12.23.19.45-.12.58a2,2,0,0,1-1.9-.23c-.36-.23-.84-.53-.75-1S94.58,72.83,95.07,72.82Z"/><path class="cls-30" d="M157.89,143.34l.18-1.27c.07-.45,0-1,.55-1.16a1.69,1.69,0,0,1,1.4.44c.49.35.15.78,0,1.15a8.45,8.45,0,0,1-.62,1.37.82.82,0,0,1-1,.3C158,144.05,157.88,143.72,157.89,143.34Z"/><path class="cls-40" d="M85.65,102a2.1,2.1,0,0,1-2.14.61c-.25-.09-.63-.12-.62-.44s.35-.53.65-.57A2.59,2.59,0,0,1,85.65,102Z"/><path class="cls-41" d="M207.39,131.92a5.62,5.62,0,0,1,3.07,2c.14.16.24.37.09.53a.57.57,0,0,1-.66.08c-1-.4-2-.82-3-1.24-.35-.15-.62-.4-.55-.8S206.81,131.92,207.39,131.92Z"/><path class="cls-33" d="M108.76,99a24.24,24.24,0,0,1,6.86.35c.59.06.91.54,1,1.35C114.05,99.54,111.18,100.4,108.76,99Z"/><path class="cls-42" d="M236.15,107.05c-.94-.11-1.79-.2-2.64-.31-.38,0-.87-.13-.85-.6s.4-.53.79-.57a7,7,0,0,1,2.66-.06c.72.18,1.57.38,1.46,1.18S236.57,106.84,236.15,107.05Z"/><path class="cls-43" d="M178,98.37c.43,1.17.84,2.26,1.23,3.36a.56.56,0,0,1-.12.65c-.17.14-.37,0-.53-.11C178,101.8,177.56,99.21,178,98.37Z"/><path class="cls-44" d="M125.34,100.58c-.48-.26-1.35.08-1.41-.55s.72-.78,1.29-.77,1.17.27,1.21.76C126.47,100.67,125.69,100.31,125.34,100.58Z"/><path class="cls-3" d="M21.22,185.74c0-3.76,1.73-5.65,5.15-5.59a4.2,4.2,0,0,1,4,2.6,18.09,18.09,0,0,1,1.16,4.77c.09.51-.22.48-.53.52l-8.41.83a1,1,0,0,1-1.14-.89A15.4,15.4,0,0,1,21.22,185.74Z"/><path class="cls-3" d="M301.87,104.49c0,2.1-1.09,3.57-3.33,4.49s-4,.62-5.5-.92a10.85,10.85,0,0,1-2.18-3.71c-.21-.52,0-.69.38-.88,2.65-1.26,5.3-2.52,7.93-3.8a.93.93,0,0,1,1.43.48A9.23,9.23,0,0,1,301.87,104.49Z"/><path class="cls-3" d="M304.2,226.49c-4.2,0-6.58-3.15-5.56-6.9.91-3.39.91-3.39,4.09-2.11,1.89.76,3.75,1.57,5.66,2.27,1.08.39,1.27,1,.83,2a11.63,11.63,0,0,1-1.83,3.12A4.28,4.28,0,0,1,304.2,226.49Z"/><path class="cls-3" d="M304.76,200.36a11.73,11.73,0,0,1,.54-3.49c.18-.59.5-.71,1.05-.59,2.79.62,5.57,1.25,8.37,1.81a1,1,0,0,1,.94,1.42,9.86,9.86,0,0,1-1.49,3.92,4.38,4.38,0,0,1-4.59,2c-2.05-.34-3.84-1.13-4.59-3.32A6.34,6.34,0,0,1,304.76,200.36Z"/><path class="cls-3" d="M182.23,310.35a23.28,23.28,0,0,1-.55,5.65c-.57,2.12-1.55,3.12-3.31,3.33-1.6.18-3-.75-3.94-2.6a15.76,15.76,0,0,1-1.35-5.81,33.22,33.22,0,0,1,.34-9.95,7.35,7.35,0,0,1,1-2.38,3.24,3.24,0,0,1,5.59-.16,12.52,12.52,0,0,1,1.89,5.75A47.82,47.82,0,0,1,182.23,310.35Z"/><path class="cls-3" d="M193.19,311.59a6.29,6.29,0,0,1,1.51-4,.85.85,0,0,1,1.21-.25c1.27.69,2.58,1.3,3.86,2a4.17,4.17,0,0,1,1.67,1.61,4.05,4.05,0,0,1-.85,5.39,4.53,4.53,0,0,1-6.05-.7A6.27,6.27,0,0,1,193.19,311.59Z"/><path class="cls-3" d="M195,295.1c3,0,4.75,3.21,3.44,6.21a9.48,9.48,0,0,1-1.65,2.28c-.32.38-.64.31-1,.13a12.62,12.62,0,0,1-3.14-1.82,4,4,0,0,1-1.54-4.37A3.9,3.9,0,0,1,195,295.1Z"/><path class="cls-3" d="M155.69,303.2a10.28,10.28,0,0,1,.74-4.25,3.48,3.48,0,0,1,3.14-2.45,3.67,3.67,0,0,1,3.65,2.28,11.86,11.86,0,0,1,.9,6.2c0,.39-.09.78-.12,1.17-.16,2.22-.86,3-3.11,3.36a3.83,3.83,0,0,1-4.47-2.18A9.6,9.6,0,0,1,155.69,303.2Z"/><path class="cls-3" d="M133.38,40.74A7.35,7.35,0,0,1,129,47.89a7,7,0,0,1-8.1-2.1,17.62,17.62,0,0,1-4.44-12.08,6.66,6.66,0,0,1,4.35-6.42,6.79,6.79,0,0,1,7.6,1.59c2.77,2.64,3.94,6.15,4.77,9.78A7.48,7.48,0,0,1,133.38,40.74Z"/><path class="cls-4" d="M183.49,198.42c.11.59.08,1.1-.51,1.22s-.79-.34-.9-.84a2.23,2.23,0,0,0-.89-1.43,1.25,1.25,0,0,1,.25-2.17c.68-.38.65-1,.62-1.65-.05-1-.1-2-.18-3.05a2.05,2.05,0,0,1,1.34-2.22,7.39,7.39,0,0,0,4.06-4.49,4.19,4.19,0,0,0,.15-2.77c-.2-.57,0-.78.5-.89s.83-.36,1,.35c.25,1.09,1.12,1.21,2,1.11s1.77-.28,2.66-.45c.61-.12,1.15-.23,1.39-1a.9.9,0,0,1,1.54-.37,1.94,1.94,0,0,0,1.72.44c.46,0,.92,0,1,.57s-.35.71-.8.85-1.52-.09-1.45.78c.09,1.25-.75,2.67.52,3.74a.82.82,0,0,1,.39.89.6.6,0,0,1-.7.49c-1-.15-1.32.48-1.66,1.17s-.64,1.35-1,2c-.48.83-.65,1.59.21,2.3a.67.67,0,0,1,.12,1,.66.66,0,0,1-.94.12,2.49,2.49,0,0,0-2.84.4c-.51.35-.94.83-1.45,1.19s-1.09.87-.57,1.7a.6.6,0,0,1-.3.89c-.35.17-.79.13-.91-.26-.4-1.38-1.35-1.12-2.33-.87-.46.12-.92.22-1.38.31S183.15,197.81,183.49,198.42Z"/><path class="cls-6" d="M191,204.72c-2.59,0-6.08,0-9.57,0-.59,0-1.48.41-1.45-.87s.88-.77,1.41-.75c5.88.31,11.76.28,17.64.18,1.14,0,2.27-.11,3.41-.16a2.49,2.49,0,0,1,1.37.28.88.88,0,0,1,.46.89c0,.44-.37.57-.73.64a3.75,3.75,0,0,1-.82,0C199.11,204.9,195.5,205,191,204.72Z"/><path class="cls-6" d="M187.85,178.08c-.6-1.1-.5-2,.47-2.21,2.42-.63,4.72-1.61,7.13-2.24a2.81,2.81,0,0,1,.82,0c.3,0,.72,0,.74.38s-.4.28-.64.39c-.45.19-1,.06-1.56.62,3.18,1.22,6.62.3,9.63,1.86-.09.33-.49.44-.9.52a9.56,9.56,0,0,1-3.73.1,14.42,14.42,0,0,0-4.49-.62,3,3,0,0,1-2.3-1,.67.67,0,0,0-1-.07,6.51,6.51,0,0,1-2.88,1.24C188.53,177.09,188.2,177.54,187.85,178.08Z"/><path class="cls-6" d="M200.18,188.18l1.58-1.87a4.13,4.13,0,0,1-.9,2.81c-.37.48-.47.89.29,1,.53,0,.53.33.47.72-.13.93-.27,1.86-.38,2.79s-.69,1.2-1.61,1c.19-.52.38-1,.54-1.46.09-.27.16-.58-.19-.7s-.37.2-.49.38c-.4.63-.79,1.27-1.22,1.87-.2.3-.55.59-.89.38s0-.62.13-.89a15.34,15.34,0,0,0,1.41-2.84c-1.22.46-1.56,1.53-2.37,2.23-.27-.85.29-1.34.68-1.86a5.37,5.37,0,0,0,.93-2.19,13,13,0,0,1,3.22-6,.42.42,0,0,1,.53-.12c.31.19.12.41,0,.6L200.2,187C200,187.36,199.73,187.74,200.18,188.18Z"/><path class="cls-45" d="M197.8,197.36a1.48,1.48,0,0,1-.25,1.75c-.41.66-.85,1.32-1.23,2-.11.21-.22.57.11.71s.44-.14.55-.34c.43-.75.8-1.52,1.24-2.27a8.81,8.81,0,0,1,1.63-2.08c.08,1.47-1.15,2.4-1.18,3.84a2.29,2.29,0,0,0,1.48-1.71,5.13,5.13,0,0,1,.39-1c.15-.27.26-.79.72-.55s.13.54,0,.83-.12.9.32,1c1.28.25,1.47,1.51,2.56,2.34a45.21,45.21,0,0,0-9.37.63C195.42,200.48,196.8,199.13,197.8,197.36Z"/><path class="cls-46" d="M187.19,201.73c2.57-.17,3.08-2.61,4.54-4,.16-.15.05-.66.48-.43.27.14.21.47.1.74a16.65,16.65,0,0,1-1.52,2.36c-.23.4-1,.86-.5,1.23s.88-.41,1.16-.81c.7-1,1.32-2,2-3,.16-.22.36-.61.74-.33s0,.53-.07.74c-.73,1.25-1.48,2.48-2.24,3.71a.54.54,0,0,1-.37.24c-1.42,0-2.84,0-4.26,0Z"/><path class="cls-47" d="M183.08,184.33c-1,0-1.49.68-1.94,1.44a1.88,1.88,0,0,1-2.95.71,18.09,18.09,0,0,1-1.44-1.21c-.18-.15-.37-.34-.25-.6s.48-.27.71-.18a8.92,8.92,0,0,1,1.15.59c.73.41,1.36.5,1.94-.3C181,183.76,182.12,184.44,183.08,184.33Z"/><path class="cls-48" d="M179.8,180.68l-.24,3.14c0,.24-.07.52-.35.52s-.34-.17-.46-.31a1.53,1.53,0,0,1-.38-1.08c.08-1.43.18-2.87.27-4.31,0-.37.19-.57.59-.54a.54.54,0,0,1,.57.59Z"/><path class="cls-49" d="M180.94,187.78c.32,1.24-.23,2-1.36,2.08a5.61,5.61,0,0,1-4.17-2.48c-.12-.28-.19-.54.1-.72s.52,0,.69.24a5.7,5.7,0,0,0,1.31,1.33C178.93,189.14,179.74,189.06,180.94,187.78Z"/><path class="cls-50" d="M196.34,197.15a.88.88,0,0,1-.08,1.1c-.71,1.12-1.41,2.24-2.13,3.35-.21.32-.41.69-.84.75-.27,0-.71,0-.46-.38C193.91,200.33,194.63,198.4,196.34,197.15Z"/><path class="cls-51" d="M173.93,190.55a5.25,5.25,0,0,0,.22-2.43c-.13-.4.26-.58.58-.29s.91.72.69,1.48a4.22,4.22,0,0,0-.08,2c.08.41,0,.87-.41,1s-.56-.38-.69-.69A7.31,7.31,0,0,1,173.93,190.55Z"/><path class="cls-52" d="M177.4,191.55c-.7.2-.45.89-.67,1.34s-.09.88-.65.75-.38-.59-.29-.9a6.44,6.44,0,0,0,.54-3.3c.52.75,1.94.74,1.52,2.09A.29.29,0,0,1,177.4,191.55Z"/><path class="cls-53" d="M177.4,191.55l.45,0a6.92,6.92,0,0,1,.15,2.79c-.09.31,0,.88-.47.82s-.51-.58-.47-1A10.86,10.86,0,0,0,177.4,191.55Z"/><path class="cls-54" d="M199.76,182.81c.34,0,.53.16.43.36-.33.62-.13,1.57-1,1.83-.29.09-.35-.36-.32-.63A1.81,1.81,0,0,1,199.76,182.81Z"/><path class="cls-55" d="M196.59,190.38c0,.16.09.3,0,.37-.23.41-.06,1.06-.69,1.21-.08,0-.31-.2-.3-.29C195.74,191.11,195.87,190.56,196.59,190.38Z"/><path class="cls-56" d="M179.25,195.42a.64.64,0,0,1-.19-.88.21.21,0,0,1,.37,0A.59.59,0,0,1,179.25,195.42Z"/><path class="cls-4" d="M146.43,201.07a3.86,3.86,0,0,0,3.09.49,14,14,0,0,1,4.65-.35c.78.08,1.56.13,2.33.26.57.09,1.12.34,1.09,1s-.63.79-1.22.8c-6.65.1-13.32.23-20-.24a5,5,0,0,1-.93-.15c-.3-.07-.82.07-.72-.49.07-.41.46-.51.84-.48,1,.06,2.1.16,3.16.2.36,0,.77.14,1.14-.19a1.07,1.07,0,0,0-1-.51l-2.1-.21c-1.51-.16-1.66-.48-.86-1.77a2.29,2.29,0,0,1,2.75-1.17,65.3,65.3,0,0,0,6.8,1.18,12.22,12.22,0,0,0,2.57-.2c.5,0,.91,0,1,.48s-.32.89-.81.95a15.76,15.76,0,0,1-1.82,0Z"/><path class="cls-57" d="M146.92,178a1.31,1.31,0,0,1,1.1-.54,24.47,24.47,0,0,0,4.76-.56,8.29,8.29,0,0,1,9.06,6.74,1.11,1.11,0,0,1-1,1.53,5.65,5.65,0,0,1-2,.24c-1-.14-1.43-.55-1.27-1.64a4.14,4.14,0,0,0-2.58-4.72,9.75,9.75,0,0,0-4.59-.73A8.1,8.1,0,0,1,146.92,178Z"/><path class="cls-57" d="M141.08,184.91c-.59,0-1.18,0-1.76,0-.28,0-.59.08-.52.47s.35.26.56.26a10.65,10.65,0,0,1,3.67.67A2.85,2.85,0,0,1,145,188.2c.07.22.22.44,0,.65a.66.66,0,0,1-.77.07,1.1,1.1,0,0,1-.49-.32c-1.2-1.53-2.95-1.77-4.7-2a5.56,5.56,0,0,1-2.82-1c-.31-.26-.61-.54-.5-1s.46-.47.82-.54a71.22,71.22,0,0,1,10.08-1.38,4,4,0,0,1,2,.44c.32.16.64.39.64.77s-.37.56-.7.68a10.78,10.78,0,0,1-5,.6C142.79,185,141.94,185,141.08,184.91Z"/><path class="cls-58" d="M146.05,198.61a31,31,0,0,1-7-1.09c-.51-.11-1.13-.32-1-.92.17-.81.87-.43,1.36-.33,2.8.57,5.6,1.11,8.45.32a1.1,1.1,0,0,1,1.44.7c.21.71-.38,1-1,1.17A9.76,9.76,0,0,1,146.05,198.61Z"/><path class="cls-59" d="M155.54,193.5a1.07,1.07,0,0,1-.34.72c-1.43,1.56-2.85,3.12-4.29,4.66-.17.19-.37.52-.66.3s-.19-.51-.06-.76a4.59,4.59,0,0,1,.66-1.09,52.11,52.11,0,0,0,3.4-4c.23-.3.46-.55.88-.42A.56.56,0,0,1,155.54,193.5Z"/><path class="cls-60" d="M164,195.13a9.36,9.36,0,0,1-.47,1.07A23.83,23.83,0,0,1,159.5,201c-.21.21-.48.55-.79.28s0-.58.16-.81c1.45-1.84,2.92-3.68,4.38-5.51.14-.17.28-.43.56-.29C163.91,194.76,163.94,195,164,195.13Z"/><path class="cls-59" d="M156.39,200.59l-2-.1c-.3,0-.66.07-.76-.36a.78.78,0,0,1,.36-.8,1.1,1.1,0,0,1,1.18-.28,2.84,2.84,0,0,0,3.3-.72c.25-.23.57-.61.89-.33s0,.74-.24,1C158.41,199.84,157.77,200.87,156.39,200.59Z"/><path class="cls-61" d="M156.08,194.57a1,1,0,0,1-.08,1.19,28,28,0,0,1-3.63,4.13c-.2.19-.5.49-.82.21s-.07-.59.14-.81C153.12,197.74,154.55,196.21,156.08,194.57Z"/><path class="cls-61" d="M143.49,190.46c-.15.24-.3.5-.47.76-.87,1.38-2.17,2.46-2.79,4a.49.49,0,0,1-.77.26c-.51-.31-.29-.75,0-1.1,1.06-1.39,2.14-2.77,3.22-4.15a.87.87,0,0,1,.16-.17C143.23,189.81,143.36,190.07,143.49,190.46Z"/><path class="cls-62" d="M158.34,194.37a5.92,5.92,0,0,1-1-.08c-.34-.08-.69-.25-.65-.7s.42-.39.72-.38a5,5,0,0,0,2.28-.41,1,1,0,0,1,.57-.07c.57.09,1.38.13,1.41.77s-.77.59-1.3.64Z"/><path class="cls-62" d="M157.39,191.6c.2-.89.35-1.52.49-2.16.07-.3.21-.52.54-.5s.34.25.4.49c.13.64.33,1.27.42,1.92s-.5.87-1.06.88S157.32,192,157.39,191.6Z"/><path class="cls-63" d="M148.36,190c.42-1.62.86-3.21,2.35-4.22C150.57,187.58,149.45,188.81,148.36,190Z"/><path class="cls-64" d="M162.17,185.29c-1.22,1.65-3.95,1.71-4.92.05C159,186.26,160.48,185.83,162.17,185.29Z"/><path class="cls-65" d="M158.16,195.3c-.69,1-1.38,2-2.08,3-.11.16-.28.31-.49.13a.61.61,0,0,1,0-.85,8.31,8.31,0,0,1,2.33-2.5Z"/><path class="cls-66" d="M162.8,190.28c-.06.48-.52.61-.88.79s-.84.77-1.44.54a.35.35,0,0,1-.1-.65,19.79,19.79,0,0,1,2.06-1C162.65,189.84,162.8,190,162.8,190.28Z"/><path class="cls-67" d="M160.08,197.4a.29.29,0,0,1-.27-.31,5.44,5.44,0,0,1,1.66-2.18c.17,0,.33,0,.38.12.11.33-.09.59-.26.85C160.92,196.86,160.35,197.44,160.08,197.4Z"/><path class="cls-65" d="M160.39,189.91c-.31-.06-.78,0-.62-.35.3-.77,1.14-.82,1.81-1.06.22-.07.54,0,.47.33C161.84,189.73,161,189.66,160.39,189.91Z"/><path class="cls-68" d="M159.75,195.11a2.8,2.8,0,0,1-2,2.43A4.61,4.61,0,0,1,159.75,195.11Z"/><path class="cls-69" d="M147.53,186.2c.35,0,.46.16.43.41a1.52,1.52,0,0,1-.91,1.36c-.33.12-.52-.12-.47-.45A1.59,1.59,0,0,1,147.53,186.2Z"/><path class="cls-70" d="M143.57,194.41a1.08,1.08,0,0,1,.88-.83.51.51,0,0,1,.62.52.75.75,0,0,1-.77.72A.63.63,0,0,1,143.57,194.41Z"/><path class="cls-71" d="M162.69,192.49c-.29,0-.58-.07-.48-.39a1.54,1.54,0,0,1,1.2-1c.22-.06.37.13.33.35A1.22,1.22,0,0,1,162.69,192.49Z"/><path class="cls-9" d="M170.62,221.62a1.16,1.16,0,0,1,.58,1.43,4.65,4.65,0,0,0,.14,3.1.88.88,0,0,1-.1,1c-1,1.09-1.05,2.59-1.73,3.92a2.62,2.62,0,0,1-.34-1.77,3.78,3.78,0,0,0-.53-2.13c-.28-.71-.28-1.44.39-1.77,1.27-.64,1.46-1.71,1.49-2.93A8,8,0,0,1,170.62,221.62Z"/><path class="cls-6" d="M172.69,226a1.94,1.94,0,0,1-.71-2.27c.16-.61-.42-1.43.23-1.77a4,4,0,0,1,1.85,0c1.31.07,2.6.14,3.26,1.6.56,1.21.52,1.32-.81,1.52-.48.07-.93.15-1.3-.31.12-.35.43-.25.67-.25s.49-.08.49-.37a1.12,1.12,0,0,0-.32-.85c-.25-.23-.39,0-.58.15s-.5.38-.71.34C173.12,223.47,172.73,224.45,172.69,226Z"/><path class="cls-6" d="M163.18,222.4c.73-.05,1.44.44,2.19.1a.45.45,0,0,1,.36.2c0,.08-.08.27-.17.37a1.77,1.77,0,0,1-.49.31,5.62,5.62,0,0,0-2.48,1.88c-.32.48-.73.67-1-.12-.11-.38-.31-.64-.73-.61s-.58.31-.71.68-.11.8-.64.58-.3-.6-.25-.93C159.53,223.53,161.33,222.4,163.18,222.4Z"/><path class="cls-9" d="M162.18,246.67c1.28.08,2.48-.9,3.81-1.52.31-.15.69-.65,1-.13s-.24.73-.56.88a13.73,13.73,0,0,0-2.6,1.57.84.84,0,0,1-.53.23,41.31,41.31,0,0,0-5.56.36c-.18,0-.43,0-.45-.25a.37.37,0,0,1,.35-.4C159.09,247.41,160.39,246.52,162.18,246.67Z"/><path class="cls-9" d="M164.58,220.14c-1.93,0-3.82.06-5.18,1.79-.23.3-.65.65-1,.36s.07-.72.26-1c1-1.48,4.27-2.81,5.92-2.42.46.11.81.38.79.87S165,220.24,164.58,220.14Z"/><path class="cls-12" d="M172.82,217a2.23,2.23,0,0,1,1.65.41c.29.19.9.26.66.75a.85.85,0,0,1-1.14.33c-1-.62-1.48-.11-2,.69s-1.72.81-2.66,1c-.37.08-.52-.36-.23-.5a20.41,20.41,0,0,0,3.53-2.66C172.72,216.93,173,217,172.82,217Z"/><path class="cls-12" d="M157.14,243.21c-.09.17-.15.31-.23.45-1,1.84-2.86,2.59-4.52,3.6a.35.35,0,0,1-.43-.06.36.36,0,0,1-.07-.52,1.47,1.47,0,0,1,.39-.43,17.77,17.77,0,0,0,4.08-3.14A.53.53,0,0,1,157,243C157.07,243,157.1,243.13,157.14,243.21Z"/><path class="cls-14" d="M156.61,236.65c-1.22,1.92-3.42,3-5.1,2.56-.36-.09-.88-.12-.82-.64s.59-.37,1-.39a18.81,18.81,0,0,0,2-.09c.72-.11,1.44-.24,1.79-1.09A.82.82,0,0,1,156.61,236.65Z"/><path class="cls-9" d="M160.43,237.48c-.39,0-.51-.22-.29-.6a4.78,4.78,0,0,0,.56-2.7,1.26,1.26,0,0,1,.47-1c.3-.24.66-.56,1-.26s.17.65,0,1a1.49,1.49,0,0,0-.16,1.42C162.23,235.87,161.08,237.42,160.43,237.48Z"/><path class="cls-13" d="M166.14,226.33a3.38,3.38,0,0,1-.51,1.45,8.72,8.72,0,0,0-.71,2.45c0,.22,0,.54-.27.54a.85.85,0,0,1-.54-.37,1.27,1.27,0,0,1-.09-1.52,11.18,11.18,0,0,0,1.13-2.8c.1-.31.06-.78.55-.69S166.14,225.89,166.14,226.33Z"/><path class="cls-12" d="M167.94,218.21a4.85,4.85,0,0,0,0,2.48.72.72,0,0,1-.48.94c-.38.08-.5-.32-.61-.59a5.49,5.49,0,0,1-.13-3.11.61.61,0,0,1,.8-.48C168,217.55,168,217.88,167.94,218.21Z"/><path class="cls-13" d="M159.86,235.27a2.66,2.66,0,0,1-2.11,2.4c-.2,0-.42,0-.51-.17a.44.44,0,0,1,.22-.59,2.3,2.3,0,0,0,1.37-2.48.46.46,0,0,1,.17-.38c.21-.12.35.07.5.19C159.85,234.53,159.71,235,159.86,235.27Z"/><path class="cls-72" d="M168.45,213.45c.65,0,1,.14.73.87s-.29,1.29-.45,1.92c-.1.41-.14,1-.7.91s-.48-.7-.52-1.14c-.09-1,.67-1.7,1-2.58Z"/><path class="cls-73" d="M168.47,213.43c-.34,0-.7.14-.75-.43a16.31,16.31,0,0,1,.53-4c.53,1.57,1.24,3,.2,4.48Z"/><path class="cls-74" d="M152.83,243.94c-1.29.66-2.31,1.2-3.35,1.7-.31.15-.74.25-.94-.14s.22-.6.5-.79A4.09,4.09,0,0,1,152.83,243.94Z"/><path class="cls-13" d="M162.08,242.29c0,.46-.18.63-.52.55a2.17,2.17,0,0,0-1.76.4c-.2.12-.47.25-.63,0a.89.89,0,0,1-.1-.66c.16-.62.67-.81,1.23-.92A1.8,1.8,0,0,1,162,242,.56.56,0,0,1,162.08,242.29Z"/><path class="cls-17" d="M166.63,212.67c.47,1.43-.13,2.63-.09,3.85a.35.35,0,0,1-.36.39c-.38,0-.51-.32-.54-.65A4.81,4.81,0,0,1,166.63,212.67Z"/><path class="cls-73" d="M152.92,237.45h-2.8a.41.41,0,0,1-.45-.29c0-.08.05-.22.12-.3A2.17,2.17,0,0,1,152.92,237.45Z"/><path class="cls-24" d="M165,244.43a1.42,1.42,0,0,1-1.33,1.2c-.82.2-1.67.31-2.51.45-.22,0-.5.15-.58-.16s.2-.38.38-.51a.75.75,0,0,1,.31-.15C162.43,245.05,163.69,245.35,165,244.43Z"/><path class="cls-74" d="M162.31,218.05a2.45,2.45,0,0,1,2.07-1,.62.62,0,0,1,.76.54c0,.48-.34.54-.71.57A6.49,6.49,0,0,1,162.31,218.05Z"/><path class="cls-13" d="M154.39,235.54c.27.1.89-.12.76.36s-.9.67-1.49.67c-.33,0-1,0-.86-.33C153,235.56,153.75,235.59,154.39,235.54Z"/><path class="cls-74" d="M160.36,239.52c-.35,0-.46-.16-.39-.41.15-.53.16-1.2.85-1.37.36-.08.59.19.56.55A1.34,1.34,0,0,1,160.36,239.52Z"/><path class="cls-75" d="M172.7,227.33a1.19,1.19,0,0,1,.68,1.12c0,.51-.1,1.21-.67,1.18s-.22-.69-.19-1S172.32,227.74,172.7,227.33Z"/><path class="cls-14" d="M156.7,246.89a2.71,2.71,0,0,1,2-1.45c-.61,1.52-1,1.79-2,1.44Z"/><path class="cls-17" d="M162.85,240.73c-.49.06-.6-.2-.6-.48,0-.5.07-1.11.64-1.22s.38.48.46.78A.77.77,0,0,1,162.85,240.73Z"/><path class="cls-76" d="M163.07,231.91c-.4,0-.54-.22-.5-.52.07-.46.12-1,.62-1.16.31-.09.56.24.55.6A1.08,1.08,0,0,1,163.07,231.91Z"/><path class="cls-14" d="M164.73,237.93c.3,0,.81-.11.75.41s-.5.54-.91.53-.81,0-.77-.47S164.34,238,164.73,237.93Z"/><path class="cls-77" d="M163.33,242.62c.16.47.79.44.87,1a.36.36,0,0,1-.45.39c-.38-.09-1,.06-1.09-.39S162.92,242.91,163.33,242.62Z"/><path class="cls-18" d="M161.28,243.77a3.66,3.66,0,0,1-1.45,1.07c-.16.06-.36-.24-.29-.42.23-.66,1-.66,1.45-1C161.11,243.38,161.25,243.56,161.28,243.77Z"/><path class="cls-78" d="M157.49,238.7a7.25,7.25,0,0,0,1.14-.14c.28-.08.56-.22.61.2a.47.47,0,0,1-.51.52,11.48,11.48,0,0,1-1.29-.3Z"/><path class="cls-27" d="M156.69,246.88V247c0,.42-.09.78-.59.81a.32.32,0,0,1-.36-.45c.16-.43.42-.75,1-.47Z"/><path class="cls-79" d="M157.83,227.44c.27-.43.39-.82.91-.74.08,0,.21.2.19.24C158.74,227.35,158.41,227.5,157.83,227.44Z"/><path class="cls-15" d="M161.81,221.67c.55-.52,1-.29,1.38-.22C162.86,221.79,162.44,221.66,161.81,221.67Z"/><path class="cls-18" d="M163,242.44a.91.91,0,0,1,0-1.16C163.32,241.72,163.47,242.06,163,242.44Z"/><path class="cls-80" d="M169.7,222.23a.7.7,0,0,1-.2.82s-.25-.05-.27-.11C169.13,222.56,169.23,222.28,169.7,222.23Z"/><path class="cls-81" d="M171,221c-.2,0-.37,0-.34-.22a.32.32,0,0,1,.22-.2c.14,0,.32,0,.29.21S171.05,220.9,171,221Z"/><path class="cls-82" d="M164.06,232.53c-.13.12-.24.3-.34.3-.28,0-.21-.27-.16-.42s.2-.19.3-.29Z"/><path class="cls-83" d="M157.09,233.74c.19,0,.27.14.2.25a.5.5,0,0,1-.28.16c-.1,0-.25,0-.2-.16S157,233.81,157.09,233.74Z"/><path class="cls-22" d="M154.66,246.87l.28.11a1.52,1.52,0,0,1-.31.31s-.25-.06-.26-.12S154.45,246.91,154.66,246.87Z"/><path class="cls-9" d="M188.17,238.19c-1.45.18-2.55,1.56-4.21,1-1.45-.46-3-.72-4.44-1.07-.28-.07-.7-.08-.64-.51a.54.54,0,0,1,.65-.39C182.38,237.74,185.29,237.48,188.17,238.19Z"/><path class="cls-9" d="M179.77,247.84a3.82,3.82,0,0,1-2.48-.57,3.28,3.28,0,0,0-1.8-.41,2.22,2.22,0,0,1-2.1-1.26.68.68,0,0,1,.22-.93.48.48,0,0,1,.73.07c1.18,1.39,2.91,1.32,4.48,1.68.8.18,1.61.31,2.41.46.28.05.6.11.58.45s-.4.37-.64.41A13,13,0,0,1,179.77,247.84Z"/><path class="cls-14" d="M185.69,241.48a18.47,18.47,0,0,0-.28,3.69.7.7,0,0,1-.93.75c-.65-.12-.18-.56-.12-.82.26-1.24,0-2.49.17-3.73.05-.4,0-.94.48-.92S185.66,241,185.69,241.48Z"/><path class="cls-8" d="M189.85,240.52a3,3,0,0,1-.09.54c-.13.46-.08,1.23-.77,1.06-.52-.13-.29-.78-.12-1.21s0-.67-.11-1-.12-.93.49-1,.42.44.48.75S189.81,240.21,189.85,240.52Z"/><path class="cls-24" d="M186.2,245.4a1.53,1.53,0,0,1,.29-1.59c.29-.29.67-.81,1-.47a1,1,0,0,1-.13,1.45A5.37,5.37,0,0,1,186.2,245.4Z"/><path class="cls-18" d="M179.29,244.45c0-.65,0-1.15.55-1.07s.88.75,1,1.3-.41.5-.74.52C179.39,245.24,179.28,244.76,179.29,244.45Z"/><path class="cls-84" d="M177.33,243a1.63,1.63,0,0,1,1.18,1.2c.09.33-.21.52-.49.49-.56-.07-1.08-.26-1.05-1C177,243.45,176.91,243.1,177.33,243Z"/><path class="cls-20" d="M178.59,241.8c-.05.49-.38.65-.82.59s-.84-.3-.76-.84c.06-.37.23-.84.73-.73A1,1,0,0,1,178.59,241.8Z"/><path class="cls-85" d="M183,243.38c-.49,0-1.11,0-1.23-.72-.06-.42.29-.55.63-.43.5.18,1.29,0,1.34.84C183.77,243.53,183.36,243.45,183,243.38Z"/><path class="cls-75" d="M176,240.29c.2.36.61.68.33,1.16s.16,1.07-.5,1-.5-.71-.5-1.19.13-.86.68-.93Z"/><path class="cls-86" d="M183.82,241.6c-1,.19-1.65.14-2.06-.56-.12-.2-.14-.7.17-.69C182.72,240.36,183.2,240.93,183.82,241.6Z"/><path class="cls-73" d="M188.15,240.1c-.14.84-.74,1-1.36,1.13-.21.05-.55.09-.46-.28a1.86,1.86,0,0,1,1.43-1.22C188.1,239.62,188,240,188.15,240.1Z"/><path class="cls-20" d="M188,241.88a.76.76,0,0,1-.59.77c-.4.08-.8.39-1.22.12a.45.45,0,0,1,0-.41,2.34,2.34,0,0,1,1.61-.82C188,241.51,188,241.73,188,241.88Z"/><path class="cls-20" d="M188.46,243.64c0-.52.14-1.06.74-1.17.32-.06.49.29.41.57-.15.5-.1,1.21-.77,1.32C188.45,244.43,188.51,243.94,188.46,243.64Z"/><path class="cls-20" d="M183.31,245c-.06.37-.35.52-.74.47s-.82-.32-.77-.82a.5.5,0,0,1,.65-.48C182.83,244.27,183.34,244.32,183.31,245Z"/><path class="cls-86" d="M181.14,242.24a.77.77,0,0,1-.82.6c-.37,0-.87-.05-1-.5s.31-.6.68-.61A1.42,1.42,0,0,1,181.14,242.24Z"/><path class="cls-77" d="M176,240.3l-.19-.27c-.31-.37-.82-.78-.22-1.23.38-.29.7.15.9.46.41.59.13.91-.5,1Z"/><path class="cls-72" d="M180.38,241c-.46,0-.82-.21-.86-.74s.22-.55.58-.53.85.11.84.71C180.93,240.86,180.77,241.05,180.38,241Z"/><path class="cls-85" d="M177.87,239.12c.39,0,.7.18.74.6s-.18.58-.57.54a.83.83,0,0,1-.79-.6C177.18,239.27,177.52,239.15,177.87,239.12Z"/><path class="cls-18" d="M187,247.56a3.33,3.33,0,0,1-1.71-.56c.31-.27.6-.65,1-.56S186.55,247.08,187,247.56Z"/><path class="cls-80" d="M188.07,245.66c.22-.36.51-.54.71-.31s-.08.33-.28.37A1.71,1.71,0,0,1,188.07,245.66Z"/><path class="cls-26" d="M184,247.6c-.06,0-.13.14-.21.15s-.25-.14-.24-.28.12-.21.17-.21S184,247.39,184,247.6Z"/><path class="cls-28" d="M190.35,191.81a3.33,3.33,0,0,1-2.07,1.54c-.8.23-.83-.49-1.06-.95a19.62,19.62,0,0,0-.95-1.89c-.53-.82-.24-1.32.46-1.82s1,.16,1.41.52c.63.59,1.21,1.23,1.8,1.86C190.12,191.26,190.36,191.43,190.35,191.81Z"/><path class="cls-87" d="M192.07,182.64h.7c1.63,0,2,.52,1.38,2a.77.77,0,0,1-1,.6c-1-.13-1.93-.2-2.9-.3-.4,0-1,0-.83-.62s-.2-1.54.86-1.64a17,17,0,0,1,1.75,0Z"/><path class="cls-88" d="M189.09,186.18a20.59,20.59,0,0,1,3.41,1.46c.67.42-.12,1.1-.33,1.63s-.5.77-1,.41c-.89-.63-1.76-1.29-2.63-2-.27-.21-.41-.5-.15-.81S188.61,186.23,189.09,186.18Z"/><path class="cls-88" d="M184.59,194.61c-.37,0-.82-.06-.9-.4a23.23,23.23,0,0,1-.55-3.32c0-.41.57-.43.91-.57s.53.21.64.47c.33.75.63,1.51.93,2.27C186,194.05,185.64,194.63,184.59,194.61Z"/><path class="cls-89" d="M143.74,201.94c-.42,0-1,0-1.07-.45s.56-.44.9-.46.85.06.87.56S144,201.87,143.74,201.94Z"/></g></g></svg>