<svg xmlns="http://www.w3.org/2000/svg" xmlns:xlink="http://www.w3.org/1999/xlink" viewBox="0 0 2139.5 1316"><defs><style>.cls-1,.cls-4{stroke:#fff;stroke-miterlimit:10;}.cls-1{stroke-width:2px;fill:url(#radial-gradient);}.cls-2{font-size:53.9px;fill:#cceaff;font-family:Poppins-Regular, Poppins;}.cls-3{fill:#fff;}.cls-4{fill:none;stroke-width:4px;}</style><radialGradient id="radial-gradient" cx="870.77" cy="312.65" r="1664.46" gradientUnits="userSpaceOnUse"><stop offset="0" stop-color="#fff"/><stop offset="0.78" stop-color="#2196f3"/></radialGradient></defs><g id="Layer_2" data-name="Layer 2"><g id="Layer_1-2" data-name="Layer 1"><line class="cls-1" x1="172.54" y1="396.15" x2="1568.99" y2="229.16"/><text class="cls-2" transform="translate(898.8 870.29)">A participatory platform for collection <tspan x="0" y="68.16">and processing of value chain data</tspan></text><path class="cls-3" d="M1169.16,760.28c-30.87,2.75-41.42-20.27-55-42.69-4.48-6.94-6.73-10.4-11.24-17.33q-52.1,5.58-104,12.39-6.76,27-13.33,54c-1.35,7.22-5.82,12.86-13.28,13.92q-22.65,3.27-45.27,6.73c-7.45,1.15-13.95-2.85-15-9.24q31.39-137,69.35-272.35a18.47,18.47,0,0,1,15.8-13.56q27.78-3.45,55.59-6.62a18.43,18.43,0,0,1,18.53,9.47q56.55,99.36,109.15,200.85c4.32,9.12,9.61,15.8,14.42,17.77,4.14,1.7,7.47,5.39,7.83,9.85.55,6.94.83,10.41,1.38,17.35C1204.28,755.7,1179.85,759.33,1169.16,760.28Zm-156-103.66q31.68-4,63.4-7.55-20.57-38.79-41.66-77.32Q1023.76,614.11,1013.16,656.62Z"/><path class="cls-3" d="M1315.42,464.67c63.67-3.47,127,18.14,128.13,91,1.12,70.67-56.88,95.29-119.24,97.8q-23.37,1.1-46.73,2.48,2.43,41,4.85,81.94c.38,6.45-5.1,11.76-12.6,12.23q-21.35,1.36-42.68,2.91c-7.5.56-13.65-3.95-14.15-10.4l-20.07-258.88c-.5-6.45,5.31-11.89,13.36-12.49Q1260.83,467.33,1315.42,464.67Zm51.14,93c-.92-25.7-24.41-40.79-48.63-39.82q-24.2,1.13-48.37,2.57l4.88,82.43q23.67-1.4,47.37-2.52C1345.73,599.06,1367.47,583.17,1366.56,557.65Z"/><path class="cls-3" d="M1581.12,460.84c63.75.69,125.53,26.38,121.93,99.17-3.49,70.59-63,91.38-125.37,89.82q-23.39-.44-46.78-.57-.26,41-.5,82.08c0,6.46-5.85,11.4-13.36,11.38q-21.39,0-42.77.13c-7.51.06-13.35-4.84-13.42-11.31L1457.7,471.9c-.08-6.47,6.07-11.52,14.14-11.59Q1526.49,459.92,1581.12,460.84Zm45,96.12c.76-25.7-21.7-42.29-45.93-42.91q-24.2-.45-48.41-.59l-.51,82.58q23.71.15,47.42.57C1602.6,596.93,1625.32,582.48,1626.08,557Z"/><path class="cls-3" d="M1917.08,583.87q-8.71,83.86-17.42,167.73c-.67,6.43-6.94,10.78-14.42,10q-15-1.51-30-2.89c-7.48-.69-11.29-3.52-16-8.93-3.38-3.9-5.08-5.84-8.48-9.73-18.2,9.81-36.93,15.87-57.49,14.48-55.6-3.73-79.83-51.22-77.74-102.29,2.93-71.52,67-107.1,132.4-101.1,28,2.57,54.18,9.5,80.75,19.34C1914.53,573.1,1917.64,578.43,1917.08,583.87Zm-74.89,22.4c-37.22-1.69-68.31,9.72-71,50.92-1.58,24.39,6,44.78,32.09,46.23,11.28.62,22.45-3.37,31.47-10.42Z"/><path class="cls-3" d="M2086.7,730.43c6.39,1,10.51,5.14,11.48,10.33q2.39,15.21,4.69,30.44c-1,6.39-2.37,11.2-11.43,12.81-15.59,1.6-30.71,1.82-46.24-.39-27.7-3.93-57.58-13.76-72.57-39.27-13.89-23.62-12.74-54.08-9.47-80.3l5-42.49q-14.34-1.69-28.68-3.27c-7.77-.86-13.22-6.44-12.53-12.87q1.61-15.09,3.22-30.17c.69-6.43,7.28-10.73,15.15-9.86q14.55,1.59,29.07,3.32,9.54-33.94,19.24-67.85c2-6.27,7.55-10.61,15.57-9.61q17.3,2.17,34.56,4.44c8,1.07,13.52,6.84,12.64,13.25l-9.42,69q28.71,4,57.37,8.26c7.84,1.18,13.11,7,12.12,13.43q-2.31,15-4.64,30c-1,6.39-7.7,10.38-15.44,9.21q-28.29-4.23-56.61-8.15-3.52,25.88-7.06,51.76c-3.38,22,3.91,44.32,29.11,47.31C2069.79,730.68,2078.56,729.19,2086.7,730.43Z"/><path class="cls-3" d="M362.09,563.64c0-4-1-7.9-1.55-11.86a216.52,216.52,0,0,1-1.24-42.89,173.05,173.05,0,0,1,7.38-39.71A167.1,167.1,0,0,1,402,406.86c.24-.26.53-.48,1-.9.08,1.12-.6,1.56-1,2.09a222.65,222.65,0,0,0-23.51,37.54,151.29,151.29,0,0,0-12.84,41.35,185.59,185.59,0,0,0-2.45,35.37,215,215,0,0,0,3.9,35.5c1.16,6,2.47,12,4.12,17.85.25.87.6,1.7.9,2.55l.37,1.94a111.75,111.75,0,0,0,4.63,14.26c0-1,0-1.95,0-2.92,0-7.28,5.88-14.94,12.87-17,1.4-.4,1.85,0,2.15,1.36,1.72,7.5-3.35,17.35-10.8,20.87-3.22,1.52-3.27,1.54-2,4.9s2.55,6.57,4,9.81c.23-2.56,0-5.11.72-7.59a19.91,19.91,0,0,1,11.17-12.92c2.12-1,2.49-.76,3,1.63,1.79,8-2.6,17.79-9.84,21.91-3.3,1.88-3.31,2-1.7,5.43,1.46,3.12,2.87,6.27,4.53,9.39A20.64,20.64,0,0,1,393.79,616a20.89,20.89,0,0,1,8.9-8.44c1.55-.8,2.41-.65,2.91,1.24,1.82,6.83.43,13-3.56,18.69a20.57,20.57,0,0,1-6.73,6.29c-.67.37-1.53.78-1.14,1.68a95.52,95.52,0,0,0,6,11.26c.19-2.7.22-4.7.48-6.67.95-7,5.11-11.9,10.88-15.6,1.44-.93,2.21-.27,2.71,1.12,2.1,5.86,1.47,11.56-1,17.17A20.19,20.19,0,0,1,406,651.5c-1.83,1.26-2,2.62-.82,4.4,1.9,3,3.73,6,6,8.89a36.88,36.88,0,0,1-.27-4A22.71,22.71,0,0,1,421.14,642c1.6-1.11,2.51-.84,3.28.93,3.65,8.29,1.58,18.65-5.43,25.9-3.37,3.49-3.44,3.44-.53,7.39,9.54,13,20.11,25.06,32.68,35.25a113.53,113.53,0,0,0,21.75,14.18c3,1.49,3.05,1.63.29,3.76-1.37,1.06-2.8,2.06-4.12,3.18a3.06,3.06,0,0,1-3.9.36,143,143,0,0,1-32-24.63c-7.88-7.87-14.57-16.7-21.22-25.57-.9-1.21-1.69-2.5-2.48-3.78a2.08,2.08,0,0,0-3.07-.87c-10.55,5.43-23.32,1-29.68-8.5-1.3-1.92-1.19-2.39,1-3.33,7.93-3.39,15.49-2.19,22.78,1.94.79.45,1.57.91,2.35,1.37a4.7,4.7,0,0,0,.55.11c-2.14-3.64-4.17-7.09-6.18-10.55-.8-1.37-1.82-1.18-3.1-.72-8.54,3.09-16.16,1.35-22.93-4.53a26.57,26.57,0,0,1-4-4.89c-1.66-2.34-1.41-3.13,1.42-3.95A24.16,24.16,0,0,1,389,648.16c1.07.68,2.06,1.48,3.16,2.28.35-.75-.15-1.23-.38-1.71-1.31-2.8-2.66-5.58-4-8.36-.64-1.33-1.42-2.27-3.17-1.62-8.91,3.33-19.52-.38-25.19-9.59a12.38,12.38,0,0,1-.67-1.18c-1-2.1-.83-2.64,1.4-3.18a22.4,22.4,0,0,1,17.83,2.74,41.89,41.89,0,0,1,5.83,4.43c-1.67-4-3.32-8-5-12-.53-1.23-1.49-.66-2.34-.43a20.33,20.33,0,0,1-23.85-10.92c-1.37-2.93-1.11-3.46,2.12-3.92a21.13,21.13,0,0,1,19.36,7c.36.39.72.78,1.1,1.13a5.42,5.42,0,0,0,1,.49c-1.42-4.12-2.69-7.94-4.05-11.72-.52-1.45-1.74-.85-2.72-.64a18.21,18.21,0,0,1-16.26-4.19,20.36,20.36,0,0,1-5.71-8c-1-2.46-.63-3.1,2-3.29a20.85,20.85,0,0,1,18.39,7.83c.58.69,1.1,1.43,1.79,2.32a2.36,2.36,0,0,0,0-2c-.86-3.13-1.83-6.23-2.63-9.37-.36-1.39-1-1.83-2.4-1.54-9.6,1.94-18.08-4.57-20.66-12.64-.79-2.48-.53-3,2.08-3,7.82-.13,13.8,3.17,17.93,9.81a10,10,0,0,0,1.79,2.44l-3.45-14.8C362.2,564.18,362.14,563.91,362.09,563.64Z"/><path class="cls-3" d="M372.51,580.15l-.37-1.94c0-4.84.62-9.48,4.07-13.26a20.48,20.48,0,0,1,8.52-5.75c2-.7,2.81-.09,2.94,2,.48,8-5.62,16.63-13.41,18.94A2.26,2.26,0,0,1,372.51,580.15Z"/><path class="cls-3" d="M362.09,563.64c.05.27.11.54.16.8-2.74,1.92-5.74,1.09-8.44.28-6.7-2-10.5-6.92-12.17-13.59-.42-1.66.56-2,1.85-2A18.11,18.11,0,0,1,356,554,23.65,23.65,0,0,1,362.09,563.64Z"/><path class="cls-3" d="M376.51,560.46a17,17,0,0,1-4.83,2.51c-2.52,1-3.21.49-3.23-2.3a16.17,16.17,0,0,1,10.26-15.34c1.54-.63,3.4-2,4.84-.85s.47,3.13.24,4.74C383.24,553.05,380.35,557.49,376.51,560.46Z"/><path class="cls-3" d="M355.72,539.55c1.73,1.82,2.64,4.35,3.37,7,.49,1.83-.26,2.3-1.91,2.26-7.88-.16-15-6.52-16.25-14.41-.29-1.86.48-2.35,2.07-2.17A16.82,16.82,0,0,1,355.72,539.55Z"/><path class="cls-3" d="M374.8,544.1a15.89,15.89,0,0,1-6.65,3.21c-1.44.35-2.11-.09-2.14-1.65-.16-8.78,7-14.68,14-15.46,1.37-.15,1.64.49,1.63,1.72C381.6,536.38,379.29,540.65,374.8,544.1Z"/><path class="cls-3" d="M354.27,522.84a17,17,0,0,1,3.43,8.25c.21,1.27-.24,1.86-1.57,1.76-8.3-.59-14.05-6.78-14.59-15.11-.09-1.45.88-1.53,2-1.37A16.45,16.45,0,0,1,354.27,522.84Z"/><path class="cls-3" d="M371,519.52a15.64,15.64,0,0,1,7.28-2.63c1.42-.12,2.1.42,2,1.92-.26,6.12-8,13.42-14.2,13.44-1.54,0-1.45-1-1.43-2C364.76,526.62,367,522.54,371,519.52Z"/><path class="cls-3" d="M345.83,511.88a15.67,15.67,0,0,1-2.59-8.22c-.08-1.58.56-2.3,2.16-1.91a15.91,15.91,0,0,1,12.13,15c0,1.23-.79,1.22-1.7,1.16C352.53,517.76,348.46,515.39,345.83,511.88Z"/><path class="cls-3" d="M374.36,514.74a15.05,15.05,0,0,1-6.95,3.14c-2.55.59-3.2-.1-2.73-2.63a13.56,13.56,0,0,1,13.8-10.63c1.36.09,1.71.7,1.38,1.91A14.23,14.23,0,0,1,374.36,514.74Z"/><path class="cls-3" d="M354.93,493.18a15.57,15.57,0,0,1,3.32,8.25c.27,2.39-.31,2.86-2.62,2.37-5.91-1.26-10.68-8.29-9.84-14.39.21-1.48,1-1.4,2.08-1.2C350.05,488.64,353.07,490.75,354.93,493.18Z"/><path class="cls-3" d="M369.94,495.75a11.91,11.91,0,0,1,8.69-2.59c1.39.08,1.79.68,1.42,2.07-1.45,5.38-7.86,10-13.35,9.61-1.4-.1-1.64-.81-1.39-1.95A11.25,11.25,0,0,1,369.94,495.75Z"/><path class="cls-3" d="M351.31,486.41a12.46,12.46,0,0,1-2.2-8.81c.14-1.63.94-2,2.28-1.39,5.83,2.43,8.56,7.66,8.47,13.71,0,1.26-.83,1.48-1.88,1.22A11.66,11.66,0,0,1,351.31,486.41Z"/><path class="cls-3" d="M376.83,490a13.84,13.84,0,0,1-8.41,2.74c-1.36,0-1.89-.33-1.61-1.83,1-5.3,8-9.71,13.19-8.31,1.33.36,1.46,1.07,1,2.17A12.56,12.56,0,0,1,376.83,490Z"/><path class="cls-3" d="M355.11,475.73a12,12,0,0,1-2.19-9.27c.22-1.4.69-1.8,2.09-1.22,4.52,1.87,8,8.19,7.12,13-.25,1.38-.94,1.55-2.07,1.15A10.94,10.94,0,0,1,355.11,475.73Z"/><path class="cls-3" d="M379.25,479a12.77,12.77,0,0,1-8.81,2.75c-1.51-.05-2-.64-1.4-2.16,1.87-4.79,7.6-7.86,12.49-6.66,1.13.27,1.32.84.93,1.79A9.3,9.3,0,0,1,379.25,479Z"/><path class="cls-3" d="M358.68,465.5a10.74,10.74,0,0,1-1.75-8.48c.29-1.55,1-2,2.52-1.14a11.93,11.93,0,0,1,5.4,11.82c-.28,1.37-.91,1.57-2.07,1.11A10.41,10.41,0,0,1,358.68,465.5Z"/><path class="cls-3" d="M381.41,469.39a11.35,11.35,0,0,1-8.46,2.39c-1.55-.11-1.9-.82-1.26-2.25a10.26,10.26,0,0,1,11.15-5.33c1.59.43,2,1.25,1,2.61A9.34,9.34,0,0,1,381.41,469.39Z"/><path class="cls-3" d="M363.17,457.26a9.66,9.66,0,0,1-2-8.36c.37-1.8,1.08-2.07,2.68-1.07,3.18,2,5.12,7.1,4.1,10.7-.35,1.25-1,1.62-2.12,1A8.61,8.61,0,0,1,363.17,457.26Z"/><path class="cls-3" d="M383.51,461.36a10.51,10.51,0,0,1-8,1.47c-1.44-.31-1.37-1.17-.89-2.18,1.58-3.35,7.51-5.49,10.8-3.95.92.42,1,1,.55,1.78A9.9,9.9,0,0,1,383.51,461.36Z"/><path class="cls-3" d="M382.82,418.81c-3.15,6-6.66,11.92-9.6,18.09-1.54,3.26-2.91,6.61-4.34,9.92-.4.94-.92,1.62-2.05,1.12-1-.43-.7-1.19-.37-1.91A152,152,0,0,1,382.82,418.81Z"/><path class="cls-3" d="M397,427.86c-1.8,3.19-3.67,6.36-5.4,9.59a122.81,122.81,0,0,0-6.78,14.29c-.21.56-.48,1.1-.74,1.65-.41.85-.87,1.74-2,1.1s-.55-1.43-.2-2.17a140.07,140.07,0,0,1,8.74-15.83c1.92-3,4-5.93,6-8.89Z"/><path class="cls-3" d="M883.15,706.62c-1.15,4.41-1.19,9-1.82,13.45A246.41,246.41,0,0,1,870,767.43a195.91,195.91,0,0,1-19.85,41.31A189.69,189.69,0,0,1,793,866.54c-.35.22-.73.37-1.37.68.25-1.24,1.12-1.52,1.73-2a251.23,251.23,0,0,0,36.87-34.16,171.1,171.1,0,0,0,26.32-41.48,211.55,211.55,0,0,0,13.17-38,242.9,242.9,0,0,0,6.23-40c.51-6.92.85-13.84.78-20.78,0-1-.14-2-.22-3l.17-2.24c.27-5.65-.37-11.27-.85-17-.3,1.06-.59,2.13-.88,3.19-2.19,8-10.87,14.62-19.13,14.78-1.66,0-2-.58-1.95-2.12.34-8.73,8.81-18,18-19.66,4-.72,4-.72,3.68-4.77s-.84-8-1.48-11.93c-1,2.74-1.5,5.59-3,8.11a22.62,22.62,0,0,1-16.07,10.83c-2.62.47-3,.09-2.83-2.68.41-9.32,8.11-18.72,17.26-21.09,4.18-1.08,4.22-1.18,3.48-5.43-.67-3.86-1.29-7.73-2.19-11.63a23.42,23.42,0,0,1-6.72,13.84,23.76,23.76,0,0,1-12.25,6.61c-1.94.42-2.84,0-2.83-2.23,0-8,3.4-14.4,9.44-19.41a23.43,23.43,0,0,1,9.24-4.9c.85-.2,1.91-.4,1.74-1.5a106.76,106.76,0,0,0-3.19-14.1c-1,2.9-1.64,5.08-2.51,7.16-3.12,7.45-9.12,11.52-16.54,13.87-1.85.59-2.5-.35-2.63-2-.57-7,1.81-13.1,6.13-18.53a22.9,22.9,0,0,1,10.55-7.48c2.37-.84,2.93-2.29,2.2-4.58-1.21-3.82-2.32-7.67-4-11.52a40.15,40.15,0,0,1-.9,4.52,25.75,25.75,0,0,1-16.74,17.48c-2.08.74-3,.17-3.32-2-1.54-10.16,3.79-20.9,13.63-26.77,4.72-2.82,4.78-2.74,2.77-7.94-6.61-17.06-14.61-33.4-25.36-48.29a129.4,129.4,0,0,0-19.63-22c-2.89-2.52-2.85-2.68.8-4.19,1.81-.76,3.67-1.43,5.45-2.27a3.47,3.47,0,0,1,4.38.77c11.13,10.72,20.05,23.08,27.73,36.45,6.31,11,11,22.61,15.68,34.3.63,1.59,1.11,3.24,1.6,4.87a2.37,2.37,0,0,0,3.11,1.87c13.16-2.83,25.82,5.87,30,18.1.85,2.49.6,3-2.07,3.35-9.7,1.36-17.62-2.18-24.38-8.87-.73-.72-1.45-1.46-2.17-2.19a3.66,3.66,0,0,0-.57-.29c1.26,4.63,2.46,9,3.64,13.4.47,1.73,1.65,1.82,3.18,1.69,10.27-.85,18.11,3.32,23.78,11.76a30.18,30.18,0,0,1,3,6.55c1.13,3.06.62,3.85-2.73,3.9-8.56.15-15.65-3.16-21.4-9.41-1-1.06-1.83-2.23-2.8-3.44-.61.72-.19,1.39-.09,2,.61,3.45,1.27,6.9,1.92,10.35.31,1.64.89,2.91,3,2.71,10.76-1,21.27,6.2,24.76,18,.14.49.28,1,.38,1.49.5,2.62.13,3.14-2.48,3.07a25.37,25.37,0,0,1-18.71-8.28,47.71,47.71,0,0,1-5.08-6.58c.64,4.86,1.27,9.73,2,14.58.21,1.51,1.43,1.17,2.43,1.17a23.07,23.07,0,0,1,22.89,19c.64,3.62.2,4.13-3.47,3.66-8.72-1.09-15.07-5.61-19.15-13.36-.28-.53-.56-1.06-.88-1.56a6.58,6.58,0,0,0-.92-.82c.33,4.93.59,9.49,1,14,.14,1.74,1.65,1.44,2.79,1.51a20.63,20.63,0,0,1,16.57,9.4,23.16,23.16,0,0,1,3.88,10.51c.34,3-.24,3.59-3.22,3a23.61,23.61,0,0,1-17.82-14c-.43-.93-.79-1.89-1.28-3.08a2.71,2.71,0,0,0-.57,2.19c0,3.68.16,7.36.11,11,0,1.63.51,2.29,2.17,2.4,11.09.73,18.46,10.36,18.89,20,.13,3-.31,3.45-3.19,2.72-8.6-2.17-14.17-7.56-16.72-16.06a11.71,11.71,0,0,0-1.25-3.2l-.6,17.23Z"/><path class="cls-3" d="M876.63,685.45l-.17,2.24C875,693,873,697.88,868.06,701a23.26,23.26,0,0,1-11,3.78c-2.45.15-3.11-.74-2.62-3.08,1.84-8.93,11.08-16.55,20.3-16.77A2.59,2.59,0,0,1,876.63,685.45Z"/><path class="cls-3" d="M883.15,706.62l.06-.93c3.57-1.28,6.61.51,9.33,2.2,6.74,4.2,9.45,10.69,9.31,18.5,0,1.94-1.2,2-2.62,1.62A20.49,20.49,0,0,1,887,719C884.52,715.19,883.61,711,883.15,706.62Z"/><path class="cls-3" d="M866.41,705.83a19.17,19.17,0,0,1,6-1.31c3.06-.36,3.65.41,2.84,3.47a18.32,18.32,0,0,1-15.77,13.77c-1.88.23-4.33,1.2-5.56-.51-1.1-1.54.41-3.56,1.14-5.26C856.84,712,861.32,708,866.41,705.83Z"/><path class="cls-3" d="M883,734.89c-1.34-2.5-1.6-5.54-1.61-8.65,0-2.16,1-2.45,2.77-1.92,8.58,2.51,14.5,11.59,13.52,20.6-.23,2.13-1.22,2.43-2.9,1.77C889.25,744.52,885.13,740.92,883,734.89Z"/><path class="cls-3" d="M863.43,724.26a18.06,18.06,0,0,1,8.24-1.55c1.68,0,2.29.73,1.86,2.44-2.43,9.67-12.07,14-19.92,12.79-1.54-.24-1.65-1-1.27-2.37C853.7,730.7,857.49,726.71,863.43,724.26Z"/><path class="cls-3" d="M879.62,753.64a19.45,19.45,0,0,1-1.31-10.06c.15-1.46.82-2,2.24-1.47,8.92,3.11,13.39,11.6,11.51,20.88-.33,1.62-1.41,1.42-2.57.92A18.71,18.71,0,0,1,879.62,753.64Z"/><path class="cls-3" d="M860.31,752.31a17.89,17.89,0,0,1-8.76.73c-1.59-.29-2.17-1.09-1.66-2.71,2.11-6.62,12.75-12.33,19.54-10.51,1.69.45,1.3,1.5,1,2.58C869.26,746.39,865.55,750.18,860.31,752.31Z"/><path class="cls-3" d="M885.62,768.14a17.66,17.66,0,0,1,.4,9.77c-.37,1.76-1.29,2.36-2.93,1.46a18.06,18.06,0,0,1-8.82-20.08c.32-1.37,1.23-1.1,2.2-.77C880,759.72,883.79,763.51,885.62,768.14Z"/><path class="cls-3" d="M855.22,756.55c2.56-1.33,5.55-1.48,8.54-1.37s3.48,1.06,2.21,3.69a15.39,15.39,0,0,1-18.27,7.55c-1.45-.5-1.67-1.27-.94-2.5A16.17,16.17,0,0,1,855.22,756.55Z"/><path class="cls-3" d="M870.12,785.93a17.79,17.79,0,0,1-1.2-10c.42-2.69,1.19-3,3.57-1.81,6.11,3.13,9.25,12.24,6.52,18.68-.66,1.56-1.54,1.23-2.63.69C874.12,792.35,871.43,789.15,870.12,785.93Z"/><path class="cls-3" d="M854.44,778.67a13.55,13.55,0,0,1-10.29.26c-1.5-.5-1.77-1.27-.95-2.69,3.18-5.46,11.58-8.62,17.47-6.57,1.51.53,1.56,1.37,1,2.54A12.82,12.82,0,0,1,854.44,778.67Z"/><path class="cls-3" d="M872.08,794.42a14.16,14.16,0,0,1-.21,10.31c-.63,1.74-1.6,1.85-2.9.84-5.67-4.39-7.11-10.93-5.22-17.53.4-1.38,1.35-1.38,2.42-.78A13.31,13.31,0,0,1,872.08,794.42Z"/><path class="cls-3" d="M845.19,782.91a15.71,15.71,0,0,1,10-.51c1.5.37,2,.92,1.22,2.48-2.67,5.51-11.61,8.28-16.91,5.2-1.35-.79-1.28-1.6-.42-2.67A14.47,14.47,0,0,1,845.19,782.91Z"/><path class="cls-3" d="M864.75,805a13.6,13.6,0,0,1-.35,10.8c-.65,1.46-1.29,1.76-2.65.71-4.4-3.39-6.32-11.33-3.94-16.36.68-1.44,1.48-1.42,2.6-.65A12.4,12.4,0,0,1,864.75,805Z"/><path class="cls-3" d="M839.27,794.27a14.48,14.48,0,0,1,10.47-.4c1.63.51,2,1.29.89,2.78-3.47,4.7-10.65,6.36-15.66,3.59-1.15-.63-1.2-1.3-.49-2.23A10.61,10.61,0,0,1,839.27,794.27Z"/><path class="cls-3" d="M857.81,815.14a12.2,12.2,0,0,1-.6,9.81c-.78,1.61-1.69,1.92-3.1.5a13.55,13.55,0,0,1-2.41-14.55c.71-1.41,1.47-1.45,2.59-.6A11.87,11.87,0,0,1,857.81,815.14Z"/><path class="cls-3" d="M834.06,804.15a12.88,12.88,0,0,1,10-.12c1.67.59,1.85,1.47.72,2.85-3.07,3.74-9.62,5-13.8,2.53-1.62-.94-1.77-1.95-.34-3.16A10.81,10.81,0,0,1,834.06,804.15Z"/><path class="cls-3" d="M850.44,822.84a11,11,0,0,1-.24,9.77c-.93,1.85-1.79,1.94-3.25.37-2.89-3.11-3.5-9.3-1.32-12.94.75-1.26,1.52-1.48,2.61-.42A9.64,9.64,0,0,1,850.44,822.84Z"/><path class="cls-3" d="M829.38,812.32a11.93,11.93,0,0,1,9.22.77c1.49.76,1.16,1.68.33,2.65-2.72,3.2-9.85,3.78-13,1.13a1.22,1.22,0,0,1-.06-2.12A11.23,11.23,0,0,1,829.38,812.32Z"/><path class="cls-3" d="M817.53,859.14c5.25-5.69,10.83-11.08,15.87-17,2.66-3.11,5.15-6.37,7.7-9.58.72-.9,1.49-1.49,2.57-.62s.43,1.51-.15,2.2A173,173,0,0,1,817.53,859.14Z"/><path class="cls-3" d="M804.67,845c2.93-3,5.91-5.88,8.76-8.91a137.9,137.9,0,0,0,11.66-13.65c.4-.55.86-1.06,1.3-1.58.7-.82,1.47-1.66,2.55-.61s.17,1.73-.43,2.44a157.62,157.62,0,0,1-14.27,14.74c-3,2.74-6.14,5.32-9.21,8Z"/><path class="cls-3" d="M220.86,815.19q10.13-3.12,20.06-6.86a334.5,334.5,0,0,0,118.73-76.19c1.62-1.62,3.32-3.32,5.49-4s5-.14,6,1.91a6.86,6.86,0,0,1,.45,3.43c-.34,6.25-2.61,12-3.35,18.14q-1.54,12.91-2.12,25.92-.75,16.68.09,33.37c.26,5.15-1.27,23.74,4.86,25.89,3,1.06,10.08-1.1,13.31-1.45a197.25,197.25,0,0,0,24-3.66c13.28-3.12,26.46-8.72,39-14,30.2-12.73,59.51-30.15,84.22-51.77,12.76-11.16,13.83-17.09-1.29-27.93-7.83-5.61-24.09-12.36-33.79-7.66,25.18-12.21,52.82-19,77.43-32.29,33.06-17.89,45.86-46.8,59.53-79.73,11.7-28.19,21.12-61,51.93-73.93,24.26-10.18,53.22-7.27,75.23,7.07a74.31,74.31,0,0,1,32.58,48.47,334.5,334.5,0,0,1,.18,121.93c-7.49,40.72-7.51,76.15,2.89,117-11.62-5.54-25.44-1.28-37.06,4.27-31.57,15.08-42.22,39.09-66.65,61.84A340.94,340.94,0,0,1,478.14,996a313.49,313.49,0,0,1-93.09-9.08c-6.53-1.66-16.1-4.4-22.69-1.29-15.21,7.17-14,27.3-13.33,41.3.71,15.92-9.46,14.23-19.11,4.19-49.95-52-99-105-145.27-160.32-10.91-13.12-24.93-26.78-30.08-43.45,14.55,2.89,25.82-2,39.94-5.15Q207.82,819.22,220.86,815.19Z"/><path class="cls-3" d="M979.48,322q-9.37,5-18.42,10.51a334.44,334.44,0,0,0-102.34,97.09c-1.29,1.9-2.64,3.89-4.64,5s-4.87,1.07-6.27-.75a6.83,6.83,0,0,1-1.08-3.28c-.84-6.21.32-12.28-.12-18.45q-.9-13-2.77-25.86-2.39-16.51-6.34-32.76c-1.22-5-3.21-23.56-9.63-24.52-3.13-.48-9.69,3-12.8,3.92A197.12,197.12,0,0,0,792.23,341c-12.47,5.56-24.36,13.53-35.69,21.07-30.76,20.48-80.54,54-73.16,97.16,4,23.39,20.24,45.33,43,52.19l-44.73,19c-29.88,12.67-65.07,27.82-70.84,62.14-5,29.92-9.25,64.33-36.79,82.61-21.93,14.56-50.92,17.13-75.23,7.17a74.29,74.29,0,0,1-41.08-41.51c-12-30.49-20.76-64.11-28.59-95.76q-8.47-34.28-17-68.54c-2.79-11.3-5.59-22.63-6.93-34.19.78,6.74,25.53,2.86,29,1.52,11.61-4.45,11.7-8.67,14.94-18.65,7.35-22.68,14.67-44.22,26.3-65.4A341.16,341.16,0,0,1,692.87,192.63,313.3,313.3,0,0,1,786,184.1c6.73.4,16.64,1.3,22.53-3,13.6-9.9,8.6-29.43,5.36-43.07-3.69-15.5,6.62-15.75,18-7.69,58.81,41.7,116.91,84.61,172.74,130.24,13.18,10.84,29.51,21.64,37.69,37-14.83-.11-25,6.81-38.26,12.55Q991.54,315.6,979.48,322Z"/><path class="cls-3" d="M77,353.1v23.82c0,.74,0,.74-.75.74-1.79,0-3.58,0-5.37,0-.51,0-.67-.16-.67-.67,0-3.32,0-6.64,0-10a4.87,4.87,0,0,0-5-5.06H62.45c-.72,0-.76,0-.76.76v11.68c0,2.2,0,4.4,0,6.6,0,.51-.15.68-.67.66a40.27,40.27,0,0,0-6.85.49c-.65.09-.66.08-.51-.54q2-8.28,4.07-16.56c1-4.07,2-8.14,3-12.22.11-.44.27-.59.74-.59,4.91,0,9.81,0,14.71,0C77,352.27,77,352.27,77,353.1Z"/><path class="cls-3" d="M112.73,408.14c.1.49,0,.62-.52.62-4.42,0-8.84,0-13.26,0-.49,0-.62-.25-.76-.63A43.42,43.42,0,0,0,94,399.26a38,38,0,0,0-13.45-12.53c-.31-.17-.7-.28-.68-.78s0-.71.54-.69c.29,0,.35-.23.34-.47,0-1.38,0-2.76,0-4.14A2.9,2.9,0,0,0,80.1,379a1.36,1.36,0,0,1-.25-.83q0-12.62,0-25.23c0-.52.17-.67.67-.67h20.19c.51,0,.71.17.81.67q2.81,13.95,5.63,27.89a2.17,2.17,0,0,1,.12,1.06l-3-2.51c-1.33-1.14-2.65-2.29-4-3.42a2.47,2.47,0,0,0-3.44.15c-.28.28-.53.57-.79.87s-.35.21-.55,0q-2.61-2.69-5.24-5.36c-.24-.24-.15-.4,0-.61.67-.82,1.33-1.66,2-2.48a1.43,1.43,0,0,0,0-2.18,1.49,1.49,0,0,0-2.2.38l-6.77,8.33a1.51,1.51,0,0,0,0,2.2,1.48,1.48,0,0,0,2.19-.37c.79-1,1.59-1.93,2.36-2.91.23-.3.41-.32.67-.05l5,5.13a.39.39,0,0,1,0,.62c-.35.36-.69.73-1,1.1a2.45,2.45,0,0,0-.29,3.27c2.4,3.55,4.87,7.06,7.2,10.66.92,1.42,2.33,2,3.68,2.79,2.61,1.45,5.24,2.86,7.87,4.26a1.08,1.08,0,0,1,.61.86C112,404.45,112.34,406.3,112.73,408.14Z"/><path class="cls-3" d="M120.4,395.83c.07.64-.08.77-.71.7a10.34,10.34,0,0,0-1.33-.18c-.57,0-.74-.32-.79-.8l-.72-5.71c-.1-.82-.23-1.63-.32-2.44-.06-.63,0-.71.67-.67s1,.15,1.49.21a.63.63,0,0,1,.63.64c.24,1.85.5,3.69.74,5.53C120.18,394,120.31,394.92,120.4,395.83Z"/><path class="cls-3" d="M126.09,396.53c.08.62,0,.73-.65.71-.47-.06-1-.14-1.54-.19s-.57-.28-.62-.65c-.35-2.72-.71-5.43-1-8.15-.1-.75,0-.84.77-.74l.83.11c1.12.13,1.12.13,1.25,1.21C125.42,391.4,125.75,394,126.09,396.53Z"/><path class="cls-3" d="M128.3,392c-.14-1.08-.26-2.17-.39-3.26-.06-.42.11-.6.53-.55.57.07,1.14.16,1.72.22.35,0,.5.22.55.58.29,2.34.6,4.68.9,7,.06.46.11.92.18,1.38s-.13.66-.58.6l-1.72-.22c-.38,0-.47-.32-.51-.63C128.75,395.44,128.52,393.73,128.3,392Z"/><path class="cls-3" d="M60.24,405.7A15.19,15.19,0,1,0,75.47,421,15.13,15.13,0,0,0,60.24,405.7Zm0,24.24a9.07,9.07,0,1,1,9.09-9A9.09,9.09,0,0,1,60.24,429.94Zm0-24.24A15.19,15.19,0,1,0,75.47,421,15.13,15.13,0,0,0,60.24,405.7Zm0,24.24a9.07,9.07,0,1,1,9.09-9A9.09,9.09,0,0,1,60.24,429.94Zm0-24.24A15.19,15.19,0,1,0,75.47,421,15.13,15.13,0,0,0,60.24,405.7Zm0,24.24a9.07,9.07,0,1,1,9.09-9A9.09,9.09,0,0,1,60.24,429.94Zm0-24.24A15.19,15.19,0,1,0,75.47,421,15.13,15.13,0,0,0,60.24,405.7Zm0,24.24a9.07,9.07,0,1,1,9.09-9A9.09,9.09,0,0,1,60.24,429.94ZM99,306.5a99,99,0,1,0,99,99A99,99,0,0,0,99,306.5ZM88.49,418.62a25.59,25.59,0,0,1,0,5.25c0,.35-.22.39-.5.25a3,3,0,0,0-.85-.31l2.3,1.8a1.79,1.79,0,0,1,.71,2.43c-.52,1.58-1,3.16-1.55,4.73a1.68,1.68,0,0,1-1.94,1.4,1.84,1.84,0,0,0-2,1.16,24.9,24.9,0,0,1-3.2,4.44c-.37.42-.49.4-.75-.12a3.79,3.79,0,0,0-.48-.79c.28.94.56,1.88.83,2.82a1.92,1.92,0,0,1-.88,2.59c-1.36,1-2.73,2-4.09,2.94a1.6,1.6,0,0,1-2.12,0,2.2,2.2,0,0,0-2.79-.19,22.76,22.76,0,0,1-4.73,1.54c-.68.16-.73.12-.63-.6a2.27,2.27,0,0,0,0-.74l-1,2.67c-.47,1.29-.9,1.6-2.28,1.6H57.87c-1.21,0-1.77-.35-2.1-1.52a1.85,1.85,0,0,0-1.67-1.46,25.61,25.61,0,0,1-5.26-1.69c-.41-.17-.51-.35-.14-.66l.71-.62-.1-.12-1.86,1.26c-.34.23-.68.46-1,.66a1.66,1.66,0,0,1-1.9-.1c-1.49-1.08-3-2.16-4.47-3.26a1.5,1.5,0,0,1-.61-1.88,2.24,2.24,0,0,0-.67-2.82,20.9,20.9,0,0,1-3-4.11c-.3-.5-.27-.56.31-.67a5.39,5.39,0,0,1,.56-.08l.6-.1c-1.2-.09-2.27-.14-3.35-.14a1.83,1.83,0,0,1-2-1.48c-.51-1.58-1-3.15-1.55-4.73a1.68,1.68,0,0,1,.68-2.29,2,2,0,0,0,1-2.22,22.56,22.56,0,0,1,0-5.13c.08-.88.11-.91.9-.52.13.06.24.18.47.12l-2.31-1.8a1.77,1.77,0,0,1-.71-2.26c.52-1.63,1.08-3.25,1.59-4.89a1.64,1.64,0,0,1,1.73-1.36,2.28,2.28,0,0,0,2.4-1.49,21.15,21.15,0,0,1,2.9-4c.52-.57.51-.57.91.08.06.11.08.26.31.31-.24-.84-.46-1.64-.69-2.44-.39-1.34-.2-1.84,1-2.66s2.53-1.84,3.79-2.77a1.76,1.76,0,0,1,2.45-.05,2,2,0,0,0,2.42.21,23.3,23.3,0,0,1,5.05-1.64c.64-.15.68-.11.59.54a2.22,2.22,0,0,0,0,.73c.36-1,.71-2,1.08-2.92a1.73,1.73,0,0,1,1.83-1.26h5.25a1.63,1.63,0,0,1,1.78,1.24c.25,1.25,1,1.59,2.16,1.81a24.07,24.07,0,0,1,4.78,1.56c.55.23.57.35.17.78a1.19,1.19,0,0,0-.32.48l2.33-1.55a1.77,1.77,0,0,1,2.4.06l4.12,3a1.67,1.67,0,0,1,.74,2.18,2,2,0,0,0,.55,2.46,23.19,23.19,0,0,1,3.12,4.29c.24.39.23.61-.29.66-.29,0-.57.1-.86.15a.66.66,0,0,0,0,.14c.64,0,1.28,0,1.92,0,.48,0,1,.05,1.45.07a1.55,1.55,0,0,1,1.49,1.14c.61,1.78,1.19,3.57,1.77,5.37a1.62,1.62,0,0,1-.51,1.77,2.65,2.65,0,0,1-.26.21C88.28,417.07,88.32,417.07,88.49,418.62Zm36,10.3a1.64,1.64,0,0,1-1.71,1.8c-1.3,0-2-.49-2-1.67a25.78,25.78,0,0,1,.3-5c.1-.75.09-.78-.7-.78h-4.86a2.08,2.08,0,0,0-2.27,2.26c0,.91,0,1.82,0,2.74a2.3,2.3,0,0,1-2.38,2.41H93.63c-.51,0-.59-.17-.47-.64a33.77,33.77,0,0,0,1-9.81,32.94,32.94,0,0,0-5.18-16.39,33.45,33.45,0,0,0-13.77-12.35,33.09,33.09,0,0,0-13.4-3.38,33.91,33.91,0,0,0-13.2,2.11A33.55,33.55,0,0,0,38.75,396c-1,.86-.83.76-1.69,0-1.12-1-2.26-2.05-3.39-3.08-.57-.51-.57-.51,0-1A39.28,39.28,0,0,1,44.49,385a1.63,1.63,0,0,0,1.13-1.22c1.64-6.81,3.32-13.61,5-20.42l2.52-10.26c.19-.79.19-.79-.66-.8a11.78,11.78,0,0,1-1.78-.07,2.56,2.56,0,0,1-.48-5A4.41,4.41,0,0,1,51.7,347h59.51a3.47,3.47,0,0,1,2.13.54,2.53,2.53,0,0,1-1,4.61,9.32,9.32,0,0,1-1.4.09H105c-.69,0-.71,0-.58.7Q106.69,364,109,375c.45,2.23.9,4.46,1.33,6.69.1.51.33.68.85.74,3.37.36,6.73.77,10.1,1.16,1.37.16,2.74.31,4.11.49.38,0,.57-.05.55-.46a5.21,5.21,0,0,1,0-.79c0-.62,0-1.08-.82-1.19a1.18,1.18,0,0,1-1-1.28c0-3.36,0-6.71,0-10.07a1.35,1.35,0,0,1,1.19-1.41c.47-.08.59-.3.59-.75a6,6,0,0,1,4.8-6.07l.11,0c1.15-.25,1.26-.17,1.26,1v1.62a.51.51,0,0,1-.5.6,2.76,2.76,0,0,0-2.41,3c0,.35.1.53.5.57,1.29.11,1.73.61,1.73,1.91,0,3.06,0,6.11,0,9.17,0,1.29-.47,1.81-1.74,1.89-.32,0-.49.12-.48.46,0,.61,0,1.23,0,1.84,0,.34.15.45.46.49l6.27.75c3.51.42,7,.69,10.54,1.28a19.72,19.72,0,0,1,14.63,10.49,59.27,59.27,0,0,1,2.71,6.91,26.67,26.67,0,0,1,1,2.86c0,.17.2.39,0,.53s-.34-.08-.48-.18a25.67,25.67,0,0,0-9.18-3.82A25.57,25.57,0,0,0,128.29,415a24.49,24.49,0,0,0-3.73,11.08C124.47,427,124.47,428,124.46,428.92Zm48,4.81c-.4,1.26-.81,2.52-1.24,3.77a1.27,1.27,0,0,1-1.43,1,1.44,1.44,0,0,0-1.54.94,16.83,16.83,0,0,1-2.23,3.07c-.27.31-.52.59-.84.05.16.6.31,1.19.48,1.78a1.3,1.3,0,0,1-.51,1.53q-1.64,1.22-3.3,2.4a1.27,1.27,0,0,1-1.66,0,1.56,1.56,0,0,0-1.93-.15,16.92,16.92,0,0,1-3.54,1.18c-.39.09-.77.18-.73-.47-.19.54-.4,1.07-.58,1.61a1.49,1.49,0,0,1-1.51,1.09H148.1a1.39,1.39,0,0,1-1.49-1.1,1.39,1.39,0,0,0-1.3-1.13,17.65,17.65,0,0,1-3.67-1.18c-.64-.28-.64-.28-.25-.87l-1.47,1a1.4,1.4,0,0,1-1.94,0l-3-2.2a1.32,1.32,0,0,1-.6-1.69,1.54,1.54,0,0,0-.45-1.87,15.64,15.64,0,0,1-2.06-2.78c-.48-.78-.47-.79.4-1.09-.62,0-1.24,0-1.86,0a1.5,1.5,0,0,1-1.69-1.24l-1.11-3.4a1.4,1.4,0,0,1,.58-1.9,1.48,1.48,0,0,0,.63-1.63,18.72,18.72,0,0,1,0-4c0-.35.14-.55.58-.44l-1.27-1a1.39,1.39,0,0,1-.55-1.77c.39-1.22.79-2.45,1.19-3.67.24-.72.6-1.06,1.35-1a1.6,1.6,0,0,0,1.68-1,18.62,18.62,0,0,1,2.27-3.11c.28-.34.5-.36.78,0-.16-.52-.31-1-.46-1.56A1.39,1.39,0,0,1,135,411c1-.74,2-1.46,3-2.19a1.37,1.37,0,0,1,1.94,0,1.37,1.37,0,0,0,1.66.15,17.58,17.58,0,0,1,3.54-1.2c.75-.2.84-.13.81.71.25-.68.46-1.28.69-1.86.33-.86.63-1.08,1.54-1.08h3.75c.89,0,1.3.24,1.53,1.09a1.37,1.37,0,0,0,1.29,1.13,16.15,16.15,0,0,1,3.52,1.1c.77.32.77.32.19,1.08l1.67-1.14a1.47,1.47,0,0,1,2,.07c1,.72,2,1.42,2.94,2.14a1.35,1.35,0,0,1,.6,1.79,1.45,1.45,0,0,0,.39,1.7,16.24,16.24,0,0,1,2.19,3c.45.74.44.78-.41,1l2.06.11a1.33,1.33,0,0,1,1.41,1c.4,1.2.8,2.4,1.19,3.61a1.32,1.32,0,0,1-.56,1.79,1.54,1.54,0,0,0-.69,1.7,20.86,20.86,0,0,1,0,3.79c0,.36,0,.82-.65.54.46.37.94.72,1.4,1.1A1.31,1.31,0,0,1,172.47,433.73Zm-22.42-16.64a11.4,11.4,0,1,0,11.32,11.43A11.34,11.34,0,0,0,150.05,417.09Zm0,18.22a6.84,6.84,0,1,1,0-13.68,6.84,6.84,0,0,1,0,13.68ZM60.24,405.7A15.19,15.19,0,1,0,75.47,421,15.13,15.13,0,0,0,60.24,405.7Zm0,24.24a9.07,9.07,0,1,1,9.09-9A9.09,9.09,0,0,1,60.24,429.94Zm0-24.24A15.19,15.19,0,1,0,75.47,421,15.13,15.13,0,0,0,60.24,405.7Zm0,24.24a9.07,9.07,0,1,1,9.09-9A9.09,9.09,0,0,1,60.24,429.94Zm0-24.24A15.19,15.19,0,1,0,75.47,421,15.13,15.13,0,0,0,60.24,405.7Zm0,24.24a9.07,9.07,0,1,1,9.09-9A9.09,9.09,0,0,1,60.24,429.94Z"/><path class="cls-3" d="M216,977.5a92,92,0,1,0,92,92A92,92,0,0,0,216,977.5Zm-30.74,146.64c-.4.35-.77,0-1.11-.22a58.11,58.11,0,0,1-18.25-16.57,43.15,43.15,0,0,1-7.66-31.94,79.91,79.91,0,0,1,3.09-12.83c.9-2.86,1.95-5.68,3-8.48,3.38-8.77,7.44-17.26,11-25.95a112.24,112.24,0,0,0,4.53-12.58,35,35,0,0,0,1.64-10.7c0-.56.19-.72.71-.69.76,0,1.53,0,2.29,0a1.45,1.45,0,0,1,.9.27c10.82,7.44,21.21,15.39,30.3,24.93a106.59,106.59,0,0,1,8.7,10.39c.48.65.94,1.32,1.37,2a1,1,0,0,1-.38,1.64,8.08,8.08,0,0,1-1,.49,145.23,145.23,0,0,0-18.36,8.91,64.34,64.34,0,0,0-18.67,16.36,31.91,31.91,0,0,0-4.87,8.77,2.38,2.38,0,0,1-.61,1.2,2.19,2.19,0,0,1-.18-1.31c-.05-6.93,1.67-13.48,4.15-19.88a113.92,113.92,0,0,1,5.7-11.64,1.12,1.12,0,0,0,.22-.64c-.22-.17-.33,0-.43.14-2.4,3.28-4.86,6.52-7.05,10-4.42,6.93-8.07,14.2-9.82,22.31a42,42,0,0,0,.53,20.57,49,49,0,0,0,6.32,13.58,12.42,12.42,0,0,1,1.47,3.18c.78,2.56,1.61,5.1,2.41,7.65C185.33,1123.42,185.6,1123.83,185.26,1124.14Zm89.87-54.06a90.32,90.32,0,0,1-3.11,20.67A57.59,57.59,0,0,1,264,1108.3a47,47,0,0,1-12.54,12.32,60.21,60.21,0,0,1-17.75,8,84.8,84.8,0,0,1-15.51,2.63c-2.76.22-5.51.31-8.27.29a4.53,4.53,0,0,1-4.68-3.4,42.09,42.09,0,0,1-2.45-16.26,47.24,47.24,0,0,1,.82-6.81,48.13,48.13,0,0,1,6.52-16.46,53,53,0,0,1,9.94-11.7,64.52,64.52,0,0,1,24.69-13.26c.93-.28,1.88-.51,2.83-.77a3.92,3.92,0,0,0-2.17-.07,110.41,110.41,0,0,0-19.61,4.17,57,57,0,0,0-16.84,8.42,41.55,41.55,0,0,0-13.3,16.66,56.75,56.75,0,0,0-4.54,20,97,97,0,0,0,0,11.18,10.1,10.1,0,0,1,0,1.23c0,.4.25,1-.35,1.11s-.92-.42-1.09-1c-.66-2.1-1.28-4.21-2-6.3a69.11,69.11,0,0,1-3.17-13.06,59.71,59.71,0,0,1-.35-11.88,48.91,48.91,0,0,1,2.22-11.47,44.15,44.15,0,0,1,5.64-11.49c4.06-5.94,9.52-10.28,15.6-14a136.16,136.16,0,0,1,16.86-8.35c5.08-2.2,10.3-4.08,15.45-6.14a189,189,0,0,0,18-7.79,39.33,39.33,0,0,0,10.71-7.59c1-1.1,2-.84,2.3.64.81,3.55,1.37,7.15,1.93,10.75.68,4.35,1.26,8.71,1.66,13.1A146.55,146.55,0,0,1,275.13,1070.08Z"/><path class="cls-3" d="M1257.5,1070a123,123,0,1,0,123,123A123,123,0,0,0,1257.5,1070Zm69.14,155.9c-4.6.63-4.67,2.08-3.17,6,3.29,8.62,1.87,17.11-2.24,25.26-1.94,3.83-4.44,4.87-8,2.09-8-6.3-14.34-13.65-14.32-24.52,0-4.19-2-6.11-5.63-7.12a45.84,45.84,0,0,0-14.6-1.62,107,107,0,0,1-31.21-3.34c-7.24-1.82-10,1.16-8,8.45.54,2,3.06,4.62.94,6.06-2.39,1.65-4.21-1.53-6-3-8.8-6.88-15.86-15.07-19-26.1a14.52,14.52,0,0,0-4-6.06,128.43,128.43,0,0,1-27.08-42c-3.43-8.55-1.51-11.9,7.54-13.32a142.46,142.46,0,0,1,39.4-.93c6,.72,7.42,3.32,6.68,8.85-1.09,8-2.63,15.85-5.77,23.43,6.81-6,8.92-14.21,10.2-22.57.71-4.62,2-5.52,7-6,11.32-1.17,22.24-1.15,33,2.59,1.68.59,3.36,1.22,5,2,1,.45,2.12,1.07,2,2.38-.14,1.48-1.51,1.37-2.57,1.59a28.63,28.63,0,0,0-5.2,1.14c-5.4,2.29-6.18,6-2.12,10.22a130.33,130.33,0,0,1,19.07,25.81,37.18,37.18,0,0,0,5.68,7.42c3.39,3.49,6.83,4.76,11.73,1.46,8.92-6,18.63-5.1,28.26-1.3,4.68,1.84,5.5,4.7,2.6,8.81C1341.74,1218.75,1335.69,1224.64,1326.64,1225.9Z"/><path class="cls-3" d="M1613,223.05c-3.07,5.2-5.67,10.58-6.4,16.81C1605.4,236.44,1607.7,228.44,1613,223.05Z"/><path class="cls-3" d="M1617.74,226.38c-6.26,7-8.15,15.35-6.54,24.54a16.59,16.59,0,0,1,.26,3.67c-.41-2.27-.85-4.53-1.23-6.81-1.41-8.45,1.22-15.74,6.69-22.05a74.59,74.59,0,0,0,8.54-12.69,11.77,11.77,0,0,1,2-2.71C1624.54,215.9,1622,221.61,1617.74,226.38Z"/><path class="cls-3" d="M1628.48,221.93A43.16,43.16,0,0,1,1624,229c-2.88,4-5.49,8.22-6.72,13.11a76.35,76.35,0,0,0-2,10.83,32.42,32.42,0,0,1-1.89,8,46,46,0,0,0-.2-9.82,54.33,54.33,0,0,1-.39-7.85,19.29,19.29,0,0,1,1.32-6,32,32,0,0,0,.13,13.19c.22-1.75.43-3.51.66-5.25a30.52,30.52,0,0,1,6.46-15.69,68.58,68.58,0,0,0,9.37-15.87,11,11,0,0,1,3.91-5C1631.31,212.49,1630.46,217.47,1628.48,221.93Z"/><path class="cls-3" d="M1636.19,221.63c-.37,10-4.87,18.32-10.35,26.27C1628.84,239,1633.75,230.78,1636.19,221.63Z"/><path class="cls-3" d="M1641.23,232.26c.81,9.36-5.65,20.76-14.45,25.78C1634.68,251.05,1640.19,242.76,1641.23,232.26Z"/><path class="cls-3" d="M1621,162a61.5,61.5,0,1,0,61.5,61.5A61.49,61.49,0,0,0,1621,162Zm35.94,34.5a55.68,55.68,0,0,1-12.85,3.05c-.83.11-1.65.19-2.48.23a3.9,3.9,0,0,0-3.52,3.61c0,.43.27.61.55.82,4.28,3.31,5.35,7.77,4.53,12.86a43.82,43.82,0,0,1-2.61,9.19c-.07.16-.17.32.07.54,1.31-1.09,1.46-2.91,2.48-4.17.46.25.22.58.21.85a48,48,0,0,0,.18,5.36c.84,11.72-2.76,21.57-12.28,29a51.53,51.53,0,0,1-13.09,7.37c-1.52.59-2.84,1.55-4.35,2.14-1.16.44-2,.17-2.25-1-.84-3.87-3.13-7.1-4.49-10.74a46.91,46.91,0,0,1-3.13-14.16c-.27-5.66,1.58-10.86,4.45-15.68a33,33,0,0,1,8.07-9.39c2.25-1.75,3.76-4.24,5.69-6.33,2.14-2.31,4.31-4.59,7.19-6a9.86,9.86,0,0,1,4.8-1.12c.77,0,2.23-1.88,2.05-2.61-.1-.42-.46-.33-.75-.34a62.32,62.32,0,0,1-6.41-.24,1,1,0,0,0-1,.43c-2.83,4.08-6.93,7.05-9.81,11.08a29.6,29.6,0,0,1-5.79,5.45,31.52,31.52,0,0,0-9.12,11.84,2,2,0,0,1-1.66,1.27,38.66,38.66,0,0,1-7,.61c-4.27,0-8.57-.32-12.82.48-.32.06-.75.19-.92-.24s.11-.84.4-1.17a37.67,37.67,0,0,1,9.63-8c1.11-.61,2.25-1.16,3.39-1.72.25-.13.56-.42.83-.12s0,.59-.13.85a9,9,0,0,0-1,3.91c.6-1.32,1.29-2.61,1.78-4a3.84,3.84,0,0,1,2.46-2.5c1.65-.58,3.26-1.25,4.9-1.85.38-.13.86-.55,1.19-.1s-.19.71-.38,1a21.55,21.55,0,0,0-2.42,5.49,56.54,56.54,0,0,1,3.33-5.93,5.4,5.4,0,0,1,2.65-2.17c3-1.22,6.11-2.43,8.63-4.63a3,3,0,0,0,1-1.13c-1.13.18-1.71,1.62-2.83,1.31a20.08,20.08,0,0,0-3.08-1.12c.62.28,1.24.56,1.85.86s1,.8.1,1.24c-2.71,1.26-5.39,2.59-8.49,2.8-.73.05-1.42.79-2.24,1.05a35.26,35.26,0,0,0-5,1.9c-1.94,1-4,.36-5.93.76h2c.25,0,.59,0,.67.29s-.29.47-.54.6a51.55,51.55,0,0,0-6.14,3.77,39.31,39.31,0,0,0-5.67,5.2c-.54-.45-.24-.9-.14-1.26,2.81-9.64,8.29-17.12,17.62-21.31,6.46-2.9,13.09-2.73,19.68-.32a1.64,1.64,0,0,0,2.15-.54c1-1.22,2-2.43,3.06-3.59.74-.81.51-1.13-.47-1.29a65.42,65.42,0,0,1-11.92-3.07c-1.44-.52-2.85-1.11-4.29-1.63a1.21,1.21,0,0,1-.87-1.71c.62-2.1.69-2.2,2.73-1.41a63.25,63.25,0,0,0,25,4.19c6.68-.24,13.11-1.5,18.92-5a1.6,1.6,0,0,1,1.93.08,7.61,7.61,0,0,1,2.85,3.83A1.59,1.59,0,0,1,1656.94,196.5Z"/><path class="cls-3" d="M844,0a53.5,53.5,0,1,0,53.5,53.5A53.5,53.5,0,0,0,844,0Zm30.46,46a23.49,23.49,0,0,1-1.65,5.63c-.83,2-1.92,2.67-4,2.39s-4.66-1.87-4.4-4c.19-2.89.85-4.89,3.11-6,1.93-1,3.44-2.59,5.44-3.43,1.34-.57,1.64-.44,1.87,1A14.19,14.19,0,0,1,874.46,46Zm-6.31-16.87a52,52,0,0,0,5.49,2.74c.46.22,1.07.35,1.13,1s-.56.84-1,1.09A22.39,22.39,0,0,1,864,36.87a17,17,0,0,1-4.64-.74,1.82,1.82,0,0,1-1.41-1.29c-.36-1.24,1-4.33,2.19-4.84s2.11-.9,3.19-1.27A5.45,5.45,0,0,1,868.15,29.17Zm-14.36-7.26c1.6-1.89,4.55-2.8,6.37-1.95a4.14,4.14,0,0,1,2.31,4.09,7.41,7.41,0,0,1-2.11,4.29C857.62,31,854,32,850.61,33.28c-1.08.41-.51-.87-.84-1.4C850.69,28.4,851.34,24.8,853.79,21.91Zm-6.5,19c2.56-.9,5.1-1.9,7.71-2.65a7.18,7.18,0,0,1,6.19.86c1.18.78,1.74,1.86,1.68,3.92a5.42,5.42,0,0,1-2.51,3.95,7.51,7.51,0,0,1-7.64.65,18.78,18.78,0,0,1-5.91-4.91C846.08,41.81,846.25,41.23,847.29,40.86ZM830.72,23.92c2.88-2.5,5.61-5.18,8.7-7.43,1-.71,1.46-.49,1.6.66.1.81.19,1.62.27,2.33-.23,3-.53,5.82-2,8.39-1.78,3.21-5,3.9-8,1.76C829.36,28.22,828.9,25.5,830.72,23.92ZM823,31.77a4.6,4.6,0,0,1,5.3.88,15.28,15.28,0,0,0,3.48,1.67c.7.34.72.6.2,1.13A19.15,19.15,0,0,1,825.47,40,3.87,3.87,0,0,1,820,36.59,5.12,5.12,0,0,1,823,31.77Zm-15.65,23A3.91,3.91,0,0,1,809.52,50c2.27-1.11,4.62-2.06,7-3,.81-.34,1.67-.11,1.32.9-1,2.9-1.3,6.1-3.45,8.56a5.11,5.11,0,0,1-3.24,1.69C809.29,58.06,807.9,56.78,807.37,54.73Zm15.33,20c-2.4,1.35-4.74,2.83-7.49,3.46a8.14,8.14,0,0,1-3.54,0,2.57,2.57,0,0,1-2-3.55,5.16,5.16,0,0,1,5.53-3.76c2.64-.25,4.92,1.38,7.42,2.24C823.68,73.5,823.69,74.12,822.7,74.69Zm2.52-8.63a22.34,22.34,0,0,1-6,1.32A9.07,9.07,0,0,1,813.67,65c-1.32-1.19-.87-2.85-.47-4.32a4.26,4.26,0,0,1,5.91-2.78c3.1,1.41,5,4.11,6.82,6.78C826.43,65.4,825.86,65.8,825.22,66.06Zm.92-8.82a5.77,5.77,0,0,1-.73-6.11,23.72,23.72,0,0,1,5.94-8c1.15-.94,1.3-.89,1.85.5a21.48,21.48,0,0,1,1.27,6.82,13.21,13.21,0,0,1-2,6.55A3.64,3.64,0,0,1,826.14,57.24Zm8.79,15.46c-1,1.09-2.24,1.8-3.83,1.28s-3.63-.87-4.08-3.08a4.38,4.38,0,0,1,1.78-4.43,48.77,48.77,0,0,1,7.1-5.08c1.13-.63,1.46-.26,1.44.87,0,.71,0,1.43,0,2.15C837.42,67.42,837.17,70.35,834.93,72.7Zm2.14-32.54c-1.37-.18-2.78-.42-3.33-1.85s.44-2.46,1.27-3.44a11.08,11.08,0,0,1,6.73-4.06,8,8,0,0,0,1.37-.4c1.58-.56,1.75-.45,1.69,1.54A10.16,10.16,0,0,1,839,39.89,3.35,3.35,0,0,1,837.07,40.16Zm1.21,10.92c-.17-2-.34-4-.55-6-.1-.88.21-1.07.95-.68a16.54,16.54,0,0,1,7.87,8.17c.86,2-1.72,4.69-4.28,4.67-1.86,0-2.68-1.25-3.32-2.69A10.36,10.36,0,0,1,838.28,51.08Zm7.11,29.42A5.63,5.63,0,0,1,840,73.11c1.08-3.46,2.51-6.81,3.81-10.2.29-.76.85-1.07,1.29-.15,1.32,2.77,3.32,5.14,4.6,7.93a13.18,13.18,0,0,1,1.19,3.52A5.32,5.32,0,0,1,845.39,80.5Zm3.53-17.9c-.84-.27-1.39-.82-.77-1.72,2.21-3.22,4.73-6.14,8.44-7.73,2.95-1.27,5.26-.34,6.55,2.62a11.75,11.75,0,0,1,.65,2.19,2.79,2.79,0,0,1-2.14,3.62A46,46,0,0,1,852.33,63,9.13,9.13,0,0,1,848.92,62.6Zm20.31,8.77a16.85,16.85,0,0,1-10,3.43h-.15c-2.9,0-4.26-.71-4.79-2.47a6.17,6.17,0,0,1,2.38-6.56c1-.59,2-.26,3.06-.09,2.63.43,4.85,2,7.36,2.72a6.09,6.09,0,0,1,2.17,1.33C870.06,70.36,870,70.78,869.23,71.37Zm9.07-.73a9.4,9.4,0,0,1-4.53-2.88c-1.56-1.93-3.17-3.84-4.64-5.83-.9-1.22-.68-1.6.77-1.92a17.77,17.77,0,0,1,4.23-.31,8.73,8.73,0,0,1,7.77,3,5.69,5.69,0,0,1,.67,6.44A3.84,3.84,0,0,1,878.3,70.64Z"/><polygon class="cls-3" points="1643.51 261.54 1691.89 341.42 1740.17 421.36 1836.46 581.4 1932.38 741.66 1980.34 821.79 2028.13 902.03 2029.28 903.97 2027.17 904.77 1857.09 969.53 1686.93 1034.1 1516.72 1098.52 1346.39 1162.64 1516.12 1096.94 1685.95 1031.54 1855.85 966.29 2025.83 901.23 2024.88 903.97 1976.91 823.84 1929.12 743.61 1833.55 583.13 1738.34 422.45 1690.87 342.02 1643.51 261.54"/><path class="cls-3" d="M1408.86,788.53l5.83-16.43,5.9-16.4,11.8-32.81,23.91-65.49q23.92-65.48,48.43-130.75l24.54-65.26c8.25-21.72,16.41-43.49,24.76-65.17l25-65.1,12.64-32.49,6.32-16.25,6.4-16.21-5.83,16.43-5.9,16.4-11.79,32.81-23.91,65.49c-7.94,21.84-16.07,43.61-24.11,65.42l-24.33,65.33q-24.51,65.26-49.31,130.43l-25,65.1-12.64,32.49-6.32,16.24Z"/><path class="cls-3" d="M2058,832a81.5,81.5,0,1,0,81.5,81.5A81.5,81.5,0,0,0,2058,832Zm22.84,47.1a2.45,2.45,0,0,1,3.21.64c.67.74,1,1.81,2.12,2.4.6-1.33-.45-1.93-.76-2.76-.5-1.34-.45-2.52.77-3.39a2.29,2.29,0,0,1,3.39.41,1.61,1.61,0,0,0,2.4.47c1.53-.79,2.7.19,3.79,1.19s1.63,2,1,3.37c-.46,1-.36,1.55.61,2.13a2.27,2.27,0,0,1,.84,3.3c-.76,1.48-2,1.54-3.48,1.11-.78-.24-1.46-1.05-2.56-.44.43,1,1.4,1.16,2.14,1.65,1.37.9,2,2.14,1.13,3.65a2.58,2.58,0,0,1-3.69,1.06c-1.85-.89-3.47-1.87-2.93-4.49.34-1.59-2.76-4.15-4.41-3.9a4.28,4.28,0,0,1-5-3.4A2.67,2.67,0,0,1,2080.84,879.1Zm-7,5.75a3,3,0,0,1,2.22-2.27,2.69,2.69,0,0,1,2.88,1.26c1.22,1.72,2.35,3,4.93,2.63,1.9-.27,3.24,1.53,4,3.25s-.22,2.85-1.54,3.81c2.22-.65,3.83.55,5.33,1.88a2.4,2.4,0,0,1,.35,3.43,2.55,2.55,0,0,1-3.29,1.12c-3.58-1.28-4.5-3.72-2.39-6.43h0c-2.5.61-3.86-1.16-5.11-2.73-.77-1-1.1-1.53-2.56-1C2076.59,890.45,2073.32,887,2073.87,884.85Zm-26.39,53.47a7.53,7.53,0,0,1-7.6-7c-.08-.78-.43-.87-1-1-2-.37-2.34-1.63-1.73-3.36.31-.9.59-1.81,1-2.68,1.06-2.51,1.53-2.6,3.61-.61.11.11.6.39.62.7.22,3.52,3.64,4.13,5.52,6.13,1,1,2.22,1.86,2.38,3.44.06.61.3.83.93.64a2.75,2.75,0,0,1,1.17-.14,4.71,4.71,0,0,1,4,3c.58,1.73-1.58,1.86-2.63,2.44-3.26,1.81-3.46,1.71-5.33-1.19C2048.09,938.29,2047.92,938.33,2047.48,938.32Zm.59,2.83c.09.81-.61.83-1.11.94-2.78.62-5.52,0-8.27-.3a1.65,1.65,0,0,1-1.29-1.28,18.4,18.4,0,0,1-1.2-8.4,2,2,0,0,1,.4-1.05c.24-.23.57,0,.87.37a1.38,1.38,0,0,1,.31.5c.61,4,4.74,5,6.62,8,.53.84,1.65.09,2.48.28C2047.46,940.33,2048,940.47,2048.07,941.15Zm28.54-42.47c2.11,1.94,2.42,3.65,1,5.28s-3.18,1.46-5.49-.66-2.52-3.49-1-5.2S2074.37,896.62,2076.61,898.68Zm-.18-6c1.37-1.58,3.2-1.45,5.2.36s2.24,3.49.74,5.11-2.91,1.46-4.94-.37S2075,894.3,2076.43,892.69ZM2072,904.86c1.83,1.69,1.91,3.32.23,5.09s-3.11,1.59-5.48-.57-2.73-3.67-1-5.56S2069.09,902.17,2072,904.86Zm-7.19,4.95c.3.26.59.53.88.8,1.28,1.08,2.67,2.12,2.12,4.14a3.54,3.54,0,0,1-5.64,2,17.33,17.33,0,0,1-2.12-1.9c-1.67-1.72-1.73-3.41-.23-5S2063,908.21,2064.83,909.81Zm-4.32,7.92c2,2,2.09,3.49.38,5.35s-3.19,1.91-5.32,0c-.24-.21-.47-.43-.7-.65-1.31-1.24-3-2.31-2.23-4.55,1-2.77,3.52-3.6,5.9-1.92A17.84,17.84,0,0,1,2060.51,917.73Zm-6.32,13a2.92,2.92,0,0,1-3.54.21,21,21,0,0,1-2.94-2.36c-2-2-2.12-3.82-.46-5.6s3.62-1.81,5.79.09l.71.63C2056.71,926.43,2056.86,928.9,2054.19,930.74Zm-.2-16.49c-.83,3.31-4,3.67-7,.83a4.35,4.35,0,0,1,.8-7,1.91,1.91,0,0,1,.66-.22C2050.44,907.63,2054.49,912.3,2054,914.25Zm-7.35,2.4c1.15,1.11,2.83,2.57,1.34,4.92-.76,1.2-1.78,2.34-3.44,2.09a4.67,4.67,0,0,1-4-3c-.6-2.22,1.39-3.85,2.61-5.53C2043.78,914.28,2044.38,914.58,2046.64,916.65Zm8.6,17.57c-1.24-1.81-.85-3.71,1.17-5.12,2.42-1.68,3.93.19,5.27,1.27,2.82,2.58,2.81,2.68,0,4.71l-.77.55C2058.28,937.39,2057.24,937.13,2055.24,934.22Zm7.6-4.67c-2.77-2.5-3.11-4.3-1.22-6.13,1.31-1.27,2.73-1.87,4.34-.37.58.54,1.33.88,1.89,1.43,3.44,3.32,2.52,4.47-1.33,6.57C2064.87,932,2063.87,930.19,2062.84,929.55Zm6.7-6c-.37-.3-.7-.64-1.05-1-1.14-1.06-2.57-2-2.06-3.91a3.27,3.27,0,0,1,5.35-1.86c.63.48,1.23,1,1.85,1.47,2,1.56,2.27,3.36.87,5.08S2071.44,925.12,2069.54,923.57Zm5-6.39c-.31-.25-.59-.53-.88-.79-2.56-2.27-2.77-3.47-1-5.26a2.67,2.67,0,0,1,3.62-.58,17.78,17.78,0,0,1,2.51,1.78c1.88,1.64,2,3,.66,4.66C2077.93,918.78,2076.56,918.83,2074.58,917.18Zm5.48-5.46a8.52,8.52,0,0,1-1.22-.93c-2.58-2.15-2.94-3.57-1.66-5.18s2.94-1.53,5,.07q.75.59,1.47,1.2a2.67,2.67,0,0,1,.4,4A2.83,2.83,0,0,1,2080.06,911.72Zm2.25-7.5c-1.62-1.49-1.78-3.15-.44-4.5s3.31-1,5.59,1c1.45,1.31,1.88,2.75.61,4.35S2084.64,906.36,2082.31,904.22Zm-13.66-16.36c1.54-1.5,3.19-1.39,5,.33,2.21,2.13,2.58,4,1.07,5.51-1.36,1.34-2.72,1.18-4.51-.54C2068.08,891.13,2067.47,889,2068.65,887.86Zm-5,4.33a2.57,2.57,0,0,1,3.66-.1,24.92,24.92,0,0,1,2.2,2.16,2.91,2.91,0,0,1-.08,4.43c-1.4,1.39-2.84,1.05-4.2-.16l-1.06-1C2062.2,895.6,2062,893.59,2063.69,892.19Zm-5.23,4.82a2.46,2.46,0,0,1,3.09-.21c1.73,1.24,3.61,2.5,3.72,4.92a3.11,3.11,0,0,1-2.11,2.92c-1.85.87-2.93-.51-4.1-1.57C2056.36,900.54,2056.19,898.77,2058.46,897Zm-1.1,6.62,0,0a18.86,18.86,0,0,1,1.82,1.87,2.86,2.86,0,0,1-.33,4.08c-1.18,1.15-2.59,1.61-4.07.52a21.26,21.26,0,0,1-2.64-2.39,3.38,3.38,0,0,1-.07-5.06c1.43-1.34,3.12-1.16,4.77.49ZM2104.5,919c-8.33.25-14.24,5.26-20.18,10.22-5.76,4.79-10.22,10.88-15.77,15.89-6.16,5.57-13,9.3-21.63,8.87a19.06,19.06,0,0,1-7.15-1.69c-1.34-.62-2-.74-2.71.85a5.08,5.08,0,0,1-4.17,3.18,3.28,3.28,0,0,0-2.2,1.27,5.67,5.67,0,0,1-1.41,1.27c-2,1.19-5-.2-7.78-3.65a3.57,3.57,0,0,1,.14-5.16,3.51,3.51,0,0,0,1.33-2.42,5.6,5.6,0,0,1,2.94-4.89,1.59,1.59,0,0,0,.7-2.49c-4.83-9.82-2.45-18.83,3.23-27.42,3-4.47,6.91-8.09,10.35-12.14a81.75,81.75,0,0,0,8.85-12.1c2.78-4.88,5.72-9.79,4.42-16.31,1.92,1.44,2.07,3.1,2.21,4.67.57,6.8-1.64,13-4.15,19.15-2.88,7-7.13,13.27-11.07,19.71-3.77,6.15-6.9,12.57-6,20.17a52.43,52.43,0,0,0,1.87,7.63c.47,1.67.11,3.48,1,5.3,1.42-1.15,1.23-2.45,1.16-3.7-.06-.93.09-1.65,1.25-1.45,10.69,1.81,18.62-3.8,26.33-9.89s16-11.71,25.64-14.83a23.81,23.81,0,0,1,11-1.38,4.87,4.87,0,0,1,2,.92C2104.65,918.8,2104.58,919,2104.5,919Z"/><path class="cls-3" d="M1281.53,1128.79c3.6-12,7.57-23.84,11.68-35.64,2-5.91,4.16-11.77,6.25-17.66l6.46-17.58,6.67-17.51c2.29-5.81,4.51-11.65,6.87-17.43,4.65-11.59,9.44-23.14,14.6-34.54-3.6,12-7.57,23.84-11.67,35.64-2,5.91-4.17,11.77-6.26,17.66l-6.46,17.58-6.67,17.5c-2.29,5.81-4.52,11.65-6.88,17.43C1291.47,1105.84,1286.68,1117.38,1281.53,1128.79Z"/><path class="cls-3" d="M778.34,867.22l12.71,8.28,12.67,8.34,25.33,16.68,50.48,33.65Q930,967.82,980.11,1002l50.1,34.19c16.66,11.47,33.37,22.84,50,34.4l49.84,34.56,24.83,17.43,12.41,8.71,12.37,8.78-12.71-8.28-12.67-8.34-25.33-16.68-50.47-33.64c-16.85-11.18-33.58-22.54-50.37-33.81l-50.22-34q-50.11-34.15-100.05-68.59L828,902.13l-24.83-17.42L790.72,876Z"/><path class="cls-3" d="M169.88,453.53c12.75,7.67,25.27,15.66,37.72,23.77,6.24,4,12.41,8.16,18.61,12.25L244.69,502l18.37,12.61c6.07,4.27,12.2,8.47,18.23,12.8,12.12,8.59,24.16,17.3,36,26.34C304.51,546.07,292,538.08,279.54,530c-6.25-4-12.41-8.16-18.61-12.25l-18.48-12.43-18.36-12.62c-6.08-4.27-12.2-8.48-18.24-12.8C193.73,471.27,181.7,462.57,169.88,453.53Z"/><path class="cls-3" d="M194,1003.5l-3-16.94-2.93-17-5.87-33.91L170.8,867.82c-7.59-45.25-14.87-90.55-22.15-135.85l-10.74-68c-3.5-22.67-7.1-45.33-10.49-68l-10.3-68.05-5-34-2.48-17-2.41-17,3,16.94,2.94,17,5.87,33.91,11.39,67.87c3.84,22.62,7.47,45.27,11.2,67.9l10.95,68c7.18,45.32,14.36,90.63,21.22,136l10.3,68,5,34.05,2.49,17Z"/><path class="cls-3" d="M1173.46,1178.81l-55.57-5.23-55.56-5.32-111.09-11c-37-3.6-74-7.48-111.07-11.23l-111-11.34L618.1,1123l-55.51-5.85-27.75-2.93-27.74-3-111-12.07L340.65,1093l-55.47-6.29,55.58,5.24,55.56,5.3,111.09,11,27.78,2.74,27.76,2.82,55.53,5.67,111,11.34,111,11.7c37,3.92,74,7.72,111,11.8l111,12.06,55.47,6.21Z"/><line class="cls-4" x1="889.47" y1="63.79" x2="1575.76" y2="213.26"/><line class="cls-4" x1="164.85" y1="373.78" x2="802.03" y2="73.98"/></g></g></svg>