<svg xmlns="http://www.w3.org/2000/svg" viewBox="0 0 1962.03 913.67"><defs><style>.cls-1{font-size:53.9px;fill:#cceaff;font-family:Poppins-Regular, Poppins;}.cls-2{fill:#fff;}</style></defs><g id="Layer_2" data-name="Layer 2"><g id="Layer_1-2" data-name="Layer 1"><text class="cls-1" transform="translate(744.23 745.19)">A participatory platform for collection <tspan x="0" y="68.16">and processing of value chain data</tspan></text><path class="cls-2" d="M1014.59,635.17c-30.87,2.75-41.42-20.27-55-42.69-4.48-6.94-6.73-10.4-11.25-17.33q-52.08,5.58-104,12.4-6.76,27-13.33,54c-1.35,7.22-5.82,12.86-13.28,13.92q-22.65,3.27-45.27,6.73c-7.45,1.15-14-2.85-15-9.24q31.41-137,69.36-272.34a18.44,18.44,0,0,1,15.8-13.56q27.78-3.46,55.59-6.63a18.43,18.43,0,0,1,18.53,9.47q56.55,99.36,109.15,200.86c4.32,9.12,9.61,15.79,14.42,17.76,4.14,1.7,7.47,5.39,7.83,9.85.55,6.94.83,10.41,1.38,17.36C1049.71,630.6,1025.28,634.22,1014.59,635.17Zm-156-103.65q31.68-4,63.4-7.55-20.57-38.81-41.66-77.33Q869.19,489,858.59,531.52Z"/><path class="cls-2" d="M1160.85,339.56c63.67-3.47,127,18.14,128.13,91,1.12,70.67-56.88,95.29-119.24,97.8q-23.37,1.1-46.73,2.49,2.43,41,4.85,81.93c.38,6.45-5.1,11.76-12.6,12.23q-21.35,1.37-42.69,2.92c-7.49.55-13.64-4-14.14-10.41l-20.07-258.88c-.5-6.45,5.31-11.89,13.36-12.49Q1106.26,342.21,1160.85,339.56Zm51.14,93c-.92-25.69-24.41-40.78-48.63-39.82q-24.19,1.14-48.37,2.57l4.88,82.43q23.67-1.39,47.37-2.51C1191.16,474,1212.9,458.06,1212,432.54Z"/><path class="cls-2" d="M1426.55,335.73c63.75.69,125.53,26.38,121.93,99.17-3.49,70.59-63,91.38-125.37,89.82q-23.38-.44-46.78-.57-.25,41-.5,82.08c0,6.47-5.85,11.4-13.36,11.38q-21.39,0-42.77.13c-7.51.06-13.35-4.84-13.42-11.3l-3.15-259.65c-.08-6.46,6.07-11.52,14.14-11.58Q1371.92,334.82,1426.55,335.73Zm45,96.12c.76-25.7-21.7-42.29-45.93-42.9q-24.19-.45-48.41-.59l-.51,82.57q23.71.15,47.42.58C1448,471.82,1470.75,457.37,1471.51,431.85Z"/><path class="cls-2" d="M1762.51,458.76q-8.71,83.87-17.42,167.73c-.67,6.43-6.94,10.78-14.42,10q-15-1.5-30-2.88c-7.48-.69-11.29-3.53-16-8.94-3.38-3.89-5.08-5.84-8.48-9.72-18.2,9.81-36.93,15.86-57.49,14.48-55.6-3.74-79.83-51.23-77.74-102.29,2.93-71.53,67-107.11,132.4-101.1,28,2.57,54.18,9.5,80.75,19.33C1760,448,1763.07,453.32,1762.51,458.76Zm-74.89,22.4c-37.22-1.69-68.31,9.72-71,50.92-1.58,24.4,6,44.78,32.09,46.23,11.28.62,22.45-3.37,31.47-10.42Z"/><path class="cls-2" d="M1932.13,605.32c6.39,1,10.51,5.14,11.48,10.33q2.39,15.21,4.69,30.44c-1,6.39-2.37,11.2-11.43,12.81-15.59,1.61-30.71,1.82-46.24-.38-27.7-3.94-57.58-13.77-72.57-39.28-13.89-23.62-12.74-54.08-9.47-80.3l5-42.48q-14.34-1.69-28.68-3.28c-7.77-.86-13.22-6.44-12.53-12.87q1.6-15.09,3.22-30.17c.69-6.43,7.28-10.73,15.15-9.86q14.55,1.61,29.07,3.32,9.54-33.94,19.24-67.84c2-6.27,7.55-10.62,15.57-9.62q17.29,2.17,34.56,4.44c8,1.07,13.51,6.84,12.64,13.25l-9.42,69q28.71,4,57.37,8.26c7.84,1.18,13.11,7,12.12,13.43q-2.31,15-4.64,30c-1,6.4-7.7,10.38-15.44,9.21q-28.29-4.23-56.61-8.14-3.53,25.88-7.06,51.75c-3.38,22,3.91,44.32,29.11,47.31C1915.22,605.58,1924,604.08,1932.13,605.32Z"/><path class="cls-2" d="M207.52,438.53c0-4-1.05-7.9-1.55-11.86a216.52,216.52,0,0,1-1.24-42.89,173,173,0,0,1,7.38-39.7,167,167,0,0,1,35.35-62.32,11.86,11.86,0,0,1,1-.9c.08,1.11-.6,1.55-1,2.09a221.85,221.85,0,0,0-23.51,37.54,151.11,151.11,0,0,0-12.84,41.34,185.64,185.64,0,0,0-2.45,35.38,215,215,0,0,0,3.9,35.49c1.16,6,2.46,12,4.12,17.85.24.87.59,1.7.9,2.55l.37,1.94a111.75,111.75,0,0,0,4.63,14.26c0-1,0-1.95,0-2.92,0-7.28,5.88-14.93,12.87-17,1.4-.41,1.85,0,2.15,1.35,1.71,7.51-3.35,17.36-10.8,20.87-3.22,1.52-3.27,1.54-2,4.9s2.55,6.57,4,9.82c.23-2.57,0-5.11.72-7.6a19.9,19.9,0,0,1,11.17-12.91c2.12-1,2.49-.76,3,1.62,1.79,8-2.6,17.8-9.84,21.92-3.3,1.87-3.32,2-1.7,5.42,1.46,3.12,2.87,6.27,4.53,9.39a20.65,20.65,0,0,1,2.54-13.33,20.93,20.93,0,0,1,8.9-8.43c1.54-.81,2.41-.66,2.91,1.24a21.45,21.45,0,0,1-3.56,18.68,20.57,20.57,0,0,1-6.73,6.29c-.68.37-1.53.78-1.14,1.68a94.74,94.74,0,0,0,6,11.26c.19-2.7.22-4.7.48-6.67,1-7,5.11-11.89,10.88-15.6,1.44-.92,2.21-.27,2.71,1.12,2.1,5.86,1.47,11.57-1,17.17a20.27,20.27,0,0,1-7.24,8.8c-1.83,1.25-2,2.61-.82,4.39a106.79,106.79,0,0,0,6,8.89,36.72,36.72,0,0,1-.27-4,22.71,22.71,0,0,1,10.22-18.72c1.59-1.11,2.51-.83,3.28.93,3.65,8.3,1.58,18.65-5.43,25.91-3.37,3.48-3.44,3.43-.53,7.39,9.54,13,20.11,25.05,32.67,35.24a114.44,114.44,0,0,0,21.76,14.19c3,1.48,3.05,1.62.29,3.75-1.37,1.06-2.8,2.06-4.12,3.18a3,3,0,0,1-3.9.36c-11.93-6.56-22.37-15-32-24.63-7.88-7.87-14.57-16.69-21.22-25.57-.9-1.2-1.69-2.5-2.48-3.78a2.08,2.08,0,0,0-3.07-.87c-10.55,5.44-23.32,1-29.68-8.49-1.3-1.93-1.19-2.4,1-3.33,7.93-3.39,15.48-2.2,22.78,1.94.79.44,1.56.91,2.35,1.36.06,0,.15,0,.55.12-2.14-3.65-4.17-7.1-6.18-10.56-.8-1.37-1.82-1.18-3.1-.71-8.54,3.08-16.16,1.34-22.93-4.54a26.18,26.18,0,0,1-4-4.88c-1.66-2.35-1.42-3.13,1.42-3.95a24.19,24.19,0,0,1,20.38,3.08c1.07.68,2.06,1.48,3.16,2.28.35-.75-.15-1.22-.38-1.71-1.31-2.8-2.66-5.58-4-8.36-.64-1.33-1.43-2.27-3.17-1.62-8.91,3.34-19.52-.38-25.19-9.58-.24-.39-.47-.78-.67-1.18-1-2.11-.83-2.64,1.4-3.19a22.36,22.36,0,0,1,17.83,2.75,41,41,0,0,1,5.83,4.43c-1.67-4-3.32-8-5-12-.53-1.24-1.49-.66-2.34-.43A20.35,20.35,0,0,1,198,483.56c-1.37-2.94-1.11-3.47,2.12-3.92a21.09,21.09,0,0,1,19.36,7c.36.38.72.77,1.1,1.13a5.68,5.68,0,0,0,1,.48c-1.42-4.12-2.69-7.93-4.05-11.72-.52-1.45-1.74-.85-2.72-.64a18.19,18.19,0,0,1-16.26-4.19,20.42,20.42,0,0,1-5.72-8c-1-2.47-.62-3.11,2.05-3.3a20.85,20.85,0,0,1,18.39,7.83c.58.69,1.1,1.43,1.79,2.32a2.36,2.36,0,0,0,0-2c-.87-3.13-1.83-6.23-2.63-9.37-.36-1.38-1-1.83-2.4-1.54-9.6,1.94-18.08-4.57-20.66-12.64-.79-2.48-.53-3,2.08-3.05,7.82-.13,13.8,3.18,17.92,9.82a10.53,10.53,0,0,0,1.8,2.43l-3.45-14.79C207.63,439.07,207.57,438.8,207.52,438.53Z"/><path class="cls-2" d="M217.94,455l-.37-1.94c0-4.84.62-9.48,4.07-13.25a20.41,20.41,0,0,1,8.52-5.76c2.05-.69,2.81-.09,2.94,2,.48,8-5.62,16.62-13.41,18.93A2.26,2.26,0,0,1,217.94,455Z"/><path class="cls-2" d="M207.52,438.53c0,.27.11.54.16.81-2.74,1.91-5.74,1.09-8.44.27-6.7-2-10.5-6.92-12.18-13.59-.41-1.66.57-2,1.86-2a18.05,18.05,0,0,1,12.5,4.89A23.71,23.71,0,0,1,207.52,438.53Z"/><path class="cls-2" d="M221.94,435.35a17,17,0,0,1-4.83,2.51c-2.53,1-3.21.49-3.23-2.3a16.17,16.17,0,0,1,10.26-15.34c1.54-.63,3.4-2,4.84-.85s.47,3.13.24,4.74C228.67,427.94,225.78,432.38,221.94,435.35Z"/><path class="cls-2" d="M201.15,414.44a16.23,16.23,0,0,1,3.37,7c.49,1.83-.26,2.3-1.91,2.27a17.35,17.35,0,0,1-16.25-14.41c-.29-1.87.48-2.36,2.07-2.18A16.85,16.85,0,0,1,201.15,414.44Z"/><path class="cls-2" d="M220.23,419a15.82,15.82,0,0,1-6.65,3.21c-1.44.35-2.11-.08-2.14-1.64-.16-8.79,7-14.69,14-15.46,1.37-.15,1.64.48,1.63,1.72C227,411.28,224.72,415.54,220.23,419Z"/><path class="cls-2" d="M199.7,397.73a17.05,17.05,0,0,1,3.43,8.26c.21,1.27-.24,1.85-1.57,1.76-8.3-.59-14.05-6.79-14.59-15.11-.09-1.46.88-1.54,2-1.38A16.45,16.45,0,0,1,199.7,397.73Z"/><path class="cls-2" d="M216.44,394.42a15.65,15.65,0,0,1,7.28-2.64c1.42-.12,2.1.43,2,1.93-.27,6.11-8,13.42-14.2,13.43-1.54,0-1.45-1-1.43-2C210.19,401.51,212.47,397.43,216.44,394.42Z"/><path class="cls-2" d="M191.26,386.77a15.67,15.67,0,0,1-2.59-8.22c-.09-1.58.56-2.3,2.16-1.91A15.89,15.89,0,0,1,203,391.69c.05,1.24-.79,1.22-1.69,1.16C198,392.65,193.89,390.29,191.26,386.77Z"/><path class="cls-2" d="M219.79,389.64a15,15,0,0,1-6.95,3.13c-2.55.59-3.2-.1-2.73-2.63a13.57,13.57,0,0,1,13.8-10.63c1.36.09,1.71.7,1.38,1.91A14.29,14.29,0,0,1,219.79,389.64Z"/><path class="cls-2" d="M200.36,368.07a15.6,15.6,0,0,1,3.32,8.26c.27,2.38-.31,2.85-2.62,2.36-5.91-1.26-10.68-8.29-9.84-14.39.21-1.48,1-1.4,2.08-1.19C195.48,363.53,198.5,365.64,200.36,368.07Z"/><path class="cls-2" d="M215.37,370.64a11.86,11.86,0,0,1,8.69-2.58c1.39.07,1.79.67,1.42,2.06-1.45,5.38-7.86,10-13.35,9.61-1.4-.1-1.64-.81-1.39-1.94A11.24,11.24,0,0,1,215.37,370.64Z"/><path class="cls-2" d="M196.74,361.31a12.49,12.49,0,0,1-2.2-8.82c.14-1.63.94-1.94,2.28-1.39,5.83,2.43,8.56,7.66,8.47,13.71,0,1.27-.83,1.48-1.88,1.22A11.68,11.68,0,0,1,196.74,361.31Z"/><path class="cls-2" d="M222.26,364.9a13.91,13.91,0,0,1-8.41,2.75c-1.36,0-1.89-.34-1.61-1.83,1-5.3,8-9.72,13.19-8.31,1.33.35,1.46,1.06,1,2.17A12.59,12.59,0,0,1,222.26,364.9Z"/><path class="cls-2" d="M200.54,350.62a12,12,0,0,1-2.19-9.27c.22-1.4.69-1.79,2.09-1.22,4.52,1.88,8,8.19,7.12,13-.25,1.39-.94,1.55-2.07,1.16A11,11,0,0,1,200.54,350.62Z"/><path class="cls-2" d="M224.68,353.88a12.72,12.72,0,0,1-8.81,2.75c-1.51-.05-2-.63-1.4-2.16,1.87-4.79,7.6-7.86,12.49-6.66,1.12.28,1.32.84.93,1.79A9.25,9.25,0,0,1,224.68,353.88Z"/><path class="cls-2" d="M204.1,340.4a10.8,10.8,0,0,1-1.74-8.48c.29-1.55,1-2,2.52-1.15a11.93,11.93,0,0,1,5.4,11.82c-.28,1.37-.92,1.57-2.07,1.12A10.69,10.69,0,0,1,204.1,340.4Z"/><path class="cls-2" d="M226.84,344.28a11.36,11.36,0,0,1-8.46,2.4c-1.55-.12-1.9-.83-1.26-2.26a10.26,10.26,0,0,1,11.15-5.33c1.59.43,2,1.25,1,2.61A9.34,9.34,0,0,1,226.84,344.28Z"/><path class="cls-2" d="M208.6,332.15a9.65,9.65,0,0,1-2-8.36c.37-1.79,1.08-2.07,2.68-1.07,3.18,2,5.12,7.11,4.1,10.7-.35,1.25-1,1.62-2.12,1A8.61,8.61,0,0,1,208.6,332.15Z"/><path class="cls-2" d="M228.94,336.26a10.55,10.55,0,0,1-8,1.46c-1.44-.31-1.37-1.16-.89-2.18,1.58-3.34,7.51-5.48,10.8-4,.92.43,1,1,.55,1.78A10.06,10.06,0,0,1,228.94,336.26Z"/><path class="cls-2" d="M228.25,293.7c-3.16,6.05-6.66,11.92-9.6,18.1-1.54,3.26-2.91,6.6-4.34,9.92-.4.93-.92,1.61-2.05,1.11-1-.43-.71-1.18-.37-1.9A151.76,151.76,0,0,1,228.25,293.7Z"/><path class="cls-2" d="M242.43,302.75c-1.8,3.19-3.67,6.36-5.4,9.59a122,122,0,0,0-6.78,14.29c-.21.57-.48,1.11-.74,1.65-.41.85-.87,1.74-2,1.1s-.55-1.43-.2-2.17A140.07,140.07,0,0,1,236,311.38c1.92-3,4-5.93,6-8.89Z"/><path class="cls-2" d="M728.58,581.51c-1.15,4.41-1.19,9-1.82,13.45a246.24,246.24,0,0,1-11.35,47.36,195.91,195.91,0,0,1-19.85,41.31,189.61,189.61,0,0,1-57.19,57.8c-.34.22-.72.37-1.36.69.25-1.24,1.12-1.53,1.73-2A252.32,252.32,0,0,0,675.61,706a171.16,171.16,0,0,0,26.32-41.49,211.28,211.28,0,0,0,13.17-38,242.73,242.73,0,0,0,6.23-40c.51-6.92.85-13.84.78-20.78,0-1-.15-2-.22-3l.17-2.24c.27-5.65-.37-11.27-.86-17l-.87,3.2c-2.19,8-10.87,14.61-19.13,14.78-1.66,0-2-.59-2-2.13.35-8.73,8.82-18,18-19.66,4-.71,4-.72,3.68-4.77s-.84-7.95-1.48-11.93c-1,2.74-1.5,5.6-3,8.11a22.59,22.59,0,0,1-16.06,10.83c-2.62.47-3,.1-2.83-2.67.41-9.32,8.11-18.73,17.26-21.1,4.17-1.08,4.22-1.18,3.48-5.43-.68-3.86-1.3-7.73-2.19-11.63a23.39,23.39,0,0,1-6.72,13.84,23.76,23.76,0,0,1-12.25,6.61c-1.94.43-2.84,0-2.83-2.22,0-8,3.4-14.4,9.44-19.41a23.18,23.18,0,0,1,9.24-4.9c.84-.21,1.91-.4,1.74-1.51a107.12,107.12,0,0,0-3.19-14.1c-1,2.91-1.64,5.09-2.51,7.17-3.12,7.44-9.12,11.51-16.54,13.86-1.85.59-2.5-.35-2.63-2-.57-7,1.81-13.11,6.13-18.53a22.94,22.94,0,0,1,10.54-7.49c2.38-.83,2.94-2.28,2.21-4.57-1.21-3.82-2.32-7.67-4-11.52a40,40,0,0,1-.9,4.51,25.75,25.75,0,0,1-16.74,17.48c-2.08.75-3,.18-3.32-2-1.54-10.16,3.79-20.9,13.62-26.77,4.73-2.82,4.79-2.74,2.78-7.93-6.61-17.07-14.61-33.41-25.36-48.3a129,129,0,0,0-19.63-22c-2.89-2.53-2.85-2.69.79-4.2,1.82-.76,3.68-1.43,5.46-2.26a3.45,3.45,0,0,1,4.38.76c11.13,10.72,20,23.09,27.73,36.45,6.31,11,11,22.61,15.68,34.3.63,1.59,1.11,3.24,1.6,4.88a2.35,2.35,0,0,0,3.1,1.86c13.17-2.83,25.83,5.87,30,18.1.85,2.49.6,3-2.08,3.35-9.69,1.37-17.61-2.18-24.37-8.87-.73-.72-1.45-1.46-2.17-2.19a5.21,5.21,0,0,0-.57-.29c1.26,4.63,2.46,9,3.64,13.4.47,1.73,1.65,1.82,3.18,1.7,10.27-.86,18.11,3.31,23.78,11.76a29.89,29.89,0,0,1,3,6.54c1.13,3.06.62,3.85-2.73,3.91-8.56.14-15.65-3.17-21.41-9.42-1-1.06-1.82-2.23-2.79-3.43-.61.72-.19,1.38-.09,2,.61,3.45,1.27,6.9,1.92,10.35.31,1.65.89,2.91,3,2.71,10.75-1,21.27,6.2,24.76,18,.14.5.28,1,.38,1.5.5,2.61.13,3.14-2.48,3.07a25.41,25.41,0,0,1-18.71-8.29,47.11,47.11,0,0,1-5.08-6.58c.64,4.86,1.27,9.73,1.95,14.59.21,1.5,1.43,1.16,2.43,1.16a23.07,23.07,0,0,1,22.89,19c.64,3.62.2,4.13-3.47,3.67-8.72-1.1-15.07-5.62-19.15-13.36-.28-.53-.56-1.06-.88-1.57a6.58,6.58,0,0,0-.92-.82c.33,4.93.59,9.49,1,14,.14,1.74,1.65,1.45,2.79,1.51a20.66,20.66,0,0,1,16.57,9.4,23.32,23.32,0,0,1,3.88,10.51c.34,3-.24,3.59-3.22,3a23.61,23.61,0,0,1-17.82-14c-.43-.93-.79-1.89-1.28-3.07a2.68,2.68,0,0,0-.57,2.18c0,3.68.16,7.37.11,11,0,1.62.51,2.28,2.17,2.39,11.09.73,18.46,10.37,18.89,20,.13,3-.31,3.45-3.19,2.73-8.6-2.18-14.17-7.57-16.72-16.07a11.53,11.53,0,0,0-1.25-3.19q-.3,8.61-.61,17.22C728.62,580.89,728.6,581.2,728.58,581.51Z"/><path class="cls-2" d="M722.06,560.34l-.17,2.24c-1.43,5.3-3.5,10.2-8.4,13.31a23.16,23.16,0,0,1-11,3.78c-2.45.16-3.11-.74-2.62-3.08,1.84-8.93,11.07-16.55,20.3-16.77A2.64,2.64,0,0,1,722.06,560.34Z"/><path class="cls-2" d="M728.58,581.51c0-.31,0-.62,0-.93,3.58-1.28,6.62.51,9.34,2.2,6.74,4.2,9.45,10.69,9.31,18.5,0,1.94-1.2,2-2.62,1.62a20.49,20.49,0,0,1-12.24-9.06C730,590.08,729,585.88,728.58,581.51Z"/><path class="cls-2" d="M711.84,580.73a19.17,19.17,0,0,1,6-1.32c3.06-.36,3.65.41,2.84,3.48A18.31,18.31,0,0,1,705,596.65c-1.88.24-4.33,1.21-5.56-.51-1.1-1.54.41-3.56,1.14-5.26C702.27,586.85,706.75,582.84,711.84,580.73Z"/><path class="cls-2" d="M728.41,609.79c-1.35-2.51-1.6-5.54-1.61-8.66,0-2.15,1-2.44,2.77-1.92,8.58,2.52,14.5,11.59,13.52,20.6-.23,2.13-1.22,2.43-2.9,1.77C734.68,619.41,730.56,615.81,728.41,609.79Z"/><path class="cls-2" d="M708.86,599.15a18.06,18.06,0,0,1,8.24-1.54c1.68,0,2.29.72,1.86,2.43-2.43,9.67-12.07,14-19.92,12.79-1.54-.24-1.65-1-1.27-2.36C699.13,605.59,702.92,601.6,708.86,599.15Z"/><path class="cls-2" d="M725.05,628.53a19.45,19.45,0,0,1-1.31-10.06c.15-1.46.82-2,2.24-1.47,8.92,3.11,13.39,11.6,11.51,20.88-.33,1.62-1.41,1.42-2.57.92A18.71,18.71,0,0,1,725.05,628.53Z"/><path class="cls-2" d="M705.74,627.2a17.8,17.8,0,0,1-8.77.73c-1.58-.29-2.16-1.09-1.65-2.71,2.11-6.62,12.75-12.33,19.54-10.51,1.69.45,1.3,1.5,1,2.58C714.69,621.28,711,625.08,705.74,627.2Z"/><path class="cls-2" d="M731.05,643a17.7,17.7,0,0,1,.4,9.78c-.37,1.75-1.29,2.35-2.93,1.45a18.05,18.05,0,0,1-8.82-20.08c.32-1.37,1.23-1.1,2.2-.77C725.45,634.61,729.22,638.41,731.05,643Z"/><path class="cls-2" d="M700.65,631.44c2.56-1.33,5.55-1.48,8.54-1.37s3.48,1.06,2.21,3.69c-3.11,6.49-11.46,9.91-18.27,7.56-1.45-.51-1.67-1.28-.94-2.5A16.19,16.19,0,0,1,700.65,631.44Z"/><path class="cls-2" d="M715.55,660.83a17.72,17.72,0,0,1-1.2-10c.42-2.7,1.18-3,3.57-1.82,6.11,3.13,9.25,12.25,6.52,18.68-.66,1.56-1.54,1.23-2.64.7C719.55,667.25,716.86,664,715.55,660.83Z"/><path class="cls-2" d="M699.87,653.56a13.45,13.45,0,0,1-10.29.26c-1.5-.49-1.77-1.27-1-2.69,3.18-5.46,11.58-8.61,17.47-6.56,1.51.52,1.56,1.37.95,2.54A12.8,12.8,0,0,1,699.87,653.56Z"/><path class="cls-2" d="M717.51,669.31a14.16,14.16,0,0,1-.21,10.31c-.64,1.74-1.6,1.85-2.9.84-5.67-4.39-7.11-10.92-5.22-17.53.4-1.37,1.35-1.37,2.42-.77A13.25,13.25,0,0,1,717.51,669.31Z"/><path class="cls-2" d="M690.62,657.81a15.64,15.64,0,0,1,10-.51c1.5.36,2,.92,1.22,2.48-2.67,5.51-11.62,8.27-16.91,5.19-1.35-.78-1.28-1.6-.42-2.66A14.31,14.31,0,0,1,690.62,657.81Z"/><path class="cls-2" d="M710.18,679.89a13.6,13.6,0,0,1-.35,10.8c-.65,1.47-1.29,1.76-2.65.72-4.4-3.39-6.32-11.34-3.95-16.36.69-1.45,1.49-1.43,2.61-.66A12.4,12.4,0,0,1,710.18,679.89Z"/><path class="cls-2" d="M684.7,669.16a14.48,14.48,0,0,1,10.47-.4c1.63.51,2,1.29.89,2.78-3.47,4.7-10.65,6.36-15.66,3.6-1.15-.64-1.2-1.31-.49-2.24A10.56,10.56,0,0,1,684.7,669.16Z"/><path class="cls-2" d="M703.24,690a12.2,12.2,0,0,1-.6,9.81c-.78,1.61-1.69,1.92-3.1.5a13.51,13.51,0,0,1-2.41-14.54c.71-1.42,1.47-1.45,2.59-.61A11.87,11.87,0,0,1,703.24,690Z"/><path class="cls-2" d="M679.49,679a12.88,12.88,0,0,1,10-.12c1.67.59,1.85,1.47.72,2.85-3.07,3.74-9.62,5-13.8,2.53-1.62-.94-1.77-1.95-.34-3.15A10.68,10.68,0,0,1,679.49,679Z"/><path class="cls-2" d="M695.87,697.74a10.94,10.94,0,0,1-.24,9.76c-.93,1.86-1.79,1.94-3.25.38-2.89-3.11-3.5-9.3-1.32-12.94.75-1.26,1.52-1.49,2.6-.43A9.47,9.47,0,0,1,695.87,697.74Z"/><path class="cls-2" d="M674.81,687.21A12,12,0,0,1,684,688c1.48.76,1.16,1.68.33,2.66-2.72,3.19-9.86,3.78-13,1.12-.88-.74-.83-1.39-.06-2.11A11.08,11.08,0,0,1,674.81,687.21Z"/><path class="cls-2" d="M663,734c5.24-5.69,10.83-11.09,15.87-17,2.66-3.12,5.15-6.38,7.7-9.59.72-.9,1.49-1.49,2.57-.61s.43,1.51-.15,2.2A174,174,0,0,1,663,734Z"/><path class="cls-2" d="M650.1,719.92C653,717,656,714,658.86,711a137.9,137.9,0,0,0,11.66-13.65c.4-.55.86-1.06,1.3-1.58.7-.81,1.47-1.65,2.55-.61s.16,1.73-.43,2.44a157.73,157.73,0,0,1-14.27,14.75c-3,2.73-6.14,5.31-9.21,8Z"/><path class="cls-2" d="M66.29,690.09q10.13-3.14,20.06-6.87A334.5,334.5,0,0,0,205.08,607c1.62-1.62,3.31-3.32,5.49-4s5-.14,6,1.92a6.82,6.82,0,0,1,.45,3.42c-.35,6.25-2.62,12-3.35,18.15q-1.55,12.91-2.12,25.92c-.5,11.11-.47,22.25.09,33.36.26,5.15-1.27,23.75,4.86,25.9,3,1.05,10.08-1.11,13.31-1.46a193.4,193.4,0,0,0,23.95-3.66c13.28-3.12,26.46-8.72,39-14,30.2-12.73,59.5-30.15,84.22-51.77,12.76-11.16,13.83-17.09-1.29-27.92-7.83-5.62-24.09-12.37-33.79-7.67,25.18-12.21,52.82-19,77.43-32.29,33.06-17.89,45.86-46.79,59.53-79.73,11.7-28.19,21.12-61,51.93-73.92C555.07,409,584,412,606,426.29a74.3,74.3,0,0,1,32.58,48.48,334.45,334.45,0,0,1,.18,121.92c-7.49,40.72-7.51,76.15,2.89,117-11.62-5.54-25.44-1.28-37.06,4.27-31.57,15.08-42.22,39.09-66.65,61.84a341,341,0,0,1-214.41,91.07,313.16,313.16,0,0,1-93.09-9.08c-6.53-1.66-16.1-4.4-22.7-1.29-15.2,7.18-13.95,27.3-13.32,41.3.71,15.92-9.46,14.23-19.11,4.19-50-52-99-105-145.27-160.31C19.17,732.57,5.15,718.9,0,702.24c14.55,2.89,25.82-2,39.94-5.16Q53.25,694.11,66.29,690.09Z"/><path class="cls-2" d="M824.91,196.89q-9.37,5-18.42,10.5a334.59,334.59,0,0,0-102.35,97.09c-1.29,1.9-2.63,3.89-4.63,5s-4.87,1.08-6.27-.75a6.8,6.8,0,0,1-1.08-3.28c-.84-6.2.32-12.28-.12-18.45q-.9-13-2.77-25.86-2.38-16.51-6.34-32.76c-1.22-5-3.21-23.56-9.63-24.52-3.13-.48-9.69,3-12.81,3.92a196.63,196.63,0,0,0-22.84,8.09c-12.46,5.56-24.35,13.52-35.68,21.06-30.76,20.49-80.54,54-73.16,97.16,4,23.39,20.24,45.33,43,52.2l-44.73,19c-29.88,12.67-65.07,27.83-70.84,62.14-5,29.92-9.25,64.34-36.79,82.62-21.93,14.55-50.92,17.12-75.23,7.16a74.26,74.26,0,0,1-41.08-41.51c-12-30.49-20.76-64.11-28.59-95.76q-8.47-34.28-17-68.54c-2.79-11.3-5.59-22.63-6.93-34.19.78,6.74,25.53,2.86,29,1.52,11.61-4.44,11.7-8.67,14.94-18.64,7.35-22.68,14.67-44.23,26.3-65.41A341.16,341.16,0,0,1,538.3,67.52,313.63,313.63,0,0,1,631.44,59c6.73.41,16.64,1.31,22.53-3,13.6-9.9,8.6-29.44,5.36-43.07-3.69-15.5,6.62-15.75,18-7.7,58.82,41.7,116.92,84.61,172.75,130.25,13.18,10.84,29.51,21.64,37.69,37-14.83-.11-25,6.8-38.26,12.55Q837,190.5,824.91,196.89Z"/></g></g></svg>