<svg xmlns="http://www.w3.org/2000/svg" viewBox="0 0 1029.72 583.95"><defs><style>.cls-1{fill:#fff;}.cls-2{fill:#0070fc;}.cls-3{fill:#ff402c;}.cls-4{fill:#c2daf4;}.cls-5{fill:#ffaa01;}.cls-6{fill:#00a7ff;}.cls-7{fill:#0043c1;}.cls-8{fill:#1f1118;}.cls-9{fill:#2196f3;}.cls-10{opacity:0.3;}.cls-11{fill:#002029;}.cls-12{fill:#ff9c00;}.cls-13{fill:#ff8c62;}.cls-14{fill:#ff6a4c;}.cls-15{fill:#701118;}.cls-16{fill:#9c3d48;}.cls-17{fill:#594b54;}.cls-18{fill:#d61326;}.cls-19{fill:#ff6a44;}.cls-20{fill:#d4e5f9;}.cls-21{fill:#bc4a49;}.cls-22{fill:#a82739;}.cls-23{fill:#181818;}.cls-24{opacity:0.8;}</style></defs><g id="Layer_2" data-name="Layer 2"><g id="Layer_1-2" data-name="Layer 1"><path class="cls-1" d="M498.52,38.27V140.79a4.87,4.87,0,0,1-4.87,4.88H320.11a4.87,4.87,0,0,1-4.87-4.88V38.27a4.88,4.88,0,0,1,4.87-4.88H493.65A4.88,4.88,0,0,1,498.52,38.27Z"/><path class="cls-2" d="M453.89,96.35A32.3,32.3,0,1,1,391.8,83.87l29.8,12.48L420.07,64.1c.5,0,1,0,1.53,0A32.29,32.29,0,0,1,453.89,96.35Z"/><path class="cls-3" d="M417.15,59a32.34,32.34,0,0,0-28.27,19.78l29.8,12.48Z"/><rect class="cls-2" x="465.12" y="74.11" width="4.43" height="4.44"/><rect class="cls-4" x="472.5" y="75.77" width="15.99" height="1.11" rx="0.06"/><rect class="cls-3" x="465.12" y="82.01" width="4.43" height="4.44"/><rect class="cls-4" x="472.5" y="83.67" width="15.99" height="1.11" rx="0.06"/><path class="cls-4" d="M487.93,100.35H465.68a.56.56,0,0,1-.56-.56h0a.55.55,0,0,1,.56-.55h22.25a.55.55,0,0,1,.56.55h0A.56.56,0,0,1,487.93,100.35Z"/><path class="cls-4" d="M487.93,104.91H465.68a.56.56,0,0,1-.56-.56h0a.56.56,0,0,1,.56-.55h22.25a.56.56,0,0,1,.56.55h0A.56.56,0,0,1,487.93,104.91Z"/><path class="cls-4" d="M487.93,109.47H465.68a.56.56,0,0,1-.56-.56h0a.55.55,0,0,1,.56-.55h22.25a.55.55,0,0,1,.56.55h0A.56.56,0,0,1,487.93,109.47Z"/><path class="cls-4" d="M487.93,114H465.68a.56.56,0,0,1-.56-.56h0a.56.56,0,0,1,.56-.55h22.25a.56.56,0,0,1,.56.55h0A.56.56,0,0,1,487.93,114Z"/><path class="cls-4" d="M487.93,118.59H465.68a.56.56,0,0,1-.56-.56h0a.56.56,0,0,1,.56-.55h22.25a.56.56,0,0,1,.56.55h0A.56.56,0,0,1,487.93,118.59Z"/><path class="cls-4" d="M487.93,123.15H465.68a.56.56,0,0,1-.56-.56h0a.56.56,0,0,1,.56-.55h22.25a.56.56,0,0,1,.56.55h0A.56.56,0,0,1,487.93,123.15Z"/><path class="cls-4" d="M487.93,127.71H465.68a.56.56,0,0,1-.56-.56h0a.56.56,0,0,1,.56-.55h22.25a.56.56,0,0,1,.56.55h0A.56.56,0,0,1,487.93,127.71Z"/><rect class="cls-2" x="328.44" y="108.83" width="8.4" height="20.3"/><rect class="cls-3" x="340.83" y="94.42" width="8.4" height="34.72"/><rect class="cls-2" x="354.55" y="83.78" width="8.4" height="45.35"/><rect class="cls-3" x="367.99" y="71.3" width="8.4" height="57.84"/><polygon class="cls-5" points="360.9 62.4 366.73 64.54 366.06 57.72 360.9 62.4"/><path class="cls-5" d="M326.13,99a.63.63,0,0,1-.59-.41.62.62,0,0,1,.37-.81c.25-.1,25.53-9.78,37.86-35.82a.63.63,0,0,1,1.14.54C352.35,89,326.6,98.84,326.35,98.94A.6.6,0,0,1,326.13,99Z"/><path class="cls-6" d="M498.52,38.27v8.55H315.24V38.27a4.88,4.88,0,0,1,4.87-4.88H493.65A4.88,4.88,0,0,1,498.52,38.27Z"/><path class="cls-7" d="M479.21,40.11A2.26,2.26,0,1,1,477,37.85,2.26,2.26,0,0,1,479.21,40.11Z"/><path class="cls-3" d="M486.53,40.11a2.26,2.26,0,1,1-2.26-2.26A2.26,2.26,0,0,1,486.53,40.11Z"/><path class="cls-8" d="M493.54,40.11a2.26,2.26,0,1,1-2.26-2.26A2.26,2.26,0,0,1,493.54,40.11Z"/><path class="cls-9" d="M479.15,296.15C465.9,298,459,286,453.53,276.25c-2.09-3.24-3.14-4.85-5.24-8.08Q424,270.71,399.78,274c-2.53,10.07-3.78,15.1-6.21,25.18-.63,3.36-2.72,6-6.19,6.49-8.45,1.2-12.67,1.83-21.11,3.14-3.47.53-6.51-1.33-7-4.31q14.73-63.87,32.34-127a8.58,8.58,0,0,1,7.36-6.32c10.36-1.31,15.55-1.93,25.92-3.09a8.58,8.58,0,0,1,8.64,4.41q26.32,46.36,50.89,93.65c2,4.25,4.48,7.37,6.73,8.29a5.67,5.67,0,0,1,3.65,4.59c.25,3.23.38,4.85.64,8.09C495.92,292.87,485.78,295.25,479.15,296.15Zm-72.73-48.33q14.76-1.89,29.56-3.52-9.57-18.11-19.42-36.05Q411.34,228,406.42,247.82Z"/><path class="cls-9" d="M547.35,158.32c29.4-2,59.22,9,59.74,42.43.51,32.44-26.75,44.81-55.59,45.61-8.72.41-13.08.64-21.79,1.15q1.13,19.11,2.26,38.2c.18,3-2.38,5.49-5.87,5.71-8,.5-12,.77-19.9,1.36-3.5.26-6.37-1.85-6.6-4.85l-9.36-120.71c-.23-3,2.48-5.54,6.23-5.82C513.42,160.16,530.38,159.1,547.35,158.32Zm23.84,43.35c-.46-12-11.14-19.45-22.67-18.56-9,.42-13.53.66-22.55,1.2l2.28,38.43c8.83-.52,13.24-.76,22.08-1.17C561.69,221.47,571.65,213.57,571.19,201.67Z"/><path class="cls-9" d="M671.24,156.54c29.46-.07,58.51,12.82,56.85,46.23-1.62,32.41-29.63,43-58.46,41.88-8.72-.15-13.08-.21-21.81-.26q-.12,19.13-.23,38.27c0,3-2.73,5.31-6.23,5.3-8,0-12,0-19.94.06-3.5,0-6.22-2.25-6.26-5.27l-1.47-121.06c0-3,2.83-5.37,6.6-5.4C637.27,156.16,654.26,156.21,671.24,156.54Zm21,44.81c.32-12-9.86-20.14-21.42-20-9-.17-13.54-.22-22.57-.28q-.11,19.26-.23,38.5c8.84.06,13.26.11,22.1.27C681.43,220.48,691.88,213.25,692.2,201.35Z"/><path class="cls-9" d="M827.88,213.9q-4.07,39.1-8.12,78.2c-.31,3-3.24,5-6.73,4.68-5.58-.56-8.37-.83-14-1.34-3.49-.33-5.26-1.65-7.48-4.17-1.58-1.82-2.37-2.72-4-4.53a45.63,45.63,0,0,1-26.8,6.75c-25.82-1.76-37.16-24.19-36.25-47.7,1.27-32.82,31.49-49.65,61.73-47.13a132.39,132.39,0,0,1,37.65,9A6.17,6.17,0,0,1,827.88,213.9ZM793,224.34c-17.45.09-31.64,4.32-33.09,23.75-.77,10.43,3.26,21.09,15,21.55,8.15.32,14.68-4.86,14.68-4.86Z"/><path class="cls-9" d="M907,282.23a6.06,6.06,0,0,1,5.36,4.82c.89,5.68,1.32,8.52,2.18,14.19-.47,3-1.1,5.22-5.32,6-7.58,1.17-15.52.57-21.56-.17-31.33-3.88-41.66-26.76-38.25-55.76.93-7.92,1.4-11.88,2.33-19.81-5.34-.63-8-.93-13.37-1.52-3.62-.4-6.16-3-5.84-6l1.5-14.07c.32-3,3.39-5,7.06-4.6,5.43.6,8.14.91,13.56,1.55q4.46-15.83,9-31.63a6.38,6.38,0,0,1,7.26-4.49c6.45.8,9.67,1.22,16.11,2.08,3.74.49,6.3,3.18,5.89,6.17q-2.19,16.1-4.39,32.17c10.71,1.47,16.06,2.24,26.75,3.85,3.66.56,6.12,3.29,5.65,6.27-.86,5.59-1.3,8.38-2.16,14-.46,3-3.59,4.84-7.2,4.29-10.55-1.6-15.83-2.36-26.4-3.8-1.31,9.65-2,14.48-3.29,24.13-2.11,10.39,2.13,20.53,13.57,22.06C899.13,282.41,903.17,281.66,907,282.23Z"/><path class="cls-9" d="M102.86,204.47a48.91,48.91,0,0,0-.72-5.53,100.54,100.54,0,0,1-.58-20A80.09,80.09,0,0,1,105,160.43a77.91,77.91,0,0,1,16.48-29.06c.11-.12.25-.22.47-.42a1.26,1.26,0,0,1-.47,1,103.17,103.17,0,0,0-11,17.51,70.12,70.12,0,0,0-6,19.28,85.93,85.93,0,0,0-1.14,16.49,99.08,99.08,0,0,0,1.82,16.55c.54,2.8,1.14,5.58,1.92,8.32.11.41.27.79.41,1.19l.18.9a51,51,0,0,0,2.16,6.65v-1.36a8.85,8.85,0,0,1,6-7.91c.66-.19.86,0,1,.63.79,3.5-1.57,8.09-5,9.73-1.5.71-1.53.72-.95,2.29s1.19,3.06,1.87,4.57a18.15,18.15,0,0,1,.33-3.54,9.27,9.27,0,0,1,5.21-6c1-.47,1.16-.36,1.41.76a10,10,0,0,1-4.58,10.21c-1.54.88-1.55.93-.8,2.53s1.34,2.93,2.12,4.38a9.62,9.62,0,0,1,1.18-6.21,9.74,9.74,0,0,1,4.15-3.94c.72-.37,1.12-.3,1.36.58a10,10,0,0,1-1.67,8.71,9.58,9.58,0,0,1-3.13,2.94c-.32.17-.72.36-.53.78a45.64,45.64,0,0,0,2.77,5.25c.09-1.26.11-2.19.23-3.11.44-3.29,2.38-5.55,5.07-7.27.67-.44,1-.13,1.27.52a10.55,10.55,0,0,1-.45,8,9.38,9.38,0,0,1-3.38,4.09,1.29,1.29,0,0,0-.38,2c.89,1.39,1.74,2.8,2.8,4.15,0-.63-.15-1.26-.13-1.89a10.62,10.62,0,0,1,4.77-8.73c.74-.51,1.17-.39,1.53.44a11.14,11.14,0,0,1-2.53,12.07c-1.57,1.63-1.6,1.6-.25,3.45a87.34,87.34,0,0,0,15.24,16.43A53.1,53.1,0,0,0,154.52,280c1.42.69,1.42.76.14,1.75-.65.49-1.31,1-1.93,1.48a1.41,1.41,0,0,1-1.81.17A66.31,66.31,0,0,1,136,271.93a107.35,107.35,0,0,1-9.9-11.92c-.42-.56-.79-1.16-1.16-1.76a1,1,0,0,0-1.43-.4c-4.91,2.53-10.87.44-13.84-4-.6-.89-.55-1.11.47-1.55,3.7-1.58,7.22-1,10.62.9l1.09.64a.92.92,0,0,0,.26,0c-1-1.7-1.94-3.3-2.88-4.92-.37-.63-.85-.55-1.45-.33a10.09,10.09,0,0,1-10.69-2.11,12.41,12.41,0,0,1-1.87-2.28c-.78-1.1-.66-1.46.66-1.84a11.22,11.22,0,0,1,9.5,1.44c.5.31,1,.68,1.48,1.06.16-.35-.08-.57-.18-.8-.61-1.3-1.24-2.6-1.87-3.9-.3-.62-.67-1.06-1.48-.75A9.88,9.88,0,0,1,101.6,235a6.05,6.05,0,0,1-.32-.55c-.48-1-.39-1.23.66-1.49a10.44,10.44,0,0,1,8.31,1.28,19.54,19.54,0,0,1,2.72,2.07c-.78-1.86-1.55-3.72-2.34-5.58-.24-.57-.69-.31-1.09-.2a9.48,9.48,0,0,1-11.12-5.09c-.64-1.37-.52-1.62,1-1.83a9.82,9.82,0,0,1,9,3.25c.17.18.34.36.52.52a2.06,2.06,0,0,0,.45.23c-.66-1.92-1.25-3.7-1.88-5.46-.25-.68-.81-.4-1.27-.3a8.47,8.47,0,0,1-7.58-2A9.49,9.49,0,0,1,96,216.16c-.46-1.15-.29-1.45,1-1.53a9.69,9.69,0,0,1,8.57,3.65c.27.32.51.66.83,1.08a1.11,1.11,0,0,0,0-.93c-.41-1.46-.86-2.9-1.23-4.37-.17-.64-.45-.85-1.12-.71a8.54,8.54,0,0,1-9.63-5.9c-.37-1.16-.25-1.4,1-1.42a9.1,9.1,0,0,1,8.36,4.58,4.75,4.75,0,0,0,.83,1.13c-.53-2.3-1.07-4.6-1.6-6.9Z"/><path class="cls-9" d="M107.72,212.16l-.18-.9c0-2.26.3-4.42,1.9-6.18a9.56,9.56,0,0,1,4-2.68c1-.33,1.31,0,1.36.94a9.19,9.19,0,0,1-6.25,8.83A1,1,0,0,1,107.72,212.16Z"/><path class="cls-9" d="M102.86,204.47l.08.37c-1.29.9-2.68.51-3.94.13-3.13-.94-4.9-3.22-5.68-6.34-.19-.77.26-.92.87-.92A8.42,8.42,0,0,1,100,200,11,11,0,0,1,102.86,204.47Z"/><path class="cls-9" d="M109.58,203a7.51,7.51,0,0,1-2.25,1.17c-1.18.47-1.5.23-1.5-1.07a7.51,7.51,0,0,1,4.78-7.15c.72-.3,1.59-.94,2.25-.4s.22,1.46.12,2.21A8.89,8.89,0,0,1,109.58,203Z"/><path class="cls-9" d="M99.89,193.24a7.58,7.58,0,0,1,1.57,3.26c.23.85-.12,1.07-.89,1.05A8.08,8.08,0,0,1,93,190.84c-.13-.87.23-1.1,1-1A7.86,7.86,0,0,1,99.89,193.24Z"/><path class="cls-9" d="M108.79,195.36a7.41,7.41,0,0,1-3.1,1.49c-.68.16-1,0-1-.76a7.26,7.26,0,0,1,6.52-7.21c.64-.07.77.22.76.8A7.26,7.26,0,0,1,108.79,195.36Z"/><path class="cls-9" d="M99.21,185.44a7.92,7.92,0,0,1,1.6,3.85c.1.6-.11.87-.73.82a7.21,7.21,0,0,1-6.8-7c0-.68.41-.72.92-.64A7.67,7.67,0,0,1,99.21,185.44Z"/><path class="cls-9" d="M107,183.9a7.26,7.26,0,0,1,3.39-1.23c.66-.06,1,.2,1,.9-.12,2.85-3.73,6.25-6.62,6.26-.72,0-.68-.46-.67-.92A6.83,6.83,0,0,1,107,183.9Z"/><path class="cls-9" d="M95.28,180.33a7.28,7.28,0,0,1-1.21-3.83c0-.74.26-1.07,1-.89a7.42,7.42,0,0,1,5.65,7c0,.57-.37.57-.79.54A6.91,6.91,0,0,1,95.28,180.33Z"/><path class="cls-9" d="M108.58,181.67a7,7,0,0,1-3.24,1.46c-1.19.28-1.49,0-1.27-1.23a6.33,6.33,0,0,1,6.43-5c.63,0,.8.32.64.89A6.6,6.6,0,0,1,108.58,181.67Z"/><path class="cls-9" d="M99.52,171.61a7.37,7.37,0,0,1,1.55,3.85c.12,1.12-.14,1.33-1.22,1.11a6.42,6.42,0,0,1-4.59-6.71c.1-.69.48-.66,1-.56A6.52,6.52,0,0,1,99.52,171.61Z"/><path class="cls-9" d="M106.52,172.81a5.53,5.53,0,0,1,4-1.2c.65,0,.84.31.66,1a6.57,6.57,0,0,1-6.22,4.48c-.66-.05-.77-.38-.65-.91A5.3,5.3,0,0,1,106.52,172.81Z"/><path class="cls-9" d="M97.83,168.46a5.82,5.82,0,0,1-1-4.11c.06-.76.44-.91,1.06-.65a6.43,6.43,0,0,1,3.95,6.4c0,.59-.39.69-.88.56A5.47,5.47,0,0,1,97.83,168.46Z"/><path class="cls-9" d="M109.73,170.14a6.48,6.48,0,0,1-3.92,1.28c-.63,0-.88-.16-.75-.86a5.46,5.46,0,0,1,6.15-3.87c.62.17.68.49.45,1A5.91,5.91,0,0,1,109.73,170.14Z"/><path class="cls-9" d="M99.6,163.48a5.61,5.61,0,0,1-1-4.32c.1-.65.32-.84,1-.57a6.1,6.1,0,0,1,3.32,6.06c-.12.65-.44.73-1,.54A5.12,5.12,0,0,1,99.6,163.48Z"/><path class="cls-9" d="M110.86,165a6,6,0,0,1-4.11,1.28c-.7,0-.93-.3-.65-1a5.22,5.22,0,0,1,5.82-3.1c.53.13.62.39.44.83A4.38,4.38,0,0,1,110.86,165Z"/><path class="cls-9" d="M101.27,158.71a5,5,0,0,1-.82-4c.14-.73.47-.95,1.18-.54a5.56,5.56,0,0,1,2.51,5.52c-.12.63-.42.73-1,.51A4.79,4.79,0,0,1,101.27,158.71Z"/><path class="cls-9" d="M111.87,160.52a5.32,5.32,0,0,1-4,1.12c-.72-.06-.89-.38-.58-1a4.78,4.78,0,0,1,5.2-2.49c.74.2.91.59.47,1.22A4.55,4.55,0,0,1,111.87,160.52Z"/><path class="cls-9" d="M103.36,154.87a4.52,4.52,0,0,1-1-3.9c.17-.84.5-1,1.25-.5a4.92,4.92,0,0,1,1.91,5c-.16.58-.44.75-1,.45A4.16,4.16,0,0,1,103.36,154.87Z"/><path class="cls-9" d="M112.84,156.78a4.86,4.86,0,0,1-3.73.68c-.67-.14-.64-.54-.42-1a4.44,4.44,0,0,1,5-1.85c.43.2.48.47.25.84A4.56,4.56,0,0,1,112.84,156.78Z"/><path class="cls-9" d="M112.52,136.94c-1.47,2.82-3.1,5.56-4.47,8.44-.72,1.52-1.36,3.08-2,4.62-.18.44-.43.75-1,.52s-.33-.55-.17-.89A71.05,71.05,0,0,1,112.52,136.94Z"/><path class="cls-9" d="M119.14,141.16c-.85,1.49-1.71,3-2.52,4.47a57.07,57.07,0,0,0-3.16,6.66c-.1.27-.23.52-.35.77-.19.4-.4.81-.94.52s-.25-.67-.09-1a65.42,65.42,0,0,1,4.07-7.38c.9-1.4,1.87-2.76,2.8-4.14Z"/><path class="cls-9" d="M345.8,271.13a55.2,55.2,0,0,0-.84,6.27,115.3,115.3,0,0,1-5.29,22.08,91.66,91.66,0,0,1-9.26,19.27,88.4,88.4,0,0,1-26.66,26.94,4.68,4.68,0,0,1-.64.32c.12-.57.52-.71.81-.92a117.4,117.4,0,0,0,17.19-15.93,80,80,0,0,0,12.27-19.34,98.15,98.15,0,0,0,6.14-17.73,114.37,114.37,0,0,0,2.91-18.67c.23-3.23.39-6.46.36-9.69,0-.48-.07-1-.11-1.43l.08-1a60.36,60.36,0,0,0-.39-7.92c-.14.5-.28,1-.41,1.49a10.06,10.06,0,0,1-8.92,6.89c-.77,0-.94-.27-.91-1,.16-4.07,4.11-8.4,8.4-9.17,1.85-.33,1.88-.33,1.72-2.22s-.4-3.71-.7-5.56a20.93,20.93,0,0,1-1.41,3.78,10.57,10.57,0,0,1-7.49,5.05c-1.22.22-1.38,0-1.32-1.25a11.31,11.31,0,0,1,8.05-9.83c1.94-.51,2-.56,1.62-2.54-.32-1.8-.61-3.6-1-5.42a11.14,11.14,0,0,1-8.85,9.53c-.9.2-1.32,0-1.32-1a11.36,11.36,0,0,1,4.41-9,10.91,10.91,0,0,1,4.3-2.29c.4-.09.89-.18.81-.7a50.11,50.11,0,0,0-1.48-6.57c-.47,1.35-.77,2.37-1.17,3.34-1.46,3.47-4.26,5.37-7.71,6.46-.87.28-1.17-.16-1.23-.94a11.9,11.9,0,0,1,2.86-8.64,10.6,10.6,0,0,1,4.91-3.49,1.47,1.47,0,0,0,1-2.13c-.56-1.78-1.08-3.58-1.84-5.38a20.72,20.72,0,0,1-.42,2.11,12,12,0,0,1-7.81,8.15c-1,.35-1.4.08-1.55-.93a12.67,12.67,0,0,1,6.35-12.48c2.21-1.31,2.23-1.28,1.3-3.7a98.82,98.82,0,0,0-11.83-22.52,60.19,60.19,0,0,0-9.15-10.25c-1.35-1.17-1.33-1.25.37-2,.85-.35,1.72-.66,2.55-1a1.61,1.61,0,0,1,2,.36,75.38,75.38,0,0,1,12.93,17,122.11,122.11,0,0,1,7.31,16c.29.74.51,1.5.74,2.27a1.11,1.11,0,0,0,1.45.87c6.14-1.32,12,2.73,14,8.44.39,1.16.27,1.38-1,1.56-4.52.64-8.21-1-11.37-4.14-.34-.33-.67-.68-1-1l-.26-.13c.58,2.15,1.15,4.2,1.7,6.24.21.81.76.85,1.48.79a11.47,11.47,0,0,1,11.09,5.49,14,14,0,0,1,1.37,3c.53,1.43.29,1.79-1.27,1.82a12.76,12.76,0,0,1-10-4.39c-.45-.49-.85-1-1.3-1.6-.28.33-.09.65,0,.92.28,1.61.59,3.22.89,4.83.15.77.42,1.36,1.4,1.26,5-.47,9.91,2.9,11.54,8.38q.11.35.18.69c.23,1.22.06,1.47-1.16,1.44a11.83,11.83,0,0,1-8.72-3.87,21.39,21.39,0,0,1-2.37-3.07c.3,2.27.59,4.54.91,6.81.1.7.67.54,1.13.54a10.75,10.75,0,0,1,10.67,8.87c.3,1.69.09,1.93-1.62,1.71a11.15,11.15,0,0,1-8.92-6.23c-.13-.25-.26-.49-.41-.73a3.59,3.59,0,0,0-.43-.38c.15,2.3.27,4.42.44,6.54.07.82.77.68,1.3.71a9.63,9.63,0,0,1,7.73,4.38,10.84,10.84,0,0,1,1.81,4.9c.16,1.4-.11,1.67-1.5,1.4a11,11,0,0,1-8.31-6.54c-.2-.43-.37-.88-.59-1.43a1.25,1.25,0,0,0-.27,1c0,1.72.07,3.43.05,5.15,0,.76.24,1.07,1,1.12a9.68,9.68,0,0,1,8.81,9.31c.06,1.37-.15,1.61-1.49,1.27a10.33,10.33,0,0,1-7.8-7.49,5.11,5.11,0,0,0-.58-1.49c-.09,2.68-.18,5.35-.28,8Z"/><path class="cls-9" d="M342.76,261.26l-.08,1c-.66,2.48-1.63,4.76-3.91,6.21a10.79,10.79,0,0,1-5.15,1.76c-1.14.08-1.44-.34-1.22-1.43a10.43,10.43,0,0,1,9.47-7.82A1.17,1.17,0,0,1,342.76,261.26Z"/><path class="cls-9" d="M345.8,271.13l0-.43c1.67-.6,3.09.24,4.35,1,3.15,2,4.41,5,4.34,8.63,0,.9-.56.93-1.22.76a9.64,9.64,0,0,1-5.71-4.23A12.59,12.59,0,0,1,345.8,271.13Z"/><path class="cls-9" d="M338,270.77a9.08,9.08,0,0,1,2.81-.62c1.43-.16,1.71.19,1.33,1.62a8.53,8.53,0,0,1-7.35,6.42c-.88.11-2,.56-2.59-.24s.19-1.66.53-2.45A10.05,10.05,0,0,1,338,270.77Z"/><path class="cls-9" d="M345.73,284.32a8.51,8.51,0,0,1-.75-4c0-1,.45-1.14,1.29-.9a9.18,9.18,0,0,1,6.3,9.61c-.11,1-.57,1.13-1.35.83A8.94,8.94,0,0,1,345.73,284.32Z"/><path class="cls-9" d="M336.61,279.36a8.39,8.39,0,0,1,3.84-.72c.79,0,1.07.33.87,1.13a8.27,8.27,0,0,1-9.29,6c-.72-.12-.77-.48-.59-1.11A8.23,8.23,0,0,1,336.61,279.36Z"/><path class="cls-9" d="M344.16,293.06a9,9,0,0,1-.61-4.7c.07-.67.38-.91,1-.68a8.19,8.19,0,0,1,5.37,9.73c-.16.76-.66.67-1.2.43A8.72,8.72,0,0,1,344.16,293.06Z"/><path class="cls-9" d="M335.16,292.44a8.3,8.3,0,0,1-4.09.33c-.74-.13-1-.5-.77-1.26,1-3.08,5.94-5.75,9.11-4.9.78.21.6.7.46,1.2A7.79,7.79,0,0,1,335.16,292.44Z"/><path class="cls-9" d="M347,299.82a8.16,8.16,0,0,1,.18,4.55c-.17.82-.6,1.1-1.36.68a8.43,8.43,0,0,1-4.12-9.36c.15-.64.58-.51,1-.36A7.88,7.88,0,0,1,347,299.82Z"/><path class="cls-9" d="M332.78,294.41a7.94,7.94,0,0,1,4-.64c1.39.05,1.63.5,1,1.72a7.19,7.19,0,0,1-8.52,3.53c-.68-.24-.78-.6-.44-1.17A7.54,7.54,0,0,1,332.78,294.41Z"/><path class="cls-9" d="M339.73,308.11a8.23,8.23,0,0,1-.56-4.67c.19-1.26.55-1.42,1.67-.85a7.27,7.27,0,0,1,3,8.71c-.3.73-.71.57-1.22.32A7.24,7.24,0,0,1,339.73,308.11Z"/><path class="cls-9" d="M332.42,304.72a6.29,6.29,0,0,1-4.8.13c-.7-.23-.82-.6-.44-1.26a7.5,7.5,0,0,1,8.15-3.06c.7.25.72.64.44,1.19A6,6,0,0,1,332.42,304.72Z"/><path class="cls-9" d="M340.64,312.07a6.62,6.62,0,0,1-.09,4.81c-.3.81-.75.86-1.36.39a7.3,7.3,0,0,1-2.43-8.17c.19-.65.63-.65,1.13-.37A6.19,6.19,0,0,1,340.64,312.07Z"/><path class="cls-9" d="M328.11,306.71a7.25,7.25,0,0,1,4.67-.24c.7.17.92.43.57,1.15-1.25,2.57-5.42,3.86-7.89,2.43-.63-.37-.6-.75-.19-1.25A6.64,6.64,0,0,1,328.11,306.71Z"/><path class="cls-9" d="M337.23,317a6.37,6.37,0,0,1-.17,5c-.3.68-.6.82-1.23.33a6.92,6.92,0,0,1-1.84-7.63c.32-.67.69-.66,1.21-.3A5.81,5.81,0,0,1,337.23,317Z"/><path class="cls-9" d="M325.34,312a6.81,6.81,0,0,1,4.89-.19c.76.24.92.6.41,1.3a5.94,5.94,0,0,1-7.3,1.68c-.53-.3-.56-.61-.23-1.05A4.94,4.94,0,0,1,325.34,312Z"/><path class="cls-9" d="M334,321.73a5.67,5.67,0,0,1-.28,4.57c-.36.75-.79.9-1.44.24a6.32,6.32,0,0,1-1.13-6.78c.33-.66.69-.68,1.21-.29A5.56,5.56,0,0,1,334,321.73Z"/><path class="cls-9" d="M322.91,316.61a6,6,0,0,1,4.66-.06c.77.27.86.68.33,1.33a5.43,5.43,0,0,1-6.43,1.18c-.76-.44-.83-.91-.16-1.47A4.94,4.94,0,0,1,322.91,316.61Z"/><path class="cls-9" d="M330.56,325.32a5.1,5.1,0,0,1-.12,4.55c-.43.87-.83.91-1.51.18a5.61,5.61,0,0,1-.62-6c.35-.59.71-.7,1.22-.2A4.54,4.54,0,0,1,330.56,325.32Z"/><path class="cls-9" d="M320.74,320.42a5.56,5.56,0,0,1,4.29.35c.7.36.54.79.16,1.24a5,5,0,0,1-6.07.53c-.41-.35-.39-.65,0-1A5.13,5.13,0,0,1,320.74,320.42Z"/><path class="cls-9" d="M315.21,342.25c2.45-2.66,5.05-5.17,7.4-7.92,1.24-1.45,2.4-3,3.59-4.47.33-.42.69-.69,1.2-.29s.2.71-.07,1A81,81,0,0,1,315.21,342.25Z"/><path class="cls-9" d="M309.21,335.67c1.37-1.39,2.76-2.75,4.09-4.16a64.61,64.61,0,0,0,5.43-6.36c.19-.26.4-.5.61-.74s.68-.77,1.19-.28.08.8-.2,1.13a74.5,74.5,0,0,1-6.65,6.88c-1.4,1.28-2.87,2.48-4.3,3.71Z"/><path class="cls-9" d="M37,321.76c3.15-1,6.27-2,9.35-3.21A155.8,155.8,0,0,0,101.72,283a7,7,0,0,1,2.56-1.89,2.34,2.34,0,0,1,2.81.89,3.22,3.22,0,0,1,.21,1.6c-.16,2.92-1.22,5.6-1.56,8.46q-.72,6-1,12.09-.36,7.77,0,15.56c.12,2.39-.59,11.07,2.27,12.07,1.38.49,4.69-.52,6.2-.68a89.38,89.38,0,0,0,11.17-1.71c6.19-1.45,12.33-4.06,18.18-6.53a146.14,146.14,0,0,0,39.27-24.13c6-5.21,6.45-8-.6-13-3.65-2.62-11.23-5.77-15.75-3.58,11.73-5.69,24.62-8.84,36.09-15.05,15.42-8.34,21.39-21.82,27.76-37.18,5.45-13.14,9.85-28.44,24.21-34.46a38.17,38.17,0,0,1,35.08,3.29,34.66,34.66,0,0,1,15.19,22.6,155.65,155.65,0,0,1,.08,56.85c-3.49,19-3.49,35.51,1.35,54.55-5.41-2.58-11.86-.59-17.27,2-14.73,7-19.69,18.22-31.08,28.83a159,159,0,0,1-100,42.46,145.92,145.92,0,0,1-43.41-4.23c-3-.77-7.5-2.05-10.58-.6-7.09,3.34-6.51,12.73-6.21,19.25.33,7.43-4.41,6.64-8.91,2-23.29-24.24-46.15-49-67.73-74.75C15,341.56,8.5,335.19,6.1,327.42c6.79,1.35,12-.93,18.62-2.4Q30.93,323.63,37,321.76Z"/><path class="cls-9" d="M390.72,91.8q-4.37,2.31-8.59,4.9A156,156,0,0,0,334.41,142a7,7,0,0,1-2.16,2.33,2.32,2.32,0,0,1-2.92-.35,3.24,3.24,0,0,1-.51-1.53c-.39-2.89.15-5.72-.05-8.6-.28-4-.71-8.06-1.29-12.06q-1.12-7.7-3-15.27c-.57-2.33-1.5-11-4.49-11.43-1.46-.23-4.52,1.38-6,1.82a93.51,93.51,0,0,0-10.65,3.77c-5.81,2.6-11.35,6.31-16.64,9.83-14.34,9.55-37.55,25.18-34.11,45.29,1.87,10.91,9.44,21.14,20,24.34L251.83,189c-13.93,5.91-30.34,13-33,29-2.34,13.95-4.31,30-17.15,38.52a38.23,38.23,0,0,1-35.08,3.34,34.62,34.62,0,0,1-19.15-19.36c-5.58-14.21-9.68-29.89-13.33-44.65q-4-16-7.91-31.95A127.86,127.86,0,0,1,123,147.89c.36,3.14,11.9,1.33,13.54.7,5.41-2.07,5.45-4,7-8.69,3.43-10.57,6.84-20.62,12.26-30.49A159.06,159.06,0,0,1,257.09,31.48a146.58,146.58,0,0,1,43.42-4c3.14.19,7.76.61,10.51-1.39,6.34-4.61,4-13.72,2.49-20.08-1.71-7.23,3.09-7.34,8.39-3.59,27.42,19.45,54.51,39.45,80.54,60.73,6.15,5.06,13.76,10.09,17.58,17.27-6.92,0-11.65,3.17-17.85,5.85Q396.33,88.83,390.72,91.8Z"/><path class="cls-1" d="M97.9,117.83V308a6.48,6.48,0,0,1-6.48,6.48H6.48A6.48,6.48,0,0,1,0,308V117.83A4.83,4.83,0,0,1,4.83,113H93.07A4.83,4.83,0,0,1,97.9,117.83Z"/><g class="cls-10"><path class="cls-6" d="M83.24,227.11H18A2.15,2.15,0,0,1,15.87,225h0A2.15,2.15,0,0,1,18,222.81H83.24A2.15,2.15,0,0,1,85.39,225h0A2.15,2.15,0,0,1,83.24,227.11Z"/></g><g class="cls-10"><path class="cls-6" d="M83.24,240.75H18a2.15,2.15,0,0,1-2.15-2.15h0A2.15,2.15,0,0,1,18,236.45H83.24a2.15,2.15,0,0,1,2.15,2.15h0A2.15,2.15,0,0,1,83.24,240.75Z"/></g><g class="cls-10"><path class="cls-6" d="M83.24,254.39H18a2.15,2.15,0,0,1-2.15-2.15h0A2.15,2.15,0,0,1,18,250.09H83.24a2.15,2.15,0,0,1,2.15,2.15h0A2.15,2.15,0,0,1,83.24,254.39Z"/></g><g class="cls-10"><path class="cls-6" d="M83.24,268H18a2.15,2.15,0,0,1-2.15-2.15h0A2.16,2.16,0,0,1,18,263.73H83.24a2.15,2.15,0,0,1,2.15,2.15h0A2.15,2.15,0,0,1,83.24,268Z"/></g><g class="cls-10"><path class="cls-6" d="M83.24,281.67H18a2.15,2.15,0,0,1-2.15-2.15h0A2.16,2.16,0,0,1,18,277.37H83.24a2.15,2.15,0,0,1,2.15,2.15h0A2.15,2.15,0,0,1,83.24,281.67Z"/></g><g class="cls-10"><path class="cls-6" d="M83.24,295.32H18a2.16,2.16,0,0,1-2.15-2.16h0A2.16,2.16,0,0,1,18,291H83.24a2.15,2.15,0,0,1,2.15,2.15h0A2.16,2.16,0,0,1,83.24,295.32Z"/></g><path class="cls-6" d="M97.9,117.83v13.39H0V117.83A4.83,4.83,0,0,1,4.83,113H93.07A4.83,4.83,0,0,1,97.9,117.83Z"/><path class="cls-7" d="M74.19,121.24A3.18,3.18,0,1,1,71,118.05,3.18,3.18,0,0,1,74.19,121.24Z"/><path class="cls-3" d="M84.51,121.24a3.19,3.19,0,1,1-3.18-3.19A3.19,3.19,0,0,1,84.51,121.24Z"/><path class="cls-11" d="M94.39,121.24a3.19,3.19,0,1,1-3.19-3.19A3.19,3.19,0,0,1,94.39,121.24Z"/><path class="cls-3" d="M76,157.13a32.2,32.2,0,0,0-24.59-11.4h-1c-.54,0-1.07,0-1.61.09l-.31,0-.48,0-.34,0-.43.05-.41.06-.49.07-.33,0-.31.06-.29.05-.38.08-.47.09-.44.1q-.7.16-1.41.36l-.32.09-1.28.4c-.42.14-.83.3-1.25.45l-1.22.5-.41.18-.4.18-.39.19-.35.17-.08,0-.75.39-.3.16-.47.26-.38.22-.37.22-.76.48c-.72.46-1.43.95-2.11,1.47l0,0c-.57.44-1.14.9-1.68,1.38l-.33.28-.64.59-.31.3c-.1.11-.21.21-.31.31l-.61.62-.29.32c-.2.21-.39.43-.59.65l-.28.33-.28.33-.31.38c-.15.19-.3.37-.44.56a32.26,32.26,0,0,0,24.51,51.87h1.1A32.25,32.25,0,0,0,76,157.13ZM52.65,200.79c-.42,0-.85,0-1.28,0a22.82,22.82,0,0,1-19.89-34,20.25,20.25,0,0,1,1.22-1.93c.26-.37.54-.74.82-1.09a22.83,22.83,0,1,1,19.13,37Z"/><path class="cls-12" d="M52.65,200.79l-2.38,9.46a32.26,32.26,0,0,1-24.51-51.87c.24-.32.49-.63.75-.94l6.19,7.43a22.82,22.82,0,0,0,18.67,36C51.8,200.83,52.23,200.82,52.65,200.79Z"/><path class="cls-2" d="M76,157.13l-5.13,8.94a22.82,22.82,0,0,0-37.31-2.29c-.28.35-.56.72-.82,1.09a20.25,20.25,0,0,0-1.22,1.93l-5.72-8.42c.14-.19.29-.37.44-.56l.31-.38.28-.33.28-.33c.2-.22.39-.44.59-.65l.29-.32.61-.62c.1-.1.21-.2.31-.31l.31-.3.64-.59.33-.28c.54-.49,1.11-.94,1.68-1.38l0,0c.68-.52,1.39-1,2.11-1.47l.76-.48.37-.22.38-.22.47-.26.3-.16.75-.39.08,0,.35-.17.39-.19.4-.18.41-.18,1.22-.5c.42-.15.83-.31,1.25-.45l1.28-.4.32-.09q.7-.19,1.41-.36l.44-.1.47-.09.38-.08.29-.05.31-.06.33,0,.49-.07.41-.06.43-.05.34,0,.48,0,.31,0c.54,0,1.07-.07,1.61-.09h1A32.2,32.2,0,0,1,76,157.13Z"/><ellipse class="cls-4" cx="97.44" cy="565.97" rx="52.16" ry="8.48"/><path class="cls-13" d="M185,267s1.41,8.61,7.75,10.15c5.13,1.24,9.95-3.67,11.62-5.61.4-.46.62-.76.62-.76a8.6,8.6,0,0,0,1,0c1.33,0,3.71-.29,4.64-1.93,1.32-2.34-3.5-3.93-3.5-3.93s2.47-2.21,1.85-3.82-3.92-1.9-3.92-1.9,3.57-2.32,2.37-4.34c-1.79-3-5.49.3-5.78.49.23-.27,10.12-11.54,7.59-12.4-2.21-.75-11.11,8.22-13.5,10.68l-.59.62-.39-.28c-1.2-.8-4.87-2.94-7.2-1C184.64,255.32,185,267,185,267Z"/><path class="cls-14" d="M201.31,265.64A5.3,5.3,0,0,0,199,268a1.61,1.61,0,0,0,.19,1.54,3.09,3.09,0,0,0,1.09.8,16.37,16.37,0,0,0,4.09,1.13c.4-.47.62-.76.62-.76s.38,0,1,0a.47.47,0,0,0-.26-.11c-1.86-.22-5-.87-5.68-1.71a.57.57,0,0,1-.05-.59c.34-1,2.15-2.23,3.72-2.62a.5.5,0,0,0-.13-1c-1.25,0-4.67-.19-5.58-1.4-.13-.18-.1-.28-.08-.33a1.74,1.74,0,0,1,.76-.69,12.18,12.18,0,0,1,3-1.12.46.46,0,0,0,.26-.16.49.49,0,0,0,.12-.45.5.5,0,0,0-.61-.37,13.13,13.13,0,0,0-3,1.08,4.69,4.69,0,0,0-1.07.78,1.68,1.68,0,0,0-.39.59,1.34,1.34,0,0,0,.22,1.27C197.92,265,199.79,265.46,201.31,265.64Z"/><path class="cls-14" d="M197.49,257.72a.52.52,0,0,1,0,.57,3.11,3.11,0,0,0-.54,1.52.57.57,0,0,0,.25.54,1.92,1.92,0,0,0,.85.23,14.76,14.76,0,0,0,3.49-.26.46.46,0,0,1-.26.16,12.18,12.18,0,0,0-3,1.12l-.35,0a3.67,3.67,0,0,1-1-.21,1.71,1.71,0,0,1-.33-.17,1.55,1.55,0,0,1-.71-1.37,4.25,4.25,0,0,1,.68-2.06.5.5,0,0,1,.82-.05Z"/><path class="cls-14" d="M188.34,258.14a16.58,16.58,0,0,0,3.31,2.22,5.67,5.67,0,0,0,2.91.7,2.52,2.52,0,0,0,1.82-1c1.6-2.14.23-4.94-.73-6.42l-.59.62-.39-.28c.82,1.22,2.2,3.74.91,5.48a1.55,1.55,0,0,1-1.12.63c-1.78.18-4.54-1.87-5.45-2.67a.5.5,0,0,0-.71,0A.51.51,0,0,0,188.34,258.14Z"/><path class="cls-14" d="M191.58,272.24a.52.52,0,0,0,.5,0,.51.51,0,0,0,.14-.7,4.5,4.5,0,0,1-.77-3.77c.84-3.22,5.15-5.45,5.19-5.48a.5.5,0,0,0-.45-.89c-.2.1-4.76,2.46-5.71,6.12a5.46,5.46,0,0,0,.9,4.58A.49.49,0,0,0,191.58,272.24Z"/><path class="cls-1" d="M136.55,248.19v0h0l0,.06,0,.12.06.3.14.65c0,.22.09.45.14.68s.1.46.16.7c.21.94.45,1.89.7,2.84.53,1.91,1.08,3.83,1.73,5.71s1.31,3.76,2.08,5.59c.38.91.77,1.83,1.18,2.72s.83,1.79,1.25,2.68c.89,1.76,1.81,3.48,2.81,5.15.23.43.5.83.75,1.24s.5.83.77,1.23c.54.8,1,1.62,1.62,2.39,1.09,1.58,2.29,3.06,3.48,4.54s2.5,2.84,3.85,4.15c.34.33.67.67,1,1l1,.94.52.48.13.12-.07-.06-.09-.08a3.89,3.89,0,0,0-.39-.28,6.37,6.37,0,0,0-1.87-.87l-.45-.11-.22,0-.19,0a2.4,2.4,0,0,0-.37,0,1.51,1.51,0,0,0-.3,0h-.24l-.19,0-.13,0h-.08c-.15.05.15,0,.58-.19a13.79,13.79,0,0,0,1.68-.87c.64-.39,1.34-.85,2-1.36,1.44-1,2.94-2.22,4.45-3.51s3-2.69,4.52-4.13,3-2.93,4.5-4.46,3-3.08,4.43-4.66q1.11-1.19,2.19-2.37l2.1-2.31,16.24,12.19-.54.81-.52.76-1,1.49c-.69,1-1.39,1.95-2.1,2.92-1.43,1.91-2.89,3.81-4.4,5.68s-3.1,3.71-4.74,5.54c-.83.91-1.67,1.81-2.53,2.71s-1.76,1.79-2.67,2.67a74.33,74.33,0,0,1-6,5.23c-1.1.85-2.26,1.69-3.54,2.52a36.51,36.51,0,0,1-4.27,2.41,26,26,0,0,1-5.85,2l-.44.09-.47.07-1,.14-1.05.08-.52,0H156q-.57,0-1.14,0l-1.22-.12-.61-.09-.64-.12c-.42-.09-.84-.18-1.27-.31a17.43,17.43,0,0,1-4.95-2.3c-.36-.25-.71-.52-1.06-.79l-.26-.21-.23-.19-.19-.17-.74-.66-1.49-1.33c-.48-.45-1-.92-1.43-1.38-1.92-1.84-3.69-3.82-5.41-5.82s-3.28-4.12-4.75-6.29-2.84-4.38-4.12-6.64l-.93-1.7c-.31-.57-.59-1.15-.89-1.73s-.58-1.15-.85-1.74l-.82-1.74a95.74,95.74,0,0,1-5.16-14.42c-.65-2.47-1.23-4.94-1.68-7.47-.23-1.26-.44-2.53-.61-3.83l-.12-1c0-.33-.08-.66-.11-1s-.07-.68-.1-1l-.1-1.24Z"/><path class="cls-4" d="M187.54,275.85a1.4,1.4,0,0,1-1.51,1.28,1.42,1.42,0,0,1-1.28-1.52,1.4,1.4,0,0,1,1.52-1.27A1.39,1.39,0,0,1,187.54,275.85Z"/><path class="cls-4" d="M158.43,299.92a.61.61,0,0,1-.58-.46,45.18,45.18,0,0,1-1-10.37.6.6,0,0,1,1.2,0,45,45,0,0,0,.94,10.05.61.61,0,0,1-.44.73Z"/><path class="cls-4" d="M154.6,295.58a.66.66,0,0,1-.27-.06.61.61,0,0,1-.27-.8,50.8,50.8,0,0,1,2.93-5.19.6.6,0,0,1,.94.75,50.25,50.25,0,0,0-2.8,5A.58.58,0,0,1,154.6,295.58Z"/><path class="cls-4" d="M191.85,287.47a.58.58,0,0,1-.43-.18c-5-5.17-16.32-13.33-16.43-13.41a.59.59,0,0,1-.14-.83.61.61,0,0,1,.84-.14c.11.08,11.5,8.31,16.59,13.55a.59.59,0,0,1,0,.84A.54.54,0,0,1,191.85,287.47Z"/><path class="cls-4" d="M187,283.06a.64.64,0,0,1-.39-.14.61.61,0,0,1-.07-.85l6-7.25a.61.61,0,0,1,.85-.08.6.6,0,0,1,.07.84l-6,7.26A.61.61,0,0,1,187,283.06Z"/><polygon class="cls-13" points="80.87 516.75 75.03 521.66 81.8 532.29 87.63 527.38 80.87 516.75"/><path class="cls-15" d="M81.21,568.45l-24.62-38.7a6.28,6.28,0,0,1,1.83-1.88c3.12-2.33,9-4.61,12.63-6.19l1.17-.52a14.16,14.16,0,0,0,1.41-.74c2.69-1.71,3.75,1,3.75,1-1.35,6.36,7.23,7.13,7,10.92,0,0-.09,1.63-.9,6.46s.69,11.21,1.66,16.85c1.25,7.27-.11,10.42-1.56,11.79A3.61,3.61,0,0,1,81.21,568.45Z"/><path class="cls-16" d="M81.21,568.45l-24.62-38.7a6.28,6.28,0,0,1,1.83-1.88L83.56,567.4A3.61,3.61,0,0,1,81.21,568.45Z"/><path class="cls-16" d="M59.1,533.69l-.73-1.15a10,10,0,0,0,7.52-1.86,12.93,12.93,0,0,0,5.16-9l1.17-.52a14.09,14.09,0,0,1-5.69,10.42A11.12,11.12,0,0,1,59.1,533.69Z"/><path class="cls-16" d="M80.76,539.55a.76.76,0,0,1,1.16-.95l2.14,2a.75.75,0,1,1-1,1.09l-2.14-2Z"/><path class="cls-16" d="M80.9,542.87a.74.74,0,0,1,.09-.93.76.76,0,0,1,1.07,0l2.13,2a.75.75,0,0,1,0,1.07.76.76,0,0,1-1.07,0L81,543A1.34,1.34,0,0,1,80.9,542.87Z"/><path class="cls-16" d="M81.08,546.14a.76.76,0,0,1,1.16-.95l2.14,2a.75.75,0,1,1-1,1.09l-2.14-2A.81.81,0,0,1,81.08,546.14Z"/><path class="cls-16" d="M81.51,549.57a.76.76,0,0,1,1.16-1l2.14,2a.76.76,0,0,1,0,1.07.75.75,0,0,1-1.06,0l-2.14-2A.79.79,0,0,1,81.51,549.57Z"/><path class="cls-16" d="M82.26,553.11a.77.77,0,0,1,.09-.93.76.76,0,0,1,1.07,0l2.14,2a.77.77,0,0,1,0,1.07.76.76,0,0,1-1.07,0l-2.14-2A.81.81,0,0,1,82.26,553.11Z"/><path class="cls-8" d="M151.54,447.85l0,.26-.66,1.22a503.93,503.93,0,0,1-32.6,52c-2.36,3.25-4.79,6.46-7.26,9.59Q109.36,513,107.7,515A57.6,57.6,0,0,1,94.31,527.4l-1.48.94c-1,.58-1.93,1.15-3,1.72l-1.48.8S81,523.1,77.58,515.58c0,0,1-1.57,2.51-4.11l1-1.61c1-1.72,2.27-3.74,3.59-5.95,5.95-9.93,14-23.56,16.95-29.89,2.18-4.63,4.78-9.76,7.69-14.82.56-1,1.12-1.92,1.7-2.87.06-.11.13-.22.2-.33a90.68,90.68,0,0,1,13-17.32L113.66,376.4l-.67-3.91,23.34-8.24,1.33-.47,5.56-2s.44,2.05,1.13,5.57c.09.42.17.87.26,1.33C147.71,384.71,154.63,424.66,151.54,447.85Z"/><path class="cls-17" d="M94.31,527.4l-1.48.94-9-12-.84-1.1-2.87-3.8,1-1.61,2.82,3.73.83,1.1Z"/><path class="cls-17" d="M151.54,447.84a2,2,0,0,1,0,.26s-.22.43-.65,1.23a28.81,28.81,0,0,1-9.6-3.77.78.78,0,1,1,.86-1.31A27.66,27.66,0,0,0,151.54,447.84Z"/><path class="cls-17" d="M130.31,440.86c-.12.11-11.82,11.75-45.6,73.83l-.91,1.68-.84-1.1c.31-.57.61-1.13.92-1.68,31.34-57.56,43.36-71.34,45.29-73.37C126.42,430,118,377.91,117.63,375.66a.62.62,0,0,1,.52-.72.63.63,0,0,1,.72.52c.09.56,9,55.59,11.61,64.77A.64.64,0,0,1,130.31,440.86Z"/><path class="cls-8" d="M74.55,346.55s-1.76,16.66,2,25.94,52.87,4.5,65.37-3.85c5.13-3.42-5.79-35-5.79-35Z"/><path class="cls-17" d="M144.61,368.73a14.71,14.71,0,0,1-2.17-.56,14.38,14.38,0,0,1-3.23-1.57,16.88,16.88,0,0,1-2.88-2.35c-5.41-5.45-7-13.7-7.08-14.11a.63.63,0,0,1,.51-.73.63.63,0,0,1,.73.5c0,.1,1.68,8.68,7.17,13.87a15.43,15.43,0,0,0,2.24,1.77A13.18,13.18,0,0,0,143,367c.45.14.91.27,1.37.37C144.44,367.81,144.53,368.26,144.61,368.73Z"/><path class="cls-17" d="M114.34,373.39a.63.63,0,0,1-.6.63h0a.61.61,0,0,1-.66-.57c-.11-2.28-.25-4.61-.4-6.94,0-.41-.05-.82-.07-1.23-.5-7.62-1.13-15.1-1.6-20.37,0-.43-.08-.84-.12-1.24-.1-1.16-.2-2.19-.28-3.06l1.25-.2c.08.87.18,1.91.28,3.08,0,.4.08.81.12,1.24.46,5.23,1.09,12.64,1.59,20.21,0,.42.05.84.08,1.25C114.08,368.61,114.22,371,114.34,373.39Z"/><path class="cls-17" d="M116.13,365.35a17.78,17.78,0,0,1-2.2.84c-.39.12-.81.23-1.25.32a9.44,9.44,0,0,1-1.19.15,4.41,4.41,0,0,1-2.11-.33,2.56,2.56,0,0,1-1.43-1.92c-.46-2.35-1.42-12.05-2.07-18.91,0-.43-.08-.84-.12-1.24-.1-1.09-.19-2.09-.27-2.94l1.25-.16c.08.86.17,1.87.28,3,0,.4.07.81.11,1.23.65,6.85,1.61,16.53,2.05,18.81a1.37,1.37,0,0,0,.76,1.06,4.51,4.51,0,0,0,2.67,0c.42-.1.84-.21,1.24-.34a13.62,13.62,0,0,0,1.72-.68.64.64,0,0,1,.85.27A.61.61,0,0,1,116.13,365.35Z"/><polygon class="cls-13" points="95.08 538.92 96.33 548.8 108.92 548.8 109.66 538.4 95.08 538.92"/><path class="cls-8" d="M111,367.74V537.29L110.8,540H92.1c-.2-1.23-.65-3.21-1.24-5.75l-.41-1.74c-2.44-10.37-6.61-28.05-7.35-43.42-1-21.95-.76-50.39-.76-50.39C80.21,422.37,76.86,387,75.19,369c0-.43-.08-.85-.11-1.26-.56-6.08-.91-9.9-.91-9.9,3-1.26,8.48-.39,14.29,1.26l1.26.36A174.73,174.73,0,0,1,111,367.74Z"/><path class="cls-17" d="M111,532.49v1.74H90.86l-.41-1.74Z"/><path class="cls-17" d="M111,442.49v1.62a29.27,29.27,0,0,1-7,.74,57.09,57.09,0,0,1-8.39-.66.79.79,0,0,1-.64-.91.78.78,0,0,1,.9-.64C95.92,442.66,105.07,444.15,111,442.49Z"/><path class="cls-17" d="M94,534.23H92.71q-.15-.81-.33-1.74c-1.65-8.78-4.68-25.2-6.25-35.86C83.94,481.75,85,440.5,85,438.89,83.34,424.7,80,376.1,79.92,375.61a.64.64,0,0,1,.59-.68.63.63,0,0,1,.67.59c0,.49,3.42,49.16,5.08,63.26a.28.28,0,0,1,0,.09c0,.43-1.1,42.58,1.11,57.58,1.58,10.73,4.64,27.32,6.28,36Q93.84,533.42,94,534.23Z"/><path class="cls-15" d="M113.72,565.64c0,.11,0,.22,0,.33,0,.5,0,1,0,1.35,0,.85-.11,1.38-.11,1.38H85.16a15.57,15.57,0,0,1,0-2.73c.19-2.9,1.15-7.48,5.07-10.51,5.37-4.15,3.29-3.28,4.39-5.17.13-.21,1.09-3.43,1.2-3.65.92-2,1.77-2.89,6.86-2.89,6.74,0,7.33,3.27,8,5a31.16,31.16,0,0,1,1.13,4c.17.72.34,1.49.5,2.27.42,2,.81,4,1.07,5.62A29.84,29.84,0,0,1,113.72,565.64Z"/><path class="cls-16" d="M113.72,565.64c0,.11,0,.22,0,.33,0,.5,0,1,0,1.35a8,8,0,0,1-3-3.83c-1.75-4.78,1-10.52,1.06-10.76l.06,0c.17.72.34,1.49.5,2.27-.64,2-1.37,5.23-.35,8A6.59,6.59,0,0,0,113.72,565.64Z"/><path class="cls-16" d="M113.71,566c0,1.62-.16,2.73-.16,2.73H85.16a15.57,15.57,0,0,1,0-2.73Z"/><path class="cls-16" d="M103.58,552.6a.69.69,0,0,1-.2,0,14,14,0,0,0-6.58-.13.82.82,0,0,1-1-.57.81.81,0,0,1,.57-1,15.38,15.38,0,0,1,7.41.13.79.79,0,0,1,.58,1A.8.8,0,0,1,103.58,552.6Z"/><path class="cls-16" d="M104.22,549.46l-.21,0a14,14,0,0,0-6.58-.14.8.8,0,0,1-1-.56.81.81,0,0,1,.56-1,15.58,15.58,0,0,1,7.42.13.81.81,0,0,1,.58,1A.8.8,0,0,1,104.22,549.46Z"/><path class="cls-16" d="M102.37,555.16l-.21,0a14.17,14.17,0,0,0-6.58-.14.81.81,0,0,1-.43-1.56,15.58,15.58,0,0,1,7.42.13.81.81,0,0,1,.58,1A.8.8,0,0,1,102.37,555.16Z"/><path class="cls-16" d="M100.94,558.08a.69.69,0,0,1-.2,0,14.07,14.07,0,0,0-6.58-.13.82.82,0,0,1-1-.57.81.81,0,0,1,.57-1,15.45,15.45,0,0,1,7.41.12.81.81,0,0,1-.2,1.6Z"/><path class="cls-17" d="M93.2,350.14a33.12,33.12,0,0,1-3.48,9.28,20.28,20.28,0,0,1-6.48,7.18,14.72,14.72,0,0,1-8,2.36c0-.43-.08-.85-.11-1.26a13.63,13.63,0,0,0,7.48-2.15,18.86,18.86,0,0,0,5.89-6.49A32,32,0,0,0,92,349.91a.63.63,0,0,1,1.24.23Z"/><path class="cls-1" d="M143.67,345.5C130.09,358.18,98,364.92,73.2,352.86,70.49,345.44,67.5,319,66.7,311c-.16-1.58-.29-3.15-.39-4.73a207.29,207.29,0,0,1,0-23.26l.06-1.3c.33-6.59.81-13.42,1.27-20.67.9-14.35,5.69-23.2,14-24.52a33.69,33.69,0,0,0,9.19-2.77l.79-.39a26.15,26.15,0,0,0,4.21-2.6h18.56a14.11,14.11,0,0,0,5.78,4.83l.72.33c6.59,2.84,14.28,2.28,15.86,10.23,1,5-2.82,15.25-2.42,36.06,0,1.53.08,3.11.16,4.75s.17,3.13.29,4.77.25,3.11.41,4.73c.14,1.42.3,2.88.48,4.37s.39,3.1.63,4.71C137.51,314.22,140.83,334.38,143.67,345.5Z"/><path class="cls-4" d="M136,300.73a.6.6,0,0,1-.6-.53c-1.23-10.93-1.25-32.68-1.25-32.9a.6.6,0,1,1,1.2,0c0,.22,0,21.9,1.24,32.77a.6.6,0,0,1-.53.66Z"/><path class="cls-4" d="M110.56,341.91a1.4,1.4,0,0,1-1.51,1.28,1.42,1.42,0,0,1-1.28-1.52,1.4,1.4,0,0,1,1.52-1.27A1.39,1.39,0,0,1,110.56,341.91Z"/><path class="cls-4" d="M110.79,348.68a1.42,1.42,0,0,1-1.52,1.28,1.4,1.4,0,0,1-1.27-1.52,1.39,1.39,0,0,1,1.51-1.27A1.4,1.4,0,0,1,110.79,348.68Z"/><path class="cls-4" d="M122.58,276.23a5.74,5.74,0,0,1-4.56-2c-3.64-4.23-2.28-13.65-2.22-14.05a.6.6,0,0,1,.6-.51h12.36a.59.59,0,0,1,.59.51c.06.4,1.43,9.82-2.22,14.05A5.73,5.73,0,0,1,122.58,276.23Zm-5.66-15.4c-.22,2-.83,9.3,2,12.59a4.94,4.94,0,0,0,7.3,0c2.84-3.3,2.23-10.6,2-12.59Z"/><path class="cls-8" d="M96.81,208.16c.18,2.09-3,1.6-4.69.49-.74-.49-.68-2-1-3.81-.36-2.15.41-.81-1.67-3.7-2.21-3.07-.58-8.51,1.67-8.63,0,0-2.79-4.72,1.14-8.36,3.54-3.28,6.65-1,6.65-1s.66-4.47,4.36-5.09,6.62,2.8,6.62,2.8a5.84,5.84,0,0,1,6.81-1.79c4.38,1.61,3,4.94,3,4.94s4.37-.55,6.15,2.89a4.66,4.66,0,0,1-.48,5.19s1.94,1.34,1.54,4.93c-.35,3.07-2.54,3.31-2.57,5.42a19.94,19.94,0,0,1-.47,3.54c-.16.77-.89,2.11-1.64,2.11h0c-1,0-1.65-1.69-1.53-2.7.21-1.71.28-4.15-.72-5.56-1.66-2.31-.66-5.29-3.32-6.12s-11.49,3.64-17.79-.08c0,0,.38,3.66-1.83,4.74s-1.27,3.89-.81,6.3C96.5,205.83,96.81,208.11,96.81,208.16Z"/><path class="cls-13" d="M114.65,227.63v4.72a13.34,13.34,0,0,1-1.67,1.17c-8.2,4.92-17-1.17-17-1.17V216l16.48,10.25Z"/><path class="cls-8" d="M114.65,227.5v4.85a13.34,13.34,0,0,1-1.67,1.17c-7-2.76-12.06-10.08-12.06-10.08l11.5,2.8Z"/><path class="cls-1" d="M96,227.56a9.32,9.32,0,0,0-7,7.23c5.37,5.62,10.12,10.5,17.81,11.92V235.42A19.89,19.89,0,0,1,96,227.56Z"/><path class="cls-1" d="M114.82,229.19s4.93,1.06,6.84,7.36c-5,6-7.62,8.31-14.89,10.16V235.42S110.82,235.35,114.82,229.19Z"/><polygon class="cls-3" points="117.6 316.93 114.4 324.64 114.4 324.64 112.97 328.1 108.92 337.89 106.97 334.11 106.27 332.77 104.7 329.74 104.01 328.4 102.44 325.38 101.75 324.04 100.18 321.01 100.18 321.01 99.48 319.67 98.01 316.82 98.04 316.51 98.27 314.26 98.79 309.14 99.02 306.88 99.55 301.75 99.78 299.5 100.3 294.38 100.53 292.12 101.05 286.99 101.28 284.74 101.8 279.61 102.03 277.36 102.55 272.24 102.78 269.97 103.3 264.86 103.53 262.6 104.05 257.47 104.28 255.22 104.82 249.92 108.73 249.77 108.85 250.65 109.08 252.44 109.62 256.5 109.86 258.3 110.39 262.36 110.63 264.15 111.17 268.22 111.4 270.01 111.94 274.07 112.18 275.87 112.71 279.93 112.95 281.72 113.48 285.79 113.72 287.58 114.26 291.64 114.5 293.44 115.03 297.5 115.27 299.29 115.8 303.35 116.04 305.15 116.58 309.21 116.81 311 117.35 315.06 117.59 316.86 117.6 316.93"/><polygon class="cls-18" points="109.08 252.44 104.05 257.47 104.28 255.22 108.85 250.65 109.08 252.44"/><polygon class="cls-18" points="109.86 258.3 103.3 264.86 103.53 262.6 109.62 256.5 109.86 258.3"/><polygon class="cls-18" points="110.63 264.15 102.55 272.24 102.78 269.97 110.39 262.36 110.63 264.15"/><polygon class="cls-18" points="111.4 270.01 101.8 279.61 102.03 277.36 111.17 268.22 111.4 270.01"/><polygon class="cls-18" points="112.18 275.87 101.05 286.99 101.28 284.74 111.94 274.07 112.18 275.87"/><polygon class="cls-18" points="112.95 281.72 100.3 294.38 100.53 292.12 112.71 279.93 112.95 281.72"/><polygon class="cls-18" points="113.72 287.58 99.55 301.75 99.78 299.5 113.48 285.79 113.72 287.58"/><polygon class="cls-18" points="114.5 293.44 98.79 309.14 99.02 306.88 114.26 291.64 114.5 293.44"/><polygon class="cls-18" points="115.27 299.29 98.04 316.51 98.27 314.26 115.03 297.5 115.27 299.29"/><polygon class="cls-18" points="116.04 305.15 100.18 321.01 99.48 319.67 115.8 303.35 116.04 305.15"/><polygon class="cls-18" points="116.81 311 102.44 325.38 101.75 324.04 116.58 309.21 116.81 311"/><polygon class="cls-18" points="117.59 316.86 104.7 329.74 104.01 328.4 117.35 315.06 117.59 316.86"/><polygon class="cls-18" points="114.4 324.64 112.97 328.1 106.97 334.11 106.27 332.77 114.4 324.64"/><polygon class="cls-18" points="104.82 249.92 106.77 252.82 108.73 249.77 109.08 252.37 106.8 254.69 104.61 251.94 104.82 249.92"/><polygon class="cls-3" points="101.55 245.06 106.77 252.82 111.77 245.06 106.77 238.58 101.55 245.06"/><path class="cls-4" d="M98.52,250.37a.65.65,0,0,1-.38-.13C93,246.12,88.58,235.47,88.39,235a.6.6,0,0,1,1.11-.45c0,.1,4.19,10.13,8.91,14.33l7.86-10.67a.61.61,0,0,1,.49-.25.59.59,0,0,1,.48.26l7.34,10.41c1.11-2,4.06-7.39,6.53-12.37a.6.6,0,0,1,.8-.27.59.59,0,0,1,.27.8c-3.12,6.28-7,13.18-7,13.25a.61.61,0,0,1-.49.31.59.59,0,0,1-.52-.26l-7.41-10.51L99,250.12a.57.57,0,0,1-.4.24Z"/><path class="cls-4" d="M106.75,239.18a.59.59,0,0,1-.59-.6v-2.67a.59.59,0,0,1,.59-.6.6.6,0,0,1,.6.6v2.67A.6.6,0,0,1,106.75,239.18Z"/><path class="cls-19" d="M120.55,206.72s2.68-3.17,4.19,0,.35,9.58-3.73,8.53Z"/><path class="cls-13" d="M123.4,217.82s0,9.76-10.13,9.74-17-7.94-17.32-8.31h0l-.11-2.05-.57-10.64L95,200.86s-1.29-10.24,8.45-12.11c7.11-1.36,13.78-.18,17.15,3.53.1.12.21.24.31.37a8.71,8.71,0,0,1,1.91,4.77l.32,10.21.08,2.51Z"/><path class="cls-8" d="M104.39,200h0a2.29,2.29,0,0,0,3,1.16,12.66,12.66,0,0,1,2.3-.75,2.11,2.11,0,0,0,1.59-2.62h0S106.56,197.32,104.39,200Z"/><path class="cls-8" d="M122.75,200h0a2.29,2.29,0,0,1-3,1.16,12.41,12.41,0,0,0-2.3-.75,2.11,2.11,0,0,1-1.59-2.62h0S120.58,197.32,122.75,200Z"/><path class="cls-8" d="M120.86,192.65c-1.59-.57-2.74,0-5.22,1-3.59,1.57-7.6.15-11.14-1.66s-5.67.71-4.46,2.37,1.07,3-.27,5.1,2.54,3.08.4,4.74a2.2,2.2,0,0,0-.49,2.71A1.46,1.46,0,0,1,98,208.89h0c-1.15-.29-2.78-2.34-2.78-2.34L95,200.86s-1.29-10.24,8.45-12.11c7.11-1.36,13.78-.18,17.15,3.53C120.65,192.4,120.76,192.52,120.86,192.65Z"/><path class="cls-19" d="M109.85,208.89c0,.71-1.46,1.29-3.26,1.29s-3.27-.58-3.27-1.29,1.46-1.29,3.27-1.29S109.85,208.18,109.85,208.89Z"/><path class="cls-19" d="M123.17,210.14c-.26,0-.52,0-.79,0-1.8,0-3.27-.58-3.27-1.29s1.47-1.29,3.27-1.29c.24,0,.48,0,.71,0Z"/><path class="cls-8" d="M110.45,205c0,1-.44,1.77-1,1.77s-1-.8-1-1.77.44-1.77,1-1.77S110.45,204,110.45,205Z"/><ellipse class="cls-8" cx="119.26" cy="204.98" rx="0.99" ry="1.77"/><path class="cls-8" d="M116.05,214.62c-3.56,0-6.48-3.05-6.52-3.1a.4.4,0,0,1,0-.56.39.39,0,0,1,.56,0c.2.2,4.72,4.92,9.13,1.78a.4.4,0,1,1,.47.65A6.19,6.19,0,0,1,116.05,214.62Z"/><path class="cls-8" d="M99.13,215.29c0,.11-1.33,3.09-3.18,4h0l-.11-2.05A6.94,6.94,0,0,0,99.13,215.29Z"/><path class="cls-13" d="M97.34,208.52s-3.9-5.24-6.75-1.12c-2.36,3.39,2.09,12.23,6.75,9.2Z"/><path class="cls-8" d="M96.81,215a.4.4,0,0,1-.4-.35,6.71,6.71,0,0,0-3.89-5.41.4.4,0,0,1-.23-.52.39.39,0,0,1,.52-.22,7.49,7.49,0,0,1,4.4,6.06.4.4,0,0,1-.35.44Z"/><path class="cls-8" d="M93.07,212.59a.41.41,0,0,1-.32-.15.4.4,0,0,1,.06-.56c.16-.13,1.6-1.27,2.81-1a.42.42,0,0,1,.29.49.4.4,0,0,1-.49.29c-.7-.18-1.75.52-2.1.8A.43.43,0,0,1,93.07,212.59Z"/><path class="cls-8" d="M114.44,209.89a.4.4,0,1,1,0-.8,2.75,2.75,0,0,0,2.39-1.12c-1.6-3.3-3.19-6.63-3.21-6.66a.4.4,0,0,1,.73-.35s1.67,3.49,3.3,6.85a.43.43,0,0,1,0,.35A3.43,3.43,0,0,1,114.44,209.89Z"/><path class="cls-17" d="M45.81,384.88A1.79,1.79,0,0,1,44,383.35l-1.6-10.71a1.78,1.78,0,0,1,1.51-2l31.53-4.7a1.79,1.79,0,0,1,2,1.51l1.59,10.71a1.79,1.79,0,1,1-3.55.53l-1.33-8.94-28,4.17,1.33,8.94a1.8,1.8,0,0,1-1.51,2Z"/><rect class="cls-2" x="48.04" y="367.15" width="23.81" height="5.29" rx="0.94" transform="translate(-53.84 12.87) rotate(-8.47)"/><rect class="cls-2" x="25.93" y="380.42" width="79.74" height="57.43" rx="3.73" transform="translate(-59.58 14.17) rotate(-8.47)"/><circle class="cls-7" cx="65.81" cy="409.13" r="6.8"/><path class="cls-13" d="M63.18,350.68s5.75,4.72,7.34,8.47A4.26,4.26,0,0,1,69,364.71s2.36,7.26.89,9.22a2.61,2.61,0,0,1-3.53.64s-.32,1.74-1.49,2.15-3.06-1.17-3.06-1.17-1,2.19-2.31,2.36-2.67-1.33-2.67-1.33-2.37,2.41-4,1c-3.72-3.31-6.34-21.33-6.34-21.33S56.09,351.12,63.18,350.68Z"/><path class="cls-19" d="M68.87,364.65a.47.47,0,0,1-.42-.25c-1.48-2.81-3.06-6.18-3.08-6.21a.48.48,0,1,1,.87-.41s1.59,3.38,3.06,6.17a.49.49,0,0,1-.2.65A.48.48,0,0,1,68.87,364.65Z"/><path class="cls-1" d="M91.84,259.16l-.45.36-.58.49c-.4.33-.81.68-1.21,1-.82.71-1.64,1.43-2.45,2.18-1.62,1.49-3.22,3-4.77,4.63a124.83,124.83,0,0,0-8.76,10,101.15,101.15,0,0,0-7.39,10.75A76.88,76.88,0,0,0,60.69,300c-.37,1-.72,1.94-1,2.92l-.24.73h0v.06s0,.16-.07.25l0,.2c0,.07,0,.13,0,.22a21.23,21.23,0,0,0-.2,2.45c0,.94,0,2,0,3,.06,2.11.2,4.35.41,6.62s.48,4.58.78,6.91.62,4.67,1,7S62,335,62.35,337.4s.79,4.73,1.22,7.09l.66,3.54.65,3.47-18.95,4.83-.56-1.86-.54-1.82-1-3.63c-.67-2.42-1.33-4.85-2-7.3s-1.21-4.9-1.77-7.37-1.1-5-1.6-7.48-1-5.07-1.36-7.67-.76-5.26-1-8.05c-.12-1.39-.21-2.83-.24-4.34A46.56,46.56,0,0,1,36,301.9c0-.22,0-.46.06-.7l.09-.71c.07-.51.13-1,.25-1.56l.08-.41,0-.21.05-.22.22-.9.29-1c.38-1.38.8-2.74,1.24-4.09a94.89,94.89,0,0,1,6.71-15.38c1.31-2.44,2.72-4.8,4.19-7.11s3-4.54,4.64-6.72,3.28-4.3,5-6.36,3.51-4.08,5.36-6,3.76-3.85,5.73-5.7c1-.93,2-1.85,3-2.76l1.59-1.35.83-.69.45-.36.54-.43Z"/><circle class="cls-4" cx="55.69" cy="349.84" r="1.4" transform="translate(-271.55 214.18) rotate(-58.44)"/><path class="cls-4" d="M44.1,349a.6.6,0,0,1-.17-1.18c.1,0,10.46-3.13,18.89-4.68a.6.6,0,1,1,.22,1.18C54.67,345.86,44.38,349,44.27,349A.47.47,0,0,1,44.1,349Z"/><path class="cls-4" d="M60.69,352.51a.61.61,0,0,1-.59-.48l-1.53-7.22a.6.6,0,0,1,1.17-.25l1.53,7.22a.6.6,0,0,1-.46.71Z"/><path class="cls-4" d="M66.34,289.71a.58.58,0,0,1-.33-.1.62.62,0,0,1-.18-.83c.45-.68,10.89-16.81,17.92-22.86a.61.61,0,0,1,.85.07.6.6,0,0,1-.07.84c-6.9,5.94-17.58,22.44-17.69,22.6A.59.59,0,0,1,66.34,289.71Z"/><path class="cls-4" d="M80.48,270.62a.6.6,0,0,1-.09-1.19l5.13-.77a.59.59,0,0,1,.68.5.6.6,0,0,1-.5.68l-5.13.77Z"/><path class="cls-4" d="M58.72,305.46a.59.59,0,0,1-.23,0,42.11,42.11,0,0,0-9.36-2.47.6.6,0,0,1,.14-1.19,42.19,42.19,0,0,1,9.67,2.56.6.6,0,0,1,.33.78A.61.61,0,0,1,58.72,305.46Z"/><path class="cls-4" d="M58.56,305.14a.6.6,0,0,1-.52-.3,29.86,29.86,0,0,0-3.57-4,.6.6,0,0,1,0-.85.61.61,0,0,1,.85,0,30.33,30.33,0,0,1,3.78,4.28.61.61,0,0,1-.22.82A.64.64,0,0,1,58.56,305.14Z"/><path class="cls-1" d="M684.77,327.48H559.2V418.3a5.16,5.16,0,0,0,5.16,5.16H679.62a5.15,5.15,0,0,0,5.15-5.16Z"/><path class="cls-6" d="M684.77,325.26v10.8H559.31v-10.8a5.26,5.26,0,0,1,5.26-5.26H679.52A5.25,5.25,0,0,1,684.77,325.26Z"/><path class="cls-7" d="M663.13,327.26a2.81,2.81,0,1,1-2.8-2.81A2.8,2.8,0,0,1,663.13,327.26Z"/><path class="cls-3" d="M672.23,327.26a2.81,2.81,0,1,1-2.81-2.81A2.8,2.8,0,0,1,672.23,327.26Z"/><path class="cls-8" d="M680.93,327.26a2.81,2.81,0,1,1-2.8-2.81A2.8,2.8,0,0,1,680.93,327.26Z"/><rect class="cls-3" x="639.18" y="347.77" width="6.82" height="6.82"/><rect class="cls-2" x="639.18" y="359.93" width="6.82" height="6.82"/><path class="cls-20" d="M675.29,361.42H652.65a2,2,0,0,0-2.11,1.92h0a2,2,0,0,0,2.11,1.92h22.64a2,2,0,0,0,2.11-1.92h0A2,2,0,0,0,675.29,361.42Z"/><path class="cls-20" d="M675.29,349.26H652.65a2,2,0,0,0-2.11,1.92h0a2,2,0,0,0,2.11,1.92h22.64a2,2,0,0,0,2.11-1.92h0A2,2,0,0,0,675.29,349.26Z"/><path class="cls-20" d="M639.29,401h0a1.92,1.92,0,0,0,1.92,1.93h34.08a1.92,1.92,0,0,0,1.92-1.93h0a1.92,1.92,0,0,0-1.92-1.92H641.21A1.92,1.92,0,0,0,639.29,401Z"/><path class="cls-20" d="M639.26,393.32h0a1.92,1.92,0,0,0,1.92,1.93h34.07a1.92,1.92,0,0,0,1.92-1.93h0a1.92,1.92,0,0,0-1.92-1.92H641.18A1.92,1.92,0,0,0,639.26,393.32Z"/><rect class="cls-20" x="639.22" y="383.68" width="37.92" height="3.84" rx="1.92"/><path class="cls-20" d="M639.18,377.88h0a1.93,1.93,0,0,0,1.93,1.93h34.07a1.93,1.93,0,0,0,1.92-1.93h0a1.92,1.92,0,0,0-1.92-1.92H641.11A1.92,1.92,0,0,0,639.18,377.88Z"/><path class="cls-2" d="M624.81,377.56A25.41,25.41,0,1,1,576,367.74l23.44,9.82-1.2-25.37c.39,0,.8,0,1.2,0A25.4,25.4,0,0,1,624.81,377.56Z"/><path class="cls-3" d="M595.91,348.19a25.41,25.41,0,0,0-22.23,15.55l23.43,9.82Z"/><ellipse class="cls-4" cx="936.3" cy="575.47" rx="68.86" ry="8.48"/><path class="cls-1" d="M901.79,318.51a27,27,0,0,1-9.73-2,67.2,67.2,0,0,1-14-7.85,148.09,148.09,0,0,1-15.4-12.54,9.09,9.09,0,0,1,12.53-13.17,136.29,136.29,0,0,0,11.72,9.69c9.18,6.7,13.44,7.59,14.59,7.7,1.31-1,6.14-5.55,16.43-22.47,6.5-10.69,11.83-20.82,11.89-20.92a9.09,9.09,0,0,1,16.1,8.46c-.23.43-5.68,10.8-12.54,22.05-13.14,21.58-19.48,26.89-23.53,29.11A16.6,16.6,0,0,1,901.79,318.51Z"/><path class="cls-4" d="M866.8,300.16a.6.6,0,1,1,0-1.19A13.22,13.22,0,0,0,880,288.15a.6.6,0,0,1,1.18.17,15,15,0,0,1-2.42,5.8c-1.83,2.66-5.38,5.87-11.91,6Z"/><path class="cls-4" d="M872.78,298.69a.55.55,0,0,1-.32-.1,17.7,17.7,0,0,1-5.43-5.95.6.6,0,0,1,1.06-.56,16.72,16.72,0,0,0,5,5.51.59.59,0,0,1,.18.82A.61.61,0,0,1,872.78,298.69Z"/><rect class="cls-8" x="836.5" y="280.28" width="66.89" height="5.68" rx="2.75"/><path class="cls-8" d="M885.16,286H838.8a2.8,2.8,0,0,1-2.55-1.64l-12.67-27.68a2.79,2.79,0,0,1,2.54-4h46.37a2.78,2.78,0,0,1,2.54,1.63L887.71,282A2.81,2.81,0,0,1,885.16,286Z"/><path class="cls-17" d="M857.19,269.32a4,4,0,1,1-4-4A4,4,0,0,1,857.19,269.32Z"/><path class="cls-21" d="M872.87,289.86a7.29,7.29,0,0,1-7,2.76,14.7,14.7,0,0,1-4.26-1.38c-1-.53-2.32-1.47-3.22-1.37-2.25.24-3.07-1.31-3.64-1.45a4.09,4.09,0,0,1-2.21.38,7.63,7.63,0,0,1-2.7-.86h0c-2.23,0-4.19.05-4.82-.39-1.26-.87-2.48-9.47-.34-9.83,2.85-.47,1.4,5.87,4,7.07,0,0-2-8,1.25-8.61,2.18-.4,2.53,7.59,4.86,9,0,0-2.21-7.43.16-8.62s2.35,7.77,4.76,8c.49,0-1.95-6.34.88-6.69s1.25,7.29,9.62,7.12C873.54,285,874.91,287.11,872.87,289.86Z"/><path class="cls-4" d="M906.88,307.24a.6.6,0,0,1-.51-.28,44.32,44.32,0,0,0-4.83-5.81.61.61,0,0,1,0-.85.6.6,0,0,1,.85,0,44.57,44.57,0,0,1,5,6,.61.61,0,0,1-.2.83A.58.58,0,0,1,906.88,307.24Z"/><path class="cls-4" d="M908.36,303.21a.44.44,0,0,1-.22,0,24.56,24.56,0,0,0-5.7-1.6.59.59,0,0,1-.57-.62.6.6,0,0,1,.63-.57,24,24,0,0,1,6.09,1.69.6.6,0,0,1,.33.78A.61.61,0,0,1,908.36,303.21Z"/><path class="cls-21" d="M951.41,366.58c-.06,1.47-.13,2.91-.22,4.32,0,.17,0,.34,0,.5a158.73,158.73,0,0,1-3.3,24c-.45,2.06-.94,4.07-1.45,6-.11.44-.23.87-.35,1.3h0c-1,3.65-2.08,7.16-3.24,10.63-.19.56-.37,1.11-.56,1.66-1.32,3.84-2.71,7.66-4.14,11.59-2.34,6.45-4.78,13.22-7.14,21,0,0,2.55,29-4.22,53.35s-19.84,51.51-19.84,51.51c-3.09,2.94-5.62,3.87-10.49,4.64l11.82-110.78.23-2.15.36-3.38,1-19.32.44-8.07.34-6.43.52-9.57.83-15.35Z"/><path class="cls-22" d="M942.81,413.4c-.19.56-.37,1.11-.56,1.66-1.32,3.84-2.71,7.66-4.14,11.59-11.47-1.53-21.77-3.69-28.23-5.18l.44-8.07Z"/><path class="cls-22" d="M908.24,446.33A24.88,24.88,0,0,0,917.4,448h.21a1,1,0,0,0,0-2h0c-1.9,0-6.34-.28-9.1-1.8Z"/><path class="cls-23" d="M889.07,565.62c2.23-3.6,22.24-22.8,22.24-22.8s4.09,3.21,3.89,6.74c-.19,3.36,0,21.06-.09,22.92h-2.43l-1.37-8.07s-5.53,8.85-9.68,11.88-18.19,2.48-21.56,2S886.84,569.22,889.07,565.62Z"/><path class="cls-21" d="M913.71,534.06l-2.66,7.9a10.06,10.06,0,0,1,0,6.4c-1.12,3.81-5.37,9.87-9.43,14.36-3.5,3.88-11,7.75-13.24,6.74s4.26-8.76,6.17-12.8a44.69,44.69,0,0,0,3.33-11.33c.66-3.48,1.08-12,1.08-12Z"/><path class="cls-21" d="M982.77,365s0,13.9-.54,38.19q-.11,4.81-.24,10.17c0,.57,0,1.15,0,1.73q-.13,5.61-.31,11.76-.24,8.14-.53,17.17c0,.77-.05,1.54-.08,2.32,0,1.68-.11,3.39-.17,5.11l-1.84,99-11.11-9.43s-6.31-31-11-57.29c-4.38-24.65,1.22-36.39,1.22-36.39a153.7,153.7,0,0,1-5.46-19.27c-.88-4-1.69-8.1-2.39-12.28-.13-.81-.27-1.63-.39-2.45-.56-3.55-1-7.12-1.41-10.63h0c0-.45-.1-.89-.14-1.33q-.3-3-.5-6c-.62-9.32-.39-17.73,1.09-23.59l2.21-.45,2.47-.5Z"/><path class="cls-22" d="M982,413.4c0,.57,0,1.15,0,1.73q-.13,5.61-.31,11.76c-8.64,1.76-18.83,1.92-29,1.24-.88-4-1.69-8.1-2.39-12.28-.13-.81-.27-1.63-.39-2.45Z"/><path class="cls-22" d="M970.79,447a1,1,0,0,0,1,1H972a25,25,0,0,0,9-1.64c0-.78.06-1.55.08-2.31-2.73,1.6-7.34,1.94-9.28,1.9h0A1,1,0,0,0,970.79,447Z"/><path class="cls-23" d="M967.91,541.08s-4.55,1.85-4.71,8.25,0,22.9,0,22.9h2.32l1.25-5.82s.8,6.32,4,10.36,10.1,4.21,14.65,3.54,1.18-9.09-.67-13.81-5.73-16-5.73-16Z"/><path class="cls-21" d="M969.11,531.93s.15,7.8-1.2,9.15-3.2,5.72-1.85,11.11,2.24,13.25,5.39,16.61,11.33,3.48,12,.79-4.16-12.68-4.38-17.85S978,532.66,978,532.66Z"/><path class="cls-2" d="M989.56,418.48s-64.56,11.94-91.84-8.4c0,0,.78-2.2,1.75-5q.27-.76.54-1.56l.39-1.1c.48-1.39,1-2.8,1.38-4s.86-2.56,1.09-3.32l.38-1.24c2.37-7.77,6.32-20.72,9.27-30.57h0l.75-2.52.21-.7c.53-1.78,1.07-3.67,1.61-5.62.38-1.37.76-2.77,1.14-4.19.29-1.08.57-2.17.86-3.26l.39-1.49c1.57-6.1,3-12.15,4.19-16.95.1-.43.2-.86.3-1.27,1.21-5.13,2-8.54,2-8.54,25.93,6.46,54.32,5.47,54.32,5.47s1.06,3.7,2.4,9.85c.09.4.18.83.27,1.26,1.22,5.71,2.61,13.27,3.67,21.82l.09.82c0,.18,0,.36.07.54.1.82.19,1.65.28,2.48.19,1.83.37,3.69.52,5.59h0c.1,1.24.21,2.6.33,4.05.16,2,.34,4.08.52,6.28.08,1,.16,2,.25,3.07.54,6.54,1.12,13.42,1.55,18.62,0,.44.07.87.1,1.29.2,2.28.53,7.31.8,11.57,0,.56.07,1.1.11,1.62C989.41,416.15,989.56,418.48,989.56,418.48Z"/><path class="cls-7" d="M929.37,333.05a2,2,0,0,0-.6-.42c-.79,1.18-1.47,2.44-2.19,3.67a2.15,2.15,0,0,0,2.79-3.25Z"/><circle class="cls-7" cx="936.81" cy="336.38" r="2.15"/><circle class="cls-7" cx="946.09" cy="337.79" r="2.15"/><path class="cls-7" d="M957.1,340.29a2.15,2.15,0,1,1,0-3A2.15,2.15,0,0,1,957.1,340.29Z"/><path class="cls-7" d="M963.49,338a2.14,2.14,0,0,0,.18,2.83,1.93,1.93,0,0,0,.73.48A12.82,12.82,0,0,1,963.49,338Z"/><path class="cls-7" d="M928.1,346.21a2.2,2.2,0,1,1,0-3.12A2.2,2.2,0,0,1,928.1,346.21Z"/><path class="cls-7" d="M937.3,348a2.2,2.2,0,1,1,0-3.11A2.21,2.21,0,0,1,937.3,348Z"/><path class="cls-7" d="M946.81,349.42a2.2,2.2,0,1,1,0-3.12A2.2,2.2,0,0,1,946.81,349.42Z"/><path class="cls-7" d="M956.55,350.38a2.2,2.2,0,1,1,0-3.12A2.21,2.21,0,0,1,956.55,350.38Z"/><path class="cls-7" d="M966.39,350.88a2.2,2.2,0,1,1,0-3.12A2.2,2.2,0,0,1,966.39,350.88Z"/><path class="cls-7" d="M917.85,354.09a2.25,2.25,0,0,1-2.76.36c.38-1.37.76-2.77,1.14-4.19a2.23,2.23,0,0,1,1.59.64A2.26,2.26,0,0,1,917.85,354.09Z"/><path class="cls-7" d="M926.84,356.32a2.26,2.26,0,1,1,0-3.19A2.26,2.26,0,0,1,926.84,356.32Z"/><path class="cls-7" d="M936.26,358.14a2.26,2.26,0,1,1,0-3.19A2.26,2.26,0,0,1,936.26,358.14Z"/><path class="cls-7" d="M946,359.52a2.26,2.26,0,1,1,0-3.19A2.26,2.26,0,0,1,946,359.52Z"/><path class="cls-7" d="M956,360.46a2.26,2.26,0,1,1,0-3.19A2.27,2.27,0,0,1,956,360.46Z"/><path class="cls-7" d="M966.07,360.92a2.26,2.26,0,1,1,0-3.19A2.26,2.26,0,0,1,966.07,360.92Z"/><path class="cls-7" d="M976.16,360.9a2.26,2.26,0,1,1,0-3.19A2.26,2.26,0,0,1,976.16,360.9Z"/><path class="cls-7" d="M985,361a2.25,2.25,0,0,1-2.3-3.56q1,.31,2,.54c0,.18,0,.36.07.54C984.86,359.33,985,360.16,985,361Z"/><path class="cls-7" d="M916.37,364.18a2.32,2.32,0,0,1-3.27,0,2.18,2.18,0,0,1-.58-.93h0l.75-2.52a2.31,2.31,0,0,1,3.1,3.41Z"/><path class="cls-7" d="M925.57,366.42a2.31,2.31,0,1,1,0-3.26A2.31,2.31,0,0,1,925.57,366.42Z"/><path class="cls-7" d="M935.23,368.24a2.31,2.31,0,1,1-.05-3.27A2.32,2.32,0,0,1,935.23,368.24Z"/><path class="cls-7" d="M945.22,369.61a2.31,2.31,0,1,1-.05-3.26A2.3,2.3,0,0,1,945.22,369.61Z"/><path class="cls-7" d="M955.43,370.52a2.31,2.31,0,1,1,0-3.26A2.3,2.3,0,0,1,955.43,370.52Z"/><path class="cls-7" d="M965.75,371a2.31,2.31,0,1,1,0-3.26A2.3,2.3,0,0,1,965.75,371Z"/><path class="cls-7" d="M976.08,370.89a2.31,2.31,0,1,1-.05-3.27A2.32,2.32,0,0,1,976.08,370.89Z"/><path class="cls-7" d="M985.89,370.63a2.29,2.29,0,0,1-2.86-.28,2.31,2.31,0,0,1,2.53-3.77C985.66,367.82,985.77,369.18,985.89,370.63Z"/><path class="cls-7" d="M914.88,374.27a2.36,2.36,0,1,1-.06-3.34A2.37,2.37,0,0,1,914.88,374.27Z"/><path class="cls-7" d="M924.31,376.52a2.36,2.36,0,1,1-.06-3.34A2.36,2.36,0,0,1,924.31,376.52Z"/><path class="cls-7" d="M934.2,378.34a2.36,2.36,0,1,1-.06-3.34A2.37,2.37,0,0,1,934.2,378.34Z"/><path class="cls-7" d="M944.42,379.7a2.36,2.36,0,1,1-.06-3.34A2.37,2.37,0,0,1,944.42,379.7Z"/><path class="cls-7" d="M954.87,380.59a2.36,2.36,0,1,1-.06-3.34A2.37,2.37,0,0,1,954.87,380.59Z"/><path class="cls-7" d="M965.44,381a2.36,2.36,0,1,1-.06-3.34A2.37,2.37,0,0,1,965.44,381Z"/><path class="cls-7" d="M976,380.88a2.36,2.36,0,1,1-.06-3.34A2.38,2.38,0,0,1,976,380.88Z"/><path class="cls-7" d="M986.66,380a1.71,1.71,0,0,1-.21.26,2.37,2.37,0,1,1-.06-3.34h0C986.49,377.92,986.57,379,986.66,380Z"/><path class="cls-7" d="M913.39,384.34a2.42,2.42,0,1,1-.07-3.41A2.41,2.41,0,0,1,913.39,384.34Z"/><path class="cls-7" d="M923.05,386.61a2.42,2.42,0,1,1-.08-3.42A2.42,2.42,0,0,1,923.05,386.61Z"/><path class="cls-7" d="M933.16,388.43a2.42,2.42,0,1,1-.07-3.42A2.41,2.41,0,0,1,933.16,388.43Z"/><path class="cls-7" d="M943.62,389.78a2.42,2.42,0,1,1-.07-3.42A2.41,2.41,0,0,1,943.62,389.78Z"/><path class="cls-7" d="M954.32,390.65a2.42,2.42,0,1,1-.08-3.42A2.43,2.43,0,0,1,954.32,390.65Z"/><path class="cls-7" d="M965.12,391a2.42,2.42,0,1,1-.07-3.42A2.42,2.42,0,0,1,965.12,391Z"/><path class="cls-7" d="M975.92,390.85a2.42,2.42,0,1,1-.07-3.41A2.41,2.41,0,0,1,975.92,390.85Z"/><path class="cls-7" d="M986.6,390.15a2.42,2.42,0,1,1-.07-3.41A2.41,2.41,0,0,1,986.6,390.15Z"/><path class="cls-7" d="M911.91,394.44a2.47,2.47,0,1,1-.09-3.49A2.48,2.48,0,0,1,911.91,394.44Z"/><circle class="cls-7" cx="919.99" cy="395.01" r="2.47"/><path class="cls-7" d="M932.13,398.53A2.47,2.47,0,1,1,932,395,2.47,2.47,0,0,1,932.13,398.53Z"/><path class="cls-7" d="M942.83,399.87a2.47,2.47,0,1,1-.09-3.49A2.47,2.47,0,0,1,942.83,399.87Z"/><circle class="cls-7" cx="951.97" cy="399.02" r="2.47"/><path class="cls-7" d="M964.8,401.05a2.47,2.47,0,1,1-.09-3.49A2.47,2.47,0,0,1,964.8,401.05Z"/><path class="cls-7" d="M975.84,400.84a2.47,2.47,0,1,1-.09-3.49A2.47,2.47,0,0,1,975.84,400.84Z"/><path class="cls-7" d="M986.76,400.09a2.47,2.47,0,1,1-.09-3.49A2.48,2.48,0,0,1,986.76,400.09Z"/><path class="cls-7" d="M901.66,401.74a2.6,2.6,0,0,1-1.26.72c.48-1.39,1-2.8,1.38-4A2.52,2.52,0,0,1,901.66,401.74Z"/><path class="cls-7" d="M910.42,404.53a2.52,2.52,0,1,1-.11-3.57A2.53,2.53,0,0,1,910.42,404.53Z"/><path class="cls-7" d="M920.52,406.82a2.52,2.52,0,1,1-.11-3.57A2.53,2.53,0,0,1,920.52,406.82Z"/><path class="cls-7" d="M931.1,408.64a2.52,2.52,0,1,1-.11-3.57A2.53,2.53,0,0,1,931.1,408.64Z"/><path class="cls-7" d="M942,410a2.52,2.52,0,1,1-.1-3.57A2.53,2.53,0,0,1,942,410Z"/><path class="cls-7" d="M953.2,410.79a2.52,2.52,0,1,1-.1-3.57A2.51,2.51,0,0,1,953.2,410.79Z"/><path class="cls-7" d="M964.49,411.08a2.53,2.53,0,1,1-.11-3.56A2.52,2.52,0,0,1,964.49,411.08Z"/><path class="cls-7" d="M975.76,410.84a2.52,2.52,0,1,1-.1-3.57A2.51,2.51,0,0,1,975.76,410.84Z"/><path class="cls-7" d="M986.91,410a2.52,2.52,0,1,1-.11-3.56A2.53,2.53,0,0,1,986.91,410Z"/><path class="cls-7" d="M989.22,413.08a245.72,245.72,0,0,1-24.83,2.3q-7.07.28-13.76.11a162.12,162.12,0,0,1-26.9-2.8,109.64,109.64,0,0,1-24.26-7.57q.27-.76.54-1.56c20.89,9.5,45.62,10.95,64.28,10.2a247.31,247.31,0,0,0,24.82-2.3C989.15,412,989.18,412.56,989.22,413.08Z"/><path class="cls-7" d="M962.26,334.71c0,.42,0,.84.1,1.28a24.19,24.19,0,0,0,3,9.69c3.61,6.28,10.12,10.6,19.35,12.83,0-.46-.11-.91-.16-1.36-8.64-2.18-14.72-6.25-18.08-12.1a23,23,0,0,1-2.85-9.05c0-.44-.08-.86-.11-1.28a28.87,28.87,0,0,1,1-9.28.63.63,0,0,0-.42-.8.64.64,0,0,0-.8.41A29,29,0,0,0,962.26,334.71Z"/><path class="cls-7" d="M921.66,328.56a59.41,59.41,0,0,0,7.12,2.77l1.23.38c9.88,3,20.87,4,29.74,4.23l2.61.05h2.29c6.51,0,12.25-.34,16.28-.67-.09-.43-.18-.86-.27-1.26-4.21.34-10.26.69-17.1.65h-1.3l-2.5,0c-8.75-.24-19.61-1.24-29.33-4.15h0l-1.23-.38a58.41,58.41,0,0,1-7.23-2.84C921.87,327.7,921.77,328.12,921.66,328.56Z"/><path class="cls-7" d="M917.09,347c4.22-1.44,7.86-4.93,10.71-10.3a42.81,42.81,0,0,0,2.21-5q.22-.61.42-1.2h0a39,39,0,0,0,1.39-5.11.64.64,0,0,0-.51-.75.65.65,0,0,0-.75.52,39.8,39.8,0,0,1-1.36,5q-.19.58-.42,1.2a39.85,39.85,0,0,1-2.13,4.8c-2.53,4.78-5.6,7.91-9.17,9.38Z"/><path class="cls-1" d="M920.13,293.39a1.24,1.24,0,0,0,0,.16,16.82,16.82,0,0,0,.67,1.84,29.16,29.16,0,0,0,5.22,7.75c.29.32.47.48.47.48s0,0,0,.07l-.06.57c-.08.78-.2,1.7-.41,2.73-2.51,11.76-2.35,12.24-3.36,17.23,29,9,56.54,4.35,56.54,4.35-.83-15.9-1.8-9.58-.07-21.11a129.12,129.12,0,0,1,6.07-22.24l.36-1c.9-2.44,1.86-4.88,2.86-7.22,4.4-10.25,5.11-21.78-5.46-25.31a75.85,75.85,0,0,0-8.25-2.12l-2.17-.44c-3.9-.73-6.94-1.15-6.94-1.15l-18.68.23c-1.84.21-3.49.45-5,.73a36.18,36.18,0,0,0-3.54.8c-9.52,2.65-9.87,7.66-11.58,16.68a67.68,67.68,0,0,1-2,7.54l-.75,2.28C921.73,283.42,919.07,289.59,920.13,293.39Z"/><path class="cls-7" d="M923.73,318.84l-1.14,5.47s28.66,9.85,57.42,4.44l-.93-5.08S956.21,328.18,923.73,318.84Z"/><path class="cls-21" d="M946.91,249.94l-1.79,16.53c6.82-1.33,20.88-10.68,21-18.05Z"/><path class="cls-12" d="M966.75,248.89l.18,0,.16-.05.16-.08a.81.81,0,0,0,.14-.12.9.9,0,0,0,.26-.63.94.94,0,0,0-.26-.63l-.14-.11a.48.48,0,0,0-.16-.08.52.52,0,0,0-.16-.06.93.93,0,0,0-.81.25.89.89,0,0,0-.26.63.86.86,0,0,0,.26.63A.9.9,0,0,0,966.75,248.89Z"/><path class="cls-12" d="M949.29,261.83h0a.89.89,0,0,1-.9-.89h0a.91.91,0,0,1,.9-.9h0a.9.9,0,1,1,0,1.79Zm2.22-.28h0a.89.89,0,0,1-.87-.68h0a.89.89,0,0,1,.65-1.08h0a.9.9,0,0,1,1.09.66h0a.9.9,0,0,1-.66,1.08A.75.75,0,0,1,951.51,261.55Zm-4.39-.18h0a.85.85,0,0,1-.4-.1h0a.88.88,0,0,1-.39-1.2h0a.88.88,0,0,1,1.2-.39h0a.88.88,0,0,1,.39,1.2A.9.9,0,0,1,947.12,261.37Zm6.5-.54h0a.9.9,0,0,1-.82-.54h0a.9.9,0,0,1,.46-1.18h0a.9.9,0,0,1,1.18.46h0a.9.9,0,0,1-.46,1.18h0A.94.94,0,0,1,953.62,260.83Zm-8-1h0a.9.9,0,0,1-.8-.49h0a.89.89,0,0,1,.38-1.2h0a.9.9,0,0,1,1.21.38h0a.88.88,0,0,1-.38,1.2A.87.87,0,0,1,945.58,259.81Zm10,0h0a.88.88,0,0,1-.77-.43h0a.89.89,0,0,1,.3-1.23h0a.89.89,0,0,1,1.23.3h0a.89.89,0,0,1-.76,1.36Zm1.86-1.25h0a.87.87,0,0,1-.72-.36h0a.88.88,0,0,1,.19-1.25h0a.89.89,0,0,1,1.25.19h0a.89.89,0,0,1-.19,1.25A.88.88,0,0,1,957.47,258.54Zm-12.5-.88h0a.89.89,0,0,1-.89-.79h0a.89.89,0,0,1,.79-1h0a.89.89,0,0,1,1,.79h0a.9.9,0,0,1-.79,1Zm14.25-.51h0a.92.92,0,0,1-.68-.31h0a.9.9,0,0,1,.1-1.27h0a.9.9,0,0,1,1.26.1h0a.89.89,0,0,1-.68,1.48Zm1.66-1.51h0a.92.92,0,0,1-.65-.27h0a.9.9,0,0,1,0-1.27h0a.9.9,0,0,1,1.27,0h0a.9.9,0,0,1,0,1.27A.91.91,0,0,1,960.88,255.64Zm-15.94-.21h-.06a.91.91,0,0,1-.84-1h0a.9.9,0,0,1,1-.83h0a.9.9,0,0,1-.06,1.79Zm17.52-1.37h0a.94.94,0,0,1-.62-.25h0a.9.9,0,0,1,0-1.27h0a.9.9,0,0,1,1.27,0h0a.91.91,0,0,1,0,1.27h0A.92.92,0,0,1,962.46,254.06Zm-17.23-.85h0l-.16,0h0a.89.89,0,0,1-.72-1h0a.9.9,0,0,1,1-.72h0a.9.9,0,0,1,.71,1A.89.89,0,0,1,945.23,253.21Zm18.73-.82h0a.86.86,0,0,1-.58-.22h0a.88.88,0,0,1-.09-1.26h0a.9.9,0,0,1,1.26-.09h0a.9.9,0,0,1,.09,1.26A.87.87,0,0,1,964,252.39ZM945.73,251h0a.91.91,0,0,1-.23,0h0a.89.89,0,0,1-.63-1.09h0a.91.91,0,0,1,1.1-.64h0a.91.91,0,0,1,.63,1.1h0A.9.9,0,0,1,945.73,251Zm19.67-.35h0a.84.84,0,0,1-.56-.2h0a.88.88,0,0,1-.14-1.25h0a.9.9,0,0,1,1.26-.15h0a.9.9,0,0,1,.14,1.26A.88.88,0,0,1,965.4,250.67Z"/><path class="cls-12" d="M946.4,248.89a.9.9,0,0,0,.9-.9.94.94,0,0,0-.26-.63l-.14-.11a.48.48,0,0,0-.16-.08.49.49,0,0,0-.17-.06,1,1,0,0,0-.34,0,.49.49,0,0,0-.17.06.48.48,0,0,0-.16.08l-.13.11a.76.76,0,0,0-.11.14.75.75,0,0,0-.09.15.84.84,0,0,0-.05.17.91.91,0,0,0,0,.17.86.86,0,0,0,.26.63A.9.9,0,0,0,946.4,248.89Z"/><path class="cls-4" d="M926.53,303.62s0,0,0,.07l-.06.57a31.78,31.78,0,0,0,13-.13A29.47,29.47,0,0,1,958,306.88a.48.48,0,0,0,.26.07.51.51,0,0,0,.44-.26.52.52,0,0,0-.19-.7,30,30,0,0,0-19.29-2.87,30.24,30.24,0,0,1-13.16,0C926.35,303.46,926.53,303.62,926.53,303.62Z"/><path class="cls-4" d="M942.39,277.52c6.23,0,19-8.93,19.49-9.31a.5.5,0,0,0,.12-.71.51.51,0,0,0-.71-.13c-.13.1-13,9.12-18.9,9.12-5.65,0-6.91-6.17-6.92-6.23a.51.51,0,1,0-1,.19C934.48,270.52,935.9,277.52,942.39,277.52Z"/><path class="cls-8" d="M943.8,243.36s-9.65,1.94-10.06-6.19c-.18-3.52-.65-3-3.73-5.93s-3.07-4.18-2.41-6.92,3.43-3.69,2.06-6.23c-1.81-3.34-1.25-9.06,2.67-11.29s4.21-2.12,4.21-4.33c0-2.88,3-7.53,9.17-7.05,5.32.42,4.49-2.17,8.26-3.32,7-2.14,10.41,3.93,12.83,4.15s6.6.26,8.72,3.47c2.63,4,.31,7.24,3.6,7.57s6.59,3.18,6.48,6.15-1.86,5.49-.66,6.81,1.68,9.13-3.2,10.62c-6.66,2,0,11.91-12.25,11.73C958.47,242.43,943.8,243.36,943.8,243.36Z"/><path class="cls-22" d="M940.63,224.44s-2.74-3.25-4.3,0-.36,9.82,3.83,8.74Z"/><path class="cls-21" d="M947.27,241.1l-.36,8.84s5.09,7.85,19.17-1.52c-2.66-3-2.77-8.65-1.69-12.08a17.09,17.09,0,0,0-2.72,1.36,9,9,0,0,1-1.12.49C957,239.67,951.73,241.45,947.27,241.1Z"/><path class="cls-8" d="M947.27,241.1l-.17,4.19c3.83-.85,10.72-2.94,14.57-7.59l-1.12.49C957,239.67,951.73,241.45,947.27,241.1Z"/><path class="cls-21" d="M939.62,238.17c7.52,7.78,24.22-1.5,24.76-1.81h0q.23-1.05.42-2.07a54.62,54.62,0,0,0,.54-16.28,12.34,12.34,0,0,0-8-12.25c-5.26-1.91-10,.4-12.79,1.27-4.27,1.32-7,6.84-7,14.7C937.56,231.38,937.75,236.24,939.62,238.17Z"/><path class="cls-8" d="M942.55,214.58s1.56.15,1,1.58-3.68-.14-5.92,2.49C937.64,218.65,936.69,215.22,942.55,214.58Z"/><path class="cls-8" d="M949.63,214.58s-1.57.15-1,1.58,3.68-.14,5.92,2.49C954.53,218.65,955.49,215.22,949.63,214.58Z"/><g class="cls-24"><ellipse class="cls-22" cx="953.48" cy="225.74" rx="3.35" ry="1.32"/></g><g class="cls-24"><path class="cls-22" d="M936.48,227a7,7,0,0,0,.8,0c1.85,0,3.35-.59,3.35-1.32s-1.5-1.32-3.35-1.32q-.37,0-.72,0Z"/></g><path class="cls-8" d="M949.52,221.73c0,1,.45,1.81,1,1.81s1-.81,1-1.81-.45-1.81-1-1.81S949.52,220.73,949.52,221.73Z"/><path class="cls-8" d="M939.62,221.73c0,1,.45,1.81,1,1.81s1-.81,1-1.81-.46-1.81-1-1.81S939.62,220.73,939.62,221.73Z"/><path class="cls-8" d="M944.44,231.27a4.85,4.85,0,0,1-3.48-1.45.41.41,0,0,1,.58-.59c3,2.94,7-.28,7.19-.42a.41.41,0,1,1,.52.63A8.66,8.66,0,0,1,944.44,231.27Z"/><path class="cls-8" d="M944.08,225.55a3.26,3.26,0,0,1-.83-.09.39.39,0,0,1-.26-.21.38.38,0,0,1,0-.33l1.52-4.36a.42.42,0,0,1,.53-.25.4.4,0,0,1,.25.52l-1.35,3.89a3.25,3.25,0,0,0,1.68-.37.42.42,0,0,1,.56.17.41.41,0,0,1-.17.56A4.06,4.06,0,0,1,944.08,225.55Z"/><path class="cls-8" d="M961.12,232.31c0,.11,1.36,3.16,3.26,4.05h0q.23-1.05.42-2.07A7.83,7.83,0,0,1,961.12,232.31Z"/><path class="cls-21" d="M963,225.36s4-5.37,6.93-1.15c2.42,3.48-2.15,12.54-6.93,9.44Z"/><path class="cls-1" d="M967.1,231.83a1,1,0,1,1-1-1A1,1,0,0,1,967.1,231.83Z"/><path class="cls-8" d="M963.5,232h0a.42.42,0,0,1-.37-.46,7.68,7.68,0,0,1,4.51-6.21.4.4,0,0,1,.53.23.39.39,0,0,1-.23.53h0a6.88,6.88,0,0,0-4,5.54A.41.41,0,0,1,963.5,232Z"/><path class="cls-8" d="M967.34,229.54a.39.39,0,0,1-.26-.1c-.36-.29-1.44-1-2.15-.82a.4.4,0,0,1-.5-.29.42.42,0,0,1,.29-.51c1.24-.31,2.72.85,2.88,1a.42.42,0,0,1-.26.74Z"/><path class="cls-8" d="M966.17,212.66s-5.48,5-7.78,3.76,1.42-5.76,1.42-5.76-8.11,4.39-11.23,3,2.47-5.2,2.47-5.2-6.19,5.51-9.71,5.18,0-4.77,0-4.77-3.23,6.23-5.35,5.7.72-9.49,7.78-12.53S968.76,199.52,966.17,212.66Z"/><path class="cls-8" d="M961.39,214.56S959.59,226,962.46,226s5.78-4.39,3.71-13.37Z"/><path class="cls-1" d="M932.22,222.13l5.32.19v.74h0l-5.34-.19a.38.38,0,0,1-.36-.38A.37.37,0,0,1,932.22,222.13Z"/><path class="cls-1" d="M945.89,221.92a6.24,6.24,0,1,1,6.24,6.24A6.25,6.25,0,0,1,945.89,221.92Zm.74,0a5.5,5.5,0,1,0,5.5-5.5A5.51,5.51,0,0,0,946.63,221.92Z"/><path class="cls-1" d="M931.16,221.92a6.24,6.24,0,1,1,6.24,6.24A6.25,6.25,0,0,1,931.16,221.92Zm.74,0a5.5,5.5,0,1,0,5.5-5.5A5.5,5.5,0,0,0,931.9,221.92Z"/><path class="cls-1" d="M965.71,223.22a.35.35,0,0,0,.14,0,.36.36,0,0,0,.21-.47c-1.64-4.3-8.19-2.1-8.25-2.08a.37.37,0,1,0,.24.7c.06,0,5.93-2,7.32,1.64A.37.37,0,0,0,965.71,223.22Z"/><path class="cls-1" d="M943.22,221a.4.4,0,0,0,.27-.11c1-1,2.57-.16,2.59-.15a.37.37,0,0,0,.37-.64,2.94,2.94,0,0,0-3.49.27.37.37,0,0,0,0,.52A.36.36,0,0,0,943.22,221Z"/><path class="cls-1" d="M979.08,332.65c-.61-2.71-1.22-5.44-1.9-8.14,1.75-.5,3.51-1.05,5.27-1.63,2-.67,4-1.4,6-2.16s3.92-1.56,5.84-2.41,3.78-1.74,5.6-2.68,3.55-1.93,5.17-3c.82-.52,1.6-1,2.33-1.59l1-.82c.34-.28.65-.56.94-.84a11.55,11.55,0,0,0,1.2-1.27l.27-.34,0,0-.35-.43-.62-.75c-.32-.4-.64-.8-1-1.2-.69-.8-1.36-1.6-2.06-2.4l-2.13-2.41c-1.44-1.6-2.87-3.21-4.35-4.81l-1.1-1.21-1.11-1.19-1.56-1.69-.66-.72-.81-.86-1.43-1.53-2.25-2.4-4.52-4.78-9-9.54-.05-.06a10,10,0,0,1,14.46-13.9l2.37,2.43,2.32,2.43c.78.81,1.55,1.63,2.31,2.44l2.3,2.46q2.28,2.47,4.55,5l2.25,2.5.3.34,1.94,2.19c.75.84,1.49,1.69,2.23,2.55l1.11,1.28.5.58.61.71c1.47,1.72,2.94,3.46,4.39,5.22l2.17,2.69c.72.9,1.43,1.83,2.15,2.75.36.45.72.93,1.08,1.41l1.07,1.44.27.36.06.09,0,0,0,.08.23.32c.14.22.29.44.44.65l.21.35.21.36c.14.24.28.48.41.73l.39.8.18.4c.06.14.11.28.17.43s.22.57.32.87.19.61.28.92.16.62.22.95.13.65.18,1,.07.66.1,1l0,.5c0,.17,0,.33,0,.5,0,.34,0,.67,0,1s0,.66-.09,1c0,.16,0,.33-.06.49l-.08.47a17,17,0,0,1-1,3.51c-.23.51-.47,1-.73,1.49l-.39.69-.41.63a22,22,0,0,1-3.44,4.05,32.78,32.78,0,0,1-3.48,2.83c-.57.42-1.14.8-1.71,1.17s-1.13.73-1.7,1.07c-1.13.67-2.24,1.3-3.35,1.88-2.23,1.18-4.45,2.18-6.66,3.12s-4.43,1.76-6.65,2.54-4.43,1.52-6.65,2.2-4.45,1.31-6.69,1.91c-2.06.55-3.44.9-5.55,1.38C980.59,336.2,979.5,334.5,979.08,332.65Z"/><path class="cls-4" d="M986.24,281.74a.58.58,0,0,1-.39-.15L974.08,271.3a.6.6,0,0,1,.79-.9l11.76,10.29a.59.59,0,0,1,.06.84A.58.58,0,0,1,986.24,281.74Z"/><path class="cls-4" d="M978.23,274.64h-4.15a.6.6,0,0,1,0-1.2h4.15a.6.6,0,0,1,0,1.2Z"/><path class="cls-4" d="M1021.72,309.77a.41.41,0,0,1-.23.16.37.37,0,0,1-.31-.05c-3-2-8.1-1.91-10.63-1.74l.27-.34,0,0-.35-.43.74,0c1.5-1.61,5.68-3.32,5.86-3.4a.39.39,0,0,1,.51.22.39.39,0,0,1-.21.51,26.94,26.94,0,0,0-4.94,2.63c2.79,0,6.62.28,9.16,2A.4.4,0,0,1,1021.72,309.77Z"/><path class="cls-21" d="M983.47,325a31.19,31.19,0,0,1-2.77-7.45c-.6-2.95-2.41-3.79-2.41-3.79a25.49,25.49,0,0,0,.21,7.16s-.35-1-2-.62-8.35,2.25-8.35,3.59c0,3.07,7.19,1.21,7.19,1.21s-7.7,1.9-7.38,4c.25,1.72,7.32,1.66,7.32,1.66s-6.79.44-5.84,2.83,7.22.56,7.22.56-4.41,2.43-3.93,3.32c.71,1.28,3.42,1.5,7.7.2S983.47,325,983.47,325Z"/><path class="cls-4" d="M924.22,301.56a.62.62,0,0,1-.48-.23c-6.94-8.91-4.49-14.4-2.69-18.41.34-.75.65-1.46.89-2.14,1.62-4.65,5.23-18.4,5.27-18.53a.6.6,0,1,1,1.16.3c0,.14-3.67,13.93-5.3,18.62-.25.73-.58,1.46-.93,2.24-1.76,3.94-4,8.84,2.55,17.19a.6.6,0,0,1-.11.84A.62.62,0,0,1,924.22,301.56Z"/><path class="cls-1" d="M773.1,137v70.39a6.85,6.85,0,0,0,6.85,6.85H835.7a6.85,6.85,0,0,0,6.85-6.85V137Z"/><rect class="cls-2" x="789.74" y="189.34" width="6.75" height="16.32"/><rect class="cls-3" x="799.7" y="177.75" width="6.75" height="27.9"/><rect class="cls-2" x="810.72" y="169.2" width="6.75" height="36.45"/><rect class="cls-12" x="821.53" y="159.17" width="6.75" height="46.49"/><polygon class="cls-6" points="815.83 152.02 820.51 153.74 819.97 148.26 815.83 152.02"/><path class="cls-6" d="M787.88,181.42a.51.51,0,0,1-.18-1c.21-.08,20.53-7.86,30.44-28.79a.5.5,0,0,1,.91.43c-10.09,21.31-30.79,29.23-31,29.31A.57.57,0,0,1,787.88,181.42Z"/><path class="cls-6" d="M842.55,134.35v9.5H773.1v-9.5a3.43,3.43,0,0,1,3.43-3.42h62.59A3.42,3.42,0,0,1,842.55,134.35Z"/><path class="cls-7" d="M825.73,136.77a2.26,2.26,0,1,1-2.26-2.26A2.26,2.26,0,0,1,825.73,136.77Z"/><path class="cls-3" d="M833.05,136.77a2.26,2.26,0,1,1-2.26-2.26A2.26,2.26,0,0,1,833.05,136.77Z"/><path class="cls-8" d="M840.06,136.77a2.26,2.26,0,1,1-2.26-2.26A2.26,2.26,0,0,1,840.06,136.77Z"/><ellipse class="cls-4" cx="756.87" cy="571.47" rx="55.02" ry="8.48"/><polygon class="cls-13" points="787.9 544.96 786.68 554.66 774.31 554.66 773.59 544.45 787.9 544.96"/><polygon class="cls-13" points="754.83 543.39 753.33 554.66 740.96 554.66 741.44 543.05 754.83 543.39"/><path class="cls-2" d="M710.44,574.19h46.78a6.52,6.52,0,0,0,.62-2.59c.29-4-1-10.28-1.59-14.26-.08-.47-.14-.9-.19-1.29a13,13,0,0,1-.14-1.63c0-3.25-2.88-2.69-2.88-2.69-4.73,4.64-10.09-2.32-13.22,0,0,0-1.35,1-5.07,4.31s-10,5.55-15.4,7.8c-7,2.9-8.91,5.8-9.3,7.8A3.63,3.63,0,0,0,710.44,574.19Z"/><path class="cls-7" d="M710.44,574.19h46.78a6.52,6.52,0,0,0,.62-2.59H710.05A3.63,3.63,0,0,0,710.44,574.19Z"/><path class="cls-7" d="M752.45,574.19h1.39a10.24,10.24,0,0,1-2.52-7.49,13.19,13.19,0,0,1,4.93-9.36c-.08-.47-.14-.9-.19-1.29a14.32,14.32,0,0,0-5.85,10.6A11.35,11.35,0,0,0,752.45,574.19Z"/><path class="cls-7" d="M735.55,558.76a.77.77,0,0,0,.18-1.52l-2.92-.72a.77.77,0,1,0-.37,1.49l2.92.73Z"/><path class="cls-7" d="M738.45,556.33a.78.78,0,0,0,.75-.59.77.77,0,0,0-.56-.93l-2.93-.73a.77.77,0,0,0-.37,1.5l2.93.72A.57.57,0,0,0,738.45,556.33Z"/><path class="cls-7" d="M732.63,560.46a.77.77,0,0,0,.18-1.52l-2.92-.73a.78.78,0,0,0-.94.57.77.77,0,0,0,.57.93l2.92.73Z"/><path class="cls-7" d="M729.7,562.09a.77.77,0,0,0,.75-.58.78.78,0,0,0-.56-.94l-2.92-.72a.77.77,0,1,0-.38,1.49l2.93.73Z"/><path class="cls-7" d="M726.52,563.6a.76.76,0,0,0,.74-.58.77.77,0,0,0-.56-.94l-2.92-.72a.79.79,0,0,0-.94.56.77.77,0,0,0,.57.93l2.92.73A.58.58,0,0,0,726.52,563.6Z"/><path class="cls-7" d="M723.06,564.89a.77.77,0,0,0,.19-1.52l-2.93-.72a.75.75,0,0,0-.93.56.77.77,0,0,0,.56.93l2.92.73Z"/><path class="cls-8" d="M807.12,378.25c-.12.49-.25,1-.39,1.43l0,.06c-.19.63-.41,1.23-.64,1.81-2.1,5.13-18.3,5.88-34.24,4.1-12.37-1.38-24.58-4.29-30-7.88-5-3.36,5.69-34.38,5.69-34.38l60.5,12.69S809.43,369,807.12,378.25Z"/><path class="cls-8" d="M770.68,385.52l-9.91,85.54c2.28,14.39-3.86,73.33-3.86,73.33l-17.81-.54-5.17-78.07c.11-22.6,2.49-53.84,6-87.93.06-.52.11-1.05.17-1.57.17-1.74.36-3.49.54-5.24l.15-1.41,5.83,2.68L748,373l22.88,10.54Z"/><path class="cls-17" d="M754.07,541.94H754a.73.73,0,0,1-.64-.82c6.33-51.49,2.22-72.65,2.18-72.86a.65.65,0,0,1,0-.24l10.69-81.58a.74.74,0,1,1,1.47.19L757,468.09c.33,1.84,3.93,23.49-2.19,73.2A.75.75,0,0,1,754.07,541.94Z"/><path class="cls-17" d="M754.47,359.64c-.07.38-1.53,8-6.43,13.33a17.08,17.08,0,0,1-3.4,2.91,14.39,14.39,0,0,1-3.16,1.53,13.14,13.14,0,0,1-1.55.44c.06-.52.11-1.05.17-1.57.25-.06.49-.14.74-.22a12.89,12.89,0,0,0,3-1.43,15.16,15.16,0,0,0,2.78-2.32c4.88-5.1,6.38-12.86,6.39-12.95a.75.75,0,0,1,.87-.59A.74.74,0,0,1,754.47,359.64Z"/><path class="cls-17" d="M766.7,382.43a.62.62,0,0,0,.59.63h0a.61.61,0,0,0,.65-.57c.11-2.23.24-4.52.38-6.81,0-.4,0-.81.08-1.21.49-7.48,1.1-14.82,1.57-20,0-.42.07-.82.11-1.21.11-1.14.2-2.15.28-3l-1.23-.2c-.08.85-.17,1.87-.27,3,0,.39-.08.8-.12,1.21-.46,5.14-1.07,12.42-1.56,19.85,0,.41,0,.82-.08,1.23C767,377.74,766.82,380.12,766.7,382.43Z"/><path class="cls-17" d="M764.94,374.54a14.54,14.54,0,0,0,2.16.83c.39.12.8.22,1.22.31a9.36,9.36,0,0,0,1.17.15,4.43,4.43,0,0,0,2.08-.32,2.55,2.55,0,0,0,1.41-1.89c.45-2.31,1.39-11.83,2-18.57,0-.41.07-.82.11-1.21.1-1.08.19-2.06.27-2.89l-1.23-.15c-.08.83-.17,1.83-.27,2.92,0,.39-.08.79-.12,1.21-.63,6.72-1.57,16.23-2,18.46a1.35,1.35,0,0,1-.75,1.05,4.4,4.4,0,0,1-2.61,0c-.42-.09-.83-.21-1.22-.33a14.41,14.41,0,0,1-1.69-.67.64.64,0,0,0-.83.27A.58.58,0,0,0,764.94,374.54Z"/><path class="cls-8" d="M808,366.06s-.43,4.82-1.11,12.19c0,.46-.09.93-.13,1.42h0a.13.13,0,0,1,0,.06c0,.48-.09,1-.13,1.47-1.73,18.58-4.69,49.43-6.64,64.27,0,0,.29,27.92-.74,49.47-1,20-7.86,44-8.84,50H772l-.18-2.64V375.82a180.93,180.93,0,0,1,17.12-7l1.45-.48c.91-.29,1.83-.58,2.74-.85l1.45-.41C800.05,365.62,805.13,364.88,808,366.06Z"/><path class="cls-17" d="M788.37,544.13l-.15,0a.73.73,0,0,1-.58-.87c.05-.26,5.07-26.31,7.25-41.07s1.1-56.08,1.09-56.5v-.11c1.63-13.84,5-61.62,5-62.11a.74.74,0,0,1,.79-.68.73.73,0,0,1,.69.79c0,.48-3.35,48.18-5,62.12,0,1.72,1,42.12-1.1,56.71-2.18,14.79-7.22,40.87-7.27,41.14A.74.74,0,0,1,788.37,544.13Z"/><path class="cls-2" d="M769.15,571.19v.33c0,.49,0,.94.06,1.32,0,.84.11,1.36.11,1.36h27.86a15.5,15.5,0,0,0,0-2.68c-.19-2.85-1.13-7.35-5-10.32-5.27-4.07-3.23-3.22-4.32-5.08-.12-.2-1.07-3.36-1.17-3.58-.9-1.92-1.74-2.84-6.73-2.84-6.62,0-7.2,3.22-7.91,4.91a32,32,0,0,0-1.1,3.93c-.17.71-.34,1.46-.5,2.23-.41,1.92-.79,3.92-1,5.52A28.58,28.58,0,0,0,769.15,571.19Z"/><path class="cls-7" d="M769.15,571.19v.33c0,.49,0,.94.06,1.32a7.82,7.82,0,0,0,2.89-3.75c1.72-4.7-.93-10.34-1-10.57l0,0c-.17.71-.34,1.46-.5,2.23.63,1.91,1.35,5.14.35,7.86A6.49,6.49,0,0,1,769.15,571.19Z"/><path class="cls-7" d="M769.15,571.52c0,1.59.17,2.68.17,2.68h27.86a15.5,15.5,0,0,0,0-2.68Z"/><path class="cls-7" d="M779.1,558.39l.2,0a13.78,13.78,0,0,1,6.46-.14.79.79,0,0,0,.43-1.53,15.2,15.2,0,0,0-7.29.13.8.8,0,0,0-.57,1A.81.81,0,0,0,779.1,558.39Z"/><path class="cls-7" d="M778.67,555.39l.2,0a13.71,13.71,0,0,1,6.46-.13.79.79,0,0,0,.42-1.53,15.21,15.21,0,0,0-7.28.12.8.8,0,0,0,.2,1.57Z"/><path class="cls-7" d="M780.29,560.91a.64.64,0,0,0,.2,0,13.87,13.87,0,0,1,6.46-.13.79.79,0,0,0,1-.56.78.78,0,0,0-.55-1,15.26,15.26,0,0,0-7.29.12.8.8,0,0,0,.2,1.57Z"/><path class="cls-7" d="M781.69,563.77l.2,0a13.86,13.86,0,0,1,6.47-.14.79.79,0,0,0,.42-1.53,15.19,15.19,0,0,0-7.29.13.8.8,0,0,0-.57,1A.81.81,0,0,0,781.69,563.77Z"/><path class="cls-17" d="M806.73,379.67h0a.13.13,0,0,1,0,.06c0,.48-.09,1-.13,1.47a12,12,0,0,1-6.17-.56c-3.8-1.37-6.78-4.48-8.94-7.58a36.61,36.61,0,0,1-2.53-4.21,37.75,37.75,0,0,1-1.77-4,.76.76,0,0,1,.45-.95.74.74,0,0,1,1,.45,34.18,34.18,0,0,0,1.82,4,35,35,0,0,0,2.35,3.88c2,2.89,4.77,5.76,8.18,7A10.58,10.58,0,0,0,806.73,379.67Z"/><path class="cls-13" d="M695.7,335.37c-1.12-.78-3.39-.12-5.18-.27a21.13,21.13,0,0,0-7.91,1c-3,1.18-11.44,5.11-12.37,7.57s6.65-.35,8.22-.9a6.26,6.26,0,0,1,2.83-.34s-16.9,7.82-17.42,9.86,9.54-1.45,12-2.33c0,0-12.41,6.6-12.33,8,.16,2.8,14.15-4.13,14.15-4.13s-10.16,6.09-9.11,7.73,12-4.81,12-4.81-6,4.93-5.78,6.76,13.74-7.56,15.64-9.25,7.4-5.83,9.47-8.43C701.31,344.09,699.23,337.83,695.7,335.37Z"/><path class="cls-19" d="M685,355.73a.52.52,0,0,1-.68.1,14.91,14.91,0,0,1-6.07-9.81.52.52,0,0,1,1-.13h0c0,.06.81,5.9,5.6,9.06a.53.53,0,0,1,.15.73Z"/><path class="cls-19" d="M693.49,345.65a.51.51,0,0,1-.56.15c-5.91-2-9.22,1.61-9.25,1.65a.51.51,0,0,1-.74,0,.53.53,0,0,1-.05-.73h0c.15-.17,3.81-4.16,10.36-1.95a.53.53,0,0,1,.33.67A.59.59,0,0,1,693.49,345.65Z"/><path class="cls-2" d="M768.22,255.71l-.08,1.19-.1,1q-.09,1-.21,1.95c-.16,1.29-.34,2.55-.54,3.81-.4,2.51-.91,5-1.46,7.44s-1.22,4.89-1.92,7.32-1.5,4.82-2.37,7.2-1.8,4.74-2.82,7.08-2.11,4.64-3.3,6.92-2.44,4.52-3.8,6.72-2.77,4.37-4.3,6.47c-.76,1.06-1.54,2.1-2.35,3.13l-.3.39-.37.46-.76.91c-.25.3-.5.56-.75.85l-.73.8a79.61,79.61,0,0,1-5.78,5.54c-3.81,3.35-7.64,6.32-11.52,9.18q-2.91,2.13-5.84,4.17c-2,1.34-3.94,2.67-5.92,4s-4,2.57-6,3.82l-3,1.84-1.54.91-.77.45-.81.47-11.23-16.92,10.63-8.34c1.78-1.39,3.55-2.79,5.29-4.2s3.49-2.81,5.21-4.22,3.41-2.82,5.06-4.25,3.26-2.85,4.79-4.26c.76-.71,1.5-1.41,2.19-2.11s1.37-1.38,2-2l.43-.48.39-.46.34-.42.17-.22.23-.3q.91-1.2,1.8-2.43a106.16,106.16,0,0,0,11.68-21.71c.39-1,.76-2,1.12-2.93s.73-2,1.08-3c.69-2,1.31-4,1.91-6s1.13-4.05,1.64-6.07c.25-1,.47-2,.69-3,.11-.49.21-1,.31-1.47l.14-.71.06-.32,0-.15v-.08h0v0Z"/><path class="cls-7" d="M708.67,344.89a.59.59,0,0,1-.5-.26l-11.28-17a.6.6,0,0,1,1-.66l11.28,17a.61.61,0,0,1-.17.83A.58.58,0,0,1,708.67,344.89Z"/><path class="cls-7" d="M693,337.4a.57.57,0,0,1-.49-.27.59.59,0,0,1,.16-.83l7.32-4.95a.6.6,0,0,1,.67,1l-7.32,4.95A.7.7,0,0,1,693,337.4Z"/><path class="cls-7" d="M697.55,338.32a1.4,1.4,0,1,0,2.79-.24,1.4,1.4,0,0,0-2.79.24Z"/><path class="cls-7" d="M731.48,314a.61.61,0,0,1-.52-.3,29.19,29.19,0,0,0-7.5-7.91.6.6,0,0,1,.68-1,30.06,30.06,0,0,1,7.86,8.3.61.61,0,0,1-.22.82A.64.64,0,0,1,731.48,314Z"/><path class="cls-7" d="M731.9,307.55l-.14,0s-4.73-1.2-7.82-1.69a.6.6,0,0,1,.2-1.19c3.13.51,7.86,1.71,7.91,1.72a.6.6,0,0,1-.15,1.18Z"/><path class="cls-1" d="M817,311.8c-.11,1.57-.23,3.15-.39,4.73-.81,7.92-3.79,34.41-6.51,41.83a67.2,67.2,0,0,1-32.1,6.25c-2-.08-4.08-.25-6.08-.49-1.77-.22-3.52-.49-5.23-.82-11.19-2.14-21-6.63-27.06-12.3,2.85-11.12,6.16-31.28,7.4-39.93.23-1.61.44-3.18.62-4.71s.34-2.95.48-4.37c.16-1.62.3-3.2.42-4.73s.21-3.23.29-4.77.13-3.22.16-4.75c.4-20.81-3.42-31.08-2.43-36.06,1.5-7.51,8.44-7.42,14.76-9.79.37-.13.74-.28,1.1-.44l.73-.33a14.08,14.08,0,0,0,5.77-4.83h18.57a26.3,26.3,0,0,0,4.2,2.6l.79.39c.67.31,1.4.63,2.2.93a35.18,35.18,0,0,0,7,1.84c8.32,1.33,13.11,10.17,14,24.52.45,7.25.94,14.08,1.26,20.67,0,.43,0,.87.06,1.31A207.16,207.16,0,0,1,817,311.8Z"/><polygon class="cls-3" points="765.74 322.43 768.93 330.14 768.93 330.14 770.36 333.6 774.41 343.39 776.37 339.61 777.06 338.27 778.63 335.24 779.33 333.9 780.89 330.88 781.59 329.54 783.16 326.51 783.16 326.51 783.85 325.17 785.32 322.32 785.29 322.01 785.06 319.76 784.54 314.64 784.31 312.38 783.79 307.25 783.56 305 783.04 299.88 782.81 297.62 782.29 292.49 782.06 290.24 781.54 285.11 781.31 282.86 780.78 277.74 780.55 275.47 780.03 270.36 779.8 268.1 779.28 262.97 779.05 260.71 778.51 255.42 774.6 255.27 774.49 256.15 774.25 257.94 773.71 262 773.48 263.8 772.94 267.86 772.7 269.65 772.17 273.72 771.93 275.51 771.39 279.57 771.16 281.37 770.62 285.43 770.38 287.22 769.85 291.29 769.61 293.08 769.08 297.14 768.84 298.94 768.3 303 768.07 304.79 767.53 308.85 767.29 310.65 766.76 314.71 766.52 316.5 765.99 320.56 765.75 322.36 765.74 322.43"/><path class="cls-2" d="M817,311.8c-.11,1.57-.23,3.15-.39,4.73-.81,7.92-3.79,34.41-6.51,41.83a67.2,67.2,0,0,1-32.1,6.25l-5.67-8.92-5.64,7.61c-11.19-2.14-21-6.63-27.06-12.3,1-4,2.13-9.25,3.16-14.67.25-1.3.49-2.62.73-3.93,1.52-8.31,2.83-16.57,3.51-21.33.23-1.61.44-3.18.62-4.71s.34-2.95.48-4.37c.16-1.62.3-3.2.42-4.73s.21-3.23.29-4.77.13-3.22.16-4.75c.4-20.81-3.42-31.08-2.43-36.06,1.5-7.51,8.44-7.42,14.76-9.79l.31.16,13.91,61,18.8-62.77.34-.08a35.18,35.18,0,0,0,7,1.84c8.32,1.33,13.11,10.17,14,24.52.45,7.25.94,14.08,1.26,20.67,0,.43,0,.87.06,1.31A207.16,207.16,0,0,1,817,311.8Z"/><path class="cls-7" d="M759.22,331.38a120,120,0,0,1-16.4,4.95c.25-1.3.49-2.62.73-3.93,6.86-1.7,14.81-4.23,14.81-4.23Z"/><path class="cls-7" d="M791.92,331.35s13.53,8.09,19.71,10.4l-1.87,3.3s-11.76-5.32-19.41-10.77Z"/><path class="cls-7" d="M761.68,242.05a6.59,6.59,0,0,0-8.36,2.34l3.14,20,7,4.15-4.74,2.84,5.35,23.24,11.51,8.45Z"/><path class="cls-7" d="M791.66,240.21s5.1-3.25,8.63,1.59L796,264.38l-7,4.15,4.74,2.84-5.35,23.24-12.78,8.45Z"/><path class="cls-7" d="M771.76,349.5a1.4,1.4,0,0,0,2.79-.24,1.4,1.4,0,1,0-2.79.24Z"/><path class="cls-7" d="M772.33,339.12a1.42,1.42,0,0,0,1.52,1.28,1.4,1.4,0,0,0,1.27-1.52,1.39,1.39,0,0,0-1.51-1.27A1.4,1.4,0,0,0,772.33,339.12Z"/><path class="cls-7" d="M772.91,328.74a1.4,1.4,0,1,0,1.27-1.51A1.39,1.39,0,0,0,772.91,328.74Z"/><path class="cls-7" d="M773.48,318.37a1.4,1.4,0,0,0,2.79-.24,1.4,1.4,0,1,0-2.79.24Z"/><path class="cls-7" d="M774.05,308a1.42,1.42,0,0,0,1.52,1.28,1.4,1.4,0,0,0,1.27-1.52,1.39,1.39,0,0,0-1.51-1.27A1.4,1.4,0,0,0,774.05,308Z"/><path class="cls-7" d="M746.85,313.1h-.15a.61.61,0,0,1-.43-.73c2.24-8.66,2.86-22.5,1.75-39,0-.24,0-.43,0-.57a.6.6,0,0,1,.56-.63.59.59,0,0,1,.63.56c0,.14,0,.32,0,.56,1.11,16.59.48,30.56-1.79,39.34A.59.59,0,0,1,746.85,313.1Z"/><path class="cls-8" d="M785.33,219.68a20.84,20.84,0,0,0,7.37-13.41c.93-8.55-5.22-11.63-5.22-11.63s3.28-8.4-8-8.09-18.34-4.51-23.76-3.69-.33,13.64,6.44,13.07S787.48,205.38,785.33,219.68Z"/><path class="cls-13" d="M768.21,233.41v4.83a16.16,16.16,0,0,0,1.71,1.2c8.39,5,17.45-1.2,17.45-1.2V221.48L770.49,232Z"/><path class="cls-8" d="M768.21,233.41v4.83a16.16,16.16,0,0,0,1.71,1.2c7.15-2.83,12.35-10.33,12.35-10.33L770.49,232Z"/><path class="cls-8" d="M767.2,194.06s-11.68,1.1-7.46,13.31C759.74,207.37,767.47,197.25,767.2,194.06Z"/><path class="cls-19" d="M762.17,212s-2.74-3.24-4.3,0-.35,9.81,3.82,8.73Z"/><path class="cls-13" d="M759.24,223.36s0,10,10.38,10,17.37-8.13,17.73-8.51h0l.11-2.1.59-10.9.31-5.82s1.32-10.49-8.65-12.4c-7.28-1.4-14.11-.19-17.56,3.61a8.9,8.9,0,0,0-2.28,5.26l-.32,10.46-.08,2.57Z"/><path class="cls-8" d="M782.83,212s-2.71,5.57-5.89,4.62-6.85-1.35-9.74,0c0,0-4.86-1.81-7.76.19-1.94,1.34-.83,14.6,6,16.51s16-.49,18.26-6.94a37.67,37.67,0,0,0,2.08-11.93Z"/><path class="cls-19" d="M773.12,214.21c0,.73,1.5,1.32,3.35,1.32s3.34-.59,3.34-1.32-1.49-1.32-3.34-1.32S773.12,213.48,773.12,214.21Z"/><g class="cls-24"><path class="cls-19" d="M759.49,215.49c.25,0,.53,0,.8,0,1.85,0,3.35-.59,3.35-1.32s-1.5-1.32-3.35-1.32q-.37,0-.72,0Z"/></g><path class="cls-8" d="M772.51,210.21c0,1,.45,1.8,1,1.8s1-.81,1-1.8-.46-1.81-1-1.81S772.51,209.21,772.51,210.21Z"/><ellipse class="cls-8" cx="763.64" cy="210.21" rx="1.01" ry="1.81"/><path class="cls-8" d="M768.43,215.24a.42.42,0,0,0,0-.83,2.82,2.82,0,0,1-2.46-1.14c1.64-3.38,3.27-6.79,3.29-6.82a.41.41,0,1,0-.74-.36s-1.71,3.58-3.38,7a.36.36,0,0,0,0,.35A3.5,3.5,0,0,0,768.43,215.24Z"/><path class="cls-8" d="M778.23,205.62c-.23-1.05-1.11-3-4.48-3.19a.9.9,0,0,0-.89.66h0a.88.88,0,0,0,.69,1.1,4,4,0,0,1,2.93,2.11.89.89,0,0,0,1.25.33l.1-.06A.88.88,0,0,0,778.23,205.62Z"/><path class="cls-8" d="M761,205.62c.23-1.05,1.1-3,4.48-3.19a.9.9,0,0,1,.89.66h0a.88.88,0,0,1-.69,1.1,4,4,0,0,0-2.94,2.11.87.87,0,0,1-1.24.33l-.11-.06A.89.89,0,0,1,761,205.62Z"/><path class="cls-17" d="M766.77,220.77c3.65,0,6.64-3.13,6.68-3.17a.4.4,0,0,0,0-.58.41.41,0,0,0-.58,0c-.19.21-4.83,5.05-9.34,1.83a.42.42,0,0,0-.58.1.41.41,0,0,0,.1.57A6.33,6.33,0,0,0,766.77,220.77Z"/><path class="cls-8" d="M784.1,220.77c0,.11,1.36,3.16,3.26,4h0l.11-2.1A7.2,7.2,0,0,1,784.1,220.77Z"/><path class="cls-13" d="M785.93,213.83s4-5.37,6.92-1.15c2.42,3.48-2.14,12.53-6.92,9.43Z"/><path class="cls-8" d="M786.48,220.49a.41.41,0,0,0,.41-.36,6.86,6.86,0,0,1,4-5.54.41.41,0,0,0,.23-.53.42.42,0,0,0-.54-.23,7.68,7.68,0,0,0-4.5,6.21.41.41,0,0,0,.36.45Z"/><path class="cls-8" d="M790.31,218a.41.41,0,0,0,.26-.73c-.16-.13-1.63-1.29-2.87-1a.41.41,0,0,0,.21.8c.7-.18,1.81.55,2.15.82A.38.38,0,0,0,790.31,218Z"/><path class="cls-8" d="M762.17,197.2a1.7,1.7,0,0,0,.46.89c2,2.12,6.79,1.37,11.21,0a7.78,7.78,0,0,1,7.53,1.85c-1.23,4.23,2.93,4.57,2,7.78a25.64,25.64,0,0,0-.55,7.45l2.6-.35a6.38,6.38,0,0,1,2.6-3l.31-5.82s1.32-10.49-8.65-12.4C772.45,192.19,765.62,193.4,762.17,197.2Z"/><path class="cls-1" d="M787.35,233.06s2.8.84,4.31,7.15c-1.93,5.75-7.41,10.58-15.09,12V240.92A19.93,19.93,0,0,0,787.35,233.06Z"/><path class="cls-1" d="M768.21,234.69s-4.62,1.06-6.53,7.36c5,6,7.61,8.31,14.89,10.16V240.92S772.21,240.85,768.21,234.69Z"/><polygon class="cls-3" points="781.79 250.56 776.57 258.32 771.57 250.56 776.57 244.08 781.79 250.56"/><path class="cls-4" d="M766.05,258.51a.58.58,0,0,1-.36-.12.6.6,0,0,1-.12-.84l10.52-13.83a.64.64,0,0,1,.46-.24.61.61,0,0,1,.47.21l10.44,11.94a.6.6,0,0,1-.06.85.59.59,0,0,1-.84-.06L776.6,245l-10.08,13.24A.57.57,0,0,1,766.05,258.51Z"/><path class="cls-4" d="M776.57,244.68h0a.59.59,0,0,1-.59-.6l0-2.64a.6.6,0,0,1,.6-.59h0a.59.59,0,0,1,.59.6v2.64A.61.61,0,0,1,776.57,244.68Z"/><path class="cls-13" d="M807.4,355.35c-1.31-.35-3.23,1-5,1.48a21,21,0,0,0-7.12,3.63c-1,.84-5.76,6.34-7.93,8.74a1.35,1.35,0,0,0,.06,1.91c.71.64,2.2.63,5.08-2,.14-.11,1-.88,1.11-1a6.32,6.32,0,0,1,2.55-1.27s-1.6,1.45-4.34,4.07c3,5.2,7.89,10.15,14.37,8.84a40.93,40.93,0,0,0,2.55-4.82c1.22-2.23,5-8,6.1-11.11C815.61,361.7,811.55,356.49,807.4,355.35Z"/><path class="cls-2" d="M809.86,246.77l.59.47.47.39.88.74c.57.49,1.12,1,1.66,1.46,1.08,1,2.11,2,3.13,3q3,3,5.85,6.16a119.78,119.78,0,0,1,10.32,13.47,110.69,110.69,0,0,1,8.33,15c1.18,2.63,2.27,5.32,3.23,8.07.48,1.37.92,2.76,1.35,4.16.2.7.41,1.4.6,2.11l.14.53.08.26.14.55a19.11,19.11,0,0,1,.44,2.58c.07.78.1,1.51.1,2.17s0,1.28-.09,1.86a28.61,28.61,0,0,1-.46,3.15,41.68,41.68,0,0,1-1.37,5.06c-.52,1.54-1.07,3-1.64,4.33s-1.17,2.69-1.78,4c-1.22,2.57-2.5,5-3.82,7.39s-2.67,4.7-4.06,7c-2.76,4.55-5.65,9-8.61,13.28q-2.24,3.24-4.53,6.43-1.14,1.59-2.31,3.18l-1.18,1.58-1.22,1.61-16-11.23.95-1.53,1-1.59,2-3.18q1.93-3.19,3.8-6.42c2.51-4.29,4.93-8.61,7.2-12.92q1.71-3.24,3.27-6.47c1-2.14,2-4.28,2.87-6.37a59,59,0,0,0,2.13-6,18.26,18.26,0,0,0,.51-2.35,3.76,3.76,0,0,0,0-.65s0-.08,0,0a1.77,1.77,0,0,0,0,.25,4.72,4.72,0,0,0,.1.7l0,.12v0h0l0-.05-.06-.2-.13-.38c-.16-.52-.34-1-.52-1.55-.36-1-.74-2.06-1.16-3.07-.81-2-1.74-4-2.73-6a91.35,91.35,0,0,0-6.94-11.49c-1.3-1.85-2.68-3.65-4.11-5.42s-2.92-3.5-4.46-5.17-3.12-3.32-4.75-4.88c-.81-.78-1.63-1.54-2.45-2.27-.41-.36-.81-.72-1.21-1.06l-.59-.5-.42-.34Z"/><path class="cls-7" d="M824.32,309.06a.6.6,0,0,1-.13-1.18,61.07,61.07,0,0,1,9.29-1.35.6.6,0,1,1,.06,1.2,61.59,61.59,0,0,0-9.09,1.31Z"/><path class="cls-7" d="M824.67,309a.6.6,0,0,1-.36-1.07c2-1.54,4.82-3.25,4.94-3.33a.59.59,0,0,1,.82.21.58.58,0,0,1-.2.82s-2.88,1.75-4.84,3.25A.58.58,0,0,1,824.67,309Z"/><path class="cls-7" d="M817,295.21a.61.61,0,0,1-.51-.28c-.1-.16-10.79-16.66-17.69-22.6a.59.59,0,0,1-.06-.84.6.6,0,0,1,.84-.07c7,6.05,17.48,22.18,17.92,22.86a.6.6,0,0,1-.18.83A.55.55,0,0,1,817,295.21Z"/><path class="cls-7" d="M802.86,276.12h-.09l-5.13-.77a.6.6,0,1,1,.18-1.18l5.13.77a.6.6,0,0,1-.09,1.19Z"/><path class="cls-7" d="M821.43,359.14a.61.61,0,0,1-.34-.1l-15.86-10.89a.6.6,0,0,1-.15-.83.61.61,0,0,1,.83-.16l15.86,10.89a.6.6,0,0,1-.34,1.09Z"/><path class="cls-7" d="M811.89,363.66a.58.58,0,0,1-.33-.1.61.61,0,0,1-.17-.83l4.88-7.37a.6.6,0,0,1,.83-.17.61.61,0,0,1,.17.83l-4.88,7.37A.6.6,0,0,1,811.89,363.66Z"/><path class="cls-7" d="M809.25,357.52a1.4,1.4,0,1,0,2.48-1.29,1.4,1.4,0,1,0-2.48,1.29Z"/></g></g></svg>