<svg xmlns="http://www.w3.org/2000/svg" viewBox="0 0 914.81 426"><defs><style>.cls-1{fill:#2196f3;}</style></defs><g id="Layer_2" data-name="Layer 2"><g id="Layer_1-2" data-name="Layer 1"><path class="cls-1" d="M473.05,296.15c-13.26,1.8-20.17-10.14-25.62-19.9-2.09-3.24-3.14-4.85-5.24-8.08q-24.3,2.54-48.51,5.78c-2.54,10.07-3.78,15.1-6.21,25.18-.63,3.36-2.72,6-6.19,6.49-8.45,1.2-12.68,1.83-21.11,3.14-3.48.53-6.51-1.33-7-4.31q14.71-63.87,32.34-127a8.58,8.58,0,0,1,7.36-6.32c10.36-1.31,15.55-1.93,25.92-3.09a8.58,8.58,0,0,1,8.64,4.41q26.32,46.36,50.89,93.65c2,4.25,4.48,7.37,6.73,8.29a5.65,5.65,0,0,1,3.64,4.59l.65,8.09C489.82,292.87,479.68,295.25,473.05,296.15Zm-72.73-48.33q14.76-1.89,29.56-3.52-9.57-18.11-19.42-36.05Q405.24,228,400.32,247.82Z"/><path class="cls-1" d="M541.25,158.32c29.4-2,59.22,9,59.74,42.43.51,32.44-26.75,44.81-55.59,45.61-8.72.41-13.08.64-21.79,1.15q1.13,19.11,2.26,38.2c.18,3-2.38,5.49-5.87,5.71-8,.5-11.95.77-19.91,1.36-3.49.26-6.36-1.85-6.59-4.85l-9.36-120.71c-.23-3,2.48-5.54,6.23-5.82C507.32,160.16,524.28,159.1,541.25,158.32Zm23.84,43.35c-.46-12-11.15-19.45-22.67-18.56-9,.42-13.53.66-22.55,1.2q1.14,19.22,2.27,38.43c8.84-.52,13.25-.76,22.09-1.17C555.59,221.47,565.55,213.57,565.09,201.67Z"/><path class="cls-1" d="M665.14,156.54c29.45-.07,58.5,12.82,56.84,46.23-1.61,32.41-29.62,43-58.45,41.88-8.72-.15-13.08-.21-21.81-.26q-.12,19.13-.23,38.27c0,3-2.73,5.31-6.23,5.3-8,0-12,0-19.94.06-3.5,0-6.23-2.25-6.26-5.27l-1.47-121.06c0-3,2.83-5.37,6.59-5.4C631.17,156.16,648.15,156.21,665.14,156.54Zm21,44.81c.33-12-9.85-20.14-21.41-20-9-.17-13.54-.22-22.57-.28q-.12,19.26-.23,38.5c8.84.06,13.26.11,22.1.27C675.33,220.48,685.78,213.25,686.09,201.35Z"/><path class="cls-1" d="M821.78,213.9l-8.13,78.2c-.31,3-3.23,5-6.72,4.68-5.58-.56-8.37-.83-14-1.34-3.49-.33-5.27-1.65-7.49-4.17-1.57-1.82-2.36-2.72-4-4.53a45.65,45.65,0,0,1-26.8,6.75c-25.82-1.76-37.16-24.19-36.25-47.7,1.27-32.82,31.48-49.65,61.73-47.13a132.47,132.47,0,0,1,37.65,9A6.17,6.17,0,0,1,821.78,213.9Zm-34.92,10.44c-17.45.09-31.64,4.32-33.09,23.75-.78,10.43,3.26,21.09,15,21.55,8.15.32,14.68-4.86,14.68-4.86Z"/><path class="cls-1" d="M900.86,282.23a6.09,6.09,0,0,1,5.36,4.82c.88,5.68,1.32,8.52,2.18,14.19-.47,3-1.1,5.22-5.33,6-7.57,1.17-15.51.57-21.56-.17-31.32-3.88-41.65-26.76-38.25-55.76.94-7.92,1.41-11.88,2.34-19.81-5.35-.63-8-.93-13.37-1.52-3.62-.4-6.17-3-5.85-6,.61-5.63.91-8.44,1.51-14.07.32-3,3.39-5,7.06-4.6,5.43.6,8.14.91,13.56,1.55q4.46-15.83,9-31.63a6.38,6.38,0,0,1,7.26-4.49c6.44.8,9.67,1.22,16.11,2.08,3.74.49,6.3,3.18,5.89,6.17q-2.19,16.1-4.39,32.17c10.71,1.47,16.06,2.24,26.75,3.85,3.66.56,6.11,3.29,5.65,6.27-.86,5.59-1.3,8.38-2.16,14-.47,3-3.6,4.84-7.21,4.29-10.54-1.6-15.82-2.36-26.39-3.8-1.31,9.65-2,14.48-3.29,24.13-2.11,10.39,2.12,20.53,13.57,22.06C893,282.41,897.07,281.66,900.86,282.23Z"/><path class="cls-1" d="M96.76,204.47a46.75,46.75,0,0,0-.73-5.53,101.29,101.29,0,0,1-.57-20,80.09,80.09,0,0,1,3.44-18.51,77.91,77.91,0,0,1,16.48-29.06c.11-.12.25-.22.47-.42a1.23,1.23,0,0,1-.48,1,103.8,103.8,0,0,0-11,17.51,70.1,70.1,0,0,0-6,19.28,86.75,86.75,0,0,0-1.15,16.49,101.23,101.23,0,0,0,1.82,16.55c.54,2.8,1.15,5.58,1.92,8.32.12.41.28.79.42,1.19l.17.9a54.24,54.24,0,0,0,2.16,6.65c0-.45,0-.91,0-1.36a8.85,8.85,0,0,1,6-7.91c.65-.19.86,0,1,.63.8,3.5-1.56,8.09-5,9.73-1.51.71-1.53.72-1,2.29s1.19,3.06,1.86,4.57a18.15,18.15,0,0,1,.34-3.54,9.27,9.27,0,0,1,5.21-6c1-.47,1.16-.36,1.41.76A10,10,0,0,1,109,228.17c-1.53.88-1.54.93-.79,2.53s1.34,2.93,2.11,4.38a9.57,9.57,0,0,1,1.19-6.21,9.69,9.69,0,0,1,4.15-3.94c.72-.37,1.12-.3,1.36.58a10,10,0,0,1-1.67,8.71,9.61,9.61,0,0,1-3.14,2.94c-.31.17-.71.36-.52.78a44.12,44.12,0,0,0,2.77,5.25c.09-1.26.11-2.19.23-3.11.44-3.29,2.38-5.55,5.07-7.27.67-.44,1-.13,1.26.52a10.55,10.55,0,0,1-.44,8,9.38,9.38,0,0,1-3.38,4.09,1.29,1.29,0,0,0-.38,2c.89,1.39,1.74,2.8,2.8,4.15a17.14,17.14,0,0,1-.13-1.89,10.6,10.6,0,0,1,4.77-8.73c.74-.51,1.17-.39,1.53.44a11.14,11.14,0,0,1-2.53,12.07c-1.58,1.63-1.61,1.6-.25,3.45a87.62,87.62,0,0,0,15.23,16.43A53.17,53.17,0,0,0,148.42,280c1.41.69,1.42.76.13,1.75-.64.49-1.3,1-1.92,1.48a1.42,1.42,0,0,1-1.82.17,66.54,66.54,0,0,1-14.91-11.49A108.38,108.38,0,0,1,120,260c-.42-.56-.79-1.16-1.16-1.76a1,1,0,0,0-1.43-.4c-4.92,2.53-10.87.44-13.84-4-.6-.89-.55-1.11.47-1.55,3.69-1.58,7.21-1,10.62.9l1.09.64a.92.92,0,0,0,.26,0c-1-1.7-2-3.3-2.88-4.92-.37-.63-.85-.55-1.45-.33A10.09,10.09,0,0,1,101,246.56a12.41,12.41,0,0,1-1.87-2.28c-.78-1.1-.66-1.46.66-1.84a11.22,11.22,0,0,1,9.5,1.44c.5.31,1,.68,1.48,1.06.16-.35-.08-.57-.18-.8l-1.87-3.9c-.3-.62-.67-1.06-1.48-.75A9.9,9.9,0,0,1,95.49,235a6,6,0,0,1-.31-.55c-.48-1-.39-1.23.65-1.49a10.46,10.46,0,0,1,8.32,1.28,20.15,20.15,0,0,1,2.72,2.07c-.78-1.86-1.55-3.72-2.34-5.58-.25-.57-.7-.31-1.09-.2a9.48,9.48,0,0,1-11.12-5.09c-.64-1.37-.52-1.62,1-1.83a9.83,9.83,0,0,1,9,3.25c.17.18.34.36.52.52a2.06,2.06,0,0,0,.45.23c-.66-1.92-1.25-3.7-1.88-5.46-.25-.68-.81-.4-1.27-.3a8.47,8.47,0,0,1-7.58-2,9.49,9.49,0,0,1-2.67-3.75c-.46-1.15-.29-1.45.95-1.53a9.71,9.71,0,0,1,8.58,3.65c.27.32.51.66.83,1.08a1.07,1.07,0,0,0,0-.93c-.4-1.46-.85-2.9-1.22-4.37-.17-.64-.45-.85-1.12-.71a8.54,8.54,0,0,1-9.63-5.9c-.37-1.16-.25-1.4,1-1.42a9.08,9.08,0,0,1,8.35,4.58,4.8,4.8,0,0,0,.84,1.13c-.54-2.3-1.07-4.6-1.61-6.9Z"/><path class="cls-1" d="M101.61,212.16l-.17-.9c0-2.26.29-4.42,1.9-6.18a9.6,9.6,0,0,1,4-2.68c1-.33,1.31,0,1.37.94a9.2,9.2,0,0,1-6.25,8.83A1.06,1.06,0,0,1,101.61,212.16Z"/><path class="cls-1" d="M96.76,204.47l.07.37c-1.28.9-2.68.51-3.93.13-3.13-.94-4.9-3.22-5.68-6.34-.19-.77.26-.92.87-.92A8.42,8.42,0,0,1,93.91,200,11.12,11.12,0,0,1,96.76,204.47Z"/><path class="cls-1" d="M103.48,203a7.63,7.63,0,0,1-2.25,1.17c-1.18.47-1.5.23-1.51-1.07a7.54,7.54,0,0,1,4.78-7.15c.72-.3,1.59-.94,2.26-.4s.22,1.46.11,2.21A8.82,8.82,0,0,1,103.48,203Z"/><path class="cls-1" d="M93.79,193.24a7.58,7.58,0,0,1,1.57,3.26c.23.85-.12,1.07-.89,1.05a8.08,8.08,0,0,1-7.58-6.71c-.13-.87.23-1.1,1-1A7.86,7.86,0,0,1,93.79,193.24Z"/><path class="cls-1" d="M102.68,195.36a7.29,7.29,0,0,1-3.1,1.49c-.67.16-1,0-1-.76a7.28,7.28,0,0,1,6.53-7.21c.64-.07.77.22.76.8A7.27,7.27,0,0,1,102.68,195.36Z"/><path class="cls-1" d="M93.11,185.44a7.92,7.92,0,0,1,1.6,3.85c.1.6-.11.87-.73.82a7.21,7.21,0,0,1-6.8-7c-.05-.68.4-.72.91-.64A7.69,7.69,0,0,1,93.11,185.44Z"/><path class="cls-1" d="M100.91,183.9a7.34,7.34,0,0,1,3.4-1.23c.66-.06,1,.2,1,.9-.13,2.85-3.74,6.25-6.62,6.26-.72,0-.68-.46-.67-.92A6.81,6.81,0,0,1,100.91,183.9Z"/><path class="cls-1" d="M89.18,180.33A7.19,7.19,0,0,1,88,176.5c0-.74.26-1.07,1-.89a7.42,7.42,0,0,1,5.65,7c0,.57-.37.57-.79.54A6.91,6.91,0,0,1,89.18,180.33Z"/><path class="cls-1" d="M102.48,181.67a7,7,0,0,1-3.24,1.46c-1.19.28-1.5,0-1.28-1.23a6.34,6.34,0,0,1,6.44-5c.63,0,.8.32.64.89A6.6,6.6,0,0,1,102.48,181.67Z"/><path class="cls-1" d="M93.42,171.61A7.37,7.37,0,0,1,95,175.46c.12,1.12-.15,1.33-1.22,1.11a6.42,6.42,0,0,1-4.59-6.71c.09-.69.48-.66,1-.56A6.52,6.52,0,0,1,93.42,171.61Z"/><path class="cls-1" d="M100.42,172.81a5.52,5.52,0,0,1,4-1.2c.65,0,.84.31.66,1a6.58,6.58,0,0,1-6.22,4.48c-.66-.05-.77-.38-.65-.91A5.26,5.26,0,0,1,100.42,172.81Z"/><path class="cls-1" d="M91.73,168.46a5.78,5.78,0,0,1-1-4.11c.06-.76.43-.91,1.06-.65a6.41,6.41,0,0,1,3.94,6.4c0,.59-.38.69-.87.56A5.44,5.44,0,0,1,91.73,168.46Z"/><path class="cls-1" d="M103.63,170.14a6.5,6.5,0,0,1-3.92,1.28c-.64,0-.88-.16-.75-.86a5.45,5.45,0,0,1,6.15-3.87c.62.17.68.49.45,1A5.91,5.91,0,0,1,103.63,170.14Z"/><path class="cls-1" d="M93.5,163.48a5.62,5.62,0,0,1-1-4.32c.1-.65.32-.84,1-.57a6.12,6.12,0,0,1,3.32,6.06c-.12.65-.44.73-1,.54A5.07,5.07,0,0,1,93.5,163.48Z"/><path class="cls-1" d="M104.76,165a6,6,0,0,1-4.11,1.28c-.7,0-.93-.3-.65-1a5.22,5.22,0,0,1,5.82-3.1c.53.13.62.39.44.83A4.38,4.38,0,0,1,104.76,165Z"/><path class="cls-1" d="M95.16,158.71a5,5,0,0,1-.81-4c.14-.73.47-.95,1.18-.54A5.58,5.58,0,0,1,98,159.74c-.13.63-.42.73-1,.51A4.88,4.88,0,0,1,95.16,158.71Z"/><path class="cls-1" d="M105.77,160.52a5.32,5.32,0,0,1-4,1.12c-.72-.06-.89-.38-.59-1a4.78,4.78,0,0,1,5.2-2.49c.74.2.92.59.47,1.22A4.37,4.37,0,0,1,105.77,160.52Z"/><path class="cls-1" d="M97.26,154.87a4.52,4.52,0,0,1-1-3.9c.17-.84.5-1,1.25-.5a4.94,4.94,0,0,1,1.91,5c-.16.58-.44.75-1,.45A4,4,0,0,1,97.26,154.87Z"/><path class="cls-1" d="M106.74,156.78a4.87,4.87,0,0,1-3.73.68c-.68-.14-.65-.54-.42-1a4.44,4.44,0,0,1,5-1.85.51.51,0,0,1,.25.84A4.71,4.71,0,0,1,106.74,156.78Z"/><path class="cls-1" d="M106.42,136.94c-1.47,2.82-3.11,5.56-4.47,8.44-.72,1.52-1.36,3.08-2,4.62-.19.44-.43.75-1,.52s-.33-.55-.18-.89A71.1,71.1,0,0,1,106.42,136.94Z"/><path class="cls-1" d="M113,141.16c-.84,1.49-1.71,3-2.51,4.47a55.49,55.49,0,0,0-3.16,6.66c-.1.27-.23.52-.35.77-.19.4-.4.81-.94.52s-.26-.67-.1-1a65.49,65.49,0,0,1,4.08-7.38c.9-1.4,1.86-2.76,2.8-4.14Z"/><path class="cls-1" d="M339.7,271.13a55.2,55.2,0,0,0-.84,6.27,114.58,114.58,0,0,1-5.3,22.08,91.14,91.14,0,0,1-9.25,19.27,88.44,88.44,0,0,1-26.67,26.94,4.45,4.45,0,0,1-.63.32c.11-.57.52-.71.8-.92A117.47,117.47,0,0,0,315,329.16a80,80,0,0,0,12.27-19.34,99.72,99.72,0,0,0,6.14-17.73,113.28,113.28,0,0,0,2.9-18.67c.24-3.23.4-6.46.37-9.69,0-.48-.07-1-.11-1.43l.08-1a58.7,58.7,0,0,0-.4-7.92c-.13.5-.27,1-.4,1.49a10.06,10.06,0,0,1-8.92,6.89c-.78,0-.94-.27-.91-1,.16-4.07,4.1-8.4,8.4-9.17,1.85-.33,1.88-.33,1.71-2.22s-.39-3.71-.69-5.56a20.93,20.93,0,0,1-1.41,3.78,10.58,10.58,0,0,1-7.5,5.05c-1.22.22-1.37,0-1.32-1.25a11.33,11.33,0,0,1,8.06-9.83c1.94-.51,2-.56,1.62-2.54-.32-1.8-.61-3.6-1-5.42A11.14,11.14,0,0,1,325,243.1c-.9.2-1.32,0-1.32-1a11.36,11.36,0,0,1,4.4-9,10.89,10.89,0,0,1,4.31-2.29c.39-.09.89-.18.81-.7a50.11,50.11,0,0,0-1.48-6.57c-.47,1.35-.77,2.37-1.18,3.34-1.45,3.47-4.25,5.37-7.71,6.46-.86.28-1.16-.16-1.22-.94a11.9,11.9,0,0,1,2.86-8.64,10.6,10.6,0,0,1,4.91-3.49,1.47,1.47,0,0,0,1-2.13c-.57-1.78-1.08-3.58-1.85-5.38a16.41,16.41,0,0,1-.42,2.11,12,12,0,0,1-7.8,8.15c-1,.35-1.4.08-1.55-.93a12.65,12.65,0,0,1,6.35-12.48c2.21-1.31,2.23-1.28,1.29-3.7a99.18,99.18,0,0,0-11.82-22.52,60.19,60.19,0,0,0-9.15-10.25c-1.35-1.17-1.33-1.25.37-2,.85-.35,1.72-.66,2.55-1a1.61,1.61,0,0,1,2,.36,75.67,75.67,0,0,1,12.93,17,123.37,123.37,0,0,1,7.3,16c.3.74.52,1.5.75,2.27a1.1,1.1,0,0,0,1.45.87c6.14-1.32,12,2.73,14,8.44.39,1.16.27,1.38-1,1.56-4.52.64-8.21-1-11.37-4.14-.34-.33-.67-.68-1-1l-.26-.13,1.69,6.24c.22.81.77.85,1.49.79a11.46,11.46,0,0,1,11.08,5.49,14,14,0,0,1,1.38,3c.53,1.43.29,1.79-1.27,1.82a12.75,12.75,0,0,1-10-4.39c-.45-.49-.85-1-1.31-1.6-.28.33-.08.65,0,.92.28,1.61.59,3.22.89,4.83.14.77.41,1.36,1.39,1.26,5-.47,9.92,2.9,11.55,8.38a5.78,5.78,0,0,1,.17.69c.24,1.22.07,1.47-1.15,1.44a11.83,11.83,0,0,1-8.72-3.87,21.39,21.39,0,0,1-2.37-3.07c.3,2.27.59,4.54.91,6.81.09.7.66.54,1.13.54a10.75,10.75,0,0,1,10.67,8.87c.3,1.69.09,1.93-1.62,1.71a11.18,11.18,0,0,1-8.93-6.23c-.13-.25-.26-.49-.41-.73-.05-.09-.16-.15-.43-.38.16,2.3.28,4.42.45,6.54.07.82.77.68,1.3.71a9.65,9.65,0,0,1,7.73,4.38,10.84,10.84,0,0,1,1.81,4.9c.16,1.4-.11,1.67-1.5,1.4a11,11,0,0,1-8.31-6.54c-.2-.43-.37-.88-.6-1.43a1.24,1.24,0,0,0-.26,1c0,1.72.07,3.43.05,5.15,0,.76.24,1.07,1,1.12a9.68,9.68,0,0,1,8.81,9.31c.06,1.37-.15,1.61-1.49,1.27a10.33,10.33,0,0,1-7.8-7.49,5.11,5.11,0,0,0-.58-1.49c-.09,2.68-.19,5.35-.28,8Z"/><path class="cls-1" d="M336.66,261.26l-.08,1c-.66,2.48-1.63,4.76-3.91,6.21a10.83,10.83,0,0,1-5.15,1.76c-1.14.08-1.44-.34-1.22-1.43a10.43,10.43,0,0,1,9.47-7.82A1.18,1.18,0,0,1,336.66,261.26Z"/><path class="cls-1" d="M339.7,271.13l0-.43c1.67-.6,3.09.24,4.35,1,3.14,2,4.41,5,4.34,8.63,0,.9-.56.93-1.22.76a9.61,9.61,0,0,1-5.71-4.23A12.59,12.59,0,0,1,339.7,271.13Z"/><path class="cls-1" d="M331.9,270.77a9.08,9.08,0,0,1,2.81-.62c1.43-.16,1.71.19,1.33,1.62a8.55,8.55,0,0,1-7.36,6.42c-.87.11-2,.56-2.59-.24s.19-1.66.53-2.45A10.11,10.11,0,0,1,331.9,270.77Z"/><path class="cls-1" d="M339.63,284.32a8.51,8.51,0,0,1-.75-4c0-1,.44-1.14,1.28-.9a9.19,9.19,0,0,1,6.31,9.61c-.11,1-.57,1.13-1.35.83A8.94,8.94,0,0,1,339.63,284.32Z"/><path class="cls-1" d="M330.51,279.36a8.39,8.39,0,0,1,3.84-.72c.78,0,1.07.33.87,1.13a8.27,8.27,0,0,1-9.29,6c-.72-.12-.77-.48-.59-1.11A8.23,8.23,0,0,1,330.51,279.36Z"/><path class="cls-1" d="M338.06,293.06a9,9,0,0,1-.61-4.7c.07-.67.38-.91,1-.68a8.2,8.2,0,0,1,5.37,9.73c-.16.76-.66.67-1.2.43A8.69,8.69,0,0,1,338.06,293.06Z"/><path class="cls-1" d="M329.05,292.44a8.25,8.25,0,0,1-4.08.33c-.74-.13-1-.5-.77-1.26,1-3.08,5.94-5.75,9.11-4.9.78.21.6.7.46,1.2A7.78,7.78,0,0,1,329.05,292.44Z"/><path class="cls-1" d="M340.86,299.82a8.25,8.25,0,0,1,.18,4.55c-.17.82-.6,1.1-1.36.68a8.41,8.41,0,0,1-4.12-9.36c.15-.64.57-.51,1-.36A7.88,7.88,0,0,1,340.86,299.82Z"/><path class="cls-1" d="M326.68,294.41a7.94,7.94,0,0,1,4-.64c1.39.05,1.62.5,1,1.72a7.19,7.19,0,0,1-8.52,3.53c-.68-.24-.78-.6-.44-1.17A7.51,7.51,0,0,1,326.68,294.41Z"/><path class="cls-1" d="M333.63,308.11a8.23,8.23,0,0,1-.56-4.67c.19-1.26.55-1.42,1.66-.85a7.28,7.28,0,0,1,3,8.71c-.31.73-.71.57-1.23.32A7.28,7.28,0,0,1,333.63,308.11Z"/><path class="cls-1" d="M326.32,304.72a6.29,6.29,0,0,1-4.8.13c-.7-.23-.83-.6-.44-1.26a7.49,7.49,0,0,1,8.14-3.06c.71.25.73.64.44,1.19A5.93,5.93,0,0,1,326.32,304.72Z"/><path class="cls-1" d="M334.54,312.07a6.62,6.62,0,0,1-.09,4.81c-.3.81-.75.86-1.36.39a7.3,7.3,0,0,1-2.43-8.17c.18-.65.63-.65,1.13-.37A6.19,6.19,0,0,1,334.54,312.07Z"/><path class="cls-1" d="M322,306.71a7.29,7.29,0,0,1,4.68-.24c.7.17.92.43.56,1.15-1.24,2.57-5.41,3.86-7.88,2.43-.63-.37-.6-.75-.2-1.25A6.7,6.7,0,0,1,322,306.71Z"/><path class="cls-1" d="M331.12,317a6.32,6.32,0,0,1-.16,5c-.3.68-.6.82-1.23.33a6.91,6.91,0,0,1-1.84-7.63c.31-.67.69-.66,1.21-.3A5.73,5.73,0,0,1,331.12,317Z"/><path class="cls-1" d="M319.24,312a6.78,6.78,0,0,1,4.88-.19c.77.24.93.6.42,1.3a6,6,0,0,1-7.3,1.68c-.54-.3-.56-.61-.23-1.05A4.94,4.94,0,0,1,319.24,312Z"/><path class="cls-1" d="M327.89,321.73a5.71,5.71,0,0,1-.28,4.57c-.36.75-.79.9-1.45.24a6.31,6.31,0,0,1-1.12-6.78c.33-.66.68-.68,1.21-.29A5.56,5.56,0,0,1,327.89,321.73Z"/><path class="cls-1" d="M316.81,316.61a6,6,0,0,1,4.65-.06c.78.27.86.68.34,1.33a5.44,5.44,0,0,1-6.44,1.18c-.75-.44-.82-.91-.15-1.47A4.84,4.84,0,0,1,316.81,316.61Z"/><path class="cls-1" d="M324.45,325.32a5.07,5.07,0,0,1-.11,4.55c-.43.87-.83.91-1.51.18a5.59,5.59,0,0,1-.62-6c.35-.59.71-.7,1.21-.2A4.39,4.39,0,0,1,324.45,325.32Z"/><path class="cls-1" d="M314.63,320.42a5.59,5.59,0,0,1,4.3.35c.69.36.54.79.16,1.24a5,5,0,0,1-6.07.53c-.41-.35-.39-.65,0-1A5.2,5.2,0,0,1,314.63,320.42Z"/><path class="cls-1" d="M309.11,342.25c2.44-2.66,5.05-5.17,7.4-7.92,1.24-1.45,2.4-3,3.59-4.47.33-.42.69-.69,1.2-.29s.19.71-.08,1A80.9,80.9,0,0,1,309.11,342.25Z"/><path class="cls-1" d="M303.11,335.67c1.37-1.39,2.76-2.75,4.09-4.16a64.61,64.61,0,0,0,5.43-6.36c.19-.26.4-.5.61-.74s.68-.77,1.19-.28.07.8-.2,1.13a73.33,73.33,0,0,1-6.66,6.88c-1.39,1.28-2.86,2.48-4.29,3.71Z"/><path class="cls-1" d="M30.91,321.76c3.15-1,6.27-2,9.35-3.21A155.89,155.89,0,0,0,95.62,283a7,7,0,0,1,2.56-1.89A2.34,2.34,0,0,1,101,282a3.21,3.21,0,0,1,.2,1.6c-.16,2.92-1.21,5.6-1.56,8.46q-.7,6-1,12.09-.35,7.77,0,15.56c.12,2.39-.59,11.07,2.26,12.07,1.39.49,4.7-.52,6.21-.68a89.66,89.66,0,0,0,11.17-1.71c6.19-1.45,12.33-4.06,18.18-6.53a146.3,146.3,0,0,0,39.27-24.13c5.95-5.21,6.44-8-.6-13-3.65-2.62-11.23-5.77-15.76-3.58,11.74-5.69,24.63-8.84,36.1-15.05,15.42-8.34,21.39-21.82,27.76-37.18,5.45-13.14,9.85-28.44,24.21-34.46a38.17,38.17,0,0,1,35.08,3.29,34.66,34.66,0,0,1,15.19,22.6,156.09,156.09,0,0,1,.08,56.85c-3.49,19-3.5,35.51,1.35,54.55-5.42-2.58-11.86-.59-17.28,2-14.72,7-19.68,18.22-31.07,28.83a159,159,0,0,1-100,42.46,145.88,145.88,0,0,1-43.4-4.23c-3-.77-7.51-2.05-10.58-.6-7.09,3.34-6.51,12.73-6.21,19.25.33,7.43-4.41,6.64-8.91,2-23.29-24.24-46.15-49-67.74-74.75C8.94,341.56,2.4,335.19,0,327.42c6.79,1.35,12-.93,18.62-2.4Q24.83,323.63,30.91,321.76Z"/><path class="cls-1" d="M384.62,91.8q-4.37,2.31-8.59,4.9A156,156,0,0,0,328.31,142a7,7,0,0,1-2.16,2.33,2.32,2.32,0,0,1-2.92-.35,3.13,3.13,0,0,1-.51-1.53c-.39-2.89.15-5.72-.05-8.6-.28-4-.72-8.06-1.3-12.06q-1.11-7.7-2.95-15.27c-.57-2.33-1.5-11-4.49-11.43-1.46-.23-4.52,1.38-6,1.82a92.83,92.83,0,0,0-10.65,3.77c-5.81,2.6-11.36,6.31-16.64,9.83-14.34,9.55-37.55,25.18-34.11,45.29,1.87,10.91,9.43,21.14,20,24.34L245.73,189c-13.93,5.91-30.34,13-33,29-2.35,13.95-4.31,30-17.15,38.52a38.23,38.23,0,0,1-35.08,3.34,34.59,34.59,0,0,1-19.15-19.36c-5.58-14.21-9.68-29.89-13.33-44.65q-4-16-7.91-31.95a127.86,127.86,0,0,1-3.23-15.94c.36,3.14,11.9,1.33,13.53.7,5.42-2.07,5.46-4,7-8.69,3.43-10.57,6.84-20.62,12.26-30.49A159.08,159.08,0,0,1,251,31.48a146.62,146.62,0,0,1,43.43-4c3.14.19,7.76.61,10.51-1.39,6.33-4.61,4-13.72,2.49-20.08-1.72-7.23,3.09-7.34,8.39-3.59,27.42,19.45,54.51,39.45,80.54,60.73,6.14,5.06,13.76,10.09,17.57,17.27-6.91,0-11.64,3.17-17.84,5.85Q390.24,88.83,384.62,91.8Z"/></g></g></svg>