<svg xmlns="http://www.w3.org/2000/svg" viewBox="0 0 879.39 913.67"><defs><style>.cls-1{fill:#fff;}</style></defs><g id="Layer_2" data-name="Layer 2"><g id="Layer_1-2" data-name="Layer 1"><path class="cls-1" d="M205.52,438.53c0-4-1.05-7.9-1.55-11.86a216.52,216.52,0,0,1-1.24-42.89,173,173,0,0,1,7.38-39.7,167,167,0,0,1,35.35-62.32,11.86,11.86,0,0,1,1-.9c.08,1.11-.6,1.55-1,2.09a221.85,221.85,0,0,0-23.51,37.54,151.11,151.11,0,0,0-12.84,41.34,185.64,185.64,0,0,0-2.45,35.38,215,215,0,0,0,3.9,35.49c1.16,6,2.46,12,4.12,17.85.24.87.59,1.7.9,2.55l.37,1.94a111.75,111.75,0,0,0,4.63,14.26c0-1,0-1.95,0-2.92,0-7.28,5.88-14.93,12.87-17,1.4-.41,1.85,0,2.15,1.35,1.71,7.51-3.35,17.36-10.8,20.87-3.22,1.52-3.27,1.54-2,4.9s2.55,6.57,4,9.82c.23-2.57,0-5.11.72-7.6a19.9,19.9,0,0,1,11.17-12.91c2.12-1,2.49-.76,3,1.62,1.79,8-2.6,17.8-9.84,21.92-3.3,1.87-3.32,2-1.7,5.42,1.46,3.12,2.87,6.27,4.53,9.39a20.65,20.65,0,0,1,2.54-13.33,20.93,20.93,0,0,1,8.9-8.43c1.54-.81,2.41-.66,2.91,1.24a21.45,21.45,0,0,1-3.56,18.68,20.57,20.57,0,0,1-6.73,6.29c-.68.37-1.53.78-1.14,1.68a94.74,94.74,0,0,0,6,11.26c.19-2.7.22-4.7.48-6.67,1-7,5.11-11.89,10.88-15.6,1.44-.92,2.21-.27,2.71,1.12,2.1,5.86,1.47,11.57-1,17.17a20.27,20.27,0,0,1-7.24,8.8c-1.83,1.25-2,2.61-.82,4.39a106.79,106.79,0,0,0,6,8.89,36.72,36.72,0,0,1-.27-4,22.71,22.71,0,0,1,10.22-18.72c1.59-1.11,2.51-.83,3.28.93,3.65,8.3,1.58,18.65-5.43,25.91-3.37,3.48-3.44,3.43-.53,7.39,9.54,13,20.11,25.05,32.67,35.24a114.44,114.44,0,0,0,21.76,14.19c3,1.48,3.05,1.62.29,3.75-1.37,1.06-2.8,2.06-4.12,3.18a3,3,0,0,1-3.9.36c-11.93-6.56-22.37-15-32-24.63-7.88-7.87-14.57-16.69-21.22-25.57-.9-1.2-1.69-2.5-2.48-3.78a2.08,2.08,0,0,0-3.07-.87c-10.55,5.44-23.32,1-29.68-8.49-1.3-1.93-1.19-2.4,1-3.33,7.93-3.39,15.48-2.2,22.78,1.94.79.44,1.56.91,2.35,1.36.06,0,.15,0,.55.12-2.14-3.65-4.17-7.1-6.18-10.56-.8-1.37-1.82-1.18-3.1-.71-8.54,3.08-16.16,1.34-22.93-4.54a26.18,26.18,0,0,1-4-4.88c-1.66-2.35-1.42-3.13,1.42-3.95a24.19,24.19,0,0,1,20.38,3.08c1.07.68,2.06,1.48,3.16,2.28.35-.75-.15-1.22-.38-1.71-1.31-2.8-2.66-5.58-4-8.36-.64-1.33-1.43-2.27-3.17-1.62-8.91,3.34-19.52-.38-25.19-9.58-.24-.39-.47-.78-.67-1.18-1-2.11-.83-2.64,1.4-3.19a22.36,22.36,0,0,1,17.83,2.75,41,41,0,0,1,5.83,4.43c-1.67-4-3.32-8-5-12-.53-1.24-1.49-.66-2.34-.43A20.35,20.35,0,0,1,196,483.56c-1.37-2.94-1.11-3.47,2.12-3.92a21.09,21.09,0,0,1,19.36,7c.36.38.72.77,1.1,1.13a5.68,5.68,0,0,0,1,.48c-1.42-4.12-2.69-7.93-4.05-11.72-.52-1.45-1.74-.85-2.72-.64a18.19,18.19,0,0,1-16.26-4.19,20.42,20.42,0,0,1-5.72-8c-1-2.47-.62-3.11,2.05-3.3a20.85,20.85,0,0,1,18.39,7.83c.58.69,1.1,1.43,1.79,2.32a2.36,2.36,0,0,0,0-2c-.87-3.13-1.83-6.23-2.63-9.37-.36-1.38-1-1.83-2.4-1.54-9.6,1.94-18.08-4.57-20.66-12.64-.79-2.48-.53-3,2.08-3.05,7.82-.13,13.8,3.18,17.92,9.82a10.53,10.53,0,0,0,1.8,2.43l-3.45-14.79C205.63,439.07,205.57,438.8,205.52,438.53Z"/><path class="cls-1" d="M215.94,455l-.37-1.94c0-4.84.62-9.48,4.07-13.25a20.41,20.41,0,0,1,8.52-5.76c2.05-.69,2.81-.09,2.94,2,.48,8-5.62,16.62-13.41,18.93A2.26,2.26,0,0,1,215.94,455Z"/><path class="cls-1" d="M205.52,438.53c0,.27.11.54.16.81-2.74,1.91-5.74,1.09-8.44.27-6.7-2-10.5-6.92-12.18-13.59-.41-1.66.57-2,1.86-2a18.05,18.05,0,0,1,12.5,4.89A23.71,23.71,0,0,1,205.52,438.53Z"/><path class="cls-1" d="M219.94,435.35a17,17,0,0,1-4.83,2.51c-2.53,1-3.21.49-3.23-2.3a16.17,16.17,0,0,1,10.26-15.34c1.54-.63,3.4-2,4.84-.85s.47,3.13.24,4.74C226.67,427.94,223.78,432.38,219.94,435.35Z"/><path class="cls-1" d="M199.15,414.44a16.23,16.23,0,0,1,3.37,7c.49,1.83-.26,2.3-1.91,2.27a17.35,17.35,0,0,1-16.25-14.41c-.29-1.87.48-2.36,2.07-2.18A16.85,16.85,0,0,1,199.15,414.44Z"/><path class="cls-1" d="M218.23,419a15.82,15.82,0,0,1-6.65,3.21c-1.44.35-2.11-.08-2.14-1.64-.16-8.79,7-14.69,14-15.46,1.37-.15,1.64.48,1.63,1.72C225,411.28,222.72,415.54,218.23,419Z"/><path class="cls-1" d="M197.7,397.73a17.05,17.05,0,0,1,3.43,8.26c.21,1.27-.24,1.85-1.57,1.76-8.3-.59-14.05-6.79-14.59-15.11-.09-1.46.88-1.54,2-1.38A16.45,16.45,0,0,1,197.7,397.73Z"/><path class="cls-1" d="M214.44,394.41a15.75,15.75,0,0,1,7.28-2.63c1.42-.12,2.1.42,2,1.93-.27,6.11-8,13.42-14.2,13.43-1.54,0-1.45-1-1.43-2C208.19,401.51,210.47,397.43,214.44,394.41Z"/><path class="cls-1" d="M189.26,386.77a15.67,15.67,0,0,1-2.59-8.22c-.09-1.58.56-2.3,2.16-1.91A15.89,15.89,0,0,1,201,391.69c.05,1.24-.79,1.22-1.69,1.16C196,392.65,191.89,390.29,189.26,386.77Z"/><path class="cls-1" d="M217.79,389.64a15,15,0,0,1-6.95,3.13c-2.55.59-3.2-.1-2.73-2.63a13.57,13.57,0,0,1,13.8-10.63c1.36.09,1.71.7,1.38,1.91A14.29,14.29,0,0,1,217.79,389.64Z"/><path class="cls-1" d="M198.36,368.07a15.6,15.6,0,0,1,3.32,8.26c.27,2.38-.31,2.85-2.62,2.36-5.91-1.26-10.68-8.29-9.84-14.39.21-1.48,1-1.4,2.08-1.19C193.48,363.53,196.5,365.64,198.36,368.07Z"/><path class="cls-1" d="M213.37,370.64a11.86,11.86,0,0,1,8.69-2.58c1.39.07,1.79.67,1.42,2.06-1.45,5.38-7.86,10-13.35,9.61-1.4-.1-1.64-.81-1.39-1.94A11.24,11.24,0,0,1,213.37,370.64Z"/><path class="cls-1" d="M194.74,361.31a12.49,12.49,0,0,1-2.2-8.82c.14-1.63.94-1.94,2.28-1.39,5.83,2.43,8.56,7.66,8.47,13.71,0,1.27-.83,1.48-1.88,1.22A11.68,11.68,0,0,1,194.74,361.31Z"/><path class="cls-1" d="M220.26,364.9a13.91,13.91,0,0,1-8.41,2.75c-1.36,0-1.89-.34-1.61-1.83,1-5.3,8-9.72,13.19-8.31,1.33.35,1.46,1.06,1,2.17A12.59,12.59,0,0,1,220.26,364.9Z"/><path class="cls-1" d="M198.54,350.62a12,12,0,0,1-2.19-9.27c.22-1.4.69-1.79,2.09-1.22,4.52,1.88,8,8.19,7.12,13-.25,1.39-.94,1.55-2.07,1.16A11,11,0,0,1,198.54,350.62Z"/><path class="cls-1" d="M222.68,353.88a12.72,12.72,0,0,1-8.81,2.75c-1.51-.05-2-.63-1.4-2.16,1.87-4.79,7.6-7.86,12.49-6.66,1.12.28,1.32.84.93,1.79A9.25,9.25,0,0,1,222.68,353.88Z"/><path class="cls-1" d="M202.1,340.4a10.8,10.8,0,0,1-1.74-8.48c.29-1.55,1-2,2.52-1.15a11.93,11.93,0,0,1,5.4,11.82c-.28,1.37-.92,1.57-2.07,1.12A10.69,10.69,0,0,1,202.1,340.4Z"/><path class="cls-1" d="M224.84,344.28a11.36,11.36,0,0,1-8.46,2.4c-1.55-.12-1.9-.83-1.26-2.26a10.26,10.26,0,0,1,11.15-5.33c1.59.43,2,1.25,1,2.61A9.34,9.34,0,0,1,224.84,344.28Z"/><path class="cls-1" d="M206.6,332.15a9.65,9.65,0,0,1-2-8.36c.37-1.79,1.08-2.07,2.68-1.07,3.18,2,5.12,7.11,4.1,10.7-.35,1.25-1,1.62-2.12,1A8.61,8.61,0,0,1,206.6,332.15Z"/><path class="cls-1" d="M226.94,336.26a10.55,10.55,0,0,1-8,1.46c-1.44-.31-1.37-1.16-.89-2.18,1.58-3.34,7.51-5.48,10.8-4,.92.43,1,1,.55,1.78A10.06,10.06,0,0,1,226.94,336.26Z"/><path class="cls-1" d="M226.25,293.7c-3.16,6.05-6.66,11.92-9.6,18.09-1.54,3.27-2.91,6.61-4.34,9.93-.4.93-.92,1.61-2.05,1.11-1-.43-.71-1.18-.37-1.9A151.76,151.76,0,0,1,226.25,293.7Z"/><path class="cls-1" d="M240.43,302.75c-1.8,3.19-3.67,6.36-5.4,9.59a122,122,0,0,0-6.78,14.29c-.21.56-.48,1.11-.74,1.65-.41.85-.87,1.74-2,1.1s-.55-1.43-.2-2.17A140.07,140.07,0,0,1,234,311.38c1.92-3,4-5.93,6-8.89Z"/><path class="cls-1" d="M726.58,581.51c-1.15,4.41-1.19,9-1.82,13.45a246.24,246.24,0,0,1-11.35,47.36,195.91,195.91,0,0,1-19.85,41.31,189.61,189.61,0,0,1-57.19,57.8c-.34.22-.72.37-1.36.69.25-1.24,1.12-1.53,1.73-2A252.32,252.32,0,0,0,673.61,706a171.16,171.16,0,0,0,26.32-41.49,211.28,211.28,0,0,0,13.17-38,242.73,242.73,0,0,0,6.23-40c.51-6.92.85-13.84.78-20.78,0-1-.15-2-.22-3l.17-2.24c.27-5.65-.37-11.27-.86-17l-.87,3.2c-2.19,8-10.87,14.61-19.13,14.78-1.66,0-2-.59-2-2.13.35-8.73,8.82-18,18-19.66,4-.71,4-.72,3.68-4.77s-.84-7.95-1.48-11.93c-1,2.74-1.5,5.6-3,8.11a22.59,22.59,0,0,1-16.06,10.83c-2.62.47-3,.1-2.83-2.67.41-9.32,8.11-18.73,17.26-21.1,4.17-1.08,4.22-1.18,3.48-5.43-.68-3.86-1.3-7.73-2.19-11.63a23.39,23.39,0,0,1-6.72,13.84,23.76,23.76,0,0,1-12.25,6.61c-1.94.43-2.84,0-2.83-2.22,0-8,3.4-14.4,9.44-19.41a23.18,23.18,0,0,1,9.24-4.9c.84-.21,1.91-.4,1.74-1.51a107.12,107.12,0,0,0-3.19-14.1c-1,2.91-1.64,5.09-2.51,7.17-3.12,7.44-9.12,11.51-16.54,13.86-1.85.59-2.5-.35-2.63-2-.57-7,1.81-13.11,6.13-18.54a23,23,0,0,1,10.54-7.48c2.38-.83,2.94-2.28,2.21-4.57-1.21-3.82-2.32-7.67-4-11.52a40,40,0,0,1-.9,4.51,25.75,25.75,0,0,1-16.74,17.48c-2.08.75-3,.18-3.32-2-1.54-10.16,3.79-20.9,13.62-26.77,4.73-2.82,4.79-2.74,2.78-7.93-6.61-17.07-14.61-33.41-25.36-48.3a129,129,0,0,0-19.63-22c-2.89-2.53-2.85-2.69.79-4.2,1.82-.76,3.68-1.43,5.46-2.26a3.45,3.45,0,0,1,4.38.76c11.13,10.72,20,23.09,27.73,36.45,6.31,11,11,22.61,15.68,34.3.63,1.59,1.11,3.24,1.6,4.88a2.35,2.35,0,0,0,3.1,1.86c13.17-2.83,25.83,5.87,30,18.1.85,2.49.6,3-2.08,3.35-9.69,1.37-17.61-2.18-24.37-8.87-.73-.72-1.45-1.46-2.17-2.19a5.21,5.21,0,0,0-.57-.29c1.26,4.63,2.46,9,3.64,13.4.47,1.73,1.65,1.82,3.18,1.7,10.27-.86,18.11,3.31,23.78,11.76a29.89,29.89,0,0,1,3,6.54c1.13,3.06.62,3.85-2.73,3.91-8.56.14-15.65-3.17-21.41-9.42-1-1.06-1.82-2.23-2.79-3.43-.61.72-.19,1.38-.09,2,.61,3.45,1.27,6.9,1.92,10.35.31,1.65.89,2.91,3,2.71,10.75-1,21.27,6.2,24.76,18,.14.5.28,1,.38,1.5.5,2.61.13,3.14-2.48,3.07a25.41,25.41,0,0,1-18.71-8.29,47.11,47.11,0,0,1-5.08-6.58c.64,4.86,1.27,9.73,1.95,14.59.21,1.5,1.43,1.16,2.43,1.16a23.07,23.07,0,0,1,22.89,19c.64,3.62.2,4.13-3.47,3.67-8.72-1.1-15.07-5.62-19.15-13.36-.28-.53-.56-1.06-.88-1.57a6.58,6.58,0,0,0-.92-.82c.33,4.93.59,9.49,1,14,.14,1.74,1.65,1.45,2.79,1.51a20.66,20.66,0,0,1,16.57,9.4,23.32,23.32,0,0,1,3.88,10.51c.34,3-.24,3.59-3.22,3a23.61,23.61,0,0,1-17.82-14c-.43-.93-.79-1.89-1.28-3.07a2.68,2.68,0,0,0-.57,2.18c0,3.68.16,7.37.11,11,0,1.62.51,2.28,2.17,2.39,11.09.73,18.46,10.37,18.89,20,.13,3-.31,3.45-3.19,2.73-8.6-2.18-14.17-7.57-16.72-16.07a11.53,11.53,0,0,0-1.25-3.19q-.3,8.61-.61,17.22C726.62,580.89,726.6,581.2,726.58,581.51Z"/><path class="cls-1" d="M720.06,560.34l-.17,2.24c-1.43,5.3-3.5,10.2-8.4,13.31a23.16,23.16,0,0,1-11,3.78c-2.45.16-3.11-.74-2.62-3.08,1.84-8.93,11.07-16.55,20.3-16.77A2.64,2.64,0,0,1,720.06,560.34Z"/><path class="cls-1" d="M726.58,581.51c0-.31,0-.62,0-.93,3.58-1.28,6.62.51,9.34,2.2,6.74,4.2,9.45,10.69,9.31,18.5,0,1.94-1.2,2-2.62,1.62a20.49,20.49,0,0,1-12.24-9.06C728,590.08,727,585.88,726.58,581.51Z"/><path class="cls-1" d="M709.84,580.73a19.17,19.17,0,0,1,6-1.32c3.06-.36,3.65.41,2.84,3.48A18.31,18.31,0,0,1,703,596.65c-1.88.24-4.33,1.21-5.56-.51-1.1-1.54.41-3.56,1.14-5.26C700.27,586.85,704.75,582.84,709.84,580.73Z"/><path class="cls-1" d="M726.41,609.79c-1.35-2.51-1.6-5.54-1.61-8.66,0-2.15,1-2.44,2.77-1.92,8.58,2.52,14.5,11.59,13.52,20.6-.23,2.13-1.22,2.43-2.9,1.77C732.68,619.41,728.56,615.81,726.41,609.79Z"/><path class="cls-1" d="M706.86,599.15a18.06,18.06,0,0,1,8.24-1.54c1.68,0,2.29.72,1.86,2.43-2.43,9.67-12.07,14-19.92,12.79-1.54-.24-1.65-1-1.27-2.36C697.13,605.59,700.92,601.6,706.86,599.15Z"/><path class="cls-1" d="M723.05,628.53a19.45,19.45,0,0,1-1.31-10.06c.15-1.46.82-2,2.24-1.47,8.92,3.11,13.39,11.6,11.51,20.88-.33,1.62-1.41,1.42-2.57.92A18.71,18.71,0,0,1,723.05,628.53Z"/><path class="cls-1" d="M703.74,627.2a17.8,17.8,0,0,1-8.77.73c-1.58-.29-2.16-1.09-1.65-2.71,2.11-6.62,12.75-12.33,19.54-10.51,1.69.45,1.3,1.5,1,2.58C712.69,621.28,709,625.08,703.74,627.2Z"/><path class="cls-1" d="M729.05,643a17.7,17.7,0,0,1,.4,9.78c-.37,1.75-1.29,2.35-2.93,1.45a18.05,18.05,0,0,1-8.82-20.08c.32-1.37,1.23-1.1,2.2-.77C723.45,634.61,727.22,638.41,729.05,643Z"/><path class="cls-1" d="M698.65,631.44c2.56-1.33,5.55-1.48,8.54-1.37s3.48,1.06,2.21,3.69c-3.11,6.49-11.46,9.91-18.27,7.56-1.45-.51-1.67-1.28-.94-2.5A16.19,16.19,0,0,1,698.65,631.44Z"/><path class="cls-1" d="M713.55,660.83a17.72,17.72,0,0,1-1.2-10c.42-2.7,1.18-3,3.57-1.82,6.11,3.13,9.25,12.25,6.52,18.68-.66,1.56-1.54,1.23-2.64.7C717.55,667.25,714.86,664,713.55,660.83Z"/><path class="cls-1" d="M697.87,653.56a13.45,13.45,0,0,1-10.29.26c-1.5-.49-1.77-1.27-1-2.69,3.18-5.46,11.58-8.61,17.47-6.57,1.51.53,1.56,1.38.95,2.55A12.8,12.8,0,0,1,697.87,653.56Z"/><path class="cls-1" d="M715.51,669.31a14.16,14.16,0,0,1-.21,10.31c-.64,1.74-1.6,1.85-2.9.84-5.67-4.39-7.11-10.92-5.22-17.53.4-1.37,1.35-1.37,2.42-.77A13.25,13.25,0,0,1,715.51,669.31Z"/><path class="cls-1" d="M688.62,657.81a15.71,15.71,0,0,1,10-.52c1.5.37,2,.93,1.22,2.49-2.67,5.51-11.62,8.27-16.91,5.19-1.35-.78-1.28-1.6-.42-2.66A14.31,14.31,0,0,1,688.62,657.81Z"/><path class="cls-1" d="M708.18,679.89a13.6,13.6,0,0,1-.35,10.8c-.65,1.47-1.29,1.76-2.65.72-4.4-3.39-6.32-11.34-3.95-16.36.69-1.45,1.49-1.43,2.61-.66A12.4,12.4,0,0,1,708.18,679.89Z"/><path class="cls-1" d="M682.7,669.16a14.48,14.48,0,0,1,10.47-.4c1.63.51,2,1.29.89,2.78-3.47,4.7-10.65,6.36-15.66,3.6-1.15-.64-1.2-1.31-.49-2.24A10.56,10.56,0,0,1,682.7,669.16Z"/><path class="cls-1" d="M701.24,690a12.2,12.2,0,0,1-.6,9.81c-.78,1.61-1.69,1.92-3.1.5a13.51,13.51,0,0,1-2.41-14.54c.71-1.42,1.47-1.45,2.59-.61A11.87,11.87,0,0,1,701.24,690Z"/><path class="cls-1" d="M677.49,679a12.88,12.88,0,0,1,10-.12c1.67.59,1.85,1.47.72,2.85-3.07,3.74-9.62,5-13.8,2.53-1.62-.94-1.77-1.95-.34-3.15A10.68,10.68,0,0,1,677.49,679Z"/><path class="cls-1" d="M693.87,697.74a10.94,10.94,0,0,1-.24,9.76c-.93,1.86-1.79,1.94-3.25.38-2.89-3.11-3.5-9.3-1.32-12.94.75-1.26,1.52-1.49,2.6-.43A9.47,9.47,0,0,1,693.87,697.74Z"/><path class="cls-1" d="M672.81,687.21A12,12,0,0,1,682,688c1.48.76,1.16,1.68.33,2.66-2.72,3.19-9.86,3.78-13,1.12-.88-.74-.83-1.39-.06-2.11A11.08,11.08,0,0,1,672.81,687.21Z"/><path class="cls-1" d="M661,734c5.24-5.7,10.83-11.09,15.87-17,2.66-3.12,5.15-6.38,7.7-9.59.72-.9,1.49-1.49,2.57-.61s.43,1.51-.15,2.2A174,174,0,0,1,661,734Z"/><path class="cls-1" d="M648.1,719.92C651,717,654,714,656.86,711a137.9,137.9,0,0,0,11.66-13.65c.4-.55.86-1.06,1.3-1.58.7-.81,1.47-1.65,2.55-.61s.16,1.73-.43,2.44a157.73,157.73,0,0,1-14.27,14.75c-3,2.73-6.14,5.31-9.21,8Z"/><path class="cls-1" d="M66.29,690.09q10.13-3.14,20.06-6.87A334.5,334.5,0,0,0,205.08,607c1.62-1.62,3.31-3.32,5.49-4s5-.14,6,1.92a6.82,6.82,0,0,1,.45,3.42c-.35,6.25-2.62,12-3.35,18.15q-1.55,12.91-2.12,25.92c-.5,11.11-.47,22.25.09,33.36.26,5.15-1.27,23.75,4.86,25.9,3,1.05,10.08-1.11,13.31-1.46a193.4,193.4,0,0,0,23.95-3.66c13.28-3.12,26.46-8.72,39-14,30.2-12.73,59.5-30.15,84.22-51.77,12.76-11.16,13.83-17.09-1.29-27.92-7.83-5.62-24.09-12.37-33.79-7.67,25.18-12.21,52.82-19,77.43-32.29,22.74-12.3,40.63-32.4,46-58,9.18-43.59,39.69-98.14,90.5-101.55A82.46,82.46,0,0,1,606,426.29a74.3,74.3,0,0,1,32.58,48.48,334.45,334.45,0,0,1,.18,121.92c-7.49,40.72-7.51,76.15,2.89,117-11.62-5.54-25.44-1.28-37.06,4.27-31.57,15.08-42.22,39.09-66.65,61.84a341,341,0,0,1-214.41,91.07,313.16,313.16,0,0,1-93.09-9.08c-6.53-1.66-16.1-4.4-22.7-1.29-15.2,7.18-13.95,27.3-13.32,41.3.71,15.92-9.46,14.23-19.11,4.19-50-52-99-105-145.27-160.31C19.17,732.57,5.15,718.9,0,702.24c14.55,2.89,25.82-2,39.94-5.16Q53.25,694.11,66.29,690.09Z"/><path class="cls-1" d="M823,197.12A311,311,0,0,0,706.74,299.07c-1.93,2.83-3.94,5.82-7,7.41C687,313.23,689,281.92,688.23,275.25c-1.94-17.74-4-35.46-6-53.19-1.29-11.29-6-21.44-19-17-35.1,12.11-69,30.09-97.11,54.57-21,18.27-44.48,44.35-39.34,74.44,1.84,10.75,7.78,19.18,15.12,26.95,4.09,4.32,24.21,16.2,18.38,23.76a11.16,11.16,0,0,1-3.84,2.78c-9.58,5-19.14,10-28.8,14.84-9.36,4.7-24.11,9.3-31.55,16.73-25.39,14.93-38.39,34.7-45,62.65-5.95,24.95-10.64,52.91-33.68,68.21-21.93,14.55-50.92,17.12-75.23,7.16C321.07,548.54,307,531,299.34,510c-15.28-41.75-24.56-85.32-37.78-127.72-5.28-17-16.18-37-13.58-55.2,1.74-12.26,21.4-5.45,28.92-9.58a40.47,40.47,0,0,0,18.67-22.07c11.67-34.09,23.32-64.53,44.43-94.33a339.46,339.46,0,0,1,75.08-76.57C475.79,79.6,553.35,54.42,629.44,59c6.73.41,16.64,1.31,22.53-3,13.6-9.9,8.6-29.44,5.36-43.07-3.69-15.5,6.62-15.75,18-7.7Q733,46.18,789.3,89.13q27.71,21.28,54.87,43.24c9,7.32,18.14,14.62,27,22.17,6.37,5.44,11.73,10.17,5.39,17.51-5.14,5.94-14.2,8.62-21.32,11.19A291.88,291.88,0,0,0,823,197.12Z"/></g></g></svg>